<?xml version="1.0" encoding="utf-8"?>
<!-- Generator: Adobe Illustrator 20.1.0, SVG Export Plug-In . SVG Version: 6.00 Build 0)  -->
<svg version="1.1" id="Capa_1" xmlns="http://www.w3.org/2000/svg" xmlns:xlink="http://www.w3.org/1999/xlink" x="0px" y="0px"
	 viewBox="0 0 904 836" style="enable-background:new 0 0 904 836;" xml:space="preserve">
<style type="text/css">
	.st0{fill:#FFFDFF;}
	.st1{fill:#021D3B;}
	.st2{fill:#FE6603;}
	.st3{fill:#FFFFFF;}
	.st4{fill:#282828;}
	.st5{fill:#F19B2C;}
	.st6{fill:#2D3E4E;}
	.st7{opacity:0.5;}
	.st8{fill:#3081B8;}
	.st9{fill:none;stroke:#282828;stroke-width:10;stroke-miterlimit:10;}
	.st10{opacity:0.15;fill:#232323;}
	.st11{opacity:0.2;fill:#232323;}
</style>
<g>
	<polygon class="st10" points="456.7,836.4 211.5,656.6 200.1,628 209.1,593.4 538.5,151.6 559.7,159.2 823.9,352.9 798.3,464.3 
		719,615.5 610.5,747 	"/>
	<g>
		<path class="st6" d="M574.3,167c-37.9-33.9-96.2-30.6-130.1,7.4c-20.1,22.5-27.1,52.2-21.6,79.7l0,0l-181,229.8l22.6,20.1
			c-5.8,5.8-76,77.7-62.4,131.2c5.4,21.4,23.1,36.7,52.5,45.3c2.1,0.6,52,15.3,123.2-45.4c27.9-22.7,106.4-75.4,135.2-48.4l0.4,0.4
			l0.5,0.3c0.3,0.2,29.3,21.6,5.9,94.9l13.1,4.2c25.4-79.5-5.9-106.5-10.9-110.1c-18.8-17.3-50.6-14.1-94.6,9.4
			c-31.4,16.8-57.3,37.8-58.4,38.7l-0.1,0.1c-65,55.3-109.9,42.9-110.4,42.7c-24.5-7.2-39-19.1-43.1-35.5
			c-11.9-47,58.4-117.6,59.1-118.3l-4.8-4.9l27.7,24.7l207.9-205.8l0,0c27.9,2.4,56.6-7.9,76.7-30.4
			C615.5,259.1,612.2,200.8,574.3,167z"/>
		
			<rect x="414.1" y="312.5" transform="matrix(0.746 0.666 -0.666 0.746 331.4868 -195.7608)" class="st4" width="16.6" height="48.3"/>
	</g>
</g>
</svg>
