<?xml version="1.0" encoding="utf-8"?>
<!-- Generator: Adobe Illustrator 20.1.0, SVG Export Plug-In . SVG Version: 6.00 Build 0)  -->
<svg version="1.1" id="Capa_1" xmlns="http://www.w3.org/2000/svg" xmlns:xlink="http://www.w3.org/1999/xlink" x="0px" y="0px"
	 viewBox="0 0 1834 358" style="enable-background:new 0 0 1834 358;" xml:space="preserve">
<style type="text/css">
	.st0{fill:#FFFDFF;}
	.st1{fill:#021D3B;}
	.st2{fill:#FE6603;}
	.st3{fill:#FFFFFF;}
	.st4{fill:#282828;}
	.st5{fill:#F19B2C;}
	.st6{fill:#2D3E4E;}
	.st7{fill:#3081B8;}
</style>
<rect x="677.4" y="92.6" transform="matrix(-1 -1.224647e-16 1.224647e-16 -1 1512.5782 388.1029)" class="st4" width="157.8" height="202.8"/>
<rect x="519.5" y="92.6" transform="matrix(-1 -1.224647e-16 1.224647e-16 -1 1196.9115 388.1029)" class="st5" width="157.8" height="202.8"/>
<g>
	<g>
		<path class="st6" d="M61.1,55.4h95.4c19,0,34.5,5.3,46.8,15.9c12.2,10.6,18.3,31.2,18.3,61.8c0,53-21.1,79.5-63.3,79.5
			c-6.5,0-15-0.6-25.4-1.7c-10.4-1.1-19.3-2.2-26.6-3.2v74H61.1V55.4z M151.3,171.9c8.1,0,14.3-3.1,18.5-9.2
			c4.2-6.1,6.3-15.9,6.3-29.3c0-24.9-7.9-37.3-23.8-37.3h-45.9v75.8H151.3z"/>
		<path class="st6" d="M248.8,117.5h34.9l10.4,25.1c6.5-8.6,13.5-15.2,20.9-20c7.4-4.8,15.9-7.2,25.5-7.2c5.3,0,9.8,0.5,13.5,1.5
			v46.5c-10.6-1-17-1.5-19.3-1.5c-8.8,0-16.3,1.4-22.6,4.3c-6.3,2.9-12.3,7.3-18,13.5v102.1h-45.2V117.5z"/>
		<path class="st6" d="M403.5,275.8c-10.6-4.9-18.3-13.3-23.1-25.4c-4.8-12-7.2-28.9-7.2-50.7c0-22.4,2.2-39.7,6.7-51.8
			c4.5-12.1,11.9-20.6,22.2-25.5c10.3-4.9,24.8-7.3,43.6-7.3c16.7,0,29.9,1.6,39.4,4.9c9.6,3.3,16.6,9,20.9,17.1
			c4.4,8.2,6.6,19.7,6.6,34.5c0,15.9-4.5,27.2-13.6,33.9c-9.1,6.7-22.3,10.1-39.6,10.1h-41.3c0.4,8.8,1.7,15.5,4,20.3
			c2.2,4.8,6.2,8.3,11.9,10.4c5.7,2.1,14.1,3.2,25.1,3.2h48v26.6c-10.8,2.2-20.6,4-29.3,5.2c-8.8,1.2-19,1.8-30.6,1.8
			C428.7,283.2,414.1,280.7,403.5,275.8z M454.9,188.7c6.3,0,10.9-1.3,13.6-3.8c2.8-2.5,4.1-6.9,4.1-13c0-9-2-15.2-6.1-18.8
			c-4.1-3.6-11-5.4-20.8-5.4c-7.1,0-12.7,1.2-16.7,3.5c-4,2.3-6.9,6.5-8.7,12.4c-1.8,5.9-2.8,14.3-2.8,25.1H454.9z"/>
		<path class="st3" d="M566.6,281.5c-12.3-1.3-21.8-3.1-28.3-5.3v-26.6h72.8c6.7,0,11.5-0.9,14.4-2.8c2.9-1.8,4.3-5.4,4.3-10.7v-5.2
			c0-4.3-1.4-7.5-4.1-9.6c-2.8-2.1-7.6-3.2-14.5-3.2h-25.7c-15.3,0-27.4-3.5-36.4-10.5c-9-7-13.5-18.4-13.5-34.1V164
			c0-16.3,4.9-28.4,14.8-36.2c9.9-7.8,27-11.8,51.2-11.8c10,0,20.9,0.8,32.7,2.3c11.8,1.5,20.8,3.3,26.9,5.4v26.6h-68.8
			c-6.3,0-10.9,1-13.8,3.1c-2.9,2-4.3,5.6-4.3,10.7v4.9c0,5.1,1.5,8.5,4.6,10.2c3.1,1.7,8.1,2.6,15.3,2.6h26.3
			c16.3,0,28.4,3.7,36.2,11.2c7.8,7.4,11.8,18.1,11.8,31.9v14.7c0,16.1-5.5,27.5-16.5,34.1c-11,6.6-27.7,9.9-50.1,9.9
			C590.7,283.5,578.9,282.8,566.6,281.5z"/>
		<path class="st3" d="M721,281.5c-12.3-1.3-21.8-3.1-28.3-5.3v-26.6h72.8c6.7,0,11.5-0.9,14.4-2.8c2.9-1.8,4.3-5.4,4.3-10.7v-5.2
			c0-4.3-1.4-7.5-4.1-9.6c-2.8-2.1-7.6-3.2-14.5-3.2h-25.7c-15.3,0-27.4-3.5-36.4-10.5c-9-7-13.5-18.4-13.5-34.1V164
			c0-16.3,4.9-28.4,14.8-36.2c9.9-7.8,27-11.8,51.2-11.8c10,0,20.9,0.8,32.7,2.3c11.8,1.5,20.8,3.3,26.9,5.4v26.6h-68.8
			c-6.3,0-10.9,1-13.8,3.1c-2.9,2-4.3,5.6-4.3,10.7v4.9c0,5.1,1.5,8.5,4.6,10.2c3.1,1.7,8.1,2.6,15.3,2.6H775
			c16.3,0,28.4,3.7,36.2,11.2c7.8,7.4,11.8,18.1,11.8,31.9v14.7c0,16.1-5.5,27.5-16.5,34.1c-11,6.6-27.7,9.9-50.1,9.9
			C745.1,283.5,733.3,282.8,721,281.5z"/>
		<path class="st6" d="M877.4,275.4c-10.8-5.2-18.7-13.9-23.7-26c-5-12.1-7.5-28.9-7.5-50.3c0-22.2,2.5-39.4,7.5-51.5
			c5-12.1,12.9-20.6,23.7-25.4c10.8-4.8,25.5-7.2,44-7.2c18.7,0,33.5,2.5,44.3,7.5c10.8,5,18.7,13.6,23.7,25.7
			c5,12.1,7.5,29.1,7.5,50.9c0,21.8-2.4,38.8-7.3,50.9c-4.9,12.1-12.7,20.7-23.5,25.7c-10.8,5-25.7,7.5-44.6,7.5
			C902.8,283.2,888.2,280.6,877.4,275.4z M939.4,243.9c4.1-2.1,7.1-6.6,9.2-13.5c2-6.8,3.1-17.3,3.1-31.3c0-14.1-1-24.5-3.1-31.3
			c-2-6.8-5.1-11.3-9.2-13.5c-4.1-2.1-10.1-3.2-18-3.2c-7.7,0-13.7,1.1-17.7,3.2c-4.1,2.1-7.1,6.6-9.2,13.5
			c-2,6.8-3.1,17.3-3.1,31.3c0,14.1,1,24.5,3.1,31.3c2,6.8,5.1,11.3,9.2,13.5c4.1,2.1,10,3.2,17.7,3.2
			C929.3,247.1,935.3,246,939.4,243.9z"/>
		<path class="st6" d="M1038.6,270.3c-8.3-8.8-12.4-21-12.4-36.7V117.5h45.2v102.7c0,8.8,2,14.8,6,18.2c4,3.4,9.9,5,17.9,5
			c5.7,0,11.6-1.1,17.6-3.2c6-2.1,11.4-5,16-8.7v-114h45.6v164.2h-37.6l-7.9-16.8c-19,12.4-37.5,18.6-55.6,18.6
			C1058.4,283.5,1046.9,279.1,1038.6,270.3z"/>
		<path class="st6" d="M1208.8,117.5h34.9l10.4,25.1c6.5-8.6,13.5-15.2,20.9-20c7.4-4.8,15.9-7.2,25.5-7.2c5.3,0,9.8,0.5,13.5,1.5
			v46.5c-10.6-1-17-1.5-19.3-1.5c-8.8,0-16.3,1.4-22.6,4.3c-6.3,2.9-12.3,7.3-18,13.5v102.1h-45.2V117.5z"/>
		<path class="st6" d="M1351.2,264.8c-12-12.4-18-33.9-18-64.5c0-21.8,2.6-38.9,7.9-51.4c5.3-12.4,13-21.2,23.2-26.3
			c10.2-5.1,23.1-7.6,38.8-7.6c19.8,0,38.8,2.6,57.2,7.6v26h-43.1c-9.8,0-17.4,1.4-22.9,4.3c-5.5,2.9-9.5,7.9-12.1,15.3
			c-2.6,7.3-3.8,17.9-3.8,31.8c0,13.7,1.3,24,3.8,31c2.5,7,6.6,11.8,12.1,14.4c5.5,2.6,13.3,3.8,23.5,3.8h44.9v25.7
			c-7.7,2.4-17.2,4.5-28.4,6.1c-11.2,1.6-22,2.4-32.4,2.4C1380.1,283.5,1363.2,277.3,1351.2,264.8z"/>
		<path class="st6" d="M1513.2,275.8c-10.6-4.9-18.3-13.3-23.1-25.4c-4.8-12-7.2-28.9-7.2-50.7c0-22.4,2.2-39.7,6.7-51.8
			c4.5-12.1,11.9-20.6,22.2-25.5c10.3-4.9,24.8-7.3,43.6-7.3c16.7,0,29.9,1.6,39.4,4.9c9.6,3.3,16.6,9,20.9,17.1
			c4.4,8.2,6.6,19.7,6.6,34.5c0,15.9-4.5,27.2-13.6,33.9c-9.1,6.7-22.3,10.1-39.6,10.1h-41.3c0.4,8.8,1.7,15.5,4,20.3
			c2.2,4.8,6.2,8.3,11.9,10.4c5.7,2.1,14.1,3.2,25.1,3.2h48v26.6c-10.8,2.2-20.6,4-29.3,5.2c-8.8,1.2-19,1.8-30.6,1.8
			C1538.4,283.2,1523.8,280.7,1513.2,275.8z M1564.6,188.7c6.3,0,10.9-1.3,13.6-3.8c2.8-2.5,4.1-6.9,4.1-13c0-9-2-15.2-6.1-18.8
			c-4.1-3.6-11-5.4-20.8-5.4c-7.1,0-12.7,1.2-16.7,3.5c-4,2.3-6.9,6.5-8.7,12.4c-1.8,5.9-2.8,14.3-2.8,25.1H1564.6z"/>
		<path class="st6" d="M1676.3,281.5c-12.3-1.3-21.8-3.1-28.3-5.3v-26.6h72.8c6.7,0,11.5-0.9,14.4-2.8c2.9-1.8,4.3-5.4,4.3-10.7
			v-5.2c0-4.3-1.4-7.5-4.1-9.6c-2.8-2.1-7.6-3.2-14.5-3.2h-25.7c-15.3,0-27.4-3.5-36.4-10.5c-9-7-13.5-18.4-13.5-34.1V164
			c0-16.3,4.9-28.4,14.8-36.2c9.9-7.8,27-11.8,51.2-11.8c10,0,20.9,0.8,32.7,2.3c11.8,1.5,20.8,3.3,26.9,5.4v26.6h-68.8
			c-6.3,0-10.9,1-13.8,3.1c-2.9,2-4.3,5.6-4.3,10.7v4.9c0,5.1,1.5,8.5,4.6,10.2c3.1,1.7,8.1,2.6,15.3,2.6h26.3
			c16.3,0,28.4,3.7,36.2,11.2c7.8,7.4,11.8,18.1,11.8,31.9v14.7c0,16.1-5.5,27.5-16.5,34.1c-11,6.6-27.7,9.9-50.1,9.9
			C1700.4,283.5,1688.7,282.8,1676.3,281.5z"/>
	</g>
</g>
</svg>
