<?xml version="1.0" encoding="utf-8"?>
<!-- Generator: Adobe Illustrator 20.1.0, SVG Export Plug-In . SVG Version: 6.00 Build 0)  -->
<svg version="1.1" id="Capa_1" xmlns="http://www.w3.org/2000/svg" xmlns:xlink="http://www.w3.org/1999/xlink" x="0px" y="0px"
	 viewBox="0 0 300 300" style="enable-background:new 0 0 300 300;" xml:space="preserve">
<style type="text/css">
	.st0{fill:#3B5998;}
	.st1{fill:#FFFFFF;}
	.st2{fill:#00ACED;}
</style>
<circle class="st2" cx="150" cy="150" r="130.4"/>
<g>
	<path class="st1" d="M118.1,186.6c-14.8-1.6-24.8-8.7-30.3-22.8c4.9,0,9.1,0,13.4,0c-15.3-5.7-23.7-16.2-24.9-32.4
		c4.7,1.3,9.1,2.6,13.6,3.8c-13.5-12.6-16.5-26.9-9-44c17.9,20.9,40.1,32.4,67.4,34.3c-0.8-6.8-0.9-13.1,1.5-19.3
		c8.2-21.1,35.2-27.7,52-12.6c1.8,1.7,3.5,2.1,5.6,1.4c5.6-2,11.2-4.1,16.9-6.2c-2.2,6.9-6.9,12.1-12.6,17.1
		c2.7-0.6,5.5-1.1,8.2-1.8c2.7-0.7,5.3-1.7,8-2.5c0.3,0.3,0.5,0.5,0.8,0.8c-4.2,4.3-8.2,8.8-12.7,12.7c-2.4,2-3.1,3.9-3.1,6.8
		c0.2,39.7-25.4,76-63,88.2c-26.5,8.6-52.3,5.8-76.7-8c-0.4-0.2-0.8-0.5-1.2-0.7c-0.2-0.1-0.3-0.3-0.7-0.8
		C88.5,201.4,103.9,197.2,118.1,186.6z"/>
</g>
</svg>
