<?xml version="1.0" encoding="utf-8"?>
<!-- Generator: Adobe Illustrator 20.1.0, SVG Export Plug-In . SVG Version: 6.00 Build 0)  -->
<svg version="1.1" id="Capa_1" xmlns="http://www.w3.org/2000/svg" xmlns:xlink="http://www.w3.org/1999/xlink" x="0px" y="0px"
	 viewBox="0 0 300 300" style="enable-background:new 0 0 300 300;" xml:space="preserve">
<style type="text/css">
	.st0{fill:#3B5998;}
	.st1{fill:#FFFFFF;}
	.st2{fill:#00ACED;}
</style>
<circle class="st0" cx="150" cy="150" r="130.4"/>
<path class="st1" d="M130.5,239.1c0-26.8,0-53.6,0-80.9c-9.2,0-18,0-27.2,0c0-10.4-0.1-20.3,0.1-30.2c0-0.8,2-2.1,3.1-2.1
	c6.3-0.2,12.6-0.1,18.9-0.1c1.5,0,3-0.1,5.1-0.2c0-6.3-0.2-12.2,0.1-18.2c0.2-5.4,0.3-10.9,1.4-16.2c3.5-17.2,15.8-28.3,33.2-29.9
	c6.5-0.6,13.1-0.2,19.7-0.1c3.6,0.1,7.2,0.5,11.8,0.9c0,2.6,0,5,0,7.4c0,5.9-0.1,11.7,0,17.6c0.1,3.1-1.1,4.1-4.2,4
	c-5.9-0.1-11.7-0.1-17.6,0.5c-6.8,0.6-10.2,4.2-10.5,10.8c-0.3,7.5-0.1,15.1-0.1,23.1c1.6,0.1,3,0.3,4.5,0.3c7.5,0,15.1,0.1,22.6,0
	c2.8,0,4.1,0.6,3.6,3.8c-1.2,8.3-2.3,16.6-3.2,24.9c-0.3,2.8-1.5,3.8-4.3,3.7c-6.1-0.2-12.3-0.1-18.4,0c-1.5,0-3,0.2-5.1,0.3
	c0,27.1,0,53.9,0,80.7C152.9,239.1,141.7,239.1,130.5,239.1z"/>
</svg>
