<?xml version="1.0" encoding="utf-8"?>
<!-- Generator: Adobe Illustrator 20.1.0, SVG Export Plug-In . SVG Version: 6.00 Build 0)  -->
<svg version="1.1" id="Capa_1" xmlns="http://www.w3.org/2000/svg" xmlns:xlink="http://www.w3.org/1999/xlink" x="0px" y="0px"
	 viewBox="0 0 1808 292" style="enable-background:new 0 0 1808 292;" xml:space="preserve">
<style type="text/css">
	.st0{opacity:0.5;}
	.st1{fill:#FFFDFF;}
	.st2{fill:#021D3B;}
	.st3{fill:#FE6603;}
	.st4{fill:#FFFFFF;}
	.st5{fill:#282828;}
	.st6{fill:#F19B2C;}
	.st7{fill:#2D3E4E;}
	.st8{fill:#3081B8;}
	.st9{fill:none;stroke:#282828;stroke-width:10;stroke-miterlimit:10;}
	.st10{opacity:0.15;fill:#232323;}
	.st11{opacity:0.2;fill:#232323;}
	.st12{fill:#232323;}
	.st13{fill:#3A99D9;}
</style>
<g class="st0">
	
		<image style="overflow:visible;" width="1024" height="768" xlink:href="596F1EF2.jpg"  transform="matrix(4.0837 0 0 4.0837 2900.8452 -4232.1968)">
	</image>
</g>
<rect x="-1982" y="-3590" class="st1" width="1834" height="358"/>
<text transform="matrix(1 0 0 1 -1551.8828 -5863.894)" style="opacity:0.2; font-family:'Acme-Regular'; font-size:61px;">Pressources</text>
<text transform="matrix(1 0 0 1 -1551.8828 -5800.897)" style="font-family:'AlfaSlabOne-Regular'; font-size:61px;">Pressources</text>
<text transform="matrix(1 0 0 1 -1551.8828 -5737.9004)" style="font-family:'Amaranth-Bold'; font-size:61px;">Pressources</text>
<text transform="matrix(1 0 0 1 -1551.8828 -5667.4038)" style="opacity:0.2; font-family:'Anton-Regular'; font-size:61px;">Pressources</text>
<text transform="matrix(1 0 0 1 -1551.8828 -5595.4072)" style="font-family:'ArchivoBlack-Regular'; font-size:61px;">Pressources</text>
<text transform="matrix(1 0 0 1 -1551.8828 -5523.4111)" style="font-family:'Baloo-Regular'; font-size:61px;">Pressources</text>
<text transform="matrix(1 0 0 1 -1551.8828 -5460.4141)" style="font-family:'BalooBhai-Regular'; font-size:61px;">Pressources</text>
<text transform="matrix(1 0 0 1 -1551.8828 -5397.4175)" style="font-family:'BalooBhaijaan-Regular'; font-size:61px;">Pressources</text>
<text transform="matrix(1 0 0 1 -1551.8828 -5326.9209)" style="font-family:'BalooBhaina-Regular'; font-size:61px;">Pressources</text>
<text transform="matrix(1 0 0 1 -1551.8828 -5254.9243)" style="font-family:'BalooChettan-Regular'; font-size:61px;">Pressources</text>
<text transform="matrix(1 0 0 1 -1062.9072 -5863.894)" style="font-family:'BalooPaaji-Regular'; font-size:61px;">Pressources</text>
<text transform="matrix(1 0 0 1 -1062.9072 -5800.897)" style="font-family:'BalooTamma-Regular'; font-size:61px;">Pressources</text>
<text transform="matrix(1 0 0 1 -1062.9072 -5737.9004)" style="font-family:'BalooTammudu-Regular'; font-size:61px;">Pressources</text>
<text transform="matrix(1 0 0 1 -1062.9072 -5667.4038)" style="font-family:'Baumans-Regular'; font-size:61px;">Pressources</text>
<text transform="matrix(1 0 0 1 -1062.9072 -5595.4072)" style="font-family:'Candal'; font-size:61px;">Pressources</text>
<text transform="matrix(1 0 0 1 -1062.9072 -5523.4111)" style="opacity:0.2; font-family:'CodaCaption-ExtraBold'; font-size:61px;">Pressources</text>
<text transform="matrix(1 0 0 1 -1062.9072 -5460.4141)" style="font-family:'Exo-Black'; font-size:61px;">Pressources</text>
<g>
	<text transform="matrix(1 0 0 1 -1241.3983 -4978.9385)" class="st3" style="font-family:'Exo-Black'; font-size:61px;">Pressources</text>
</g>
<g>
	<text transform="matrix(1 0 0 1 -1958 -2978.4229)" style="fill:#FFA700; font-family:'Exo-Bold'; font-size:305.712px;">Pressources</text>
</g>
<g>
	<text transform="matrix(1 0 0 1 -1958 -2456.4229)" style="fill:#0057E7; font-family:'Exo-Bold'; font-size:305.712px;">Pressources</text>
</g>
<g>
	<text transform="matrix(1 0 0 1 -1958 -2724.4229)" style="fill:#D62D20; font-family:'Exo-Bold'; font-size:305.712px;">Pressources</text>
</g>
<g>
	<text transform="matrix(1 0 0 1 -1958 -2183.3433)" style="fill:#34495C; font-family:'Exo-Bold'; font-size:305.712px;">Pressources</text>
</g>
<g>
	<text transform="matrix(1 0 0 1 -1958 -1661.3434)" class="st8" style="font-family:'Exo-Bold'; font-size:305.712px;">Pressources</text>
</g>
<text transform="matrix(1 0 0 1 -4042.8792 -1173.2317)" class="st13" style="font-family:'Exo-Bold'; font-size:305.712px;">Pressources</text>
<text transform="matrix(1 0 0 1 -4042.8794 -587.2317)" class="st7" style="font-family:'Exo-Bold'; font-size:305.712px;">Pressources</text>
<g>
	<text transform="matrix(1 0 0 1 -4042.8794 636.8906)" class="st5" style="font-family:'Exo-Bold'; font-size:305.712px;">Pressources</text>
</g>
<g>
	<text transform="matrix(1 0 0 1 -3404.8794 39.8315)" class="st7" style="font-family:'Exo-Bold'; font-size:305.712px;">sources</text>
</g>
<g>
	<text transform="matrix(1 0 0 1 -3404.8796 636.8906)" class="st13" style="font-family:'Exo-Bold'; font-size:305.712px;">sources</text>
</g>
<g>
	<text transform="matrix(1 0 0 1 -4042.8794 969.9238)" style="fill:#1D1D1E; font-family:'Exo-Bold'; font-size:305.712px;">Pressources</text>
</g>
<text transform="matrix(1 0 0 1 -4042.8794 -872.2354)" style="fill:#E47F31; font-family:'Exo-Bold'; font-size:305.712px;">Pressources</text>
<g>
	<text transform="matrix(1 0 0 1 -1958 -1929.3433)" class="st7" style="font-family:'Exo-Bold'; font-size:305.712px;">Pressources</text>
</g>
<g>
	<text transform="matrix(1 0 0 1 -1958 -1111.3434)" style="fill:#E54D42; font-family:'Exo-Bold'; font-size:305.712px;">Pressources</text>
</g>
<g>
	<text transform="matrix(1 0 0 1 -1958 -1379.3433)" style="fill:#7E8C8D; font-family:'Exo-Bold'; font-size:305.712px;">Pressources</text>
</g>
<g>
	<text transform="matrix(1 0 0 1 -1958 -551.3433)" class="st6" style="font-family:'Exo-Bold'; font-size:305.712px;">Pressources</text>
</g>
<g>
	<text transform="matrix(1 0 0 1 -1958 -215.3433)" style="fill:#434A54; font-family:'Exo-Bold'; font-size:305.712px;">Pressources</text>
</g>
<g>
	<text transform="matrix(1 0 0 1 -1958 -819.3433)" style="fill:#F1C330; font-family:'Exo-Bold'; font-size:305.712px;">Pressources</text>
</g>
<text transform="matrix(1 0 0 1 -1241.3983 -4913.9385)" style="font-family:'Exo2-Black'; font-size:61px;">Pressources</text>
<text transform="matrix(1 0 0 1 -1062.9072 -5397.4175)" style="font-family:'FredokaOne-Regular'; font-size:61px;">Pressources</text>
<text transform="matrix(1 0 0 1 -1062.9072 -5326.9209)" style="font-family:'Gudea-Bold'; font-size:61px;">Pressources</text>
<text transform="matrix(1 0 0 1 -1062.9072 -5254.9243)" style="font-family:'HammersmithOne-Regular'; font-size:61px;">Pressources</text>
<text transform="matrix(1 0 0 1 -522.9342 -5863.894)" style="opacity:0.2; font-family:'LuckiestGuy-Regular'; font-size:61px;">Pressources</text>
<text transform="matrix(1 0 0 1 -522.9342 -5800.897)" style="font-family:'Mitr-Bold'; font-size:61px;">Pressources</text>
<text transform="matrix(1 0 0 1 -522.9342 -5737.9004)" style="opacity:0.2; font-family:'PassionOne-Bold'; font-size:61px;">Pressources</text>
<text transform="matrix(1 0 0 1 -522.9342 -5667.4038)" style="font-family:'RussoOne-Regular'; font-size:61px;">Pressources</text>
<text transform="matrix(1 0 0 1 -522.9342 -5595.4072)" style="font-family:'SecularOne-Regular'; font-size:61px;">Pressources</text>
<text transform="matrix(1 0 0 1 -522.9342 -5523.4111)" style="font-family:'Share-Bold'; font-size:61px;">Pressources</text>
<text transform="matrix(1 0 0 1 -522.9342 -5460.4141)" style="font-family:'Teko-Bold'; font-size:61px;">Pressources</text>
<text transform="matrix(1 0 0 1 -522.9342 -5397.4175)" style="opacity:0.2; font-family:'WendyOne-Regular'; font-size:61px;">Pressources</text>
<text transform="matrix(1 0 0 1 -768 -5049)" style="font-family:'Exo-Regular'; font-size:61px;">EXO</text>
<image style="overflow:visible;" width="1600" height="573" xlink:href="596F1EF6.jpg"  transform="matrix(1 0 0 1 -1903.0096 -4298)">
</image>
<rect x="-570.6" y="-4929.6" transform="matrix(-1 -1.224647e-16 1.224647e-16 -1 -1110.0787 -9819.2373)" class="st2" width="31.1" height="40"/>
<rect x="-601.7" y="-4929.6" transform="matrix(-1 -1.224647e-16 1.224647e-16 -1 -1172.3287 -9819.2373)" class="st3" width="31.1" height="40"/>
<g>
	<path class="st2" d="M-695.9-4938.3h19.9c2.5,0,4.8,0.4,6.8,1.2c2,0.8,3.7,2.3,5,4.7c1.3,2.4,2,5.8,2,10.3c0,6.5-1.3,11-3.8,13.2
		c-2.5,2.3-5.6,3.4-9.4,3.4c-1.8,0-3.7-0.2-5.6-0.6s-2.9-0.6-3.1-0.6v13.7h-11.8V-4938.3z M-677.2-4916c1.2,0,2-0.5,2.5-1.4
		c0.5-1,0.7-2.4,0.7-4.5c0-1.9-0.3-3.3-0.8-4.3c-0.5-1-1.3-1.4-2.4-1.4h-6.8v11.7H-677.2z"/>
	<path class="st2" d="M-657.9-4925.8h9.2l2.6,4.6c1.1-1.5,2.3-2.8,3.6-3.7c1.3-0.9,2.8-1.4,4.4-1.4c0.9,0,1.7,0.1,2.4,0.3v12.1
		c-1.9-0.2-3.2-0.2-4-0.2c-3,0-5.2,0.9-6.5,2.6v18.6h-11.8V-4925.8z"/>
	<path class="st2" d="M-626.2-4894.1c-2.2-1-3.8-2.6-4.8-5c-1-2.4-1.5-5.8-1.5-10.2c0-4.6,0.5-8.1,1.4-10.5c0.9-2.4,2.4-4.1,4.6-5.1
		c2.1-1,5.2-1.5,9.1-1.5c3.6,0,6.4,0.3,8.4,1c2,0.7,3.4,1.8,4.3,3.5c0.9,1.6,1.3,4,1.3,7.2c0,3.4-1,5.8-2.9,7.3
		c-2,1.4-4.8,2.1-8.5,2.1h-5.9c0.1,1.1,0.4,1.9,0.8,2.4c0.4,0.5,1.1,0.9,2,1.2c1,0.2,2.4,0.4,4.3,0.4h9v6.9c-1.9,0.6-3.8,1-5.6,1.3
		c-1.9,0.3-4.1,0.5-6.6,0.5C-620.9-4892.6-624-4893.1-626.2-4894.1z M-616.3-4912.2c0.8,0,1.4-0.2,1.8-0.5c0.4-0.4,0.5-1,0.5-1.9
		c0-1.2-0.3-2-0.9-2.5c-0.6-0.5-1.5-0.8-2.7-0.8c-1.2,0-2.1,0.4-2.6,1.2c-0.5,0.8-0.8,2.3-0.8,4.5H-616.3z"/>
	<path class="st4" d="M-593.8-4893c-2.3-0.3-4.1-0.8-5.6-1.4v-6.9h15.3c0.7,0,1.2-0.1,1.5-0.3c0.2-0.2,0.4-0.5,0.4-0.9v-0.8
		c0-0.4-0.2-0.8-0.5-1c-0.3-0.2-0.9-0.3-1.8-0.3h-5.5c-3,0-5.4-0.8-7.3-2.3c-1.9-1.5-2.8-3.9-2.8-7.2v-2c0-2.2,0.4-4.1,1.3-5.5
		c0.8-1.4,2.3-2.6,4.4-3.3c2.1-0.8,5-1.2,8.6-1.2c2.1,0,4.3,0.2,6.7,0.6c2.3,0.4,4.1,0.8,5.3,1.3v6.9h-14.5c-0.6,0-1.1,0.1-1.3,0.3
		c-0.3,0.2-0.4,0.5-0.4,0.9v0.8c0,0.5,0.2,0.8,0.5,1c0.3,0.2,1,0.3,1.9,0.3h5.7c3.4,0,5.9,0.8,7.4,2.3c1.5,1.5,2.3,3.8,2.3,6.7v3.4
		c0,3.3-1.2,5.6-3.5,7c-2.3,1.4-5.9,2.1-10.9,2.1C-589.2-4892.6-591.6-4892.7-593.8-4893z"/>
	<path class="st4" d="M-562.9-4893c-2.3-0.3-4.1-0.8-5.6-1.4v-6.9h15.3c0.7,0,1.2-0.1,1.5-0.3c0.2-0.2,0.4-0.5,0.4-0.9v-0.8
		c0-0.4-0.2-0.8-0.5-1c-0.3-0.2-0.9-0.3-1.8-0.3h-5.5c-3,0-5.4-0.8-7.3-2.3c-1.9-1.5-2.8-3.9-2.8-7.2v-2c0-2.2,0.4-4.1,1.3-5.5
		c0.8-1.4,2.3-2.6,4.4-3.3c2.1-0.8,5-1.2,8.6-1.2c2.1,0,4.3,0.2,6.7,0.6c2.3,0.4,4.1,0.8,5.3,1.3v6.9h-14.5c-0.6,0-1.1,0.1-1.3,0.3
		c-0.3,0.2-0.4,0.5-0.4,0.9v0.8c0,0.5,0.2,0.8,0.5,1c0.3,0.2,1,0.3,1.9,0.3h5.7c3.4,0,5.9,0.8,7.4,2.3c1.5,1.5,2.3,3.8,2.3,6.7v3.4
		c0,3.3-1.2,5.6-3.5,7c-2.3,1.4-5.9,2.1-10.9,2.1C-558.2-4892.6-560.6-4892.7-562.9-4893z"/>
	<path class="st3" d="M-531.6-4894.3c-2.3-1.1-3.9-2.9-4.9-5.3c-1-2.4-1.5-5.7-1.5-9.9c0-4.4,0.5-7.9,1.5-10.3
		c1-2.4,2.6-4.1,4.8-5.1c2.2-1,5.3-1.5,9.3-1.5c4,0,7.1,0.5,9.3,1.6c2.2,1,3.9,2.8,4.8,5.2c1,2.4,1.5,5.8,1.5,10.1
		c0,4.3-0.5,7.7-1.4,10.1c-1,2.4-2.6,4.1-4.8,5.2c-2.2,1.1-5.4,1.6-9.5,1.6C-526.2-4892.6-529.3-4893.2-531.6-4894.3z
		 M-519.9-4902.5c0.5-0.3,0.9-1,1.1-2c0.2-1,0.3-2.7,0.3-5c0-2.3-0.1-3.9-0.3-5c-0.2-1-0.6-1.7-1.1-2c-0.5-0.3-1.3-0.5-2.4-0.5
		c-1.1,0-1.9,0.2-2.4,0.5c-0.5,0.3-0.9,1-1.1,2c-0.2,1-0.3,2.7-0.3,5c0,2.3,0.1,4,0.3,5c0.2,1,0.6,1.7,1.1,2
		c0.5,0.3,1.3,0.5,2.4,0.5C-521.2-4902-520.4-4902.2-519.9-4902.5z"/>
	<path class="st3" d="M-499.8-4895.3c-1.6-1.8-2.4-4.2-2.4-7.2v-23.4h11.8v19.6c0,1.2,0.3,2,0.8,2.5c0.5,0.5,1.4,0.7,2.4,0.7
		c0.6,0,1.4-0.2,2.4-0.5c0.9-0.4,1.6-0.8,2.1-1.3v-20.9h11.8v32.9h-9.9l-2-3.2c-3.7,2.4-7.2,3.5-10.4,3.5
		C-495.9-4892.6-498.1-4893.5-499.8-4895.3z"/>
	<path class="st3" d="M-465.5-4925.8h9.2l2.6,4.6c1.1-1.5,2.3-2.8,3.6-3.7c1.3-0.9,2.8-1.4,4.4-1.4c0.9,0,1.7,0.1,2.4,0.3v12.1
		c-1.9-0.2-3.2-0.2-4-0.2c-3,0-5.2,0.9-6.5,2.6v18.6h-11.8V-4925.8z"/>
	<path class="st3" d="M-436.4-4896.4c-2.5-2.5-3.7-6.8-3.7-12.8c0-4.4,0.5-7.8,1.6-10.3c1.1-2.5,2.7-4.3,4.8-5.3
		c2.1-1.1,4.8-1.6,8.2-1.6c2.2,0,4.2,0.1,5.9,0.4c1.8,0.3,3.7,0.8,5.9,1.5v6.8h-8c-1.8,0-3.2,0.2-4.1,0.7c-0.9,0.5-1.6,1.3-2,2.5
		c-0.4,1.2-0.5,2.9-0.5,5.2c0,2.4,0.2,4.1,0.5,5.2c0.3,1.1,1,1.8,1.9,2.2c0.9,0.4,2.3,0.6,4.3,0.6h8.3v6.6c-1.5,0.7-3.5,1.2-5.9,1.6
		c-2.4,0.4-4.6,0.6-6.7,0.6C-430.4-4892.6-433.9-4893.8-436.4-4896.4z"/>
	<path class="st3" d="M-403.8-4894.1c-2.2-1-3.8-2.6-4.8-5c-1-2.4-1.5-5.8-1.5-10.2c0-4.6,0.5-8.1,1.4-10.5c0.9-2.4,2.4-4.1,4.6-5.1
		c2.1-1,5.2-1.5,9.1-1.5c3.6,0,6.4,0.3,8.4,1c2,0.7,3.4,1.8,4.3,3.5c0.9,1.6,1.3,4,1.3,7.2c0,3.4-1,5.8-2.9,7.3
		c-2,1.4-4.8,2.1-8.5,2.1h-5.9c0.1,1.1,0.4,1.9,0.8,2.4c0.4,0.5,1.1,0.9,2,1.2c1,0.2,2.4,0.4,4.3,0.4h9v6.9c-1.9,0.6-3.8,1-5.6,1.3
		c-1.9,0.3-4.1,0.5-6.6,0.5C-398.6-4892.6-401.6-4893.1-403.8-4894.1z M-393.9-4912.2c0.8,0,1.4-0.2,1.8-0.5c0.4-0.4,0.5-1,0.5-1.9
		c0-1.2-0.3-2-0.9-2.5c-0.6-0.5-1.5-0.8-2.7-0.8c-1.2,0-2.1,0.4-2.6,1.2c-0.5,0.8-0.8,2.3-0.8,4.5H-393.9z"/>
	<path class="st3" d="M-371.5-4893c-2.3-0.3-4.1-0.8-5.6-1.4v-6.9h15.3c0.7,0,1.2-0.1,1.5-0.3c0.2-0.2,0.4-0.5,0.4-0.9v-0.8
		c0-0.4-0.2-0.8-0.5-1c-0.3-0.2-0.9-0.3-1.8-0.3h-5.5c-3,0-5.4-0.8-7.3-2.3c-1.9-1.5-2.8-3.9-2.8-7.2v-2c0-2.2,0.4-4.1,1.3-5.5
		c0.8-1.4,2.3-2.6,4.4-3.3c2.1-0.8,5-1.2,8.6-1.2c2.1,0,4.3,0.2,6.7,0.6c2.3,0.4,4.1,0.8,5.3,1.3v6.9H-366c-0.6,0-1.1,0.1-1.3,0.3
		c-0.3,0.2-0.4,0.5-0.4,0.9v0.8c0,0.5,0.2,0.8,0.5,1c0.3,0.2,1,0.3,1.9,0.3h5.7c3.4,0,5.9,0.8,7.4,2.3c1.5,1.5,2.3,3.8,2.3,6.7v3.4
		c0,3.3-1.2,5.6-3.5,7c-2.3,1.4-5.9,2.1-10.9,2.1C-366.9-4892.6-369.2-4892.7-371.5-4893z"/>
</g>
<rect x="-1304.6" y="-3497.4" transform="matrix(-1 -1.224647e-16 1.224647e-16 -1 -2451.4219 -6791.897)" class="st5" width="157.8" height="202.8"/>
<rect x="-1462.5" y="-3497.4" transform="matrix(-1 -1.224647e-16 1.224647e-16 -1 -2767.0884 -6791.897)" class="st3" width="157.8" height="202.8"/>
<g>
	<path class="st5" d="M-1939.8-3541.2h100.8c12.8,0,24.2,2,34.3,5.9c10.1,3.9,18.6,11.9,25.4,24c6.8,12.1,10.2,29.5,10.2,52.4
		c0,33.2-6.3,55.6-19,67.1c-12.7,11.6-28.5,17.3-47.5,17.3c-9.3,0-18.7-1-28.3-2.9c-9.6-2-14.9-3-15.9-3.2v69.3h-60V-3541.2z
		 M-1845.2-3428.3c6,0,10.2-2.4,12.5-7.3c2.4-4.8,3.6-12.4,3.6-22.7c0-9.7-1.3-17-3.9-21.8c-2.6-4.8-6.7-7.3-12.2-7.3h-34.6v59.1
		H-1845.2z"/>
	<path class="st5" d="M-1747.4-3478.1h46.7l13.3,23.2c5.8-7.8,11.9-14.1,18.4-18.7c6.5-4.6,14-7,22.4-7c4.5,0,8.7,0.5,12.4,1.5v61.6
		c-9.5-0.8-16.3-1.2-20.4-1.2c-15.5,0-26.4,4.3-32.8,13v94.3h-60V-3478.1z"/>
	<path class="st5" d="M-1586.4-3317.1c-11.2-4.8-19.4-13.4-24.6-25.5c-5.2-12.2-7.7-29.4-7.7-51.7c0-23.1,2.3-40.8,7-53.2
		c4.6-12.4,12.4-21,23.2-26c10.8-5,26.1-7.4,45.9-7.4c18.4,0,32.5,1.7,42.5,5.1c10,3.4,17.2,9.3,21.7,17.6
		c4.4,8.3,6.7,20.5,6.7,36.3c0,17.3-4.9,29.6-14.8,36.8c-9.9,7.2-24.2,10.8-43,10.8h-29.7c0.6,5.4,1.9,9.4,3.9,12.2
		c2,2.8,5.4,4.8,10.2,6c4.8,1.2,12.1,1.9,21.8,1.9h45.5v35c-9.5,2.9-19,5.2-28.6,6.8c-9.6,1.6-20.7,2.5-33.3,2.5
		C-1559.7-3309.8-1575.2-3312.2-1586.4-3317.1z M-1536.2-3409.1c4.1,0,7.1-0.9,9-2.8c1.9-1.9,2.8-5.1,2.8-9.6c0-6-1.4-10.3-4.3-12.8
		c-2.9-2.6-7.5-3.9-13.9-3.9c-6.2,0-10.6,2.1-13.3,6.2c-2.7,4.1-4,11.8-4,22.9H-1536.2z"/>
	<path class="st4" d="M-1422.5-3311.8c-11.4-1.5-20.9-4-28.3-7.3v-35h77.3c3.7,0,6.2-0.5,7.4-1.4c1.2-0.9,1.9-2.5,1.9-4.8v-4
		c0-2.3-0.8-3.9-2.3-4.9c-1.5-1-4.6-1.5-9.1-1.5h-27.8c-15.3,0-27.6-3.8-37-11.4c-9.4-7.6-14.1-19.8-14.1-36.5v-10.2
		c0-11.3,2.1-20.7,6.3-28c4.2-7.3,11.6-12.9,22.3-16.9c10.6-3.9,25.2-5.9,43.8-5.9c10.7,0,22,1,33.9,2.9c11.9,2,20.8,4.2,26.8,6.7
		v35h-73.3c-3.1,0-5.4,0.5-6.8,1.4c-1.4,0.9-2.2,2.5-2.2,4.8v4c0,2.5,0.9,4.2,2.6,5.1c1.8,0.9,5,1.4,9.7,1.4h28.8
		c17.3,0,29.8,3.9,37.6,11.8c7.7,7.8,11.6,19.2,11.6,34v17c0,16.5-5.9,28.3-17.6,35.4c-11.8,7.1-30.1,10.7-55.1,10.7
		C-1398.9-3309.5-1411-3310.3-1422.5-3311.8z"/>
	<path class="st4" d="M-1265.4-3311.8c-11.4-1.5-20.9-4-28.3-7.3v-35h77.3c3.7,0,6.2-0.5,7.4-1.4c1.2-0.9,1.9-2.5,1.9-4.8v-4
		c0-2.3-0.8-3.9-2.3-4.9c-1.5-1-4.6-1.5-9.1-1.5h-27.8c-15.3,0-27.6-3.8-37-11.4c-9.4-7.6-14.1-19.8-14.1-36.5v-10.2
		c0-11.3,2.1-20.7,6.3-28c4.2-7.3,11.6-12.9,22.3-16.9c10.6-3.9,25.2-5.9,43.8-5.9c10.7,0,22,1,33.9,2.9c11.9,2,20.8,4.2,26.8,6.7
		v35h-73.3c-3.1,0-5.4,0.5-6.8,1.4c-1.4,0.9-2.2,2.5-2.2,4.8v4c0,2.5,0.9,4.2,2.6,5.1c1.8,0.9,5,1.4,9.7,1.4h28.8
		c17.3,0,29.8,3.9,37.6,11.8c7.7,7.8,11.6,19.2,11.6,34v17c0,16.5-5.9,28.3-17.6,35.4c-11.8,7.1-30.1,10.7-55.1,10.7
		C-1241.8-3309.5-1253.9-3310.3-1265.4-3311.8z"/>
	<path class="st3" d="M-1106.7-3318.3c-11.4-5.7-19.7-14.6-24.7-26.9c-5.1-12.3-7.6-28.9-7.6-50c0-22.5,2.5-39.8,7.6-52.1
		c5-12.3,13.2-20.9,24.6-26c11.3-5.1,27.1-7.6,47.3-7.6c20.2,0,36,2.6,47.3,7.9c11.3,5.3,19.5,14.1,24.6,26.4
		c5.1,12.4,7.6,29.5,7.6,51.3c0,21.9-2.4,38.9-7.3,51c-4.8,12.2-12.9,20.9-24.3,26.3c-11.3,5.4-27.3,8-47.9,8
		C-1079.5-3309.8-1095.2-3312.6-1106.7-3318.3z M-1047.3-3359.8c2.6-1.5,4.4-4.9,5.6-10.2c1.1-5.3,1.7-13.8,1.7-25.5
		c0-11.5-0.6-20-1.7-25.2c-1.1-5.3-3-8.7-5.6-10.2c-2.6-1.5-6.7-2.3-12.2-2.3c-5.6,0-9.6,0.8-12.2,2.3c-2.6,1.5-4.4,5-5.6,10.2
		c-1.1,5.3-1.7,13.7-1.7,25.2c0,11.8,0.6,20.3,1.7,25.5c1.1,5.3,3,8.7,5.6,10.2c2.6,1.5,6.7,2.3,12.2,2.3
		C-1053.9-3357.4-1049.9-3358.2-1047.3-3359.8z"/>
	<path class="st3" d="M-945.4-3323.1c-8.3-9.1-12.4-21.2-12.4-36.5v-118.5h60v99.6c0,6,1.4,10.2,4.2,12.5c2.8,2.4,6.9,3.6,12.2,3.6
		c3.3,0,7.3-0.9,12.1-2.8c4.7-1.9,8.2-4.1,10.5-6.8v-106.1h60v166.7h-50.1l-9.9-16.1c-19,12-36.5,17.9-52.6,17.9
		C-925.8-3309.5-937.1-3314-945.4-3323.1z"/>
	<path class="st3" d="M-771.5-3478.1h46.7l13.3,23.2c5.8-7.8,11.9-14.1,18.4-18.7c6.5-4.6,14-7,22.4-7c4.5,0,8.7,0.5,12.4,1.5v61.6
		c-9.5-0.8-16.3-1.2-20.4-1.2c-15.5,0-26.4,4.3-32.8,13v94.3h-60V-3478.1z"/>
	<path class="st3" d="M-624-3328.8c-12.6-12.9-18.9-34.5-18.9-64.8c0-22.1,2.7-39.4,8.2-52.1c5.5-12.7,13.6-21.7,24.3-27.1
		c10.7-5.4,24.5-8,41.5-8c11.1,0,21.2,0.7,30.2,2.2c9,1.4,18.9,3.9,29.9,7.4v34.3h-40.5c-9.1,0-16,1.2-20.7,3.6
		c-4.7,2.4-8,6.5-9.9,12.5c-1.9,6-2.8,14.7-2.8,26.3c0,12,0.9,20.7,2.6,26.1c1.7,5.5,4.9,9.2,9.6,11.1c4.6,2,11.9,2.9,21.8,2.9h42.1
		v33.7c-7.8,3.3-17.8,6-29.8,8c-12.1,2.1-23.5,3.1-34.2,3.1C-593.7-3309.5-611.4-3315.9-624-3328.8z"/>
	<path class="st3" d="M-459-3317.1c-11.2-4.8-19.4-13.4-24.6-25.5c-5.2-12.2-7.7-29.4-7.7-51.7c0-23.1,2.3-40.8,7-53.2
		c4.6-12.4,12.4-21,23.2-26c10.8-5,26.1-7.4,45.9-7.4c18.4,0,32.5,1.7,42.5,5.1c10,3.4,17.2,9.3,21.7,17.6
		c4.4,8.3,6.7,20.5,6.7,36.3c0,17.3-4.9,29.6-14.8,36.8c-9.9,7.2-24.2,10.8-43,10.8h-29.7c0.6,5.4,1.9,9.4,3.9,12.2
		c2,2.8,5.4,4.8,10.2,6c4.8,1.2,12.1,1.9,21.8,1.9h45.5v35c-9.5,2.9-19,5.2-28.6,6.8c-9.6,1.6-20.7,2.5-33.3,2.5
		C-432.2-3309.8-447.7-3312.2-459-3317.1z M-408.7-3409.1c4.1,0,7.1-0.9,9-2.8c1.9-1.9,2.8-5.1,2.8-9.6c0-6-1.4-10.3-4.3-12.8
		c-2.9-2.6-7.5-3.9-13.9-3.9c-6.2,0-10.6,2.1-13.3,6.2c-2.7,4.1-4,11.8-4,22.9H-408.7z"/>
	<path class="st3" d="M-295-3311.8c-11.4-1.5-20.9-4-28.3-7.3v-35h77.3c3.7,0,6.2-0.5,7.4-1.4c1.2-0.9,1.9-2.5,1.9-4.8v-4
		c0-2.3-0.8-3.9-2.3-4.9c-1.5-1-4.6-1.5-9.1-1.5H-276c-15.3,0-27.6-3.8-37-11.4c-9.4-7.6-14.1-19.8-14.1-36.5v-10.2
		c0-11.3,2.1-20.7,6.3-28c4.2-7.3,11.6-12.9,22.3-16.9c10.6-3.9,25.2-5.9,43.8-5.9c10.7,0,22,1,33.9,2.9c11.9,2,20.8,4.2,26.8,6.7
		v35h-73.3c-3.1,0-5.4,0.5-6.8,1.4c-1.4,0.9-2.2,2.5-2.2,4.8v4c0,2.5,0.9,4.2,2.6,5.1c1.7,0.9,5,1.4,9.7,1.4h28.8
		c17.3,0,29.8,3.9,37.6,11.8c7.7,7.8,11.6,19.2,11.6,34v17c0,16.5-5.9,28.3-17.6,35.4c-11.8,7.1-30.1,10.7-55.1,10.7
		C-271.5-3309.5-283.6-3310.3-295-3311.8z"/>
</g>
<rect x="-64.8" y="-3590" class="st1" width="1834" height="358"/>
<rect x="612.6" y="-3497.4" transform="matrix(-1 -1.224647e-16 1.224647e-16 -1 1382.9617 -6791.897)" class="st5" width="157.8" height="202.8"/>
<rect x="454.7" y="-3497.4" transform="matrix(-1 -1.224647e-16 1.224647e-16 -1 1067.295 -6791.897)" class="st6" width="157.8" height="202.8"/>
<image style="overflow:visible;" width="900" height="600" xlink:href="596F1EF1.jpg"  transform="matrix(1 0 0 1 -3170.0313 -3005.0171)">
</image>
<image style="overflow:visible;" width="1600" height="730" xlink:href="596F1EF3.jpg"  transform="matrix(1 0 0 1 -3689.8513 -2214.9048)">
</image>
<g>
	<path class="st6" d="M-3.7-3534.6h95.4c19,0,34.5,5.3,46.8,15.9c12.2,10.6,18.3,31.2,18.3,61.8c0,53-21.1,79.5-63.3,79.5
		c-6.5,0-15-0.6-25.4-1.7c-10.4-1.1-19.3-2.2-26.6-3.2v74H-3.7V-3534.6z M86.5-3418.1c8.1,0,14.3-3.1,18.5-9.2
		c4.2-6.1,6.3-15.9,6.3-29.3c0-24.9-7.9-37.3-23.8-37.3H41.6v75.8H86.5z"/>
	<path class="st6" d="M184-3472.5h34.9l10.4,25.1c6.5-8.6,13.5-15.2,20.9-20c7.4-4.8,15.9-7.2,25.5-7.2c5.3,0,9.8,0.5,13.5,1.5v46.5
		c-10.6-1-17-1.5-19.3-1.5c-8.8,0-16.3,1.4-22.6,4.3c-6.3,2.9-12.3,7.3-18,13.5v102.1H184V-3472.5z"/>
	<path class="st6" d="M338.7-3314.2c-10.6-4.9-18.3-13.3-23.1-25.4c-4.8-12-7.2-28.9-7.2-50.7c0-22.4,2.2-39.7,6.7-51.8
		c4.5-12.1,11.9-20.6,22.2-25.5c10.3-4.9,24.8-7.3,43.6-7.3c16.7,0,29.9,1.6,39.4,4.9c9.6,3.3,16.6,9,20.9,17.1
		c4.4,8.2,6.6,19.7,6.6,34.5c0,15.9-4.5,27.2-13.6,33.9c-9.1,6.7-22.3,10.1-39.6,10.1h-41.3c0.4,8.8,1.7,15.5,4,20.3
		c2.2,4.8,6.2,8.3,11.9,10.4c5.7,2.1,14.1,3.2,25.1,3.2h48v26.6c-10.8,2.2-20.6,4-29.3,5.2c-8.8,1.2-19,1.8-30.6,1.8
		C363.9-3306.8,349.3-3309.3,338.7-3314.2z M390.1-3401.3c6.3,0,10.9-1.3,13.6-3.8c2.8-2.5,4.1-6.9,4.1-13c0-9-2-15.2-6.1-18.8
		c-4.1-3.6-11-5.4-20.8-5.4c-7.1,0-12.7,1.2-16.7,3.5c-4,2.3-6.9,6.5-8.7,12.4c-1.8,5.9-2.8,14.3-2.8,25.1H390.1z"/>
	<path class="st4" d="M501.8-3308.5c-12.3-1.3-21.8-3.1-28.3-5.3v-26.6h72.8c6.7,0,11.5-0.9,14.4-2.8c2.9-1.8,4.3-5.4,4.3-10.7v-5.2
		c0-4.3-1.4-7.5-4.1-9.6c-2.8-2.1-7.6-3.2-14.5-3.2h-25.7c-15.3,0-27.4-3.5-36.4-10.5c-9-7-13.5-18.4-13.5-34.1v-9.5
		c0-16.3,4.9-28.4,14.8-36.2c9.9-7.8,27-11.8,51.2-11.8c10,0,20.9,0.8,32.7,2.3c11.8,1.5,20.8,3.3,26.9,5.4v26.6h-68.8
		c-6.3,0-10.9,1-13.8,3.1c-2.9,2-4.3,5.6-4.3,10.7v4.9c0,5.1,1.5,8.5,4.6,10.2c3.1,1.7,8.1,2.6,15.3,2.6h26.3
		c16.3,0,28.4,3.7,36.2,11.2c7.8,7.4,11.8,18.1,11.8,31.9v14.7c0,16.1-5.5,27.5-16.5,34.1c-11,6.6-27.7,9.9-50.1,9.9
		C525.9-3306.5,514.1-3307.2,501.8-3308.5z"/>
	<path class="st4" d="M656.2-3308.5c-12.3-1.3-21.8-3.1-28.3-5.3v-26.6h72.8c6.7,0,11.5-0.9,14.4-2.8c2.9-1.8,4.3-5.4,4.3-10.7v-5.2
		c0-4.3-1.4-7.5-4.1-9.6c-2.8-2.1-7.6-3.2-14.5-3.2H675c-15.3,0-27.4-3.5-36.4-10.5c-9-7-13.5-18.4-13.5-34.1v-9.5
		c0-16.3,4.9-28.4,14.8-36.2c9.9-7.8,27-11.8,51.2-11.8c10,0,20.9,0.8,32.7,2.3c11.8,1.5,20.8,3.3,26.9,5.4v26.6H682
		c-6.3,0-10.9,1-13.8,3.1c-2.9,2-4.3,5.6-4.3,10.7v4.9c0,5.1,1.5,8.5,4.6,10.2c3.1,1.7,8.1,2.6,15.3,2.6h26.3
		c16.3,0,28.4,3.7,36.2,11.2c7.8,7.4,11.8,18.1,11.8,31.9v14.7c0,16.1-5.5,27.5-16.5,34.1c-11,6.6-27.7,9.9-50.1,9.9
		C680.3-3306.5,668.5-3307.2,656.2-3308.5z"/>
	<path class="st6" d="M812.6-3314.6c-10.8-5.2-18.7-13.9-23.7-26c-5-12.1-7.5-28.9-7.5-50.3c0-22.2,2.5-39.4,7.5-51.5
		c5-12.1,12.9-20.6,23.7-25.4c10.8-4.8,25.5-7.2,44-7.2c18.7,0,33.5,2.5,44.3,7.5c10.8,5,18.7,13.6,23.7,25.7
		c5,12.1,7.5,29.1,7.5,50.9c0,21.8-2.4,38.8-7.3,50.9c-4.9,12.1-12.7,20.7-23.5,25.7c-10.8,5-25.7,7.5-44.6,7.5
		C838-3306.8,823.4-3309.4,812.6-3314.6z M874.6-3346.1c4.1-2.1,7.1-6.6,9.2-13.5c2-6.8,3.1-17.3,3.1-31.3c0-14.1-1-24.5-3.1-31.3
		c-2-6.8-5.1-11.3-9.2-13.5c-4.1-2.1-10.1-3.2-18-3.2c-7.7,0-13.7,1.1-17.7,3.2c-4.1,2.1-7.1,6.6-9.2,13.5c-2,6.8-3.1,17.3-3.1,31.3
		c0,14.1,1,24.5,3.1,31.3c2,6.8,5.1,11.3,9.2,13.5c4.1,2.1,10,3.2,17.7,3.2C864.5-3342.9,870.5-3344,874.6-3346.1z"/>
	<path class="st6" d="M973.8-3319.7c-8.3-8.8-12.4-21-12.4-36.7v-116.2h45.2v102.7c0,8.8,2,14.8,6,18.2c4,3.4,9.9,5,17.9,5
		c5.7,0,11.6-1.1,17.6-3.2c6-2.1,11.4-5,16-8.7v-114h45.6v164.2h-37.6l-7.9-16.8c-19,12.4-37.5,18.6-55.6,18.6
		C993.6-3306.5,982.1-3310.9,973.8-3319.7z"/>
	<path class="st6" d="M1143.9-3472.5h34.9l10.4,25.1c6.5-8.6,13.5-15.2,20.9-20c7.4-4.8,15.9-7.2,25.5-7.2c5.3,0,9.8,0.5,13.5,1.5
		v46.5c-10.6-1-17-1.5-19.3-1.5c-8.8,0-16.3,1.4-22.6,4.3c-6.3,2.9-12.3,7.3-18,13.5v102.1h-45.2V-3472.5z"/>
	<path class="st6" d="M1286.4-3325.2c-12-12.4-18-33.9-18-64.5c0-21.8,2.6-38.9,7.9-51.4c5.3-12.4,13-21.2,23.2-26.3
		c10.2-5.1,23.1-7.6,38.8-7.6c19.8,0,38.8,2.6,57.2,7.6v26h-43.1c-9.8,0-17.4,1.4-22.9,4.3c-5.5,2.9-9.5,7.9-12.1,15.3
		c-2.6,7.3-3.8,17.9-3.8,31.8c0,13.7,1.3,24,3.8,31c2.5,7,6.6,11.8,12.1,14.4c5.5,2.6,13.3,3.8,23.5,3.8h44.9v25.7
		c-7.7,2.4-17.2,4.5-28.4,6.1c-11.2,1.6-22,2.4-32.4,2.4C1315.3-3306.5,1298.4-3312.7,1286.4-3325.2z"/>
	<path class="st6" d="M1448.4-3314.2c-10.6-4.9-18.3-13.3-23.1-25.4c-4.8-12-7.2-28.9-7.2-50.7c0-22.4,2.2-39.7,6.7-51.8
		c4.5-12.1,11.9-20.6,22.2-25.5c10.3-4.9,24.8-7.3,43.6-7.3c16.7,0,29.9,1.6,39.4,4.9c9.6,3.3,16.6,9,20.9,17.1
		c4.4,8.2,6.6,19.7,6.6,34.5c0,15.9-4.5,27.2-13.6,33.9c-9.1,6.7-22.3,10.1-39.6,10.1h-41.3c0.4,8.8,1.7,15.5,4,20.3
		c2.2,4.8,6.2,8.3,11.9,10.4c5.7,2.1,14.1,3.2,25.1,3.2h48v26.6c-10.8,2.2-20.6,4-29.3,5.2c-8.8,1.2-19,1.8-30.6,1.8
		C1473.6-3306.8,1459-3309.3,1448.4-3314.2z M1499.8-3401.3c6.3,0,10.9-1.3,13.6-3.8c2.8-2.5,4.1-6.9,4.1-13c0-9-2-15.2-6.1-18.8
		c-4.1-3.6-11-5.4-20.8-5.4c-7.1,0-12.7,1.2-16.7,3.5c-4,2.3-6.9,6.5-8.7,12.4c-1.8,5.9-2.8,14.3-2.8,25.1H1499.8z"/>
	<path class="st6" d="M1611.5-3308.5c-12.3-1.3-21.8-3.1-28.3-5.3v-26.6h72.8c6.7,0,11.5-0.9,14.4-2.8c2.9-1.8,4.3-5.4,4.3-10.7
		v-5.2c0-4.3-1.4-7.5-4.1-9.6c-2.8-2.1-7.6-3.2-14.5-3.2h-25.7c-15.3,0-27.4-3.5-36.4-10.5c-9-7-13.5-18.4-13.5-34.1v-9.5
		c0-16.3,4.9-28.4,14.8-36.2c9.9-7.8,27-11.8,51.2-11.8c10,0,20.9,0.8,32.7,2.3c11.8,1.5,20.8,3.3,26.9,5.4v26.6h-68.8
		c-6.3,0-10.9,1-13.8,3.1c-2.9,2-4.3,5.6-4.3,10.7v4.9c0,5.1,1.5,8.5,4.6,10.2c3.1,1.7,8.1,2.6,15.3,2.6h26.3
		c16.3,0,28.4,3.7,36.2,11.2c7.8,7.4,11.8,18.1,11.8,31.9v14.7c0,16.1-5.5,27.5-16.5,34.1c-11,6.6-27.7,9.9-50.1,9.9
		C1635.6-3306.5,1623.8-3307.2,1611.5-3308.5z"/>
</g>
<rect x="612.6" y="-3087.4" transform="matrix(-1 -1.224647e-16 1.224647e-16 -1 1382.9617 -5971.897)" class="st5" width="157.8" height="202.8"/>
<rect x="454.7" y="-3087.4" transform="matrix(-1 -1.224647e-16 1.224647e-16 -1 1067.295 -5971.897)" class="st6" width="157.8" height="202.8"/>
<g>
	<g>
		<path class="st7" d="M-3.7-3124.6h95.4c19,0,34.5,5.3,46.8,15.9c12.2,10.6,18.3,31.2,18.3,61.8c0,53-21.1,79.5-63.3,79.5
			c-6.5,0-15-0.6-25.4-1.7c-10.4-1.1-19.3-2.2-26.6-3.2v74H-3.7V-3124.6z M86.5-3008.1c8.1,0,14.3-3.1,18.5-9.2
			c4.2-6.1,6.3-15.9,6.3-29.3c0-24.9-7.9-37.3-23.8-37.3H41.6v75.8H86.5z"/>
		<path class="st7" d="M184-3062.5h34.9l10.4,25.1c6.5-8.6,13.5-15.2,20.9-20c7.4-4.8,15.9-7.2,25.5-7.2c5.3,0,9.8,0.5,13.5,1.5
			v46.5c-10.6-1-17-1.5-19.3-1.5c-8.8,0-16.3,1.4-22.6,4.3c-6.3,2.9-12.3,7.3-18,13.5v102.1H184V-3062.5z"/>
		<path class="st7" d="M338.7-2904.2c-10.6-4.9-18.3-13.3-23.1-25.4c-4.8-12-7.2-28.9-7.2-50.7c0-22.4,2.2-39.7,6.7-51.8
			c4.5-12.1,11.9-20.6,22.2-25.5c10.3-4.9,24.8-7.3,43.6-7.3c16.7,0,29.9,1.6,39.4,4.9c9.6,3.3,16.6,9,20.9,17.1
			c4.4,8.2,6.6,19.7,6.6,34.5c0,15.9-4.5,27.2-13.6,33.9c-9.1,6.7-22.3,10.1-39.6,10.1h-41.3c0.4,8.8,1.7,15.5,4,20.3
			c2.2,4.8,6.2,8.3,11.9,10.4c5.7,2.1,14.1,3.2,25.1,3.2h48v26.6c-10.8,2.2-20.6,4-29.3,5.2c-8.8,1.2-19,1.8-30.6,1.8
			C363.9-2896.8,349.3-2899.3,338.7-2904.2z M390.1-2991.3c6.3,0,10.9-1.3,13.6-3.8c2.8-2.5,4.1-6.9,4.1-13c0-9-2-15.2-6.1-18.8
			c-4.1-3.6-11-5.4-20.8-5.4c-7.1,0-12.7,1.2-16.7,3.5c-4,2.3-6.9,6.5-8.7,12.4c-1.8,5.9-2.8,14.3-2.8,25.1H390.1z"/>
		<path class="st4" d="M501.8-2898.5c-12.3-1.3-21.8-3.1-28.3-5.3v-26.6h72.8c6.7,0,11.5-0.9,14.4-2.8c2.9-1.8,4.3-5.4,4.3-10.7
			v-5.2c0-4.3-1.4-7.5-4.1-9.6c-2.8-2.1-7.6-3.2-14.5-3.2h-25.7c-15.3,0-27.4-3.5-36.4-10.5c-9-7-13.5-18.4-13.5-34.1v-9.5
			c0-16.3,4.9-28.4,14.8-36.2c9.9-7.8,27-11.8,51.2-11.8c10,0,20.9,0.8,32.7,2.3c11.8,1.5,20.8,3.3,26.9,5.4v26.6h-68.8
			c-6.3,0-10.9,1-13.8,3.1c-2.9,2-4.3,5.6-4.3,10.7v4.9c0,5.1,1.5,8.5,4.6,10.2c3.1,1.7,8.1,2.6,15.3,2.6h26.3
			c16.3,0,28.4,3.7,36.2,11.2c7.8,7.4,11.8,18.1,11.8,31.9v14.7c0,16.1-5.5,27.5-16.5,34.1c-11,6.6-27.7,9.9-50.1,9.9
			C525.9-2896.5,514.1-2897.2,501.8-2898.5z"/>
		<path class="st4" d="M656.2-2898.5c-12.3-1.3-21.8-3.1-28.3-5.3v-26.6h72.8c6.7,0,11.5-0.9,14.4-2.8c2.9-1.8,4.3-5.4,4.3-10.7
			v-5.2c0-4.3-1.4-7.5-4.1-9.6c-2.8-2.1-7.6-3.2-14.5-3.2H675c-15.3,0-27.4-3.5-36.4-10.5c-9-7-13.5-18.4-13.5-34.1v-9.5
			c0-16.3,4.9-28.4,14.8-36.2c9.9-7.8,27-11.8,51.2-11.8c10,0,20.9,0.8,32.7,2.3c11.8,1.5,20.8,3.3,26.9,5.4v26.6H682
			c-6.3,0-10.9,1-13.8,3.1c-2.9,2-4.3,5.6-4.3,10.7v4.9c0,5.1,1.5,8.5,4.6,10.2c3.1,1.7,8.1,2.6,15.3,2.6h26.3
			c16.3,0,28.4,3.7,36.2,11.2c7.8,7.4,11.8,18.1,11.8,31.9v14.7c0,16.1-5.5,27.5-16.5,34.1c-11,6.6-27.7,9.9-50.1,9.9
			C680.3-2896.5,668.5-2897.2,656.2-2898.5z"/>
		<path class="st7" d="M812.6-2904.6c-10.8-5.2-18.7-13.9-23.7-26c-5-12.1-7.5-28.9-7.5-50.3c0-22.2,2.5-39.4,7.5-51.5
			c5-12.1,12.9-20.6,23.7-25.4c10.8-4.8,25.5-7.2,44-7.2c18.7,0,33.5,2.5,44.3,7.5c10.8,5,18.7,13.6,23.7,25.7
			c5,12.1,7.5,29.1,7.5,50.9c0,21.8-2.4,38.8-7.3,50.9c-4.9,12.1-12.7,20.7-23.5,25.7c-10.8,5-25.7,7.5-44.6,7.5
			C838-2896.8,823.4-2899.4,812.6-2904.6z M874.6-2936.1c4.1-2.1,7.1-6.6,9.2-13.5c2-6.8,3.1-17.3,3.1-31.3c0-14.1-1-24.5-3.1-31.3
			c-2-6.8-5.1-11.3-9.2-13.5c-4.1-2.1-10.1-3.2-18-3.2c-7.7,0-13.7,1.1-17.7,3.2c-4.1,2.1-7.1,6.6-9.2,13.5
			c-2,6.8-3.1,17.3-3.1,31.3c0,14.1,1,24.5,3.1,31.3c2,6.8,5.1,11.3,9.2,13.5c4.1,2.1,10,3.2,17.7,3.2
			C864.5-2932.9,870.5-2934,874.6-2936.1z"/>
		<path class="st7" d="M973.8-2909.7c-8.3-8.8-12.4-21-12.4-36.7v-116.2h45.2v102.7c0,8.8,2,14.8,6,18.2c4,3.4,9.9,5,17.9,5
			c5.7,0,11.6-1.1,17.6-3.2c6-2.1,11.4-5,16-8.7v-114h45.6v164.2h-37.6l-7.9-16.8c-19,12.4-37.5,18.6-55.6,18.6
			C993.6-2896.5,982.1-2900.9,973.8-2909.7z"/>
		<path class="st7" d="M1143.9-3062.5h34.9l10.4,25.1c6.5-8.6,13.5-15.2,20.9-20c7.4-4.8,15.9-7.2,25.5-7.2c5.3,0,9.8,0.5,13.5,1.5
			v46.5c-10.6-1-17-1.5-19.3-1.5c-8.8,0-16.3,1.4-22.6,4.3c-6.3,2.9-12.3,7.3-18,13.5v102.1h-45.2V-3062.5z"/>
		<path class="st7" d="M1286.4-2915.2c-12-12.4-18-33.9-18-64.5c0-21.8,2.6-38.9,7.9-51.4c5.3-12.4,13-21.2,23.2-26.3
			c10.2-5.1,23.1-7.6,38.8-7.6c19.8,0,38.8,2.6,57.2,7.6v26h-43.1c-9.8,0-17.4,1.4-22.9,4.3c-5.5,2.9-9.5,7.9-12.1,15.3
			c-2.6,7.3-3.8,17.9-3.8,31.8c0,13.7,1.3,24,3.8,31c2.5,7,6.6,11.8,12.1,14.4c5.5,2.6,13.3,3.8,23.5,3.8h44.9v25.7
			c-7.7,2.4-17.2,4.5-28.4,6.1c-11.2,1.6-22,2.4-32.4,2.4C1315.3-2896.5,1298.4-2902.7,1286.4-2915.2z"/>
		<path class="st7" d="M1448.4-2904.2c-10.6-4.9-18.3-13.3-23.1-25.4c-4.8-12-7.2-28.9-7.2-50.7c0-22.4,2.2-39.7,6.7-51.8
			c4.5-12.1,11.9-20.6,22.2-25.5c10.3-4.9,24.8-7.3,43.6-7.3c16.7,0,29.9,1.6,39.4,4.9c9.6,3.3,16.6,9,20.9,17.1
			c4.4,8.2,6.6,19.7,6.6,34.5c0,15.9-4.5,27.2-13.6,33.9c-9.1,6.7-22.3,10.1-39.6,10.1h-41.3c0.4,8.8,1.7,15.5,4,20.3
			c2.2,4.8,6.2,8.3,11.9,10.4c5.7,2.1,14.1,3.2,25.1,3.2h48v26.6c-10.8,2.2-20.6,4-29.3,5.2c-8.8,1.2-19,1.8-30.6,1.8
			C1473.6-2896.8,1459-2899.3,1448.4-2904.2z M1499.8-2991.3c6.3,0,10.9-1.3,13.6-3.8c2.8-2.5,4.1-6.9,4.1-13c0-9-2-15.2-6.1-18.8
			c-4.1-3.6-11-5.4-20.8-5.4c-7.1,0-12.7,1.2-16.7,3.5c-4,2.3-6.9,6.5-8.7,12.4c-1.8,5.9-2.8,14.3-2.8,25.1H1499.8z"/>
		<path class="st7" d="M1611.5-2898.5c-12.3-1.3-21.8-3.1-28.3-5.3v-26.6h72.8c6.7,0,11.5-0.9,14.4-2.8c2.9-1.8,4.3-5.4,4.3-10.7
			v-5.2c0-4.3-1.4-7.5-4.1-9.6c-2.8-2.1-7.6-3.2-14.5-3.2h-25.7c-15.3,0-27.4-3.5-36.4-10.5c-9-7-13.5-18.4-13.5-34.1v-9.5
			c0-16.3,4.9-28.4,14.8-36.2c9.9-7.8,27-11.8,51.2-11.8c10,0,20.9,0.8,32.7,2.3c11.8,1.5,20.8,3.3,26.9,5.4v26.6h-68.8
			c-6.3,0-10.9,1-13.8,3.1c-2.9,2-4.3,5.6-4.3,10.7v4.9c0,5.1,1.5,8.5,4.6,10.2c3.1,1.7,8.1,2.6,15.3,2.6h26.3
			c16.3,0,28.4,3.7,36.2,11.2c7.8,7.4,11.8,18.1,11.8,31.9v14.7c0,16.1-5.5,27.5-16.5,34.1c-11,6.6-27.7,9.9-50.1,9.9
			C1635.6-2896.5,1623.8-2897.2,1611.5-2898.5z"/>
	</g>
</g>
<g>
	
		<rect x="3573" y="-4091.9" transform="matrix(-1 -1.224647e-16 1.224647e-16 -1 7241.4063 -8061.2837)" class="st5" width="95.4" height="122.6"/>
	
		<rect x="3477.6" y="-4091.9" transform="matrix(-1 -1.224647e-16 1.224647e-16 -1 7050.645 -8061.2837)" class="st6" width="95.4" height="122.6"/>
	<g>
		<g>
			<path class="st7" d="M3200.6-4114.4h57.6c11.5,0,20.9,3.2,28.3,9.6c7.4,6.4,11.1,18.8,11.1,37.3c0,32-12.7,48-38.2,48
				c-3.9,0-9.1-0.3-15.3-1c-6.3-0.7-11.6-1.3-16.1-1.9v44.7h-27.3V-4114.4z M3255.1-4044c4.9,0,8.7-1.8,11.2-5.5
				c2.5-3.7,3.8-9.6,3.8-17.7c0-15-4.8-22.5-14.4-22.5H3228v45.8H3255.1z"/>
			<path class="st7" d="M3314-4076.9h21.1l6.3,15.1c3.9-5.2,8.2-9.2,12.7-12.1c4.5-2.9,9.6-4.3,15.4-4.3c3.2,0,5.9,0.3,8.1,0.9v28.1
				c-6.4-0.6-10.3-0.9-11.6-0.9c-5.3,0-9.9,0.9-13.7,2.6c-3.8,1.7-7.5,4.4-10.9,8.1v61.7H3314V-4076.9z"/>
			<path class="st7" d="M3407.5-3981.2c-6.4-3-11.1-8.1-13.9-15.3c-2.9-7.3-4.3-17.5-4.3-30.7c0-13.5,1.4-24,4.1-31.3
				c2.7-7.3,7.2-12.5,13.4-15.4c6.2-3,15-4.4,26.3-4.4c10.1,0,18,1,23.8,3c5.8,2,10,5.4,12.7,10.3c2.6,4.9,4,11.9,4,20.9
				c0,9.6-2.7,16.4-8.2,20.5c-5.5,4.1-13.5,6.1-23.9,6.1h-24.9c0.2,5.3,1,9.4,2.4,12.3c1.4,2.9,3.8,5,7.2,6.3
				c3.4,1.3,8.5,1.9,15.1,1.9h29v16.1c-6.5,1.4-12.4,2.4-17.7,3.1c-5.3,0.7-11.5,1.1-18.5,1.1
				C3422.7-3976.8,3413.9-3978.3,3407.5-3981.2z M3438.6-4033.9c3.8,0,6.6-0.8,8.2-2.3c1.7-1.5,2.5-4.2,2.5-7.9
				c0-5.4-1.2-9.2-3.7-11.4c-2.5-2.2-6.7-3.2-12.6-3.2c-4.3,0-7.7,0.7-10.1,2.1c-2.4,1.4-4.2,3.9-5.3,7.5c-1.1,3.6-1.7,8.6-1.7,15.1
				H3438.6z"/>
			<path class="st4" d="M3506.1-3977.8c-7.5-0.8-13.1-1.9-17.1-3.2v-16.1h44c4.1,0,7-0.6,8.7-1.7c1.7-1.1,2.6-3.3,2.6-6.5v-3.1
				c0-2.6-0.8-4.5-2.5-5.8c-1.7-1.3-4.6-1.9-8.8-1.9h-15.5c-9.2,0-16.6-2.1-22-6.4c-5.4-4.2-8.1-11.1-8.1-20.6v-5.7
				c0-9.9,3-17.1,9-21.9c6-4.7,16.3-7.1,30.9-7.1c6,0,12.6,0.5,19.8,1.4c7.1,0.9,12.6,2,16.3,3.2v16.1h-41.6c-3.8,0-6.6,0.6-8.3,1.8
				c-1.7,1.2-2.6,3.4-2.6,6.5v3c0,3.1,0.9,5.1,2.8,6.2c1.8,1,4.9,1.6,9.2,1.6h15.9c9.9,0,17.1,2.2,21.9,6.7
				c4.7,4.5,7.1,10.9,7.1,19.3v8.9c0,9.7-3.3,16.6-10,20.6c-6.7,4-16.8,6-30.3,6C3520.6-3976.6,3513.5-3977,3506.1-3977.8z"/>
			<path class="st4" d="M3599.4-3977.8c-7.5-0.8-13.1-1.9-17.1-3.2v-16.1h44c4.1,0,7-0.6,8.7-1.7c1.7-1.1,2.6-3.3,2.6-6.5v-3.1
				c0-2.6-0.8-4.5-2.5-5.8c-1.7-1.3-4.6-1.9-8.8-1.9h-15.5c-9.2,0-16.6-2.1-22-6.4c-5.4-4.2-8.1-11.1-8.1-20.6v-5.7
				c0-9.9,3-17.1,9-21.9c6-4.7,16.3-7.1,30.9-7.1c6,0,12.6,0.5,19.8,1.4c7.1,0.9,12.6,2,16.3,3.2v16.1H3615c-3.8,0-6.6,0.6-8.3,1.8
				c-1.7,1.2-2.6,3.4-2.6,6.5v3c0,3.1,0.9,5.1,2.8,6.2c1.8,1,4.9,1.6,9.2,1.6h15.9c9.9,0,17.1,2.2,21.9,6.7
				c4.7,4.5,7.1,10.9,7.1,19.3v8.9c0,9.7-3.3,16.6-10,20.6c-6.7,4-16.8,6-30.3,6C3613.9-3976.6,3606.8-3977,3599.4-3977.8z"/>
			<path class="st7" d="M3693.9-3981.5c-6.5-3.1-11.3-8.4-14.3-15.7c-3-7.3-4.5-17.5-4.5-30.4c0-13.4,1.5-23.8,4.5-31.1
				c3-7.3,7.8-12.4,14.3-15.3c6.5-2.9,15.4-4.3,26.6-4.3c11.3,0,20.3,1.5,26.8,4.5c6.5,3,11.3,8.2,14.3,15.5
				c3,7.3,4.5,17.6,4.5,30.8c0,13.2-1.5,23.4-4.4,30.8c-3,7.3-7.7,12.5-14.2,15.5c-6.5,3-15.5,4.5-27,4.5
				C3709.3-3976.8,3700.4-3978.3,3693.9-3981.5z M3731.4-4000.5c2.5-1.3,4.3-4,5.5-8.1c1.2-4.1,1.8-10.4,1.8-18.9
				c0-8.5-0.6-14.8-1.8-18.9c-1.2-4.1-3.1-6.8-5.5-8.1c-2.5-1.3-6.1-1.9-10.9-1.9c-4.7,0-8.3,0.6-10.7,1.9c-2.5,1.3-4.3,4-5.5,8.1
				c-1.2,4.1-1.8,10.4-1.8,18.9c0,8.5,0.6,14.8,1.8,18.9c1.2,4.1,3.1,6.8,5.5,8.1c2.5,1.3,6,1.9,10.7,1.9
				C3725.3-3998.6,3728.9-3999.2,3731.4-4000.5z"/>
			<path class="st7" d="M3791.3-3984.5c-5-5.3-7.5-12.7-7.5-22.2v-70.2h27.3v62.1c0,5.3,1.2,9,3.6,11c2.4,2,6,3,10.8,3
				c3.4,0,7-0.6,10.6-1.9c3.6-1.3,6.9-3,9.7-5.3v-68.9h27.5v99.2h-22.7l-4.8-10.2c-11.5,7.5-22.7,11.3-33.6,11.3
				C3803.3-3976.6,3796.3-3979.2,3791.3-3984.5z"/>
			<path class="st7" d="M3894.1-4076.9h21.1l6.3,15.1c3.9-5.2,8.2-9.2,12.7-12.1c4.5-2.9,9.6-4.3,15.4-4.3c3.2,0,5.9,0.3,8.1,0.9
				v28.1c-6.4-0.6-10.3-0.9-11.6-0.9c-5.3,0-9.9,0.9-13.7,2.6c-3.8,1.7-7.5,4.4-10.9,8.1v61.7h-27.3V-4076.9z"/>
			<path class="st7" d="M3980.2-3987.9c-7.3-7.5-10.9-20.5-10.9-39c0-13.2,1.6-23.5,4.8-31c3.2-7.5,7.9-12.8,14-15.9
				c6.2-3.1,14-4.6,23.5-4.6c11.9,0,23.5,1.5,34.5,4.6v15.7h-26c-5.9,0-10.5,0.9-13.9,2.6c-3.3,1.7-5.8,4.8-7.3,9.2
				c-1.5,4.4-2.3,10.8-2.3,19.2c0,8.3,0.8,14.5,2.3,18.8c1.5,4.2,4,7.1,7.3,8.7c3.3,1.5,8.1,2.3,14.2,2.3h27.2v15.5
				c-4.7,1.5-10.4,2.7-17.2,3.7c-6.8,1-13.3,1.5-19.6,1.5C3997.7-3976.6,3987.5-3980.3,3980.2-3987.9z"/>
			<path class="st7" d="M4078.1-3981.2c-6.4-3-11.1-8.1-13.9-15.3c-2.9-7.3-4.3-17.5-4.3-30.7c0-13.5,1.4-24,4.1-31.3
				c2.7-7.3,7.2-12.5,13.4-15.4c6.2-3,15-4.4,26.3-4.4c10.1,0,18,1,23.8,3c5.8,2,10,5.4,12.7,10.3c2.6,4.9,4,11.9,4,20.9
				c0,9.6-2.7,16.4-8.2,20.5c-5.5,4.1-13.5,6.1-23.9,6.1H4087c0.2,5.3,1,9.4,2.4,12.3c1.4,2.9,3.8,5,7.2,6.3
				c3.4,1.3,8.5,1.9,15.1,1.9h29v16.1c-6.5,1.4-12.4,2.4-17.7,3.1c-5.3,0.7-11.5,1.1-18.5,1.1
				C4093.3-3976.8,4084.5-3978.3,4078.1-3981.2z M4109.2-4033.9c3.8,0,6.6-0.8,8.2-2.3c1.7-1.5,2.5-4.2,2.5-7.9
				c0-5.4-1.2-9.2-3.7-11.4c-2.5-2.2-6.7-3.2-12.6-3.2c-4.3,0-7.7,0.7-10.1,2.1c-2.4,1.4-4.2,3.9-5.3,7.5c-1.1,3.6-1.7,8.6-1.7,15.1
				H4109.2z"/>
			<path class="st7" d="M4176.7-3977.8c-7.5-0.8-13.1-1.9-17.1-3.2v-16.1h44c4.1,0,7-0.6,8.7-1.7c1.7-1.1,2.6-3.3,2.6-6.5v-3.1
				c0-2.6-0.8-4.5-2.5-5.8c-1.7-1.3-4.6-1.9-8.8-1.9h-15.5c-9.2,0-16.6-2.1-22-6.4c-5.4-4.2-8.1-11.1-8.1-20.6v-5.7
				c0-9.9,3-17.1,9-21.9c6-4.7,16.3-7.1,30.9-7.1c6,0,12.6,0.5,19.8,1.4c7.1,0.9,12.6,2,16.3,3.2v16.1h-41.6c-3.8,0-6.6,0.6-8.3,1.8
				c-1.7,1.2-2.6,3.4-2.6,6.5v3c0,3.1,0.9,5.1,2.8,6.2c1.8,1,4.9,1.6,9.2,1.6h15.9c9.9,0,17.1,2.2,21.9,6.7
				c4.7,4.5,7.1,10.9,7.1,19.3v8.9c0,9.7-3.3,16.6-10,20.6c-6.7,4-16.8,6-30.3,6C4191.3-3976.6,4184.1-3977,4176.7-3977.8z"/>
		</g>
	</g>
</g>
<g class="st0">
	
		<rect x="2905.2" y="-4524" transform="matrix(-1 -1.224647e-16 1.224647e-16 -1 5905.061 -8906.6201)" class="st5" width="94.7" height="141.4"/>
	
		<rect x="2810.4" y="-4524" transform="matrix(-1 -1.224647e-16 1.224647e-16 -1 5715.6074 -8906.6201)" class="st5" width="94.7" height="141.4"/>
	<g>
		<g>
			<g>
				<g>
					<path class="st5" d="M2535.3-4550h57.2c11.4,0,20.7,3.7,28.1,11.1c7.3,7.4,11,21.7,11,43.1c0,37-12.7,55.4-38,55.4
						c-3.9,0-9-0.4-15.2-1.2c-6.2-0.8-11.6-1.5-16-2.2v51.6h-27.2V-4550z M2589.4-4468.8c4.9,0,8.6-2.1,11.1-6.4
						c2.5-4.3,3.8-11.1,3.8-20.5c0-17.3-4.8-26-14.3-26h-27.5v52.9H2589.4z"/>
				</g>
			</g>
			<g>
				<g>
					<path class="st5" d="M2648-4506.7h20.9l6.2,17.5c3.9-6,8.1-10.6,12.6-14c4.5-3.3,9.6-5,15.3-5c3.2,0,5.9,0.4,8.1,1.1v32.4
						c-6.4-0.7-10.2-1.1-11.6-1.1c-5.3,0-9.8,1-13.6,3c-3.8,2-7.4,5.1-10.8,9.4v71.2H2648V-4506.7z"/>
				</g>
			</g>
			<g>
				<g>
					<path class="st5" d="M2740.8-4396.3c-6.4-3.4-11-9.3-13.9-17.7c-2.9-8.4-4.3-20.2-4.3-35.4c0-15.6,1.3-27.7,4-36.1
						c2.7-8.5,7.1-14.4,13.3-17.8c6.2-3.4,14.9-5.1,26.1-5.1c10,0,17.9,1.1,23.7,3.4c5.7,2.3,9.9,6.3,12.6,11.9
						c2.6,5.7,3.9,13.7,3.9,24.1c0,11.1-2.7,19-8.2,23.7c-5.4,4.7-13.4,7-23.8,7h-24.8c0.2,6.1,1,10.8,2.4,14.2
						c1.3,3.3,3.7,5.8,7.2,7.2c3.4,1.5,8.4,2.2,15,2.2h28.8v18.5c-6.5,1.6-12.4,2.8-17.6,3.6c-5.3,0.9-11.4,1.3-18.3,1.3
						C2755.9-4391.2,2747.2-4392.9,2740.8-4396.3z M2771.6-4457c3.8,0,6.5-0.9,8.2-2.7c1.7-1.8,2.5-4.8,2.5-9.1
						c0-6.3-1.2-10.6-3.7-13.1c-2.4-2.5-6.6-3.7-12.5-3.7c-4.3,0-7.6,0.8-10,2.5c-2.4,1.6-4.1,4.5-5.2,8.6
						c-1.1,4.1-1.7,9.9-1.7,17.5H2771.6z"/>
				</g>
			</g>
			<g>
				<g>
					<path class="st5" d="M2838.7-4392.3c-7.4-0.9-13.1-2.2-17-3.7v-18.5h43.7c4,0,6.9-0.6,8.6-1.9c1.7-1.3,2.6-3.8,2.6-7.5v-3.6
						c0-3-0.8-5.2-2.5-6.7c-1.7-1.5-4.6-2.2-8.7-2.2H2850c-9.2,0-16.5-2.5-21.8-7.4c-5.4-4.9-8.1-12.8-8.1-23.8v-6.6
						c0-11.4,3-19.8,8.9-25.3c5.9-5.5,16.2-8.2,30.7-8.2c6,0,12.5,0.5,19.6,1.6c7.1,1.1,12.5,2.3,16.1,3.7v18.5h-41.3
						c-3.8,0-6.5,0.7-8.3,2.1c-1.7,1.4-2.6,3.9-2.6,7.5v3.4c0,3.6,0.9,5.9,2.8,7.1c1.8,1.2,4.9,1.8,9.2,1.8h15.8
						c9.8,0,17,2.6,21.7,7.8c4.7,5.2,7.1,12.6,7.1,22.3v10.2c0,11.2-3.3,19.2-9.9,23.8c-6.6,4.6-16.6,6.9-30.1,6.9
						C2853.2-4390.9,2846.1-4391.4,2838.7-4392.3z"/>
				</g>
			</g>
			<g>
				<g>
					<path class="st5" d="M2931.3-4392.3c-7.4-0.9-13.1-2.2-17-3.7v-18.5h43.7c4,0,6.9-0.6,8.6-1.9c1.7-1.3,2.6-3.8,2.6-7.5v-3.6
						c0-3-0.8-5.2-2.5-6.7c-1.7-1.5-4.6-2.2-8.7-2.2h-15.4c-9.2,0-16.5-2.5-21.8-7.4c-5.4-4.9-8.1-12.8-8.1-23.8v-6.6
						c0-11.4,3-19.8,8.9-25.3c5.9-5.5,16.2-8.2,30.7-8.2c6,0,12.5,0.5,19.6,1.6c7.1,1.1,12.5,2.3,16.1,3.7v18.5h-41.3
						c-3.8,0-6.5,0.7-8.3,2.1c-1.7,1.4-2.6,3.9-2.6,7.5v3.4c0,3.6,0.9,5.9,2.8,7.1c1.8,1.2,4.9,1.8,9.2,1.8h15.8
						c9.8,0,17,2.6,21.7,7.8c4.7,5.2,7.1,12.6,7.1,22.3v10.2c0,11.2-3.3,19.2-9.9,23.8c-6.6,4.6-16.6,6.9-30.1,6.9
						C2945.8-4390.9,2938.7-4391.4,2931.3-4392.3z"/>
				</g>
			</g>
			<g>
				<g>
					<path class="st5" d="M3025.2-4396.6c-6.5-3.6-11.2-9.7-14.2-18.1c-3-8.5-4.5-20.1-4.5-35.1c0-15.5,1.5-27.5,4.5-35.9
						c3-8.5,7.7-14.4,14.2-17.7c6.5-3.3,15.3-5,26.4-5c11.3,0,20.1,1.7,26.6,5.2c6.5,3.5,11.2,9.5,14.2,17.9
						c3,8.5,4.5,20.3,4.5,35.5c0,15.2-1.5,27-4.4,35.5c-2.9,8.5-7.6,14.4-14.1,17.9c-6.5,3.5-15.4,5.2-26.8,5.2
						C3040.5-4391.2,3031.7-4393,3025.2-4396.6z M3062.4-4418.6c2.4-1.5,4.3-4.6,5.5-9.4c1.2-4.8,1.8-12,1.8-21.9
						c0-9.8-0.6-17.1-1.8-21.9c-1.2-4.8-3.1-7.9-5.5-9.4c-2.4-1.5-6.1-2.2-10.8-2.2c-4.6,0-8.2,0.7-10.6,2.2
						c-2.4,1.5-4.3,4.6-5.5,9.4c-1.2,4.8-1.8,12-1.8,21.9c0,9.8,0.6,17.1,1.8,21.9c1.2,4.8,3.1,7.9,5.5,9.4c2.4,1.5,6,2.2,10.6,2.2
						C3056.4-4416.3,3060-4417.1,3062.4-4418.6z"/>
				</g>
			</g>
			<g>
				<g>
					<path class="st5" d="M3122-4400.1c-5-6.1-7.4-14.6-7.4-25.6v-81h27.2v71.6c0,6.1,1.2,10.3,3.6,12.7c2.4,2.3,6,3.5,10.7,3.5
						c3.4,0,6.9-0.7,10.6-2.2c3.6-1.5,6.8-3.5,9.6-6.1v-79.5h27.3v114.5H3181l-4.8-11.7c-11.4,8.7-22.5,13-33.4,13
						C3133.9-4390.9,3126.9-4394,3122-4400.1z"/>
				</g>
			</g>
			<g>
				<g>
					<path class="st5" d="M3224.1-4506.7h20.9l6.2,17.5c3.9-6,8.1-10.6,12.6-14c4.5-3.3,9.6-5,15.3-5c3.2,0,5.9,0.4,8.1,1.1v32.4
						c-6.4-0.7-10.2-1.1-11.6-1.1c-5.3,0-9.8,1-13.6,3c-3.8,2-7.4,5.1-10.8,9.4v71.2h-27.2V-4506.7z"/>
				</g>
			</g>
			<g>
				<g>
					<path class="st5" d="M3309.6-4403.9c-7.2-8.7-10.8-23.7-10.8-45c0-15.2,1.6-27.1,4.8-35.8c3.2-8.7,7.8-14.8,13.9-18.3
						c6.1-3.6,13.9-5.3,23.3-5.3c11.9,0,23.3,1.8,34.3,5.3v18.1h-25.9c-5.9,0-10.5,1-13.8,3c-3.3,2-5.7,5.5-7.2,10.7
						c-1.5,5.1-2.3,12.5-2.3,22.2c0,9.5,0.8,16.7,2.3,21.6c1.5,4.9,3.9,8.2,7.2,10c3.3,1.8,8,2.7,14.1,2.7h27v17.9
						c-4.7,1.7-10.3,3.1-17.1,4.3c-6.7,1.1-13.2,1.7-19.4,1.7C3327-4390.9,3316.8-4395.3,3309.6-4403.9z"/>
				</g>
			</g>
			<g>
				<g>
					<path class="st5" d="M3406.8-4396.3c-6.4-3.4-11-9.3-13.9-17.7c-2.9-8.4-4.3-20.2-4.3-35.4c0-15.6,1.3-27.7,4-36.1
						c2.7-8.5,7.1-14.4,13.3-17.8c6.2-3.4,14.9-5.1,26.1-5.1c10,0,17.9,1.1,23.7,3.4c5.7,2.3,9.9,6.3,12.6,11.9
						c2.6,5.7,3.9,13.7,3.9,24.1c0,11.1-2.7,19-8.2,23.7c-5.4,4.7-13.4,7-23.8,7h-24.8c0.2,6.1,1,10.8,2.4,14.2
						c1.3,3.3,3.7,5.8,7.2,7.2c3.4,1.5,8.4,2.2,15,2.2h28.8v18.5c-6.5,1.6-12.4,2.8-17.6,3.6c-5.3,0.9-11.4,1.3-18.3,1.3
						C3421.9-4391.2,3413.2-4392.9,3406.8-4396.3z M3437.7-4457c3.8,0,6.5-0.9,8.2-2.7c1.7-1.8,2.5-4.8,2.5-9.1
						c0-6.3-1.2-10.6-3.7-13.1c-2.4-2.5-6.6-3.7-12.5-3.7c-4.3,0-7.6,0.8-10,2.5c-2.4,1.6-4.1,4.5-5.2,8.6
						c-1.1,4.1-1.7,9.9-1.7,17.5H3437.7z"/>
				</g>
			</g>
			<g>
				<g>
					<path class="st5" d="M3504.7-4392.3c-7.4-0.9-13.1-2.2-17-3.7v-18.5h43.7c4,0,6.9-0.6,8.6-1.9c1.7-1.3,2.6-3.8,2.6-7.5v-3.6
						c0-3-0.8-5.2-2.5-6.7c-1.7-1.5-4.6-2.2-8.7-2.2H3516c-9.2,0-16.5-2.5-21.8-7.4c-5.4-4.9-8.1-12.8-8.1-23.8v-6.6
						c0-11.4,3-19.8,8.9-25.3c5.9-5.5,16.2-8.2,30.7-8.2c6,0,12.5,0.5,19.6,1.6c7.1,1.1,12.5,2.3,16.1,3.7v18.5h-41.3
						c-3.8,0-6.5,0.7-8.3,2.1c-1.7,1.4-2.6,3.9-2.6,7.5v3.4c0,3.6,0.9,5.9,2.8,7.1c1.8,1.2,4.9,1.8,9.2,1.8h15.8
						c9.8,0,17,2.6,21.7,7.8c4.7,5.2,7.1,12.6,7.1,22.3v10.2c0,11.2-3.3,19.2-9.9,23.8c-6.6,4.6-16.6,6.9-30.1,6.9
						C3519.2-4390.9,3512.1-4391.4,3504.7-4392.3z"/>
				</g>
			</g>
		</g>
	</g>
</g>
<g>
	
		<rect x="2907.7" y="-4524.3" transform="matrix(-1 -1.224647e-16 1.224647e-16 -1 5910.8198 -8926.1182)" class="st5" width="95.4" height="122.6"/>
	
		<rect x="2812.3" y="-4524.3" transform="matrix(-1 -1.224647e-16 1.224647e-16 -1 5720.0591 -8926.1182)" class="st6" width="95.4" height="122.6"/>
	<g>
		<g>
			<path class="st7" d="M2535.3-4546.8h57.6c11.5,0,20.9,3.2,28.3,9.6c7.4,6.4,11.1,18.8,11.1,37.3c0,32-12.7,48-38.2,48
				c-3.9,0-9.1-0.3-15.3-1c-6.3-0.7-11.6-1.3-16.1-1.9v44.7h-27.3V-4546.8z M2589.8-4476.4c4.9,0,8.7-1.8,11.2-5.5
				c2.5-3.7,3.8-9.6,3.8-17.7c0-15-4.8-22.5-14.4-22.5h-27.7v45.8H2589.8z"/>
			<path class="st7" d="M2648.7-4509.3h21.1l6.3,15.1c3.9-5.2,8.2-9.2,12.7-12.1c4.5-2.9,9.6-4.3,15.4-4.3c3.2,0,5.9,0.3,8.1,0.9
				v28.1c-6.4-0.6-10.3-0.9-11.6-0.9c-5.3,0-9.9,0.9-13.7,2.6c-3.8,1.7-7.5,4.4-10.9,8.1v61.7h-27.3V-4509.3z"/>
			<path class="st7" d="M2742.2-4413.6c-6.4-3-11.1-8.1-13.9-15.3c-2.9-7.3-4.3-17.5-4.3-30.7c0-13.5,1.4-24,4.1-31.3
				c2.7-7.3,7.2-12.5,13.4-15.4c6.2-3,15-4.4,26.3-4.4c10.1,0,18,1,23.8,3c5.8,2,10,5.4,12.7,10.3c2.6,4.9,4,11.9,4,20.9
				c0,9.6-2.7,16.4-8.2,20.5c-5.5,4.1-13.5,6.1-23.9,6.1h-24.9c0.2,5.3,1,9.4,2.4,12.3c1.4,2.9,3.8,5,7.2,6.3
				c3.4,1.3,8.5,1.9,15.1,1.9h29v16.1c-6.5,1.4-12.4,2.4-17.7,3.1c-5.3,0.7-11.5,1.1-18.5,1.1
				C2757.4-4409.2,2748.6-4410.7,2742.2-4413.6z M2773.3-4466.3c3.8,0,6.6-0.8,8.2-2.3c1.7-1.5,2.5-4.2,2.5-7.9
				c0-5.4-1.2-9.2-3.7-11.4c-2.5-2.2-6.7-3.2-12.6-3.2c-4.3,0-7.7,0.7-10.1,2.1c-2.4,1.4-4.2,3.9-5.3,7.5c-1.1,3.6-1.7,8.6-1.7,15.1
				H2773.3z"/>
			<path class="st4" d="M2840.8-4410.2c-7.5-0.8-13.1-1.9-17.1-3.2v-16.1h44c4.1,0,7-0.6,8.7-1.7c1.7-1.1,2.6-3.3,2.6-6.5v-3.1
				c0-2.6-0.8-4.5-2.5-5.8c-1.7-1.3-4.6-1.9-8.8-1.9h-15.5c-9.2,0-16.6-2.1-22-6.4c-5.4-4.2-8.1-11.1-8.1-20.6v-5.7
				c0-9.9,3-17.1,9-21.9c6-4.7,16.3-7.1,30.9-7.1c6,0,12.6,0.5,19.8,1.4c7.1,0.9,12.6,2,16.3,3.2v16.1h-41.6c-3.8,0-6.6,0.6-8.3,1.8
				c-1.7,1.2-2.6,3.4-2.6,6.5v3c0,3.1,0.9,5.1,2.8,6.2c1.8,1,4.9,1.6,9.2,1.6h15.9c9.9,0,17.1,2.2,21.9,6.7
				c4.7,4.5,7.1,10.9,7.1,19.3v8.9c0,9.7-3.3,16.6-10,20.6c-6.7,4-16.8,6-30.3,6C2855.4-4409,2848.2-4409.4,2840.8-4410.2z"/>
			<path class="st4" d="M2934.1-4410.2c-7.5-0.8-13.1-1.9-17.1-3.2v-16.1h44c4.1,0,7-0.6,8.7-1.7c1.7-1.1,2.6-3.3,2.6-6.5v-3.1
				c0-2.6-0.8-4.5-2.5-5.8c-1.7-1.3-4.6-1.9-8.8-1.9h-15.5c-9.2,0-16.6-2.1-22-6.4c-5.4-4.2-8.1-11.1-8.1-20.6v-5.7
				c0-9.9,3-17.1,9-21.9c6-4.7,16.3-7.1,30.9-7.1c6,0,12.6,0.5,19.8,1.4c7.1,0.9,12.6,2,16.3,3.2v16.1h-41.6c-3.8,0-6.6,0.6-8.3,1.8
				c-1.7,1.2-2.6,3.4-2.6,6.5v3c0,3.1,0.9,5.1,2.8,6.2c1.8,1,4.9,1.6,9.2,1.6h15.9c9.9,0,17.1,2.2,21.9,6.7
				c4.7,4.5,7.1,10.9,7.1,19.3v8.9c0,9.7-3.3,16.6-10,20.6c-6.7,4-16.8,6-30.3,6C2948.6-4409,2941.5-4409.4,2934.1-4410.2z"/>
			<path class="st7" d="M3028.6-4413.9c-6.5-3.1-11.3-8.4-14.3-15.7c-3-7.3-4.5-17.5-4.5-30.4c0-13.4,1.5-23.8,4.5-31.1
				c3-7.3,7.8-12.4,14.3-15.3c6.5-2.9,15.4-4.3,26.6-4.3c11.3,0,20.3,1.5,26.8,4.5c6.5,3,11.3,8.2,14.3,15.5
				c3,7.3,4.5,17.6,4.5,30.8c0,13.2-1.5,23.4-4.4,30.8c-3,7.3-7.7,12.5-14.2,15.5c-6.5,3-15.5,4.5-27,4.5
				C3044-4409.2,3035.1-4410.8,3028.6-4413.9z M3066.1-4432.9c2.5-1.3,4.3-4,5.5-8.1c1.2-4.1,1.8-10.4,1.8-18.9
				c0-8.5-0.6-14.8-1.8-18.9c-1.2-4.1-3.1-6.8-5.5-8.1c-2.5-1.3-6.1-1.9-10.9-1.9c-4.7,0-8.3,0.6-10.7,1.9c-2.5,1.3-4.3,4-5.5,8.1
				c-1.2,4.1-1.8,10.4-1.8,18.9c0,8.5,0.6,14.8,1.8,18.9c1.2,4.1,3.1,6.8,5.5,8.1c2.5,1.3,6,1.9,10.7,1.9
				C3060-4431,3063.6-4431.6,3066.1-4432.9z"/>
			<path class="st7" d="M3126-4417c-5-5.3-7.5-12.7-7.5-22.2v-70.2h27.3v62.1c0,5.3,1.2,9,3.6,11c2.4,2,6,3,10.8,3
				c3.4,0,7-0.6,10.6-1.9c3.6-1.3,6.9-3,9.7-5.3v-68.9h27.5v99.2h-22.7l-4.8-10.2c-11.5,7.5-22.7,11.3-33.6,11.3
				C3138-4409,3131-4411.7,3126-4417z"/>
			<path class="st7" d="M3228.8-4509.3h21.1l6.3,15.1c3.9-5.2,8.2-9.2,12.7-12.1c4.5-2.9,9.6-4.3,15.4-4.3c3.2,0,5.9,0.3,8.1,0.9
				v28.1c-6.4-0.6-10.3-0.9-11.6-0.9c-5.3,0-9.9,0.9-13.7,2.6c-3.8,1.7-7.5,4.4-10.9,8.1v61.7h-27.3V-4509.3z"/>
			<path class="st7" d="M3314.9-4420.3c-7.3-7.5-10.9-20.5-10.9-39c0-13.2,1.6-23.5,4.8-31c3.2-7.5,7.9-12.8,14-15.9
				c6.2-3.1,14-4.6,23.5-4.6c11.9,0,23.5,1.5,34.5,4.6v15.7h-26c-5.9,0-10.5,0.9-13.9,2.6c-3.3,1.7-5.8,4.8-7.3,9.2
				c-1.5,4.4-2.3,10.8-2.3,19.2c0,8.3,0.8,14.5,2.3,18.8c1.5,4.2,4,7.1,7.3,8.7c3.3,1.5,8.1,2.3,14.2,2.3h27.2v15.5
				c-4.7,1.5-10.4,2.7-17.2,3.7c-6.8,1-13.3,1.5-19.6,1.5C3332.4-4409,3322.2-4412.8,3314.9-4420.3z"/>
			<path class="st7" d="M3412.8-4413.6c-6.4-3-11.1-8.1-13.9-15.3c-2.9-7.3-4.3-17.5-4.3-30.7c0-13.5,1.4-24,4.1-31.3
				c2.7-7.3,7.2-12.5,13.4-15.4c6.2-3,15-4.4,26.3-4.4c10.1,0,18,1,23.8,3c5.8,2,10,5.4,12.7,10.3c2.6,4.9,4,11.9,4,20.9
				c0,9.6-2.7,16.4-8.2,20.5c-5.5,4.1-13.5,6.1-23.9,6.1h-24.9c0.2,5.3,1,9.4,2.4,12.3c1.4,2.9,3.8,5,7.2,6.3
				c3.4,1.3,8.5,1.9,15.1,1.9h29v16.1c-6.5,1.4-12.4,2.4-17.7,3.1c-5.3,0.7-11.5,1.1-18.5,1.1
				C3428.1-4409.2,3419.2-4410.7,3412.8-4413.6z M3443.9-4466.3c3.8,0,6.6-0.8,8.2-2.3c1.7-1.5,2.5-4.2,2.5-7.9
				c0-5.4-1.2-9.2-3.7-11.4c-2.5-2.2-6.7-3.2-12.6-3.2c-4.3,0-7.7,0.7-10.1,2.1c-2.4,1.4-4.2,3.9-5.3,7.5c-1.1,3.6-1.7,8.6-1.7,15.1
				H3443.9z"/>
			<path class="st7" d="M3511.4-4410.2c-7.5-0.8-13.1-1.9-17.1-3.2v-16.1h44c4.1,0,7-0.6,8.7-1.7c1.7-1.1,2.6-3.3,2.6-6.5v-3.1
				c0-2.6-0.8-4.5-2.5-5.8c-1.7-1.3-4.6-1.9-8.8-1.9h-15.5c-9.2,0-16.6-2.1-22-6.4c-5.4-4.2-8.1-11.1-8.1-20.6v-5.7
				c0-9.9,3-17.1,9-21.9c6-4.7,16.3-7.1,30.9-7.1c6,0,12.6,0.5,19.8,1.4c7.1,0.9,12.6,2,16.3,3.2v16.1H3527c-3.8,0-6.6,0.6-8.3,1.8
				c-1.7,1.2-2.6,3.4-2.6,6.5v3c0,3.1,0.9,5.1,2.8,6.2c1.8,1,4.9,1.6,9.2,1.6h15.9c9.9,0,17.1,2.2,21.9,6.7
				c4.7,4.5,7.1,10.9,7.1,19.3v8.9c0,9.7-3.3,16.6-10,20.6c-6.7,4-16.8,6-30.3,6C3526-4409,3518.9-4409.4,3511.4-4410.2z"/>
		</g>
	</g>
</g>
<rect x="-64.8" y="-2770" class="st1" width="1834" height="358"/>
<rect x="612.6" y="-2677.4" transform="matrix(-1 -1.224647e-16 1.224647e-16 -1 1382.9617 -5151.897)" class="st5" width="157.8" height="202.8"/>
<rect x="454.7" y="-2677.4" transform="matrix(-1 -1.224647e-16 1.224647e-16 -1 1067.295 -5151.897)" class="st7" width="157.8" height="202.8"/>
<g>
	<g>
		<path class="st7" d="M-3.7-2714.6h95.4c19,0,34.5,5.3,46.8,15.9c12.2,10.6,18.3,31.2,18.3,61.8c0,53-21.1,79.5-63.3,79.5
			c-6.5,0-15-0.6-25.4-1.7c-10.4-1.1-19.3-2.2-26.6-3.2v74H-3.7V-2714.6z M86.5-2598.1c8.1,0,14.3-3.1,18.5-9.2
			c4.2-6.1,6.3-15.9,6.3-29.3c0-24.9-7.9-37.3-23.8-37.3H41.6v75.8H86.5z"/>
		<path class="st7" d="M184-2652.5h34.9l10.4,25.1c6.5-8.6,13.5-15.2,20.9-20c7.4-4.8,15.9-7.2,25.5-7.2c5.3,0,9.8,0.5,13.5,1.5
			v46.5c-10.6-1-17-1.5-19.3-1.5c-8.8,0-16.3,1.4-22.6,4.3c-6.3,2.9-12.3,7.3-18,13.5v102.1H184V-2652.5z"/>
		<path class="st7" d="M338.7-2494.2c-10.6-4.9-18.3-13.3-23.1-25.4c-4.8-12-7.2-28.9-7.2-50.7c0-22.4,2.2-39.7,6.7-51.8
			c4.5-12.1,11.9-20.6,22.2-25.5c10.3-4.9,24.8-7.3,43.6-7.3c16.7,0,29.9,1.6,39.4,4.9c9.6,3.3,16.6,9,20.9,17.1
			c4.4,8.2,6.6,19.7,6.6,34.5c0,15.9-4.5,27.2-13.6,33.9c-9.1,6.7-22.3,10.1-39.6,10.1h-41.3c0.4,8.8,1.7,15.5,4,20.3
			c2.2,4.8,6.2,8.3,11.9,10.4c5.7,2.1,14.1,3.2,25.1,3.2h48v26.6c-10.8,2.2-20.6,4-29.3,5.2c-8.8,1.2-19,1.8-30.6,1.8
			C363.9-2486.8,349.3-2489.3,338.7-2494.2z M390.1-2581.3c6.3,0,10.9-1.3,13.6-3.8c2.8-2.5,4.1-6.9,4.1-13c0-9-2-15.2-6.1-18.8
			c-4.1-3.6-11-5.4-20.8-5.4c-7.1,0-12.7,1.2-16.7,3.5c-4,2.3-6.9,6.5-8.7,12.4c-1.8,5.9-2.8,14.3-2.8,25.1H390.1z"/>
		<path class="st4" d="M501.8-2488.5c-12.3-1.3-21.8-3.1-28.3-5.3v-26.6h72.8c6.7,0,11.5-0.9,14.4-2.8c2.9-1.8,4.3-5.4,4.3-10.7
			v-5.2c0-4.3-1.4-7.5-4.1-9.6c-2.8-2.1-7.6-3.2-14.5-3.2h-25.7c-15.3,0-27.4-3.5-36.4-10.5c-9-7-13.5-18.4-13.5-34.1v-9.5
			c0-16.3,4.9-28.4,14.8-36.2c9.9-7.8,27-11.8,51.2-11.8c10,0,20.9,0.8,32.7,2.3c11.8,1.5,20.8,3.3,26.9,5.4v26.6h-68.8
			c-6.3,0-10.9,1-13.8,3.1c-2.9,2-4.3,5.6-4.3,10.7v4.9c0,5.1,1.5,8.5,4.6,10.2c3.1,1.7,8.1,2.6,15.3,2.6h26.3
			c16.3,0,28.4,3.7,36.2,11.2c7.8,7.4,11.8,18.1,11.8,31.9v14.7c0,16.1-5.5,27.5-16.5,34.1c-11,6.6-27.7,9.9-50.1,9.9
			C525.9-2486.5,514.1-2487.2,501.8-2488.5z"/>
		<path class="st4" d="M656.2-2488.5c-12.3-1.3-21.8-3.1-28.3-5.3v-26.6h72.8c6.7,0,11.5-0.9,14.4-2.8c2.9-1.8,4.3-5.4,4.3-10.7
			v-5.2c0-4.3-1.4-7.5-4.1-9.6c-2.8-2.1-7.6-3.2-14.5-3.2H675c-15.3,0-27.4-3.5-36.4-10.5c-9-7-13.5-18.4-13.5-34.1v-9.5
			c0-16.3,4.9-28.4,14.8-36.2c9.9-7.8,27-11.8,51.2-11.8c10,0,20.9,0.8,32.7,2.3c11.8,1.5,20.8,3.3,26.9,5.4v26.6H682
			c-6.3,0-10.9,1-13.8,3.1c-2.9,2-4.3,5.6-4.3,10.7v4.9c0,5.1,1.5,8.5,4.6,10.2c3.1,1.7,8.1,2.6,15.3,2.6h26.3
			c16.3,0,28.4,3.7,36.2,11.2c7.8,7.4,11.8,18.1,11.8,31.9v14.7c0,16.1-5.5,27.5-16.5,34.1c-11,6.6-27.7,9.9-50.1,9.9
			C680.3-2486.5,668.5-2487.2,656.2-2488.5z"/>
		<path class="st7" d="M812.6-2494.6c-10.8-5.2-18.7-13.9-23.7-26c-5-12.1-7.5-28.9-7.5-50.3c0-22.2,2.5-39.4,7.5-51.5
			c5-12.1,12.9-20.6,23.7-25.4c10.8-4.8,25.5-7.2,44-7.2c18.7,0,33.5,2.5,44.3,7.5c10.8,5,18.7,13.6,23.7,25.7
			c5,12.1,7.5,29.1,7.5,50.9c0,21.8-2.4,38.8-7.3,50.9c-4.9,12.1-12.7,20.7-23.5,25.7c-10.8,5-25.7,7.5-44.6,7.5
			C838-2486.8,823.4-2489.4,812.6-2494.6z M874.6-2526.1c4.1-2.1,7.1-6.6,9.2-13.5c2-6.8,3.1-17.3,3.1-31.3c0-14.1-1-24.5-3.1-31.3
			c-2-6.8-5.1-11.3-9.2-13.5c-4.1-2.1-10.1-3.2-18-3.2c-7.7,0-13.7,1.1-17.7,3.2c-4.1,2.1-7.1,6.6-9.2,13.5
			c-2,6.8-3.1,17.3-3.1,31.3c0,14.1,1,24.5,3.1,31.3c2,6.8,5.1,11.3,9.2,13.5c4.1,2.1,10,3.2,17.7,3.2
			C864.5-2522.9,870.5-2524,874.6-2526.1z"/>
		<path class="st7" d="M973.8-2499.7c-8.3-8.8-12.4-21-12.4-36.7v-116.2h45.2v102.7c0,8.8,2,14.8,6,18.2c4,3.4,9.9,5,17.9,5
			c5.7,0,11.6-1.1,17.6-3.2c6-2.1,11.4-5,16-8.7v-114h45.6v164.2h-37.6l-7.9-16.8c-19,12.4-37.5,18.6-55.6,18.6
			C993.6-2486.5,982.1-2490.9,973.8-2499.7z"/>
		<path class="st7" d="M1143.9-2652.5h34.9l10.4,25.1c6.5-8.6,13.5-15.2,20.9-20c7.4-4.8,15.9-7.2,25.5-7.2c5.3,0,9.8,0.5,13.5,1.5
			v46.5c-10.6-1-17-1.5-19.3-1.5c-8.8,0-16.3,1.4-22.6,4.3c-6.3,2.9-12.3,7.3-18,13.5v102.1h-45.2V-2652.5z"/>
		<path class="st7" d="M1286.4-2505.2c-12-12.4-18-33.9-18-64.5c0-21.8,2.6-38.9,7.9-51.4c5.3-12.4,13-21.2,23.2-26.3
			c10.2-5.1,23.1-7.6,38.8-7.6c19.8,0,38.8,2.6,57.2,7.6v26h-43.1c-9.8,0-17.4,1.4-22.9,4.3c-5.5,2.9-9.5,7.9-12.1,15.3
			c-2.6,7.3-3.8,17.9-3.8,31.8c0,13.7,1.3,24,3.8,31c2.5,7,6.6,11.8,12.1,14.4c5.5,2.6,13.3,3.8,23.5,3.8h44.9v25.7
			c-7.7,2.4-17.2,4.5-28.4,6.1c-11.2,1.6-22,2.4-32.4,2.4C1315.3-2486.5,1298.4-2492.7,1286.4-2505.2z"/>
		<path class="st7" d="M1448.4-2494.2c-10.6-4.9-18.3-13.3-23.1-25.4c-4.8-12-7.2-28.9-7.2-50.7c0-22.4,2.2-39.7,6.7-51.8
			c4.5-12.1,11.9-20.6,22.2-25.5c10.3-4.9,24.8-7.3,43.6-7.3c16.7,0,29.9,1.6,39.4,4.9c9.6,3.3,16.6,9,20.9,17.1
			c4.4,8.2,6.6,19.7,6.6,34.5c0,15.9-4.5,27.2-13.6,33.9c-9.1,6.7-22.3,10.1-39.6,10.1h-41.3c0.4,8.8,1.7,15.5,4,20.3
			c2.2,4.8,6.2,8.3,11.9,10.4c5.7,2.1,14.1,3.2,25.1,3.2h48v26.6c-10.8,2.2-20.6,4-29.3,5.2c-8.8,1.2-19,1.8-30.6,1.8
			C1473.6-2486.8,1459-2489.3,1448.4-2494.2z M1499.8-2581.3c6.3,0,10.9-1.3,13.6-3.8c2.8-2.5,4.1-6.9,4.1-13c0-9-2-15.2-6.1-18.8
			c-4.1-3.6-11-5.4-20.8-5.4c-7.1,0-12.7,1.2-16.7,3.5c-4,2.3-6.9,6.5-8.7,12.4c-1.8,5.9-2.8,14.3-2.8,25.1H1499.8z"/>
		<path class="st7" d="M1611.5-2488.5c-12.3-1.3-21.8-3.1-28.3-5.3v-26.6h72.8c6.7,0,11.5-0.9,14.4-2.8c2.9-1.8,4.3-5.4,4.3-10.7
			v-5.2c0-4.3-1.4-7.5-4.1-9.6c-2.8-2.1-7.6-3.2-14.5-3.2h-25.7c-15.3,0-27.4-3.5-36.4-10.5c-9-7-13.5-18.4-13.5-34.1v-9.5
			c0-16.3,4.9-28.4,14.8-36.2c9.9-7.8,27-11.8,51.2-11.8c10,0,20.9,0.8,32.7,2.3c11.8,1.5,20.8,3.3,26.9,5.4v26.6h-68.8
			c-6.3,0-10.9,1-13.8,3.1c-2.9,2-4.3,5.6-4.3,10.7v4.9c0,5.1,1.5,8.5,4.6,10.2c3.1,1.7,8.1,2.6,15.3,2.6h26.3
			c16.3,0,28.4,3.7,36.2,11.2c7.8,7.4,11.8,18.1,11.8,31.9v14.7c0,16.1-5.5,27.5-16.5,34.1c-11,6.6-27.7,9.9-50.1,9.9
			C1635.6-2486.5,1623.8-2487.2,1611.5-2488.5z"/>
	</g>
</g>
<rect x="-64.8" y="-2362.3" class="st1" width="1834" height="358"/>
<rect x="612.6" y="-2269.7" transform="matrix(-1 -1.224647e-16 1.224647e-16 -1 1382.9617 -4336.5835)" class="st5" width="157.8" height="202.8"/>
<rect x="454.7" y="-2269.7" transform="matrix(-1 -1.224647e-16 1.224647e-16 -1 1067.295 -4336.5835)" class="st6" width="157.8" height="202.8"/>
<g>
	<g>
		<path class="st8" d="M-3.7-2306.9h95.4c19,0,34.5,5.3,46.8,15.9c12.2,10.6,18.3,31.2,18.3,61.8c0,53-21.1,79.5-63.3,79.5
			c-6.5,0-15-0.6-25.4-1.7c-10.4-1.1-19.3-2.2-26.6-3.2v74H-3.7V-2306.9z M86.5-2190.4c8.1,0,14.3-3.1,18.5-9.2
			c4.2-6.1,6.3-15.9,6.3-29.3c0-24.9-7.9-37.3-23.8-37.3H41.6v75.8H86.5z"/>
		<path class="st8" d="M184-2244.9h34.9l10.4,25.1c6.5-8.6,13.5-15.2,20.9-20c7.4-4.8,15.9-7.2,25.5-7.2c5.3,0,9.8,0.5,13.5,1.5
			v46.5c-10.6-1-17-1.5-19.3-1.5c-8.8,0-16.3,1.4-22.6,4.3c-6.3,2.9-12.3,7.3-18,13.5v102.1H184V-2244.9z"/>
		<path class="st8" d="M338.7-2086.5c-10.6-4.9-18.3-13.3-23.1-25.4c-4.8-12-7.2-28.9-7.2-50.7c0-22.4,2.2-39.7,6.7-51.8
			c4.5-12.1,11.9-20.6,22.2-25.5c10.3-4.9,24.8-7.3,43.6-7.3c16.7,0,29.9,1.6,39.4,4.9c9.6,3.3,16.6,9,20.9,17.1
			c4.4,8.2,6.6,19.7,6.6,34.5c0,15.9-4.5,27.2-13.6,33.9c-9.1,6.7-22.3,10.1-39.6,10.1h-41.3c0.4,8.8,1.7,15.5,4,20.3
			c2.2,4.8,6.2,8.3,11.9,10.4c5.7,2.1,14.1,3.2,25.1,3.2h48v26.6c-10.8,2.2-20.6,4-29.3,5.2c-8.8,1.2-19,1.8-30.6,1.8
			C363.9-2079.2,349.3-2081.6,338.7-2086.5z M390.1-2173.6c6.3,0,10.9-1.3,13.6-3.8c2.8-2.5,4.1-6.9,4.1-13c0-9-2-15.2-6.1-18.8
			c-4.1-3.6-11-5.4-20.8-5.4c-7.1,0-12.7,1.2-16.7,3.5c-4,2.3-6.9,6.5-8.7,12.4c-1.8,5.9-2.8,14.3-2.8,25.1H390.1z"/>
		<path class="st4" d="M501.8-2080.8c-12.3-1.3-21.8-3.1-28.3-5.3v-26.6h72.8c6.7,0,11.5-0.9,14.4-2.8c2.9-1.8,4.3-5.4,4.3-10.7
			v-5.2c0-4.3-1.4-7.5-4.1-9.6c-2.8-2.1-7.6-3.2-14.5-3.2h-25.7c-15.3,0-27.4-3.5-36.4-10.5c-9-7-13.5-18.4-13.5-34.1v-9.5
			c0-16.3,4.9-28.4,14.8-36.2c9.9-7.8,27-11.8,51.2-11.8c10,0,20.9,0.8,32.7,2.3c11.8,1.5,20.8,3.3,26.9,5.4v26.6h-68.8
			c-6.3,0-10.9,1-13.8,3.1c-2.9,2-4.3,5.6-4.3,10.7v4.9c0,5.1,1.5,8.5,4.6,10.2c3.1,1.7,8.1,2.6,15.3,2.6h26.3
			c16.3,0,28.4,3.7,36.2,11.2c7.8,7.4,11.8,18.1,11.8,31.9v14.7c0,16.1-5.5,27.5-16.5,34.1c-11,6.6-27.7,9.9-50.1,9.9
			C525.9-2078.9,514.1-2079.5,501.8-2080.8z"/>
		<path class="st4" d="M656.2-2080.8c-12.3-1.3-21.8-3.1-28.3-5.3v-26.6h72.8c6.7,0,11.5-0.9,14.4-2.8c2.9-1.8,4.3-5.4,4.3-10.7
			v-5.2c0-4.3-1.4-7.5-4.1-9.6c-2.8-2.1-7.6-3.2-14.5-3.2H675c-15.3,0-27.4-3.5-36.4-10.5c-9-7-13.5-18.4-13.5-34.1v-9.5
			c0-16.3,4.9-28.4,14.8-36.2c9.9-7.8,27-11.8,51.2-11.8c10,0,20.9,0.8,32.7,2.3c11.8,1.5,20.8,3.3,26.9,5.4v26.6H682
			c-6.3,0-10.9,1-13.8,3.1c-2.9,2-4.3,5.6-4.3,10.7v4.9c0,5.1,1.5,8.5,4.6,10.2c3.1,1.7,8.1,2.6,15.3,2.6h26.3
			c16.3,0,28.4,3.7,36.2,11.2c7.8,7.4,11.8,18.1,11.8,31.9v14.7c0,16.1-5.5,27.5-16.5,34.1c-11,6.6-27.7,9.9-50.1,9.9
			C680.3-2078.9,668.5-2079.5,656.2-2080.8z"/>
		<path class="st8" d="M812.6-2087c-10.8-5.2-18.7-13.9-23.7-26c-5-12.1-7.5-28.9-7.5-50.3c0-22.2,2.5-39.4,7.5-51.5
			c5-12.1,12.9-20.6,23.7-25.4c10.8-4.8,25.5-7.2,44-7.2c18.7,0,33.5,2.5,44.3,7.5c10.8,5,18.7,13.6,23.7,25.7
			c5,12.1,7.5,29.1,7.5,50.9c0,21.8-2.4,38.8-7.3,50.9c-4.9,12.1-12.7,20.7-23.5,25.7c-10.8,5-25.7,7.5-44.6,7.5
			C838-2079.2,823.4-2081.8,812.6-2087z M874.6-2118.4c4.1-2.1,7.1-6.6,9.2-13.5c2-6.8,3.1-17.3,3.1-31.3c0-14.1-1-24.5-3.1-31.3
			c-2-6.8-5.1-11.3-9.2-13.5c-4.1-2.1-10.1-3.2-18-3.2c-7.7,0-13.7,1.1-17.7,3.2c-4.1,2.1-7.1,6.6-9.2,13.5
			c-2,6.8-3.1,17.3-3.1,31.3c0,14.1,1,24.5,3.1,31.3c2,6.8,5.1,11.3,9.2,13.5c4.1,2.1,10,3.2,17.7,3.2
			C864.5-2115.2,870.5-2116.3,874.6-2118.4z"/>
		<path class="st8" d="M973.8-2092c-8.3-8.8-12.4-21-12.4-36.7v-116.2h45.2v102.7c0,8.8,2,14.8,6,18.2c4,3.4,9.9,5,17.9,5
			c5.7,0,11.6-1.1,17.6-3.2c6-2.1,11.4-5,16-8.7v-114h45.6v164.2h-37.6l-7.9-16.8c-19,12.4-37.5,18.6-55.6,18.6
			C993.6-2078.9,982.1-2083.2,973.8-2092z"/>
		<path class="st8" d="M1143.9-2244.9h34.9l10.4,25.1c6.5-8.6,13.5-15.2,20.9-20c7.4-4.8,15.9-7.2,25.5-7.2c5.3,0,9.8,0.5,13.5,1.5
			v46.5c-10.6-1-17-1.5-19.3-1.5c-8.8,0-16.3,1.4-22.6,4.3c-6.3,2.9-12.3,7.3-18,13.5v102.1h-45.2V-2244.9z"/>
		<path class="st8" d="M1286.4-2097.5c-12-12.4-18-33.9-18-64.5c0-21.8,2.6-38.9,7.9-51.4c5.3-12.4,13-21.2,23.2-26.3
			c10.2-5.1,23.1-7.6,38.8-7.6c19.8,0,38.8,2.6,57.2,7.6v26h-43.1c-9.8,0-17.4,1.4-22.9,4.3c-5.5,2.9-9.5,7.9-12.1,15.3
			c-2.6,7.3-3.8,17.9-3.8,31.8c0,13.7,1.3,24,3.8,31c2.5,7,6.6,11.8,12.1,14.4c5.5,2.6,13.3,3.8,23.5,3.8h44.9v25.7
			c-7.7,2.4-17.2,4.5-28.4,6.1c-11.2,1.6-22,2.4-32.4,2.4C1315.3-2078.9,1298.4-2085.1,1286.4-2097.5z"/>
		<path class="st8" d="M1448.4-2086.5c-10.6-4.9-18.3-13.3-23.1-25.4c-4.8-12-7.2-28.9-7.2-50.7c0-22.4,2.2-39.7,6.7-51.8
			c4.5-12.1,11.9-20.6,22.2-25.5c10.3-4.9,24.8-7.3,43.6-7.3c16.7,0,29.9,1.6,39.4,4.9c9.6,3.3,16.6,9,20.9,17.1
			c4.4,8.2,6.6,19.7,6.6,34.5c0,15.9-4.5,27.2-13.6,33.9c-9.1,6.7-22.3,10.1-39.6,10.1h-41.3c0.4,8.8,1.7,15.5,4,20.3
			c2.2,4.8,6.2,8.3,11.9,10.4c5.7,2.1,14.1,3.2,25.1,3.2h48v26.6c-10.8,2.2-20.6,4-29.3,5.2c-8.8,1.2-19,1.8-30.6,1.8
			C1473.6-2079.2,1459-2081.6,1448.4-2086.5z M1499.8-2173.6c6.3,0,10.9-1.3,13.6-3.8c2.8-2.5,4.1-6.9,4.1-13c0-9-2-15.2-6.1-18.8
			c-4.1-3.6-11-5.4-20.8-5.4c-7.1,0-12.7,1.2-16.7,3.5c-4,2.3-6.9,6.5-8.7,12.4c-1.8,5.9-2.8,14.3-2.8,25.1H1499.8z"/>
		<path class="st8" d="M1611.5-2080.8c-12.3-1.3-21.8-3.1-28.3-5.3v-26.6h72.8c6.7,0,11.5-0.9,14.4-2.8c2.9-1.8,4.3-5.4,4.3-10.7
			v-5.2c0-4.3-1.4-7.5-4.1-9.6c-2.8-2.1-7.6-3.2-14.5-3.2h-25.7c-15.3,0-27.4-3.5-36.4-10.5c-9-7-13.5-18.4-13.5-34.1v-9.5
			c0-16.3,4.9-28.4,14.8-36.2c9.9-7.8,27-11.8,51.2-11.8c10,0,20.9,0.8,32.7,2.3c11.8,1.5,20.8,3.3,26.9,5.4v26.6h-68.8
			c-6.3,0-10.9,1-13.8,3.1c-2.9,2-4.3,5.6-4.3,10.7v4.9c0,5.1,1.5,8.5,4.6,10.2c3.1,1.7,8.1,2.6,15.3,2.6h26.3
			c16.3,0,28.4,3.7,36.2,11.2c7.8,7.4,11.8,18.1,11.8,31.9v14.7c0,16.1-5.5,27.5-16.5,34.1c-11,6.6-27.7,9.9-50.1,9.9
			C1635.6-2078.9,1623.8-2079.5,1611.5-2080.8z"/>
	</g>
</g>
<rect x="-64.8" y="-1929.3" class="st1" width="1834" height="358"/>
<rect x="454.7" y="-1836.7" transform="matrix(-1 -1.224647e-16 1.224647e-16 -1 1225.1283 -3470.5837)" class="st5" width="315.7" height="202.8"/>
<g>
	<g>
		<path class="st8" d="M-3.7-1873.9h95.4c19,0,34.5,5.3,46.8,15.9c12.2,10.6,18.3,31.2,18.3,61.8c0,53-21.1,79.5-63.3,79.5
			c-6.5,0-15-0.6-25.4-1.7c-10.4-1.1-19.3-2.2-26.6-3.2v74H-3.7V-1873.9z M86.5-1757.4c8.1,0,14.3-3.1,18.5-9.2
			c4.2-6.1,6.3-15.9,6.3-29.3c0-24.9-7.9-37.3-23.8-37.3H41.6v75.8H86.5z"/>
		<path class="st8" d="M184-1811.9h34.9l10.4,25.1c6.5-8.6,13.5-15.2,20.9-20c7.4-4.8,15.9-7.2,25.5-7.2c5.3,0,9.8,0.5,13.5,1.5
			v46.5c-10.6-1-17-1.5-19.3-1.5c-8.8,0-16.3,1.4-22.6,4.3c-6.3,2.9-12.3,7.3-18,13.5v102.1H184V-1811.9z"/>
		<path class="st8" d="M338.7-1653.5c-10.6-4.9-18.3-13.3-23.1-25.4c-4.8-12-7.2-28.9-7.2-50.7c0-22.4,2.2-39.7,6.7-51.8
			c4.5-12.1,11.9-20.6,22.2-25.5c10.3-4.9,24.8-7.3,43.6-7.3c16.7,0,29.9,1.6,39.4,4.9c9.6,3.3,16.6,9,20.9,17.1
			c4.4,8.2,6.6,19.7,6.6,34.5c0,15.9-4.5,27.2-13.6,33.9c-9.1,6.7-22.3,10.1-39.6,10.1h-41.3c0.4,8.8,1.7,15.5,4,20.3
			c2.2,4.8,6.2,8.3,11.9,10.4c5.7,2.1,14.1,3.2,25.1,3.2h48v26.6c-10.8,2.2-20.6,4-29.3,5.2c-8.8,1.2-19,1.8-30.6,1.8
			C363.9-1646.2,349.3-1648.6,338.7-1653.5z M390.1-1740.6c6.3,0,10.9-1.3,13.6-3.8c2.8-2.5,4.1-6.9,4.1-13c0-9-2-15.2-6.1-18.8
			c-4.1-3.6-11-5.4-20.8-5.4c-7.1,0-12.7,1.2-16.7,3.5c-4,2.3-6.9,6.5-8.7,12.4c-1.8,5.9-2.8,14.3-2.8,25.1H390.1z"/>
		<path class="st4" d="M501.8-1647.8c-12.3-1.3-21.8-3.1-28.3-5.3v-26.6h72.8c6.7,0,11.5-0.9,14.4-2.8c2.9-1.8,4.3-5.4,4.3-10.7
			v-5.2c0-4.3-1.4-7.5-4.1-9.6c-2.8-2.1-7.6-3.2-14.5-3.2h-25.7c-15.3,0-27.4-3.5-36.4-10.5c-9-7-13.5-18.4-13.5-34.1v-9.5
			c0-16.3,4.9-28.4,14.8-36.2c9.9-7.8,27-11.8,51.2-11.8c10,0,20.9,0.8,32.7,2.3c11.8,1.5,20.8,3.3,26.9,5.4v26.6h-68.8
			c-6.3,0-10.9,1-13.8,3.1c-2.9,2-4.3,5.6-4.3,10.7v4.9c0,5.1,1.5,8.5,4.6,10.2c3.1,1.7,8.1,2.6,15.3,2.6h26.3
			c16.3,0,28.4,3.7,36.2,11.2c7.8,7.4,11.8,18.1,11.8,31.9v14.7c0,16.1-5.5,27.5-16.5,34.1c-11,6.6-27.7,9.9-50.1,9.9
			C525.9-1645.9,514.1-1646.5,501.8-1647.8z"/>
		<path class="st4" d="M656.2-1647.8c-12.3-1.3-21.8-3.1-28.3-5.3v-26.6h72.8c6.7,0,11.5-0.9,14.4-2.8c2.9-1.8,4.3-5.4,4.3-10.7
			v-5.2c0-4.3-1.4-7.5-4.1-9.6c-2.8-2.1-7.6-3.2-14.5-3.2H675c-15.3,0-27.4-3.5-36.4-10.5c-9-7-13.5-18.4-13.5-34.1v-9.5
			c0-16.3,4.9-28.4,14.8-36.2c9.9-7.8,27-11.8,51.2-11.8c10,0,20.9,0.8,32.7,2.3c11.8,1.5,20.8,3.3,26.9,5.4v26.6H682
			c-6.3,0-10.9,1-13.8,3.1c-2.9,2-4.3,5.6-4.3,10.7v4.9c0,5.1,1.5,8.5,4.6,10.2c3.1,1.7,8.1,2.6,15.3,2.6h26.3
			c16.3,0,28.4,3.7,36.2,11.2c7.8,7.4,11.8,18.1,11.8,31.9v14.7c0,16.1-5.5,27.5-16.5,34.1c-11,6.6-27.7,9.9-50.1,9.9
			C680.3-1645.9,668.5-1646.5,656.2-1647.8z"/>
		<path class="st8" d="M812.6-1654c-10.8-5.2-18.7-13.9-23.7-26c-5-12.1-7.5-28.9-7.5-50.3c0-22.2,2.5-39.4,7.5-51.5
			c5-12.1,12.9-20.6,23.7-25.4c10.8-4.8,25.5-7.2,44-7.2c18.7,0,33.5,2.5,44.3,7.5c10.8,5,18.7,13.6,23.7,25.7
			c5,12.1,7.5,29.1,7.5,50.9c0,21.8-2.4,38.8-7.3,50.9c-4.9,12.1-12.7,20.7-23.5,25.7c-10.8,5-25.7,7.5-44.6,7.5
			C838-1646.2,823.4-1648.8,812.6-1654z M874.6-1685.4c4.1-2.1,7.1-6.6,9.2-13.5c2-6.8,3.1-17.3,3.1-31.3c0-14.1-1-24.5-3.1-31.3
			c-2-6.8-5.1-11.3-9.2-13.5c-4.1-2.1-10.1-3.2-18-3.2c-7.7,0-13.7,1.1-17.7,3.2c-4.1,2.1-7.1,6.6-9.2,13.5
			c-2,6.8-3.1,17.3-3.1,31.3c0,14.1,1,24.5,3.1,31.3c2,6.8,5.1,11.3,9.2,13.5c4.1,2.1,10,3.2,17.7,3.2
			C864.5-1682.2,870.5-1683.3,874.6-1685.4z"/>
		<path class="st8" d="M973.8-1659c-8.3-8.8-12.4-21-12.4-36.7v-116.2h45.2v102.7c0,8.8,2,14.8,6,18.2c4,3.4,9.9,5,17.9,5
			c5.7,0,11.6-1.1,17.6-3.2c6-2.1,11.4-5,16-8.7v-114h45.6v164.2h-37.6l-7.9-16.8c-19,12.4-37.5,18.6-55.6,18.6
			C993.6-1645.9,982.1-1650.2,973.8-1659z"/>
		<path class="st8" d="M1143.9-1811.9h34.9l10.4,25.1c6.5-8.6,13.5-15.2,20.9-20c7.4-4.8,15.9-7.2,25.5-7.2c5.3,0,9.8,0.5,13.5,1.5
			v46.5c-10.6-1-17-1.5-19.3-1.5c-8.8,0-16.3,1.4-22.6,4.3c-6.3,2.9-12.3,7.3-18,13.5v102.1h-45.2V-1811.9z"/>
		<path class="st8" d="M1286.4-1664.5c-12-12.4-18-33.9-18-64.5c0-21.8,2.6-38.9,7.9-51.4c5.3-12.4,13-21.2,23.2-26.3
			c10.2-5.1,23.1-7.6,38.8-7.6c19.8,0,38.8,2.6,57.2,7.6v26h-43.1c-9.8,0-17.4,1.4-22.9,4.3c-5.5,2.9-9.5,7.9-12.1,15.3
			c-2.6,7.3-3.8,17.9-3.8,31.8c0,13.7,1.3,24,3.8,31c2.5,7,6.6,11.8,12.1,14.4c5.5,2.6,13.3,3.8,23.5,3.8h44.9v25.7
			c-7.7,2.4-17.2,4.5-28.4,6.1c-11.2,1.6-22,2.4-32.4,2.4C1315.3-1645.9,1298.4-1652.1,1286.4-1664.5z"/>
		<path class="st8" d="M1448.4-1653.5c-10.6-4.9-18.3-13.3-23.1-25.4c-4.8-12-7.2-28.9-7.2-50.7c0-22.4,2.2-39.7,6.7-51.8
			c4.5-12.1,11.9-20.6,22.2-25.5c10.3-4.9,24.8-7.3,43.6-7.3c16.7,0,29.9,1.6,39.4,4.9c9.6,3.3,16.6,9,20.9,17.1
			c4.4,8.2,6.6,19.7,6.6,34.5c0,15.9-4.5,27.2-13.6,33.9c-9.1,6.7-22.3,10.1-39.6,10.1h-41.3c0.4,8.8,1.7,15.5,4,20.3
			c2.2,4.8,6.2,8.3,11.9,10.4c5.7,2.1,14.1,3.2,25.1,3.2h48v26.6c-10.8,2.2-20.6,4-29.3,5.2c-8.8,1.2-19,1.8-30.6,1.8
			C1473.6-1646.2,1459-1648.6,1448.4-1653.5z M1499.8-1740.6c6.3,0,10.9-1.3,13.6-3.8c2.8-2.5,4.1-6.9,4.1-13c0-9-2-15.2-6.1-18.8
			c-4.1-3.6-11-5.4-20.8-5.4c-7.1,0-12.7,1.2-16.7,3.5c-4,2.3-6.9,6.5-8.7,12.4c-1.8,5.9-2.8,14.3-2.8,25.1H1499.8z"/>
		<path class="st8" d="M1611.5-1647.8c-12.3-1.3-21.8-3.1-28.3-5.3v-26.6h72.8c6.7,0,11.5-0.9,14.4-2.8c2.9-1.8,4.3-5.4,4.3-10.7
			v-5.2c0-4.3-1.4-7.5-4.1-9.6c-2.8-2.1-7.6-3.2-14.5-3.2h-25.7c-15.3,0-27.4-3.5-36.4-10.5c-9-7-13.5-18.4-13.5-34.1v-9.5
			c0-16.3,4.9-28.4,14.8-36.2c9.9-7.8,27-11.8,51.2-11.8c10,0,20.9,0.8,32.7,2.3c11.8,1.5,20.8,3.3,26.9,5.4v26.6h-68.8
			c-6.3,0-10.9,1-13.8,3.1c-2.9,2-4.3,5.6-4.3,10.7v4.9c0,5.1,1.5,8.5,4.6,10.2c3.1,1.7,8.1,2.6,15.3,2.6h26.3
			c16.3,0,28.4,3.7,36.2,11.2c7.8,7.4,11.8,18.1,11.8,31.9v14.7c0,16.1-5.5,27.5-16.5,34.1c-11,6.6-27.7,9.9-50.1,9.9
			C1635.6-1645.9,1623.8-1646.5,1611.5-1647.8z"/>
	</g>
</g>
<g>
	<text transform="matrix(1 0 0 1 3937.9717 -3399.9531)"><tspan x="0" y="0" class="st5" style="font-family:'RobotoCondensed-BoldItalic'; font-size:100px;">Super Frase re contra mega increible que permite llegar</tspan><tspan x="645.7" y="120" class="st5" style="font-family:'RobotoCondensed-BoldItalic'; font-size:100px;"> a todos los cerebros </tspan></text>
</g>
<circle class="st5" cx="1894" cy="-1189" r="67"/>
<polygon class="st5" points="1921,-923 1867,-923 1853.9,-1135.3 1934.1,-1135.3 "/>
<rect x="1889.5" y="-1100.3" class="st4" width="9" height="26.5"/>
<path class="st9" d="M1894-923c0,0-8,134.5,73,96c0,0,33-15,42-80.5c0,0,15.6-97,55-96c0,0,29.5-4.5,54.5,51.5"/>
<image style="overflow:visible;" width="128" height="128" xlink:href="png/002-karaoke-microphone-icon.png"  transform="matrix(0.2969 0 0 0.2969 4962.8452 -4232.1968)">
</image>
<polygon class="st10" points="4115.6,-2232.2 3870.4,-2412 3859,-2440.6 3868,-2475.3 4197.5,-2917.1 4218.7,-2909.4 
	4482.8,-2715.7 4457.2,-2604.4 4377.9,-2453.1 4269.4,-2321.6 "/>
<polyline class="st11" points="5661.5,-2413.9 5932,-2250 6041.2,-2354.1 6092.5,-2544.4 5752.4,-2767.3 "/>
<polyline class="st11" points="5758.7,-2809 6126,-2588 6132.5,-2615.3 6153.5,-2693.4 5813.4,-2916.3 "/>
<g>
	<path class="st7" d="M5621.9-2691.6c1.1-4.4,2.3-8.7,3.4-13.1c1.2-4.6,2.3-9.1,3.4-13.7c0.4-1.7,1.4-2.8,2.9-3.3
		c17.8-6.8,35.3-14.2,53.7-19.3c16.2-4.5,32.7-7.2,49.6-6.5c15.7,0.6,30.8,4.2,44.4,12.3c15.8,9.4,25.1,23.6,29.3,41.3
		c2.1,8.9,2.1,18,1.4,27c-1.7,20.5-6.6,40.4-12.3,60.1c-9.9,34.6-19.1,69.5-27.7,104.5c-2.3,9.2-3.4,18.5-2.3,28
		c0.5,4.9,1.5,9.6,3.8,14c3.2,6.3,8.7,9.5,15.3,11.1c9.5,2.3,19.2,2.4,28.9,1.1c9.8-1.4,19.3-4.1,28.6-7.6c0.7-0.3,1.5-0.4,2.6-0.7
		c-0.7,2.8-1.3,5.3-1.9,7.8c-1.5,6.3-3.1,12.5-4.6,18.8c-0.5,1.8-1.5,3.3-3.3,3.9c-15.1,5.7-30.1,11.6-45.3,17
		c-11.4,4.1-23.3,6.9-35.4,8.4c-3,0.4-6,0.5-9,0.8c-0.3,0-0.6,0.2-0.8,0.2c-3.9,0-7.8,0-11.7,0c-0.4-0.1-0.9-0.2-1.3-0.3
		c-14.8-0.9-28.8-4.6-41.9-11.5c-17.7-9.3-29.2-23.4-33.2-43.3c-2.3-11.3-1.6-22.6-0.4-34c1.5-13.5,4.5-26.7,8.1-39.8
		c10.1-37.4,20.2-74.9,30.4-112.3c3.5-12.9,4.8-25.9,2.3-39.2c-1.9-10.1-7.7-16.5-17.8-18.8c-9.3-2.1-18.8-2.3-28.2-1
		c-8,1.1-15.5,3.6-23.1,6.1c-2.6,0.8-5.2,1.6-7.7,2.4C5621.9-2691.2,5621.9-2691.4,5621.9-2691.6z"/>
	<path class="st7" d="M5798.2-2925.1c3.1,0.8,6.1,1.6,9.2,2.4c25,7.4,40.6,23.7,45.7,49.3c3,15.3-0.9,29.5-9.3,42.4
		c-10.1,15.5-24.7,24-42.7,27c-11.2,1.9-22.2,1.7-33.2-1.5c-20.8-6.1-38.8-24.4-43.5-44.7c-4.7-20.4,0.7-38.3,14.6-53.7
		c8.4-9.3,19.1-14.9,31.2-18.2c3.1-0.9,6.2-2,9.3-3.1C5785.7-2925.1,5792-2925.1,5798.2-2925.1z"/>
</g>
<g>
	<polyline class="st10" points="4191.5,-151.5 4466.8,17.8 4564.2,-75.1 4613.2,-256.6 4272.1,-467.1 	"/>
	<polyline class="st10" points="4281.7,-530 4649,-309 4655.5,-336.3 4676.5,-414.4 4336.4,-637.3 	"/>
	<g>
		<path class="st7" d="M4144.9-412.6c1.1-4.4,2.3-8.7,3.4-13.1c1.2-4.6,2.3-9.1,3.4-13.7c0.4-1.7,1.4-2.8,2.9-3.3
			c17.8-6.8,35.3-14.2,53.7-19.3c16.2-4.5,32.7-7.2,49.6-6.5c15.7,0.6,30.8,4.2,44.4,12.3c15.8,9.4,25.1,23.6,29.3,41.3
			c2.1,8.9,2.1,18,1.4,27c-1.7,20.5-6.6,40.4-12.3,60.1c-9.9,34.6-19.1,69.5-27.7,104.5c-2.3,9.2-3.4,18.5-2.3,28
			c0.5,4.9,1.5,9.6,3.8,14c3.2,6.3,8.7,9.5,15.3,11.1c9.5,2.3,19.2,2.4,28.9,1.1c9.8-1.4,19.3-4.1,28.6-7.6c0.7-0.3,1.5-0.4,2.6-0.7
			c-0.7,2.8-1.3,5.3-1.9,7.8c-1.5,6.3-3.1,12.5-4.6,18.8c-0.5,1.8-1.5,3.3-3.3,3.9c-15.1,5.7-30.1,11.6-45.3,17
			c-11.4,4.1-23.3,6.9-35.4,8.4c-3,0.4-6,0.5-9,0.8c-0.3,0-0.6,0.2-0.8,0.2c-3.9,0-7.8,0-11.7,0c-0.4-0.1-0.9-0.2-1.3-0.3
			c-14.8-0.9-28.8-4.6-41.9-11.5c-17.7-9.3-29.2-23.4-33.2-43.3c-2.3-11.3-1.6-22.6-0.4-34c1.5-13.5,4.5-26.7,8.1-39.8
			c10.1-37.4,20.2-74.9,30.4-112.3c3.5-12.9,4.8-25.9,2.3-39.2c-1.9-10.1-7.7-16.5-17.8-18.8c-9.3-2.1-18.8-2.3-28.2-1
			c-8,1.1-15.5,3.6-23.1,6.1c-2.6,0.8-5.2,1.6-7.7,2.4C4144.9-412.2,4144.9-412.4,4144.9-412.6z"/>
		<path class="st7" d="M4321.2-646.1c3.1,0.8,6.1,1.5,9.2,2.4c25,7.4,40.6,23.7,45.7,49.3c3,15.3-0.9,29.5-9.3,42.4
			c-10.1,15.5-24.7,24-42.7,27c-11.2,1.9-22.2,1.7-33.2-1.5c-20.8-6.1-38.8-24.4-43.5-44.7c-4.7-20.4,0.7-38.3,14.6-53.7
			c8.4-9.3,19.1-14.9,31.2-18.2c3.1-0.9,6.2-2,9.3-3.1C4308.7-646.1,4315-646.1,4321.2-646.1z"/>
	</g>
</g>
<g>
	
		<text transform="matrix(1 0 0 1 4785.7354 -1798.0159)" class="st5" style="font-family:'RobotoCondensed-Regular'; font-size:80px;">Learn More...</text>
</g>
<text transform="matrix(1 0 0 1 3854.9553 -2183.3433)" class="st7" style="font-family:'Exo-Bold'; font-size:80px;">JOURNALIST</text>
<text transform="matrix(1 0 0 1 5583.0503 -2197.3875)" class="st7" style="font-family:'Exo-Bold'; font-size:80px;">SOURCE</text>
<g>
	<g>
		<path class="st7" d="M2684-2132.8c0,44-36,80-80,80h-499c-44,0-80-36-80-80v-499c0-44,36-80,80-80h499c44,0,80,36,80,80V-2132.8z"
			/>
	</g>
	<g>
		<path class="st4" d="M2253.4-2402.9c0.8-3.1,1.6-6.1,2.4-9.2c0.8-3.2,1.6-6.4,2.4-9.6c0.3-1.2,1-1.9,2-2.3
			c12.5-4.8,24.9-10,37.8-13.6c11.4-3.2,23-5.1,34.9-4.6c11.1,0.4,21.6,2.9,31.2,8.7c11.1,6.6,17.6,16.6,20.6,29
			c1.5,6.3,1.5,12.6,1,19c-1.2,14.4-4.7,28.4-8.6,42.3c-7,24.4-13.4,48.9-19.5,73.5c-1.6,6.5-2.4,13-1.7,19.7
			c0.4,3.4,1.1,6.8,2.7,9.9c2.2,4.4,6.1,6.7,10.7,7.8c6.7,1.6,13.5,1.7,20.3,0.8c6.9-1,13.6-2.9,20.1-5.3c0.5-0.2,1.1-0.3,1.8-0.5
			c-0.5,2-0.9,3.8-1.3,5.5c-1.1,4.4-2.2,8.8-3.3,13.2c-0.3,1.3-1.1,2.3-2.4,2.8c-10.6,4-21.2,8.1-31.8,12c-8,2.9-16.4,4.9-24.9,5.9
			c-2.1,0.3-4.2,0.4-6.4,0.6c-0.2,0-0.4,0.1-0.6,0.2c-2.7,0-5.5,0-8.2,0c-0.3-0.1-0.6-0.2-0.9-0.2c-10.4-0.6-20.2-3.2-29.5-8.1
			c-12.4-6.6-20.6-16.5-23.4-30.4c-1.6-7.9-1.1-15.9-0.2-23.9c1.1-9.5,3.2-18.8,5.7-28c7.1-26.3,14.2-52.7,21.4-79
			c2.5-9.1,3.4-18.2,1.6-27.6c-1.3-7.1-5.4-11.6-12.5-13.2c-6.6-1.5-13.2-1.6-19.9-0.7c-5.6,0.8-10.9,2.6-16.3,4.3
			c-1.8,0.6-3.6,1.1-5.4,1.7C2253.4-2402.6,2253.4-2402.8,2253.4-2402.9z"/>
		<path class="st4" d="M2377.3-2567.1c2.1,0.6,4.3,1.1,6.4,1.7c17.6,5.2,28.6,16.7,32.2,34.7c2.1,10.8-0.6,20.7-6.6,29.8
			c-7.1,10.9-17.4,16.8-30,19c-7.8,1.3-15.6,1.2-23.3-1.1c-14.6-4.3-27.3-17.2-30.6-31.4c-3.3-14.4,0.5-26.9,10.3-37.8
			c5.9-6.6,13.5-10.5,21.9-12.8c2.2-0.6,4.4-1.4,6.5-2.2C2368.5-2567.1,2372.9-2567.1,2377.3-2567.1z"/>
	</g>
</g>
<image style="overflow:visible;" width="2000" height="709" xlink:href="596F1EFE.jpg"  transform="matrix(1 0 0 1 76.4194 -4707.5781)">
</image>
<g>
	<path class="st7" d="M4233.2-2901.7c-37.9-33.9-96.2-30.6-130.1,7.4c-20.1,22.5-27.1,52.2-21.6,79.7l0,0l-181,229.8l22.6,20.1
		c-5.8,5.8-76,77.7-62.4,131.2c5.4,21.4,23.1,36.7,52.5,45.3c2.1,0.6,52,15.3,123.2-45.4c27.9-22.7,106.4-75.4,135.2-48.4l0.4,0.4
		l0.5,0.3c0.3,0.2,29.3,21.6,5.9,94.9l13.1,4.2c25.4-79.5-5.9-106.5-10.9-110.1c-18.8-17.3-50.6-14.1-94.6,9.4
		c-31.4,16.8-57.3,37.8-58.4,38.7l-0.1,0.1c-65,55.3-109.9,42.9-110.4,42.7c-24.5-7.2-39-19.1-43.1-35.5
		c-11.9-47,58.4-117.6,59.1-118.3l-4.8-4.9l27.7,24.7l207.9-205.8l0,0c27.9,2.4,56.6-7.9,76.7-30.4
		C4274.4-2809.6,4271.1-2867.8,4233.2-2901.7z"/>
	
		<rect x="4073" y="-2756.2" transform="matrix(0.746 0.666 -0.666 0.746 -782.6921 -3412.155)" class="st5" width="16.6" height="48.3"/>
</g>
<g>
	<polygon class="st10" points="3236.7,64.4 2991.5,-115.4 2980.1,-144 2989.1,-178.6 3318.5,-620.4 3339.7,-612.8 3603.9,-419.1 
		3578.3,-307.7 3499,-156.5 3390.5,-25 	"/>
	<g>
		<path class="st7" d="M3354.3-605c-37.9-33.9-96.2-30.6-130.1,7.4c-20.1,22.5-27.1,52.2-21.6,79.7l0,0l-181,229.8l22.6,20.1
			c-5.8,5.8-76,77.7-62.4,131.2c5.4,21.4,23.1,36.7,52.5,45.3c2.1,0.6,52,15.3,123.2-45.4c27.9-22.7,106.4-75.4,135.2-48.4l0.4,0.4
			l0.5,0.3c0.3,0.2,29.3,21.6,5.9,94.9l13.1,4.2c25.4-79.5-5.9-106.5-10.9-110.1c-18.8-17.3-50.6-14.1-94.6,9.4
			c-31.4,16.8-57.3,37.8-58.4,38.7l-0.1,0.1c-65,55.3-109.9,42.9-110.4,42.7c-24.5-7.2-39-19.1-43.1-35.5
			c-11.9-47,58.4-117.6,59.1-118.3l-4.8-4.9l27.7,24.7l207.9-205.8l0,0c27.9,2.4,56.6-7.9,76.7-30.4
			C3395.5-512.9,3392.2-571.2,3354.3-605z"/>
		
			<rect x="3194.1" y="-459.5" transform="matrix(0.746 0.666 -0.666 0.746 523.582 -2243.3521)" class="st5" width="16.6" height="48.3"/>
	</g>
</g>
<g class="st0">
	
		<image style="overflow:visible;" width="1024" height="772" xlink:href="596F1EF0.jpg"  transform="matrix(1.5738 0 0 1.5738 -859.9994 -8606)">
	</image>
</g>
<text transform="matrix(1 0 0 1 160.9375 -970.7227)" style="font-family:'MyriadPro-Regular'; font-size:93px;">Tecnologia</text>
<text transform="matrix(1 0 0 1 160.9375 -457.6713)" style="font-family:'MyriadPro-Regular'; font-size:93px;">Tecnologia</text>
<image style="overflow:visible;" width="550" height="468" xlink:href="596F1EF7.jpg"  transform="matrix(1 0 0 1 625.1582 -1237.5863)">
</image>
<g>
	<text transform="matrix(1 0 0 1 -3404.8794 969.9241)" style="fill:#E47F31; font-family:'Exo-Bold'; font-size:305.712px;">sources</text>
</g>
<g>
	
		<text transform="matrix(1 0 0 1 -4042.8794 1420.8906)" class="st12" style="font-family:'RobotoSlab-Bold'; font-size:305.712px;">Pressources</text>
</g>
<g>
	
		<text transform="matrix(1 0 0 1 -4042.8794 1796.9453)" class="st12" style="font-family:'RobotoSlab-Bold'; font-size:305.712px;">Pres</text>
</g>
<g>
	
		<text transform="matrix(1 0 0 1 -3399.8813 1796.9453)" class="st13" style="font-family:'RobotoSlab-Bold'; font-size:305.712px;">sources</text>
</g>
<g>
	<g>
		<path class="st12" d="M131.9,35.8c24.9,0,44.5,6.4,58.9,19.2c14.4,12.8,21.6,29.5,21.6,50.2c0,20.8-7.2,37.5-21.6,50.2
			c-14.4,12.6-34,19-58.9,19H95.2v48.2l23.3,4.5v26.1h-90V227l23.1-4.5v-156L28.5,62V35.8h23.1H131.9z M95.2,140.7h36.7
			c12.1,0,21.3-3.3,27.5-9.9c6.2-6.6,9.3-15.1,9.3-25.3c0-10.4-3.1-19.1-9.3-25.9c-6.2-6.8-15.4-10.2-27.5-10.2H95.2V140.7z"/>
		<path class="st12" d="M230.6,227l20.9-4.5V122.3l-23.1-4.5V91.6h63.7l1.9,23.6c3.8-8.4,8.7-14.9,14.6-19.6c6-4.7,12.9-7,20.7-7
			c2.3,0,4.7,0.2,7.2,0.5c2.5,0.3,4.7,0.8,6.3,1.3l-4.6,39.7l-17.9-0.4c-6.4,0-11.6,1.2-15.8,3.7c-4.2,2.5-7.4,6-9.6,10.6v78.5
			L316,227v26.1h-85.4V227z"/>
		<path class="st12" d="M430.5,256.2c-23.3,0-41.9-7.5-55.8-22.4c-13.9-14.9-20.9-33.9-20.9-56.9v-6c0-24,6.6-43.7,19.8-59.3
			c13.2-15.5,30.9-23.2,53.1-23.1c21.8,0,38.7,6.6,50.8,19.7c12,13.1,18.1,30.9,18.1,53.3v23.7H399l-0.3,0.9
			c0.8,10.7,4.4,19.4,10.7,26.3c6.3,6.9,14.9,10.3,25.8,10.3c9.7,0,17.7-1,24-2.9c6.4-1.9,13.3-5,20.9-9.2l11.8,26.9
			c-6.7,5.3-15.3,9.7-25.9,13.3C455.3,254.4,443.5,256.2,430.5,256.2z M426.6,122.2c-8.1,0-14.4,3.1-19.1,9.3
			c-4.7,6.2-7.6,14.3-8.7,24.3l0.4,0.7h53.4v-3.9c0-9.3-2.2-16.6-6.5-22.2C441.9,125,435.3,122.2,426.6,122.2z"/>
		<path class="st12" d="M647.8,147.1h-29.3l-4.6-20.2c-3-2.4-6.7-4.4-11.3-6c-4.5-1.6-9.5-2.4-15-2.4c-7.7,0-13.7,1.7-18.2,5.1
			c-4.5,3.4-6.7,7.7-6.7,12.9c0,4.9,2.1,8.9,6.4,12.2c4.3,3.2,12.8,6.1,25.7,8.6c20,4,34.8,9.8,44.5,17.5
			c9.7,7.7,14.5,18.3,14.5,31.9c0,14.5-6.2,26.4-18.7,35.6c-12.5,9.2-28.9,13.8-49.3,13.8c-12.4,0-23.9-1.8-34.3-5.4
			c-10.4-3.6-19.6-8.8-27.7-15.6l-0.4-36.3h30.5l6,21c2.6,2.2,6.1,3.8,10.6,4.9c4.5,1,9.2,1.6,14,1.6c8.9,0,15.6-1.6,20.2-4.8
			c4.6-3.2,6.9-7.5,6.9-13c0-4.8-2.3-8.9-7-12.4c-4.7-3.5-13.3-6.6-25.8-9.3c-19-3.9-33.4-9.6-43.1-17.2c-9.7-7.6-14.6-18-14.6-31.1
			c0-13.5,5.6-25.2,16.7-35c11.1-9.8,27-14.7,47.6-14.7c12.5,0,24.4,1.7,35.6,5.1c11.2,3.4,20,7.7,26.3,13L647.8,147.1z"/>
	</g>
	<g>
		<path class="st13" d="M804.3,147.1h-29.3l-4.6-20.2c-3-2.4-6.7-4.4-11.3-6c-4.5-1.6-9.5-2.4-15-2.4c-7.7,0-13.7,1.7-18.2,5.1
			c-4.5,3.4-6.7,7.7-6.7,12.9c0,4.9,2.1,8.9,6.4,12.2c4.3,3.2,12.8,6.1,25.7,8.6c20,4,34.8,9.8,44.5,17.5
			c9.7,7.7,14.5,18.3,14.5,31.9c0,14.5-6.2,26.4-18.7,35.6c-12.5,9.2-28.9,13.8-49.3,13.8c-12.4,0-23.9-1.8-34.3-5.4
			c-10.4-3.6-19.6-8.8-27.7-15.6l-0.4-36.3h30.5l6,21c2.6,2.2,6.1,3.8,10.6,4.9s9.2,1.6,14,1.6c8.9,0,15.6-1.6,20.2-4.8
			c4.6-3.2,6.9-7.5,6.9-13c0-4.8-2.3-8.9-7-12.4c-4.7-3.5-13.3-6.6-25.8-9.3c-19-3.9-33.4-9.6-43.1-17.2s-14.6-18-14.6-31.1
			c0-13.5,5.6-25.2,16.7-35c11.1-9.8,27-14.7,47.6-14.7c12.5,0,24.4,1.7,35.6,5.1c11.2,3.4,20,7.7,26.3,13L804.3,147.1z"/>
		<path class="st13" d="M829.8,170.9c0-24.1,6.7-43.8,20.2-59.2c13.5-15.4,32.1-23.1,55.9-23.1c23.9,0,42.6,7.7,56.1,23
			c13.5,15.3,20.2,35.1,20.2,59.3v3.1c0,24.3-6.7,44.1-20.2,59.3c-13.5,15.3-32.1,22.9-55.8,22.9c-24,0-42.7-7.6-56.2-22.9
			c-13.5-15.3-20.2-35.1-20.2-59.3V170.9z M873.4,174c0,14.7,2.6,26.5,7.8,35.5c5.2,8.9,13.5,13.4,25.1,13.4
			c11.2,0,19.5-4.5,24.7-13.4c5.2-9,7.8-20.7,7.8-35.4v-3.1c0-14.3-2.6-26-7.9-35.1c-5.3-9.1-13.6-13.6-24.9-13.6
			c-11.3,0-19.6,4.5-24.8,13.6c-5.2,9.1-7.8,20.7-7.8,35.1V174z"/>
		<path class="st13" d="M1114.2,232.7c-5.2,7.6-11.6,13.4-19.2,17.5c-7.6,4.1-16.3,6.1-26,6.1c-17,0-30.4-5.4-40-16.3
			c-9.7-10.9-14.5-27.8-14.5-50.8v-66.7l-17.8-4.5V91.6h17.8h43.6v97.8c0,11.7,2,20.2,5.9,25.3c3.9,5.1,9.8,7.7,17.5,7.7
			c6.9,0,12.8-1.1,17.8-3.4c5-2.2,9.1-5.4,12.3-9.6v-87l-19.1-4.5V91.6h19.1h43.6v130.9l19.6,4.5v26.1h-57.8L1114.2,232.7z"/>
		<path class="st13" d="M1195.3,227l20.9-4.5V122.3l-23.1-4.5V91.6h63.7l1.9,23.6c3.8-8.4,8.7-14.9,14.6-19.6c6-4.7,12.9-7,20.7-7
			c2.3,0,4.7,0.2,7.2,0.5c2.5,0.3,4.7,0.8,6.3,1.3l-4.6,39.7l-17.9-0.4c-6.4,0-11.6,1.2-15.8,3.7c-4.2,2.5-7.4,6-9.6,10.6v78.5
			l20.9,4.5v26.1h-85.4V227z"/>
		<path class="st13" d="M1393.7,222.8c7.8,0,14-2.3,18.7-6.8c4.7-4.5,7-10.6,7-18.1h39.4l0.4,0.9c0.4,16.3-5.7,30-18.4,41
			c-12.6,11-28.4,16.5-47.2,16.5c-24.1,0-42.6-7.6-55.7-22.8c-13-15.2-19.6-34.8-19.6-58.7v-4.5c0-23.8,6.7-43.3,20.1-58.7
			c13.4-15.3,32.5-23,57.2-23c13,0,24.7,1.9,35.1,5.8c10.3,3.9,19,9.4,25.8,16.4l0.6,43.1h-35.4l-7.2-25.2c-2.2-1.9-4.9-3.5-8.1-4.7
			c-3.2-1.2-6.8-1.9-10.9-1.9c-12.3,0-21,4.5-26.1,13.4c-5.1,9-7.6,20.5-7.6,34.6v4.5c0,14.4,2.3,26,7,34.9
			C1373.7,218.4,1381.9,222.8,1393.7,222.8z"/>
		<path class="st13" d="M1556.2,256.2c-23.3,0-41.9-7.5-55.8-22.4c-13.9-14.9-20.9-33.9-20.9-56.9v-6c0-24,6.6-43.7,19.8-59.3
			c13.2-15.5,30.9-23.2,53.1-23.1c21.8,0,38.7,6.6,50.8,19.7c12,13.1,18.1,30.9,18.1,53.3v23.7h-96.4l-0.3,0.9
			c0.8,10.7,4.4,19.4,10.7,26.3c6.3,6.9,14.9,10.3,25.8,10.3c9.7,0,17.7-1,24-2.9c6.4-1.9,13.3-5,20.9-9.2l11.8,26.9
			c-6.7,5.3-15.3,9.7-25.9,13.3C1581.1,254.4,1569.2,256.2,1556.2,256.2z M1552.3,122.2c-8.1,0-14.4,3.1-19.1,9.3
			c-4.7,6.2-7.6,14.3-8.7,24.3l0.4,0.7h53.4v-3.9c0-9.3-2.2-16.6-6.5-22.2C1567.6,125,1561.1,122.2,1552.3,122.2z"/>
		<path class="st13" d="M1773.6,147.1h-29.3l-4.6-20.2c-3-2.4-6.7-4.4-11.3-6c-4.5-1.6-9.5-2.4-15-2.4c-7.7,0-13.7,1.7-18.2,5.1
			c-4.5,3.4-6.7,7.7-6.7,12.9c0,4.9,2.1,8.9,6.4,12.2c4.3,3.2,12.8,6.1,25.7,8.6c20,4,34.8,9.8,44.5,17.5
			c9.7,7.7,14.5,18.3,14.5,31.9c0,14.5-6.2,26.4-18.7,35.6c-12.5,9.2-28.9,13.8-49.3,13.8c-12.4,0-23.9-1.8-34.3-5.4
			c-10.4-3.6-19.6-8.8-27.7-15.6l-0.4-36.3h30.5l6,21c2.6,2.2,6.1,3.8,10.6,4.9c4.5,1,9.2,1.6,14,1.6c8.9,0,15.6-1.6,20.2-4.8
			c4.6-3.2,6.9-7.5,6.9-13c0-4.8-2.3-8.9-7-12.4c-4.7-3.5-13.3-6.6-25.8-9.3c-19-3.9-33.4-9.6-43.1-17.2c-9.7-7.6-14.6-18-14.6-31.1
			c0-13.5,5.6-25.2,16.7-35c11.1-9.8,27-14.7,47.6-14.7c12.5,0,24.4,1.7,35.6,5.1c11.2,3.4,20,7.7,26.3,13L1773.6,147.1z"/>
	</g>
</g>
<text transform="matrix(1 0 0 1 -4026 2082)"><tspan x="0" y="0" style="font-family:'RobotoSlab-Bold'; font-size:74px;">Info</tspan><tspan x="0" y="88.8" style="font-family:'RobotoSlab-Bold'; font-size:74px;">Tecnology</tspan><tspan x="0" y="177.6" style="font-family:'RobotoSlab-Bold'; font-size:74px;">Confiance</tspan><tspan x="0" y="266.4" style="font-family:'RobotoSlab-Bold'; font-size:74px;">Modern</tspan></text>
<text transform="matrix(1 0 0 1 -3204 2082)"><tspan x="0" y="0" style="font-family:'RobotoSlab-Bold'; font-size:74px;">Writing Machine</tspan><tspan x="0" y="88.8" style="font-family:'RobotoSlab-Bold'; font-size:74px;">Journalist</tspan><tspan x="0" y="177.6" style="font-family:'RobotoSlab-Bold'; font-size:74px;">News Paper</tspan><tspan x="0" y="266.4" style="font-family:'RobotoSlab-Bold'; font-size:74px;">Modern</tspan></text>
</svg>
