<svg id="Capa_1" data-name="Capa 1" xmlns="http://www.w3.org/2000/svg" viewBox="0 0 1894 1068.43"><defs><style>.cls-1{fill:#3a99d9;}</style></defs><title>mapa</title><path class="cls-1" d="M1130.45,161.61c-.59-2.23-1.12-4.33,1.71-5.67.57-.27.51-1.86.82-3.15,2-1,3.82,0,5.29,1.56,1.73,1.8,3.29,1.79,5.57.92s4.86-.86,7.32-1.14c1.08-.12,2.18,0,3.94,0-.82-1-1.31-1.73-1.87-2.36-1.71-1.91-1.42-3.46,1-4.44a9.49,9.49,0,0,1,2.83-.49c4.84-.36,9.69-.67,14.87-1l-.82-3.47c.11-.16.16-.35.26-.38,5-1.83,9.51-5.08,15.1-5.47a75.61,75.61,0,0,0,8.61-1.41c2.17-.41,4.3-1.15,6.49-1.37s4.4.22,6.57,0a45,45,0,0,0,5.58-1.11c1.64-1.69,2.5-3.34,3.75-3.73,4.11-1.26,8.28-2.18,12.6-.15,1.94.91,4.3,1,6.47,1.35,1.91.35,4,.3,5.72,1,3.75,1.58,7.61,1.51,11.51,1.48,5.22,0,10.28.71,14.86,3.4a46.24,46.24,0,0,1,3.86,2.79c-.13,2.56-1.74,3.41-3.41,4.13a24.13,24.13,0,0,0-8.41,6.54c3.71-.13,7.4-.1,10.7-2a9,9,0,0,1,8-.89,17.67,17.67,0,0,0,4.49.77c5.26.45,10.53.82,15.79,1.24,1.38.11,2.75.33,4.13.45,3.87.34,7.74.7,11.61,1,1.38.1,2.77,0,4.14,0,.85-2.66,3.06-4.37,5.76-3.14,5.23,2.38,10.45,1.69,15.84,1.76s10.52,1.57,13.49,6.85a.78.78,0,0,0,.28.3c4,2.11,7.87,4.37,12.78,6.53l-2-5.4a18.78,18.78,0,0,1,3.4.42c4.15,1.42,8.17,2.4,12.55.47a8,8,0,0,1,6.46-.33c1.53.63,3.53.12,5.67.12l-1.26-2.62c2.19-3,4.74-3.52,8.16-2.76,3.64.81,7.45.81,11.19,1.13,3,.26,6.09.39,9.12.72a132.79,132.79,0,0,1,13.89,1.82,155.55,155.55,0,0,1,16.34,4.67c4.26,1.44,8.57,1.28,12.81.83,6-.64,11.9-.73,17.78.86,2,.54,4.11.65,6.14,1.07a5.8,5.8,0,0,1,2.61,1.06c3.85,3.42,8.61,3.67,13.33,3.86,6.13.25,12.27.09,18.39.34,3,.12,6.05.75,9.08,1.13,1.49.19,3,.36,4.7.56v-3.47a84.47,84.47,0,0,1,15.91.29c5.65.72,11.31,1.31,16.95,2.07,4,.54,8,1.22,11.93,1.9,6.28,1.07,12.6,2,18.82,3.37a47.81,47.81,0,0,1,11.48,3.59c7.5,3.79,15.56,4.91,23.65,6.21A35,35,0,0,1,1649,190a18.19,18.19,0,0,0,2.54,1.11l-3.09,1.81,2.68,6a9.75,9.75,0,0,1-8.32.7c-6-1.82-11.89-3.83-17.78-5.9-4.1-1.44-7.23-.75-10,2.5-.7.84-1.47,1.61-2.43,2.65,4.65,2.42,8.85,5.36,14,6.22a6.07,6.07,0,0,1,5.14,3.76,4.56,4.56,0,0,1-4.14,2.36c-1.39.1-2.93.43-4.16,0-5.3-1.92-7.76,2.37-11,4.87-.64.5-.73,1.73-1,2.65-1.55,4.83-4.82,6.54-9.61,5a16.73,16.73,0,0,0-3.21-.91c-2.2-.23-4.35-.59-5.31,2.49-.6,1.93-1.84,1.91-3.56.5-.95-.77-1.85-1.6-2.24-1.94l-7.07,2a56.26,56.26,0,0,0,2.45,7.91c.42.92,2.3,1.57,3.56,1.64a6.88,6.88,0,0,1,6.14,3.57c.6,1,1.89,1.63,2.67,2.59s2.3,2.47,2.11,3.45c-.61,3.1,1.49,4.2,3.28,5.66a24,24,0,0,1,2,1.55c2.4,2.42,1.73,5.23-1.48,6.4l-1.75.64,4.8,6-4.68,2c.42,1.18,1,2.37,1.27,3.62.5,2,1.25,4,1.16,6-.13,3.06-2.11,3.77-4.53,1.83s-4.6-4-7-5.9a44.45,44.45,0,0,1-8.51-7.89,39.71,39.71,0,0,0-7.14-7,57.28,57.28,0,0,1-8.76-8.85c-2.6-3.12-2.63-7.22-5.3-10.46l7-5.63a9.75,9.75,0,0,1-1.23-7.12c.56-2.6,1-4.82,3.53-5.84.3-3.25-3-3.61-3.85-5.84-2,1.15-3.71,2.1-4.45,4.35-.64,1.93-2.32,2.12-4.16,1.54-2.79-.89-5.56-1.76-7-5h-11.35a57.64,57.64,0,0,0-1.77,6.74,3.37,3.37,0,0,0,2.42,3.86c1.38.49,3.33.81,2.95,2.88s-2.37,1.37-3.79,1.56c-2.86.37-5.7.87-8.57,1.11-1.62.14-3-.71-4.52-1.36-3.77-1.61-7.76-3.69-12.17-1.49-.78.39-1.9,0-2.86.12-2.06.19-4.1.48-6.16.64-1.51.11-3,.09-4.54.1-4,0-8,0-12,.18a3.11,3.11,0,0,0-2.2,1.51c-1.11,2.32-1.61,5-2.95,7.14-3.18,5.14-2.06,11.79-7.25,16.85,2.9.23,4.63.4,6.37.5s3.19.51,3.74,2.15c1,3.07,3.2,3.89,6.12,3.74a9.15,9.15,0,0,1,2.17.47l.66-2.9c7.46-.18,13.74,2.85,20,7.49l-1.34-7.39c3.12.59,4.35,2.75,5.81,4.48,1.61,1.92,2.93,4.07,5.56,4.82a2.94,2.94,0,0,1,1.26,1.06c3.36,4.22,6.73,8.44,10,12.71,1.63,2.1,3.18,4.16,5.91,5.05a6.42,6.42,0,0,1,4.4,4.53l-4,.79c1.1,7.54,7.59,10.77,12.25,15.86a10.14,10.14,0,0,0-2.36,1.42,8.13,8.13,0,0,0-1.06,2.29c-2.45.29-4-.82-5.15-2.8-2.09-3.61-4-7.31-6.38-10.76-4.42-6.52-8.94-13-13.69-19.26-1.53-2-3.93-3.39-6.09-5.19-.92,2.32.29,3.93,1.32,5.45a64.51,64.51,0,0,0,5.5,7.36c3.29,3.63,3.2,7.75,2.46,12.12-.53,3.14-.86,6.31-1.33,9.46a39.53,39.53,0,0,1-.87,4.47c-1.15,4.28-2.51,8.51-3.56,12.82-1.24,5.13-3.52,7.57-8,7.59a12.79,12.79,0,0,1-4.32-1.14,28.63,28.63,0,0,1-3.32-1.74c-3.39,3.05-5.17,6.3-3.67,10.73.93,2.76-.4,4.89-2.22,6.76-4.89,5-4.68,5.63,1.19,9.79a40.34,40.34,0,0,1,15.32,19.79c1.24,3.54.81,4.4-2.57,5.68-2.33.88-4.64,1.82-7,2.65-1.14.41-2.35.64-3.75,1l-6.52-16.28c1.47-4.86-1.25-5.19-6.11-6.42a31.17,31.17,0,0,1-3.92-.87c-1.86-.74-2.57-2.21-2.55-4.31,0-1.55-.16-3.88-1.13-4.5a15.47,15.47,0,0,0-7-2.3,8.26,8.26,0,0,0-7,3c-1.11,1.29-2.7,2.17-4.38,3.48-1.13-3.2-3.43-5.29-2.08-8.61.75-1.85-.6-3.09-2.48-3.63s-3.13-.59-4.07,1.53-3.58,3.27-3.66,6.2c0,.85-1.93,1.81-3.12,2.42a15.76,15.76,0,0,1-3.56.82c1,2.39,2.56,3.39,4.84,3.4,3,0,5.2.73,6,4.35.65,2.93,3.14,3.06,5.4.61,1.17-1.28,2.55-1.89,4.1-1.16a19.57,19.57,0,0,0,8.82,2.22,2.57,2.57,0,0,1,1.88,1.69c.08.69-.71,1.69-1.39,2.19s-1.6.35-2.4.58c-2.37.66-8.46,7.41-8.82,9.81a5.84,5.84,0,0,0,.16,1.55c.33.24.55.54.77.55,4.17.21,6.86,2.54,8.86,6,1.32,2.28,2.72,4.53,4.25,6.67,1,1.44,2.36,2.65,3.54,4a24.66,24.66,0,0,1,3.2,3.82c1.61,2.84,3.14,5.85-1.09,8.77a27.46,27.46,0,0,1,2.78.53,4.24,4.24,0,0,1,3.11,4.38c0,6.46-2.21,12.42-4.23,18.41-.35,1-1.2,2-1.31,3-.88,8-6.11,13.2-11.46,18.52-2.6,2.58-5.64,3.89-8.71,5.38-1.72.83-3.41,1.37-4.71,3.12-1.61,2.16-3.71,1.15-5.69-.61-2.46,5.25-7.77,3.91-11.89,5.37a36.17,36.17,0,0,1-3.71.89v6c-2.22,1.23-3.91.73-4.28-1.49-.75-4.42-3.95-5.28-7.51-5.8a3.53,3.53,0,0,0-2.33.24c-4.73,3.47-9,7.49-10,13.55a8.89,8.89,0,0,0,1.94,6.13c3.27,4.11,7.05,7.82,10.6,11.72,1.4,1.54,2.72,3.16,4.07,4.74,3.22,3.78,5.67,7.88,6,13a13.79,13.79,0,0,0,1.26,3.52c2.73,7.36.67,14.55-6.35,18.12l-5.88,3c-.53,4.6-5.34,6.51-8,10.08-.48.64-1.89.58-3.1.91-.5-3.11-1-5.68-1.31-8.27-.42-3.06-1.2-3.56-4-2.6-1.35-1.11-2.63-2.11-3.84-3.18a3.68,3.68,0,0,1-1.24-1.59c-1.09-4.5-4.75-7.09-7.59-10.26a4.5,4.5,0,0,0-2.54-1.14,27.52,27.52,0,0,0-4,0l-1.55-4.67c-1.5-.57-2.63-.38-2.86,1.31a23,23,0,0,0-.1,3.76,18.69,18.69,0,0,1-1.44,8.56c-1.55,3.37-1.71,7-1,11,3.22,0,4.11,2.26,4.85,5a69.59,69.59,0,0,0,3.23,8.52c.35.84,1,2.07,1.68,2.17,2.54.4,3.44,2.58,5.09,4a56.21,56.21,0,0,1,6.36,5.55c2.88,3.25,4.8,6.72,4.47,11.26-.31,4.31,1.58,8.12,3.27,11.95s1.48,4.35-2.55,5.84c-2.61-1.56-5.06-3.06-7.54-4.51-3.44-2-6.75-4.07-7-8.64-3.32-3.59-3.29-8.36-4.54-12.69-1.73-6-5.58-10.84-9.33-15.67-.69-.88-2.11-1.19-3.77-2.06a17.21,17.21,0,0,1-.23-9.91,5,5,0,0,0,.42-2c-1.34-6.52,1.17-13.26-1.06-19.71-.86-2.48-2-4.87-2.91-7.32-1.3-3.34-2.42-6.76-3.87-10-1.33-3-3-5.86-4.9-9.48,0,3.75-1.63,5.28-4.67,5.85-1.5.28-2.77,1.72-4,2.51a32.52,32.52,0,0,0-4.76-1.41c-1.88-.26-2.51-1.41-2.13-2.89,2.06-8-2.54-14.2-5.65-20.79-.17-.37-.43-.86-.75-1-3.92-1.44-5.52-5.27-8.06-8.06-1.89-2.08-2.84-5-4.22-7.55-.45-.83-.92-1.65-1.3-2.34-3.34,1.12-6.42,2.24-9.55,3.15-1.44.42-3.06.23-4.49.66-3.28,1-6.49,2.19-10,3.41,2,5.75-1.43,8.36-5.38,10.48a19.19,19.19,0,0,0-5.8,5.12c-3.21,3.9-5.35,8.87-10.29,11.24a3,3,0,0,0-1.6,1.77c-.46,2.66-2.44,3.33-4.53,4.33s-3.75,2.68-6,4.38a72,72,0,0,0,1.26,8.62,19.66,19.66,0,0,1-1,12.26c-1.12,3-1.56,5.85-.4,8.95.73,2,.49,3.72-1.79,4.91-.93.48-1.43,1.92-2,3-.37.73-.22,2-.74,2.33-3,1.82-4.93,4.74-7.56,6.89a2.76,2.76,0,0,1-4.13-.39,28.82,28.82,0,0,1-3.71-5.47c-1.49-3.13-2.26-6.64-3.94-9.65-3.82-6.84-6.44-14.12-9.15-21.42-1.24-3.34-3.8-6.19-5.1-9.52-2.36-6.05-4.79-12.18-6.11-18.5-.95-4.53-2.92-9-2.19-13.88a2.34,2.34,0,0,0-.16-.82l-2.21-9.26c-.15,1.12-.29,1.87-.33,2.63-.16,3-.82,3.86-3.66,4.78-1.06.34-2.14.65-3.22.9-1.62.37-3,.15-4-1.41a18.75,18.75,0,0,0-6.28-5.94c-1.15-.72-1.83-2.19-2.91-3.55l3.43-1.52c-.24-.42-.32-.78-.48-.82a15.61,15.61,0,0,1-7.4-4.47c-2.46-2.36-5-4.61-7.5-7a7.27,7.27,0,0,1-2-2.6c-.79-2.32-2.41-2.84-4.56-2.64-3.18.3-6.4.38-9.53.92-6.07,1.05-12.07,1.85-18.22.51q-8.55-1.86-17.21-3.26c-2.5-.41-4.1-1.47-4.79-3.92a13.11,13.11,0,0,0-.85-1.91c-1.5-3.25-1.92-3.19-5.31-1.77-3.55,1.48-7,2.39-11.15.65s-7.87-4-11.8-6-5.57-4.69-7-8.54-3.85-7.49-8.78-7.87c-3.74-.28-7,3.3-5.61,6.71,1.7,4.17,3.57,8.32,7.59,11.08,2.23,1.53,4,3.71,6.14,5.73l1.93-1c-.21,1.77-.37,3.12-.53,4.46l-2.81-2.1.62,4.18.81.07,1.29-2.27,2.69-1.89c2.9,2.76,3.44,5.87,2.68,9.34-.57,2.58-.29,3,2.36,3.49.41.07.83.08,1.24.15,8.56,1.46,12.66-.53,16.71-8.11.72-1.34,1.46-2.68,2.3-4a12.29,12.29,0,0,1,1.9-1.73c.46,1.81.55,3.35,1.21,4.57,2,3.65,4.18,7.18,6.31,10.74,1,1.61,2.54,1.69,4.06,1.23,2.11-.63,3.46.26,4.65,1.8,1.78,2.31,3.72,4.52,5.32,7a4.3,4.3,0,0,1,.39,3.43c-1.29,3.21-2.91,6.28-4.43,9.4-.18.37-.43.89-.74,1-3.48.89-3.56,3.49-3.1,6.26a3.37,3.37,0,0,1-2.5,4.2,6.73,6.73,0,0,0-4.67,4.25,3.23,3.23,0,0,1-2.24,1.61c-3.12.4-5.12,1.9-5.38,4.49l-15.82,5.75a5.3,5.3,0,0,0-.42,1.52c.5,4.37-2.14,6.34-5.77,7.38-2.4.69-4.93.95-7.3,1.71a11.11,11.11,0,0,0-4.16,2.38c-1.61,1.53-3.27,2.6-5.52,2.46-1.64-.1-2.79.64-4.14,1.51a23.21,23.21,0,0,1-6.38,2.73c-1.86.52-3.56.74-5.09,2.35-2.35,2.46-8.34,2.42-10.91.26a3.33,3.33,0,0,1-1.28-2.45c1-4.44-1.63-8.05-2.58-12a21.45,21.45,0,0,1-1-6.47,11.1,11.1,0,0,0-4-9.26c-2.33-2-3.49-4.26-4.65-7.07a19.7,19.7,0,0,0-6.78-8.69c-4.76-3.12-6.49-7.43-7.27-12.47-1-6.33-3.68-11.54-8.93-15.34a4.09,4.09,0,0,1-1.57-1.86c-1.54-5.23-5.12-9.2-8.09-13.56-1.32-1.94-2.37-4.07-3.66-6a22.76,22.76,0,0,0-2.82-3.51c-.39-.39-1.65-.65-1.8-.45-2,2.68-3.67.51-5.91-.34.82,2.66,1.11,5.33,2.38,7.4,4.46,7.29,7.55,15.18,10.89,23a9,9,0,0,0,2.5,3,18.46,18.46,0,0,1,5.25,6.86A43.72,43.72,0,0,1,1028.1,483a9.7,9.7,0,0,0,4.94,8.48c4.57,2.6,5.08,6.87,6.09,11.13a39.07,39.07,0,0,0,1.38,4.67c1.37,3.68,4.79,4.84,8,6a8.83,8.83,0,0,1,4.65,3.79,87.4,87.4,0,0,0,6.21,7.28c1.17,1.36,2.26,2.77,3.44,4.12a4.11,4.11,0,0,1,1.06,4.2,4.16,4.16,0,0,0,2,5,15.87,15.87,0,0,1,2.25,1.86,5,5,0,0,0,6.5.74,5.49,5.49,0,0,1,5.12-.56c1.93.69,3.75.56,5.16-1.43.56-.8,2-1.75,2.72-1.53,2.89.86,5.49-.42,8.1-.9a28.58,28.58,0,0,0,8-3.26c1.23-.65,2.16-1.06,3.45-.45,1.47.69,1.31,1.9,1.22,3.19-.18,2.77-.21,5.56-.36,8.33-.39,6.74-4.31,12.2-6.75,18.19-2,5-4.56,9.84-6.89,14.74a52.33,52.33,0,0,1-16,20,7.56,7.56,0,0,1-1.72,1.16c-5.92,2.2-9.54,7-13.18,11.73-2.78,3.61-6.06,6.91-7.66,11.36-.23.63-1.18,1-1.83,1.48a18.5,18.5,0,0,0-7.49,9.17c-1.34,3.76-3.53,7.21-5.35,10.8a16.45,16.45,0,0,0-1.83,3.69c-.49,2.34-.58,4.76,1.89,6.31,1.9,1.19,2.3,2.74.85,4.54a4.1,4.1,0,0,0-.59,3.89,19.38,19.38,0,0,1,0,4.46c0,3.38.18,6.56,3,9.15a9,9,0,0,1,2.86,8.58c-.56,3.88.15,8,.36,11.95.28,5.38,1.33,10.74-1,16-2.64,5.9-7.29,9.67-12.61,12.85a15.15,15.15,0,0,1-3,1.46,14.75,14.75,0,0,0-7.83,6.52,9.41,9.41,0,0,1-1.58,1.92c-2.86,2.55-5.77,5.06-8.85,7.75,1.08,3.78,1.9,7.28,3.08,10.65,2.3,6.55.73,12.65-2.17,18.46-1.34,2.68-4.18,4-7.18,4.59-1,.19-1.95.24-2.88.51-2.76.81-3.77,2.12-3.14,5,1.31,5.89-2,10.7-3.45,15.93-.16.58-.84,1.09-1.38,1.49-4,3-6.53,7.13-9.05,11.33a45.94,45.94,0,0,1-4.79,6.22c-2,2.31-4.15,4.5-6.28,6.7-3.39,3.51-6.92,6.72-12,7.59-2.15.36-4.17,1.43-6.26,2.15-4.58,1.58-9.34,1.15-14.05,1.17-2.1,0-4.21-.14-5.92,1.45-.2.19-.54.48-.7.42-3.47-1.32-6.45,1.43-9.56,1.24-2.88-.18-5.67-1.92-8.5-3,0-3.26-2.08-5.81-3-8.74-.11-.35.39-1,.72-1.39,2-2.5,2.3-3.88.73-6.18a31.64,31.64,0,0,1-5.16-13.48,10.41,10.41,0,0,0-4.53-7.14c-4.55-3.19-6.21-8.47-7.4-13.66a118.84,118.84,0,0,1-2.47-14.31,36.83,36.83,0,0,1,.5-9.13,5.59,5.59,0,0,0-1.38-4.95c-4.35-5-7.1-10.92-9.36-17.12a30.34,30.34,0,0,0-3.49-6.62,11.3,11.3,0,0,1-1.81-6.7,47.88,47.88,0,0,1,2.78-15.9,36,36,0,0,0,2-7.65,12.22,12.22,0,0,1,4-7.57c4.31-4.27,4.87-9.13,2.57-14.55a57.78,57.78,0,0,1-2.23-5.85c-.34-1.14-.73-2.63-.29-3.59,2.15-4.72-.13-8.82-2-12.61s-3.69-7.44-4.31-11.85c-.41-2.9-2.84-5.63-4.73-8.17-2.9-3.9-6.2-7.51-9.14-11.38a41.12,41.12,0,0,1-3-5.47,5.17,5.17,0,0,1,.23-6.11,13.84,13.84,0,0,0,1.75-7.5,35.15,35.15,0,0,1,1.08-9.41c.69-2.7.35-5.73.08-8.59a3.76,3.76,0,0,0-2.76-3.28c-1.38-.49-2.37-2.09-3.49-3.16-3.9.45-7.74,1-11.6,1.32-3.54.32-5.67-.94-6.4-4.56-1.14-5.65-6.19-9.39-12.79-8.78A41.74,41.74,0,0,0,821.17,572c-5.5,2.26-10.82,5-16.46,6.91-.76.26-2,.61-2.38.25-2.12-1.79-4.82-.7-7-1.6-4.51-1.89-8.76-.51-13,.63a63.84,63.84,0,0,0-7.42,2.8c-2.74,1.11-5.32,1.46-7.83-.64-2.12-1.77-4.37-3.38-6.58-5-2.43-1.82-4.92-3.56-7.31-5.44a7.49,7.49,0,0,1-2.45-2.69,7.72,7.72,0,0,0-5.33-4.87c-4.11-1.15-5.54-4.62-6.2-8.07-.52-2.72-1.37-5.47-3.06-7.11-4.31-4.19-7.2-9.75-12.86-12.69-3.85-2-5.41-7.81-3.53-11.6,1-2,.08-3.53-.81-5a28.37,28.37,0,0,0-2.72-3.4c1.74-3.52,3.87-6.7,4.93-10.21,1.77-5.84,4.42-11.74,1.56-18.09-.39-.87,0-2.12.11-3.2.2-3,1-6.08-2.67-7.74a1.67,1.67,0,0,1-.56-1.44,77.26,77.26,0,0,1,1.89-8.88c.59-1.93,2-3.58,2.78-5.48a13.25,13.25,0,0,1,6.1-7.16c2.43-1.26,3-3,2.76-5.44a15.5,15.5,0,0,1,.4-4.11c.48-2.64,1.74-4.63,4.55-5.4s4.63-2.1,4.46-5.54c-.13-2.62,1.63-4.21,4.31-4.83,7.27-1.67,12.19-6.3,15.4-12.83.49-1,.25-2.35.39-3.54.22-1.89.12-3.91.78-5.63a26.28,26.28,0,0,1,13.68-14.72c3.87-1.83,4.27-6,6.74-8.7.17-.19.18-.52.31-.77,2.5-5.11,3.2-5.26,7.11-1.32a4.34,4.34,0,0,0,4.14,1.33c3-.5,5.92-.86,9,.15a6.55,6.55,0,0,0,6.54-1.7,24,24,0,0,1,3.87-2.3,18.49,18.49,0,0,0,3.34-2.21,11.08,11.08,0,0,1,7.09-3c4.54-.42,9.07-1.13,13.57-1.93,2.92-.52,5.69-.89,8.58.29a4.55,4.55,0,0,0,3.49-.32c2.08-1.17,4.2-1.16,6.45-1.18,4.11,0,8.32.91,12.27-1.25.8-.44,2.62-.38,3.09.19,1.53,1.84,3.49,1.17,5.21,1.33,1.3,2.48.41,4.41-1.5,6.36,3.51,3.9,1.83,7.3-.9,10.75-1.89,2.39-1.65,2.8,1.21,4.7,1.84,1.22,3.63,2.55,5.56,3.63a15.07,15.07,0,0,0,8.39,1.88,31.13,31.13,0,0,1,8.17,1,4.93,4.93,0,0,1,3.85,4c.69,3.32,2.68,4.34,6,4.44a14.76,14.76,0,0,1,9.54,3.74c1.37,1.23,2.86,2.19,4.87,2,3.32-.36,4.75-2.31,3.72-5.45-.47-1.45-1.52-2.88-.17-4.25a40.66,40.66,0,0,1,5.2-4.57c.82-.58,2.22-.28,3.2-.72,4.17-1.87,7.49-.06,10.74,2.25.56.4,1,1.07,1.61,1.25,5.27,1.63,10.55,3.24,15.86,4.73q6.6,1.86,13.29,3.4a9.21,9.21,0,0,0,3.52-.26,3.73,3.73,0,0,0,1.4-.9c4.23-3.32,8.5-3.28,13.06-.51,3.18,1.93,6.78,1.19,10.11.42,1.12-.26,2.28-2.1,2.68-3.43,1.63-5.44,3.11-10.92,4.74-16.36,1.29-4.31.26-9.32.26-13.68a28.79,28.79,0,0,0-5.22-.46,10.49,10.49,0,0,0-4.6,1.41c-4.37,2.78-6,2.84-10.38-.3-2.55-1.83-3.19-2-7.33-2.45-3.75,3.73-4.41,4-9.35,1.21-2.29-1.3-4.36-2.12-7-1.55a8,8,0,0,1-2.47-.26c-.57-1.53-1-3-1.65-4.36a5.76,5.76,0,0,0-1.62-2.24c-3.18-2.3-3.21-2.26-.73-5.49-1.11-2.14-2.6-4.18-3.22-6.47-.39-1.46.5-3.27.86-5.18-2.71-.6-5.62-1.43-8.6-1.87-3.31-.49-4.31,4-8,3.34,2.72,3.57,1.54,7.87,4.13,11,.71.85.11,2.79.11,4.61l-4.93-.62c.92,2.93,2.27,5.75,1.31,9.17-1.36-.4-2.45-1.11-3.37-.94-4.66.87-5.65-2-6.4-5.61a15.6,15.6,0,0,0-2.38-4.78c-2-3.16-4.09-6.24-6.14-9.35a7.52,7.52,0,0,0-1.17-1.69,5.32,5.32,0,0,1-1.85-4.84c.43-5.78-2.21-9.82-7.13-12.63-1.18-.67-2.06-1.83-3.21-2.57-1.36-.88-2.89-1.49-4.28-2.32-2.11-1.26-4.72-2.19-6.11-4-1.82-2.4-4.41-3.87-6.17-6.07-2.8-3.48-5.65-3-9-1.41l-.37.19a2.38,2.38,0,0,0-.28.7c-.3,4.84-.35,4.9,3.53,8.22A11.85,11.85,0,0,1,893,330.4c1.42,3.68,4.89,5.13,8.29,6.29,1.62.56,2.94.82,3.83,2.66.54,1.12,2.36,1.63,3.62,2.39,2.47,1.49,5,2.91,7.42,4.47a3.79,3.79,0,0,1,1.54,1.86,2.61,2.61,0,0,1-.34,2.25,2.71,2.71,0,0,1-2.25.12c-1.74-.59-3.4-1.39-5.87-2.44,0,2-.41,3.42,0,4.51,1.48,3.95-.42,9.47-4.32,10.54-2.94.8-4.22,1.95-4,5.11.15,2.49-1.64,3.53-3.87,2.47-3.26-1.54-6.47-3.21-9.59-5-.79-.46-1.15-1.65-1.7-2.5.91-.48,1.8-1.31,2.74-1.37,2.35-.15,4.75.25,7.09.06a65.54,65.54,0,0,0,7-1.29c2.6-2.79,1.31-5.88.49-8.94a1.4,1.4,0,0,0-.34-.74c-4.06-3-7.79-6.83-12.32-8.66A34.72,34.72,0,0,1,879,334.74a58.44,58.44,0,0,1-4.62-5.78,28.14,28.14,0,0,0-3.49-4.08c-3.19-2.68-3.71-2.59-7.07.14-.32.26-.65.77-1,.76-3.38-.07-5.31,2.49-7.8,4.08-.76.49-2.12.27-3.15.07-2.18-.42-4.3-1.36-6.47-1.47a16.93,16.93,0,0,0-6,1c-1.52.5-2.27,1.8-2.12,3.65.17,2,.7,4.45-1.13,5.93-2.35,1.9-4.85,4-7.63,4.86a9,9,0,0,0-5.66,4.31,71.87,71.87,0,0,1-4.8,6.64l1,3.38c-1.53,2.92-2.72,5.33-4.07,7.65a6.25,6.25,0,0,1-1.85,1.59,17.09,17.09,0,0,0-3.06,2.15c-2.47,2.86-5.64,3.34-9.11,3.09a11.79,11.79,0,0,0-7.17,1.52c-3.58,2.1-7,1.24-9.3-2.06-1.74-2.45-4.08-3.13-6.89-3-2.18.07-4.36,0-6.91,0-.08-1.84-.19-3.32-.21-4.81,0-1.95.18-3.86-1.69-5.3-1.4-1.07-.7-2.49-.1-3.79,1.22-2.64,2.48-5.26,3.56-8a7.41,7.41,0,0,0,.65-3.62,22.14,22.14,0,0,1,.16-8.67c.33-1.36-.37-3-.65-4.78,2-1.35,4.08-2.87,6.3-4.18a4.65,4.65,0,0,1,2.44-.11c2.33.16,4.65.43,7,.58,6.8.44,13.6.8,20.39,1.29,3,.22,3.57-.05,4.32-3a52,52,0,0,0,1.74-7.69,11.46,11.46,0,0,0-.77-6c-2.7-5.26-6.13-10-12.67-10.86-3.19-.41-3.75-2.84-4.6-5.75,3.81-.88,7.25-2.85,11.46-1,3.44,1.49,4.64.11,4.51-4.92,1.43-1,2.81-1.87,4.61-.15a3.94,3.94,0,0,0,2.27.72c3.19.27,9.12-3.54,10.53-6.48a7.11,7.11,0,0,1,2.31-2.67,48.8,48.8,0,0,1,5.75-3.29c3.36-1.67,6.14-3.8,7.11-7.7a2.48,2.48,0,0,1,1.21-1.6c2.94-1,5.94-1.86,8.91-2.78.77-.24,1.81-.3,2.23-.84,1.73-2.2,3.93-1.65,6.08-1.34,2.46-1.82,3-3.81,1.16-6.45a34.48,34.48,0,0,1-2.47-5.1c.45-1.66.78-3.28,1.35-4.82.67-1.8,1.37-3.49,3.62-4.2,1.49-.47,2.59-2.05,4.05-2.74a4.42,4.42,0,0,1,3.39-.21c1.33.67.79,2.12.4,3.37-.48,1.56-.73,3.18-1.18,4.75a12.94,12.94,0,0,1-1.2,3c-1.76,3-1,6.21,1.95,7.71,1.59.81,3.29,1.39,4.94,2.07L880,259c-.61-.43-1.43-.73-1.78-1.31s-.86-1.88-.55-2.45a2.33,2.33,0,0,0,.05-2.58c-1.06-2.22-.42-3.26,1.92-3.73a11.71,11.71,0,0,0,1.58-.14c4.47-1.61,5-3.6,2.11-7.44s-5.45-7.64-8.55-12c-2.16,1.26-4.68,2.84-7.31,4.23a31.34,31.34,0,0,1-6.75,3c-4.22,1.06-7.94-1.68-8.8-5.94a19,19,0,0,0-1.32-4.81c-1.88-3.71-1.23-7.63-1.35-11.5a3.05,3.05,0,0,1,2.4-3.05c4.24-1.47,7.91-3.95,11.71-6.23,1.36-.82,3.15-.92,4.72-1.4a10.21,10.21,0,0,0,3.42-1.24c3.62-2.91,7.1-6,10.62-9a1.62,1.62,0,0,0,.53-.63c1.4-4.48,4.8-6.92,8.64-9.26,2.08-1.27,3.29-3.93,5-5.9.78-.91,1.66-2.24,2.65-2.4,4.13-.67,6.14-4.18,8.86-6.53,3.42-3,3.09-3.34,6.88-1.26,2.55-.49,4.88-.82,7.14-1.41a6.28,6.28,0,0,0,2.74-1.64,8.12,8.12,0,0,1,6.36-2.51c5.65.11,11.31-.15,16.94.12a71.53,71.53,0,0,1,10.27,1.65c1.82.36,2,.8,2.29,3.48,9.81,2.15,19.61,4,29.25,6.55,4.66,1.22,9.1,3.46,13.44,5.65,4.07,2,4,5.54.34,8A16.31,16.31,0,0,1,994,190c-2.37,0-4.77.17-7.1-.1a52.23,52.23,0,0,1-6.48-1.59c1.77,6.13,4.66,10.72,12.2,11.12a13.08,13.08,0,0,1-2.62-1.84c-.62-.77-1.51-2.09-1.23-2.63a4.46,4.46,0,0,1,2.75-2c.95-.2,2.1.45,3.14.8,2.71.94,5.4,1.92,8.65,3.09-2.38-4.46-2.11-4.94,2-6.4a39.39,39.39,0,0,0,4.23-2.34,20,20,0,0,1,3.4-1.38c1.45-.42,3-.66,4.83-1.07-1.5-2-2.43-4-1.89-6.47.21-1-1.14-2.31-2-3.91,5,.06,10.29-3.28,14.7,2.7l-4.61,2.75c1.2,1.85,3.32,2,5,2.58,2.53.93,3.15.3,4.51-2.4a4.64,4.64,0,0,1,2.66-2.21c5.26-1.3,10.51-2.46,15.28-5.25,2-1.15,4.17-.94,6.41,0a11,11,0,0,0,5.18.78c3.16-.28,6.29-1,9.42-1.53a15.74,15.74,0,0,1,10.62,1.19,22.26,22.26,0,0,0-.72-2.3c-1.26-2.54-.85-3.67,1.85-3.88,5-.39,10-.92,14.87,1,4.65,1.83,9.33,3.6,14,5.35,1.61.6,3.27,1.07,4.91,1.6l.44-1a61.87,61.87,0,0,0-6.87-3.42,5.18,5.18,0,0,1-3.47-3.14,18.46,18.46,0,0,0-3.54-4.83c-.61-3,2.25-3.81,4-5.22-.44-5.66.61-6.85,6.26-7.24a32.69,32.69,0,0,1,4.18,0c5.16.3,6.87,2.28,6.83,8.18l4.74,2.58c1.13,2.31,2.43,4.56,3.33,7a11.12,11.12,0,0,0,3.74,5.27c3.39,2.62,3.41,6.19.51,9.25-1.08,1.14-2.2,2.25-3.4,3.48,3.67,2.31,6.39.89,8.84-1s3-5.32,1-7.26c-1.66-1.61-1.31-3.36-1.2-5.43-4.36.7-6.84-1.88-7.87-5C1134.5,164.82,1132.7,163.19,1130.45,161.61ZM965.78,346.51a27.51,27.51,0,0,0,5-.07c1.3-.24,3.15-.81,3.58-1.76,1.67-3.68,4.5-2.93,7.42-2.61a7.61,7.61,0,0,0,3.56-.42c2.68-1.09,5.2-2.62,7.9-3.64,4.55-1.72,10.49-2.88,15.55-.14,3.13,1.69,6.44,2.4,9.68,3.55,2.87,1,5.83.54,8.54,1.27,3.86,1,6.39-.8,9.16-2.66a3,3,0,0,0,1.12-4,9.27,9.27,0,0,0-2.38-3.37,64.16,64.16,0,0,0-7.84-6c-3.28-2-6.88-3.55-10.28-5.41-2.35-1.29-5.15-2.17-6.12-5.67l3.87-1.16c1.4-4.72,1.4-4.72-1.11-7.11a49.15,49.15,0,0,1-6.87,1.55,10.13,10.13,0,0,0-6.42,3c2.07,4.29,6.52,2.23,9.54,3.7-.55,3.37-1.13,3.92-4.73,3.55-2.5-.25-4.48-.07-6.36,2s-3.61,1.54-4.45-1.32a4,4,0,0,0-2.31-2.62c-2.66-1.45-2.65-1.91-.69-4.36-1.69-.64-4-.83-5-2.09-1.73-2.18-3.48-1.88-5.54-1.33-1.68.45-5.7,4.77-5.91,6.83-.23,2.26-1.31,3.53-2.48,3.84l-6,13.84c1.06,1.9,1.72,3.78,3,5.13a29.31,29.31,0,0,0,4.77,3.55c-1,2.58-2.92,2.34-4.72,2.3C967.78,344.78,966.23,344.17,965.78,346.51ZM914,225.05c-1.82,4.54-4.21,7.38-8.31,8.53-1.72.48-1.53,2.11-1.6,3.49a30.53,30.53,0,0,1-2.91,11.52c-.78.13-1.32.23-1.87.3-2.27.29-4.83-.11-5.38,3.3-.1.61-2.06,1.28-3.18,1.3a5.41,5.41,0,0,1-5.71-4.07l-2.68,9.26c2.28-1.64,4-2.94,5.91-1.38,1.6,1.29,3.15,2.65,4.65,3.92l20.74-5.85c3.37,2.75,5.33,2.62,7.82.09,1.14-1.17,2.43-2.2,3.65-3.29a33.3,33.3,0,0,1,1-10.27c1.08-3.79,4.94-4.81,8.26-2.68,1.19.76,2.11,2.39,4.2,1.57a7.89,7.89,0,0,0,.64-2.22c0-1.15.1-2.69-.56-3.36-1.11-1.13-2.64-1.15-4.08.14a7.31,7.31,0,0,1-3.32,1.58,3,3,0,0,1-2.52-.74c-.32-.4.16-1.73.61-2.43,2.42-3.8,6.5-5,10.41-6.39,2.12-.77,4.12-1.33,6.46-.6a32.37,32.37,0,0,0,6.57,1.05,4.27,4.27,0,0,0,2.74-.5,40.24,40.24,0,0,0,4-3.86c-1.29-.51-2.68-1.61-3.95-1.47a71,71,0,0,0-13.13,2.21c-5.15,1.56-9.86,2-14.79-.7-2.15-1.17-3.15-2.4-3.13-4.8a6.46,6.46,0,0,0-1-3.43c-2.5-3.73-2.08-7.38,1.45-10.14,1.2-.94,2.58-1.64,3.83-2.51a66.57,66.57,0,0,0,9.3-8.08c-4.82-3.22-10.43-2.52-14.7,1.63,1.47,2.27.23,3.8-1.76,5-4.06,2.41-8,5-12.28,7.05-3.05,1.45-3.35,3.83-3.45,6.49s.52,4.79,3.12,6.26C910.88,222,912.39,223.68,914,225.05Zm93.08,399.62a12.75,12.75,0,0,1,4.26-8.07,5.48,5.48,0,0,0,1.91-4.85,11.53,11.53,0,0,1-3.22-1c-1.61-1.14-3.1-1.68-5-.68-1.56.83-3.35,1.31-4.72,2.36a4.89,4.89,0,0,0-1.58,3.2c-.22,2.85-.07,5.73-.07,8.43,1.71.11,2.91.17,4.11.27S1005.5,624.53,1007.09,624.67ZM1563.8,212l.89-.71c-.51-.6-1-1.22-1.56-1.76,0,0-.56.39-.86.59Z"/><path class="cls-1" d="M538.58,614.8c3.13-1.67,5.54-1,7.9,0s4.54,2.16,6.9,3a10.43,10.43,0,0,1,7.38,7.79c3.78-2,7.09-.48,10.41.93,3.63,1.54,7.3,2.53,11.31,1.58,4.53-1.08,7.5,2.22,10.91,4.19a6.06,6.06,0,0,1,1.53,1.41c3.93,4.73,8.66,8.16,14.89,9.05,2.25.32,3.35,1.8,4.16,3.62,3.9,8.79,3,17.46-1.45,25.67-2,3.6-5.05,6.58-7.57,9.89a18.06,18.06,0,0,0-2.15,3.5,34.87,34.87,0,0,1-5.46,8.31,13.55,13.55,0,0,0-3.21,7.39c-.21,3.65.81,7.38,1.35,11.06.1.68.8,1.45.62,1.95-1.74,4.69-.29,10-2.85,14.54a7.4,7.4,0,0,0-.94,4.3c.6,4.35-1.09,7.94-3.37,11.3-1.32,1.94-2.27,3.71-1.83,6.15a4.76,4.76,0,0,1-2.29,5c-.69.46-1.67.94-1.86,1.6-1,3.25-3.65,3.39-6.25,3.75-2.34.32-4.68.6-7,.92a5.45,5.45,0,0,0-1.62.37c-4.62,2.23-9.41,4.17-13.77,6.82-8.35,5.07-8.48,7.37-6.88,18,.17,1.09.82,2.12.91,3.21.3,3.7,0,7.07-3.41,9.69a9.83,9.83,0,0,0-4.16,7.4c-.15,2.66-.94,3-4.73,3.48a45.76,45.76,0,0,0-3.55,9.08A38.78,38.78,0,0,1,524.54,836c-1.48,1.71-3,2.26-5.63,2.16-5.51-.22-10.38-3-16.06-2.55,1.13.54,2.25,1.11,3.4,1.6a6.69,6.69,0,0,1,4.22,4.79,6.49,6.49,0,0,0,2,3.45,4.71,4.71,0,0,1,1.76,5.16,71.26,71.26,0,0,1-1.92,7.26,3.56,3.56,0,0,1-1.43,2c-3.38,1.85-6.49,4.18-10.77,4-3.4-.14-6.83.59-9.75.88.32,2.34.54,4.59,1,6.79a24.92,24.92,0,0,0,1.29,3.6c-3.92,5.66-9.24,3.06-14.79,1.79a52.58,52.58,0,0,0,2.69,5.8,4.12,4.12,0,0,0,2.41,1.22,17.41,17.41,0,0,0,2.49,0,3,3,0,0,1,2.93,3c.06,1.78-1.3,2.26-2.88,2.19-.54,0-1.09,0-1.67,0,.17,1,.66,2,.38,2.57a6.09,6.09,0,0,0,.28,5.57,3,3,0,0,1-1.07,4c-1.55,1.15-3,2.37-4.6,3.51-2.28,1.68-2.74,4.07-.74,6s4,3.74,7,4.33c4.95,1,6.31,5.64,2.89,9.35-.56.61-1.25,1.11-1.85,1.69s-1.16.94-1.36,1.54c-1.08,3.22-2.2,6.45-3,9.75s1.54,5.35,3.61,7.05a20.27,20.27,0,0,1,5.06,6.89c2.3,4.47,6.6,7,11.09,9,3.25,1.45,6.58,2.75,10.55,4.4a12.36,12.36,0,0,1-7.8,1.52c-3.86-.3-7.71-.83-11.57-1-4.15-.16-4.06-.06-5.66-4.07a6,6,0,0,0-2.59-3.12,4.19,4.19,0,0,1-2.65-5.26c-2.37-.87-3.6.64-4.92,1.78-3.17,2.74-4.38,2.56-8.14.81-3.51-1.63-5.3-4.84-8-7.2a1.7,1.7,0,0,1-.57-1.07c-.12-3.79-2.89-6.08-4.75-8.95a77.47,77.47,0,0,1-5.87-11.39c-.59-1.37.3-3.35-.18-4.82a60.59,60.59,0,0,0-4-9.61,26.57,26.57,0,0,1-2.59-8.69c-.91-5.72-2.2-11.39-3.54-17-.48-2-1.39-3.69-4.25-3.66-2.48,0-3.07-2.59-3.61-4.55a83.29,83.29,0,0,1-2.61-11.35A39.11,39.11,0,0,0,425,855.25a4.77,4.77,0,0,1-.18-4.3c.74-1.83.66-4,.81-6.06.19-2.45-.08-5,.44-7.35a33.69,33.69,0,0,0,.12-14.07c-.83-4.07-1.86-8.1-2.81-12.15a5.16,5.16,0,0,1-.34-1.2,57.48,57.48,0,0,0-1.19-12.23c-.6-3.27.63-6.85.7-10.29a75.56,75.56,0,0,0-.64-8.21c-.06-.69-.24-1.37-.27-2.07-.58-11.93-.8-23.89-1.88-35.77-.43-4.78-.46-10.19-4.42-14-4.2-4-8.52-8-13.88-10.47-3.28-1.51-6.89-2.44-9.94-4.3a24.81,24.81,0,0,1-6.56-6.21c-1.87-2.46-4.65-4.57-4.57-8.19a1.93,1.93,0,0,0-.58-1.09c-4.52-5.16-6-11.92-9.21-17.72-.61-1.09-.94-2.48-1.82-3.26-4.67-4.13-5.54-10.43-9-15.28-2.24-3.18-3.82-6.78-7.91-8.17-1.32-.45-2.59-1.52-2.11-3.17.62-2.15-.2-3.9-1.29-5.48-1.72-2.51-1.2-4.8.41-6.93a77.43,77.43,0,0,1,5.14-5.92c1-1,1-1.82-.07-2.75-4.74-4-5.07-8-2.69-13.38,1.22-2.77,4.19-5.29,2.89-9.09-.18-.53,1.34-1.86,2.29-2.5.76-.52,1.88-.46,2.78-.83,1.29-.53,2.28-1.17,2.4-3,.19-2.79,1.52-4.82,3.92-6.78s3.85-5.11,4.75-8.05c1-3.12.72-6.6,1.1-9.91.52-4.53-1-8.47-3.26-12.27-1.58-2.7-1.55-2.71-1-5.81-5.68-5.31-5.68-5.31-10.94-.06a4.16,4.16,0,0,0,.09,1.16c.59,1.6.63,3.22-1.1,3.94-1.51.63-3.57,1-4.61-.63-1.82-2.84-4.56-3.4-7.49-3.84a8,8,0,0,1-6.48-4.58c-1.58-3.17-4.81-4.32-7.79-5.74-1.73-.82-3.65-1.58-3.57-4,.14-4.44.81-5.48,4.41-6.6L328,534.5c-4.42,2.19-5.55,1.91-7.3-2.55-1-2.66-3.08-4.26-5-6a4.88,4.88,0,0,0-3.06-.67c-4.25.07-9.84-2.56-12.31-6.12-5.63,1.36-9.21-1.76-12.39-6.09a40.11,40.11,0,0,0-5.64-5.53,5.64,5.64,0,0,0-6.21-1.32c-6.43,2.71-12.44,1.62-18.45-1.43-3.34-1.69-7.06-2.64-10.4-4.32-2.69-1.36-5-3.36-7.6-5a22.54,22.54,0,0,0-3.61-1.88c-2.71-1.11-5.4-2.08-7.09-4.84a7.53,7.53,0,0,0-3.33-2.32c-4.38-2-6.6-8.17-4.16-12.17,2.34-3.85,1.23-7.43-.62-11-1.09-2.09-2.4-4.06-3.41-6.18a29.46,29.46,0,0,0-8.78-11c-1.73-1.32-3.13-2.64-2.27-5.25.31-.93-.29-2.36-.86-3.35-3-5.25-5.05-11-8.82-15.9-1.55-2-1.12-5.56-1.54-8.42a15.3,15.3,0,0,1,0-2.09c0-4.38,0-4.36-4.37-5.23a21.9,21.9,0,0,1-2.28-.7c-3,4.34-3.28,9.24-.46,13.25,1.8,2.56,3.28,5.06,3.36,8.33,0,1.3,1,2.56,1.45,3.87a59.59,59.59,0,0,1,2.57,7.92c1,5,2.16,9.9,5.14,14.25.83,1.21.91,3.06.92,4.63,0,.7-1,1.42-1.52,2.13a9.57,9.57,0,0,1-2.07-1.63c-.89-1.23-1.44-2.71-2.36-3.91a9.38,9.38,0,0,0-2.73-2.39c-3.75-2.12-4.23-2.7-3.13-6.95a5.1,5.1,0,0,0-1.37-5.3c-.37-.38-.91-.89-1.35-.86-3.53.21-5.08-2.61-7-4.66s-1.3-4.38,1.09-5.84c2.58-1.58,3.33-3.06,1.43-5.3-3.82-4.49-4.59-9.49-4.5-15.12.06-3.84-.92-7.71-1.59-11.54-.76-4.4-4-6.74-7.65-8.61a10.62,10.62,0,0,0-2.82-.74c-1.95-.38-3-1.55-2.82-3.5.5-6.08-1.9-12.12-.22-18.23a4.44,4.44,0,0,0-.74-2.71c-1.6-3.12-1.4-6.18-1.05-9.65.42-4.12,2.5-6.87,4.73-9.82a8.19,8.19,0,0,0,1.9-3.2c.84-5.44,4.66-9,7.76-13.07,4.15-5.41,8.68-10.59,12.28-16.35,2.75-4.41,4.3-9.58,6.33-14.28-2.06-4.67-8.2-7-6.29-13.52l8.39.67.37-.69a9.14,9.14,0,0,0-1.87-1.51c-3.25-1.44-4.22-2.73-2.66-5.61,1.91-3.52,1.58-7.13,1-10.59-.65-4.07.61-7,3.6-9.78-.35-.83-.71-1.69-1.09-2.55s-1.19-1.75-1-2.21c1.71-3.43-.52-5.74-2.12-8.09,0-.45-.05-.78.07-1,2.32-4,2.21-4-2.34-5.72a6.73,6.73,0,0,1-2.93-2.71,58.52,58.52,0,0,1-2.89-5.81c-6-.48-11.71-3.48-18.15-3.48-3.25,0-6.19-2.11-8.64-5.15l-8.66,2.65c-.25,3.17-2.31,4.38-5.12,5.08-5.63,1.4-11.2,3-16.76,4.55-2-3.51,1.84-3.81,2.44-6.17-1.26.37-2.28.59-3.23,1a51.14,51.14,0,0,0-4.95,2.21c-15.58,8.33-32.45,13.63-48.6,20.61-1.27.55-2.38,1.52-3.68,1.94a24.08,24.08,0,0,1-6,1.27c-1.79.09-3.61-.48-6.28-.89A15.62,15.62,0,0,1,60,248.95a20.77,20.77,0,0,0,8.31-3.62A70.8,70.8,0,0,1,78.6,239.9c4.3-1.92,8.74-3.53,13.48-5.42-4-2.74-7.81-2.12-11.65-1.42-1.62.3-3.29.92-4.71-1.42l4.94-4.91c-1.95.37-3,.51-4.09.78-1.53.39-3.07.86-4-1-.78-1.68-1.42-3.25.44-4.87A8.49,8.49,0,0,0,75,218.16c.94-2.5,2.28-4.21,5.18-4.8a32.13,32.13,0,0,0,7-2.73c4-1.88,7.94-4.07,12.49-4.48a2.59,2.59,0,0,0,1.19-.36,18.27,18.27,0,0,1,9.08-2.72c3.51-.29,6.18-2.1,9-4.32H99.95a48,48,0,0,1,1.46-7,4.28,4.28,0,0,1,2.89-2.07c5.44-1.08,10.92-2,16.41-2.8a4.57,4.57,0,0,1,3,.79,5.74,5.74,0,0,0,5.18.63c2.1-.56,4.16-1.28,6.59-2a38.28,38.28,0,0,1-3.91-4.35,39.16,39.16,0,0,1-2.51-5.36,11.57,11.57,0,0,1,8.33-3.75,53.05,53.05,0,0,0,16.43-4.35,93.54,93.54,0,0,1,17-5.38c5.26-1.05,10.77-.8,16.16-1.24,1.9-.15,3.77-.73,5.67-1s4.17-.78,6.13-.44c9.43,1.6,18.79,3.61,28.23,5.13a61.59,61.59,0,0,0,10.83.28c3.37-.06,6.65-.2,9.52,2.13a5,5,0,0,0,3.42,1.28c3-.5,5.51.6,7.95,1.92a5.67,5.67,0,0,0,5.9.09c2.75-1.5,5.77-1.64,8.85-2,6.07-.62,12.07-1.91,18.11-2.8,1.75-.26,3.57,0,5.35-.12s3.93.06,5.68-.55c4.58-1.59,4.68-1.66,5.87,3a5.24,5.24,0,0,0,6.2-.07,3.67,3.67,0,0,1,3.49-.45,9.19,9.19,0,0,0,4.13,0,15.75,15.75,0,0,1,12.31,2.34,10.91,10.91,0,0,0,8.21,1.95c3-.39,5.44.58,7.5,3.51l-3.4,2.71a11.1,11.1,0,0,0,2.29.6,80.16,80.16,0,0,0,14.93-1.22c3.76-.62,7.42.12,10.95-2.74,2.08-1.69,5.83-1.54,8.86-1.77a8.12,8.12,0,0,1,6.88,2.38,8.06,8.06,0,0,0,6.76,2.56c4.87-.17,9.75-.18,14.63-.31a4.51,4.51,0,0,0,2.37-.53c4.21-3,7.8-.64,12,1.1,3.89-1.56,8.5-2.91,10.94-7.72a15,15,0,0,0-1.12-1.16c-2.85-2.4-2.66-2.33-.56-5.21,2.65-3.64,6.5-5.07,10.43-6.49,1.43-.51,2.91-.87,4.43-1.31,4.54,2.55,5,7.53.8,11.49,2.15,1.16,4,2.56,2.42,6a42.84,42.84,0,0,1,3.94-2.29,2.94,2.94,0,0,1,3.77.84c1.05,1.36.56,2.69-.43,3.79a34.93,34.93,0,0,1-3,2.68c.11,1.64,1,2.11,2.27,2a6.92,6.92,0,0,0,1.6-.46c4.34-1.51,11.72-8.1,14.16-12.73-1.86-1.05-3.68-2.22-5.62-3.13-1.27-.6-2.91-.87-2.83-2.58s.14-3.76,1.13-4.64c6-5.34,11.73-11.39,20.89-10.31,2.59.3,5.47-1.42,7.78,1.17.23.25,1.29-.31,2-.38,3.18-.29,6.35-.7,9.54-.77s3.81.91,3.17,4.12c-.1.52-.25,1-.48,1.93h6.63c-1.48-2.24-4-3.86-2.46-7,5,0,10.17-.64,14.77,3.8l-3.57,2.12c2.18,1.21,4.18,2.17,6,3.37a26.29,26.29,0,0,0,7.61,3.18,38,38,0,0,1,6.84,2.9c3.67,1.87,5.27,4.83,4.09,9.26l-4.52,2.83c1.7,1,2.88,1.86,4.17,2.46a63.91,63.91,0,0,0,6.19,2.5,7.49,7.49,0,0,1,4.76,4.9c1.11,3,.82,4-1.71,6.09-2.16,1.75-4.3,3.54-6.48,5.26-2.42,1.91-4,1.82-6.14-.43a38.15,38.15,0,0,1-2.59-3.26c-.81-1.06-1.46-2.9-2.42-3.07-2.35-.43-5-1-7.66,1.06.89,1,1.64,1.9,2.44,2.75a47.57,47.57,0,0,1,3.72,3.91c2.06,2.76,1.85,5.62-.36,8.42s-5.8,4-8.76,2.82l-5.6-2.27c1.08,2.39,2,4.2,2.73,6.07.83,2,.26,2.82-1.95,2.9-1.9.06-14.47-4.67-15.8-6.12a13.63,13.63,0,0,1-1.62-2.81c-.79-1.46-1.33-3.15-2.42-4.34-.81-.88-2.54-1.79-3.5-1.5-5,1.53-10-.32-14.93-.11-1.81.08-2.36-1.16-1.7-2.88a7.24,7.24,0,0,1,8.84-4.3c3.41,1.11,6.76,1.68,10.21.52.83-.28,2-.91,2.14-1.58.59-2.37,2.52-3.19,4.25-4.31a60.26,60.26,0,0,0,5.49-3.77c3.11-2.55,2.92-4.95-.53-6.73a10.67,10.67,0,0,1-3.94-3.46c-1.42-2-3.55-3.41-5.34-5.06-7,2.93-14-.37-20.73.62,0,.35-.11.56-.05.59,4.24,2.86,4.29,4.9,0,7.49-1.56.95-3.13,1.51-3.05,3.92,0,.88-1.38,2-2.34,2.68-1.79,1.33-3.77,2.38-5.59,3.67-2.75,1.94-5.46,3-8.95,1.59-1.44-.6-3.38,0-6,.13,2.14,2.62,3.79,4.41,5.18,6.39s2.5,4.11,3.85,6.38c-1.36,2.62-2.59,3.46-5.19,1.67-4.23-2.9-7.54-1.16-11.07,1-1,.57-1.93,1.12-2.92,1.62-1.33.67-2.52.87-3.7-.53a17.7,17.7,0,0,0-3.08-2.4l7.63-8.81c-1.06-.26-1.55-.55-1.78-.41-3.66,2.2-7.24,4.54-10.94,6.66-1.42.81-3.14,1.08-4.67,1.73s-3,1.4-4.46,2.19c-3.83,2.07-6.79,5.26-11.86,5.61-4.2.29-8.44,2.74-12.27,4.91-6.17,3.5-12.08,7.5-16.09,13.64-.45.68-.8,1.43-1.41,2.55.85.18,1.43.29,2,.42,2.43.56,2.72,1.06,2,3.42-.61,2.07-1.22,4.13-2,6.67a21.87,21.87,0,0,0,2.58-.33c5.94-1.64,10.56.51,14.45,4.9a6.71,6.71,0,0,0,1.88,1.58c4.39,2.23,8.37,5.38,13.84,5,2.36-.16,4.82,1,7.55,1.66-2.05,3.7-3.93,7-5.76,10.39-2.43,4.46-1.44,8.73,2.56,11.85,2-.79,4-1.42,5.8-2.32a8,8,0,0,0,4.4-5.22c.56-2.12,1.15-4.24,1.69-6.36a8.42,8.42,0,0,0,.53-2.83c-.3-2.74,1.11-4,3.45-4.89,4.12-1.66,8.1-3.65,12.18-5.38,3.58-1.52,5.64-4.45,7.37-7.67s1.59-3.7-.92-6.59c-2-2.35-1.89-3.38.77-4.81a15.84,15.84,0,0,1,2.29-1c4.07-1.42,6-4.26,5.81-8.57,0-.8,0-2.11.42-2.33,3.57-1.81,2.5-6.72,6-8.6,2.58-1.4,5-2.09,7.89-.79a15.05,15.05,0,0,0,4.74,1.42,60.24,60.24,0,0,0,7.19-.22c1.41,1.19,4.17,2.36,5.39,5.32.29.71,1.43,1.08,2.19,1.6l4.44,3c-1,2.34-2,4.18-2.69,6.12-1.26,3.47.61,6.53,4.26,6.91a8,8,0,0,0,5.9-1.33c4.14-3,8.46-5.77,13.13-8.92,1.86,6.19,3.67,12.09,5.36,18a3.87,3.87,0,0,1-.24,2.81,4.14,4.14,0,0,0,0,4.63c1.15,2.15,1.48,4.88,4.42,5.69a33.61,33.61,0,0,1,5.1,1.8c1.34.62,2.73,1.23,2.27,3.41-.17.8.94,2.18,1.82,2.82a4.61,4.61,0,0,1,2,5.37c-.65,2.94-.36,6-3.36,8.16-.93.66-.75,2.72-1.37,4a18.06,18.06,0,0,1-3.26,4.6c0,.27-.21.58-.12.79,1.88,4.25,1.91,4.35,6.79,2.89,2.24-.67,3.77-.25,4.73,1.38l-3.25,10.21,2.82,2c.36,2.29-3.49,5.87-5.5,4.83-2.59-1.34-6-.71-8-3.49-.55-.74-2.52-.69-3.8-.56-4.7.46-9.39,1.21-14.11.25a26.51,26.51,0,0,1-2.57-.87c1.3-1.54,2.12-3,3.36-3.87,4.33-3,7.31-7.21,10.57-11.2,2.35-2.87,4.84-5.61,7.45-8.62-3.21-1.1-5.92-.22-8.47,1.69a43.51,43.51,0,0,1-11,5.84c-3.24,1.22-6-.26-9,0-2.33.17-4.68,0-7,0-4.32.09-8.63.29-13,.31a9.3,9.3,0,0,0-6.15,1.9c-1.92,1.48-4.52,2.05-6.79,3.1-2.12,1-4.24,2-5.77,5a17.89,17.89,0,0,0,3-1.29c3.85-2.77,8.28-3.89,12.85-4.52a17,17,0,0,1,5.39.11c2.14.41,3.88,1.55,3.89,4.4-.73.61-1.61,1.28-2.4,2a13.47,13.47,0,0,0-2.64,2.79,10.3,10.3,0,0,0-.29,9c.62,1.54,3.09,2.51,4.91,3.32,1.48.66,3.3.53,4.85,1.1a27.31,27.31,0,0,1,4.21,2.54l-13.73,5.4a1.48,1.48,0,0,1-.82.15c-4.24-1.08-6.79,1.38-9.16,4.3a9.29,9.29,0,0,1-1.82,1.72c-1.38,1-3,1.15-4.2-.05s-.75-3,.4-4.1c2.43-2.24,5.08-4.24,7.66-6.31a14.6,14.6,0,0,1,2.07-1.11c-.55-.27-.9-.59-1.11-.52-5.15,1.66-10.54,2.69-15.14,5.8a4.68,4.68,0,0,1-2.24,1c-2.82,0-5.17.82-6.83,3.27a2.11,2.11,0,0,1-1.46.7c-3.5.22-5.78,2.47-8.15,4.65-1.63,1.49-2.7,3.16-2.51,5.45a3.48,3.48,0,0,1-2.56,3.82c-2.08.77-4.12,2.1-6.24,2.24-4.67.3-8.42,2.64-12.38,4.59-.6.3-1.49.62-1.65,1.13-1.39,4.25-5.11,6.32-8.17,9a13.67,13.67,0,0,0-1.39,2c-1.5,1.95-3,3.87-4.65,5.92l-1.62-1.77c-.2.23-.48.4-.51.6a73.72,73.72,0,0,1-1.12,8.58c-.79,3.15-1.21,6.65-4.56,8.54-.66.37-1.47,1.2-1.5,1.84-.11,2.85-2.09,3.32-4.23,3.66-2.55.4-4.8,1.25-6.35,3.53a4.08,4.08,0,0,1-2,1.48c-6,2-10.45,6.38-15.3,10-3.17,2.35-5,6.53-7.34,10a3.31,3.31,0,0,0-.18,2q.8,6.59,1.7,13.18c.41,3,1.09,6,1.29,9,.24,3.69-1.55,6.7-3.95,9.36-1.14,1.26-1.73,1.41-4.44,1.59-2.89-4.42-5.68-8.92-6.54-14.24-.35-2.18-.89-4.62-.25-6.59,1-3.08,0-5.08-2-7.06-.58-.59-1.2-1.14-1.76-1.67l-7,1.58c-2-5.05-5.31-6.06-10.16-4.76-3.87,1-8,1-12.25,1.51v5.81c-3.93-1.27-7.67.29-11.5-1.39a33,33,0,0,0-10-2.16c-1.66-.16-3.53.7-5.13,1.47-3.13,1.5-6,3.62-9.22,4.8-3.5,1.28-6.06,3.81-9.09,5.69s-3.74,4.83-3.63,8a14.48,14.48,0,0,1-2,7.54,49.09,49.09,0,0,0-5.14,17.07c-.3,2.28.82,4.74.52,7-.66,5,1.5,9.23,3.22,13.61a8,8,0,0,0,5.17,5.08c.65.21,1.54.35,1.84.82,1.63,2.57,3.47,2.37,6.07,1.32,2-.79,4.38-.48,6.6-.58,1.81-.08,3.64.1,5.43-.1,2.12-.23,4.17-.87,5-3.16a83.58,83.58,0,0,0,3.09-9c.68-2.83,1.79-4.62,4.86-5.41,4.43-1.14,8.72-2.72,13.43-2.18,1.62.18,3.36.36,3.71,2a4.7,4.7,0,0,1-1.1,3.72c-1.55,1.54-1.7,3.25-2.05,5.22A32.85,32.85,0,0,1,319.14,493a14.2,14.2,0,0,0-2.8,6.35c-.3,2.21-1.64,4.28-2.75,7,.81.3,2,1.14,3.16,1.1a39.85,39.85,0,0,0,8.58-1,21,21,0,0,1,10.3.26,5.6,5.6,0,0,1,2,1.31c.53.44.87,1.1,1.41,1.52,1.13.88,3.49.12,3.61,2.21a21,21,0,0,1-.69,7.77,86.41,86.41,0,0,0-4.16,19A8.38,8.38,0,0,0,341,545.8c1.16,1,2.27,2.06,3.46,3,3.3,2.63,6.76,3.88,10.69,1.21a11.18,11.18,0,0,1,1.92-.83c5.84-2.51,11.58-1.19,15.64,3.66a6.21,6.21,0,0,1,.8,1.82c1.87-1.64,3.73-3.26,5.57-4.9a11.1,11.1,0,0,0,3.23-6.16,7,7,0,0,1,2-3.37,17,17,0,0,1,9.9-4.78,13.66,13.66,0,0,0,9.23-5.07c.93-1.14,4.4-1.72,5.34-.79a2.79,2.79,0,0,1,.65,2.51,9.66,9.66,0,0,1-2.77,2.85c-1.67,1.23-1.27,2.21.24,3.45,2.42-3,7.39-2.69,8.88-7.61l3.06,3.87c2.61-.71,4.84-.15,6.23,2.48a4.11,4.11,0,0,0,3.78,2.16,51.37,51.37,0,0,1,6.2.64,13.55,13.55,0,0,1,3.39,1.33c3.44,1.67,6.78,2.47,10.11-.33a5,5,0,0,1,2.63-1c2.76-.27,5.53-.38,8.3-.49.33,0,.67.42,1.05.68.3,1.48-3.07,3.53.9,4.55l1.66-5c1.74-.64,3.68-.85,4.52.83,1.11,2.21-.45,3.9-2.71,5.33,2.55,1.9,4,4.11,2.69,7.09,2.56.88,5,1.53,7.24,2.52a9.74,9.74,0,0,1,5.61,6.41c.92,3.4,4.24,4.15,6.13,6.41,2.2,2.63,5.17,3.06,8.36,2.56,5.75-.91,10.86,1.82,16.27,2.82.14,0,.33,0,.4.1,3.89,5.17,11,7.84,11.82,15.4a15.18,15.18,0,0,0,3.73,8.68c1.27,1.45,1.37,3.19,1.23,5.1-.3,4,2.08,6.9,6.05,7.22C537.14,610.4,538.75,611.32,538.58,614.8ZM407,319.81c1.15-5.11.74-6-3.28-7.51a16.75,16.75,0,0,0-4.76-1.48c-2.36-.12-5-1.94-7.13.65-.13.15-.54.14-.81.09-3.69-.6-7.06.67-10.59,1.46s-6.6,1.75-8.67,4.93a15.84,15.84,0,0,1-2.34,2.39c-3.8,3.74-5.56,8.61-7.32,13.44-.43,1.18-.06,2.65-.06,4.68,4.5-2.19,7.57-5.08,8.6-9.16,1.51-6,5.08-10,10.08-13.12.82-.51,1.7-1,2.47-1.54,3.61-2.76,4.43-2.8,8-.24,2,1.47,2.26,3,.61,4.87-1.15,1.33-2.44,2.54-3.83,4l4.81,1.22-.38,5.16,10.38-12.52Zm-49.59-14.09.26.65c4.36-.71,8.71-1.5,13.1-2.06,1.07-.14,2.23.52,3.36.78,2,.46,4.09,1.56,5.92,1.21,3.85-.73,7.4-.72,10.86,1.47v-7.7l-5.45-5c-2.66-.51-5.91.25-9,1.51-4.48,1.85-8.88,3.92-13.27,6C361.19,303.51,359.31,304.66,357.39,305.71Zm34.92,32.61c4.54-.58,8.56-2.45,13.32-4.92C399.45,332.43,396,335.75,392.32,338.33ZM198.45,285.14c.4,4.23.95,5.24,4.84,8.43C201.67,290.94,202,287.27,198.45,285.14Zm207.63,258.5c-1.9,3.12-1.9,3.12.93,5.17C408.34,546.77,407.1,545.32,406.08,543.64Z"/><path class="cls-1" d="M1513.36,716l4.24,5.5c.39-.82.91-1.39.86-1.88-.56-4.7-.27-5.12,4.37-5.9-.39-4.58-.39-4.58,5.13-6.12.94-4,4.09-5.72,7.74-6.83.26-.08.57,0,.82-.11,1.48-.52,2.79-2.44,4.52-1.08,2.13,1.67,4.88,2.91,5.22,6.18l6.71,1c-2.45-4.87,1.46-6.91,3.39-9.77.5-.75,1.35-1.29,1.74-2.07,2.62-5.16,4.37-6.13,10.14-5.43,3.09.38,4.16-1,2.93-4-.31-.73-.76-1.39-1.6-2.93,2.44.54,4.35.52,5.74,1.36,3.94,2.39,8.39,3.06,12.7,3.56,1.85.21,3.89,1.42,6.24.13,1.63-.89,3.69,2.66,2.77,4.82a9.61,9.61,0,0,1-1.42,2,52.34,52.34,0,0,0-4.12,5.2,51.67,51.67,0,0,0-2.76,6.33c4,3.45,8,7,12,10.47,2.07,1.78,4.17,3.53,6.33,5.21,3.63,2.82,7.31,2,8.47-2.36,1.63-6.16,4.79-11.77,5.8-18.18.66-4.17,2.54-8.17,4-12.19,1.2-3.23,2.65-6.36,4.27-10.19,3.19,3.5,3.52,7.65,4.4,11.43s1.17,7.82,1.76,12c3.57-1.23,4.62,2.78,7,4.52.34.25.41,1,.43,1.54.27,7.19,2.48,14.22,1.72,21.49-.22,2.06.75,3.28,2.46,4.4a82.68,82.68,0,0,1,6.87,5.36c.52.43,1.18,1.08,1.2,1.65.13,4.18,3.89,7.44,3,11.87,0,.22.19.51.36.91,3.58.88,5.53,3.13,5.43,7.06a3.78,3.78,0,0,0,.78,2.7c3,2.44,3.76,6.11,5.51,9.22.26.46.58.89,1,1.47l2.37-1.14c.07.42.32,1,.15,1.16-3.07,3.63-1.85,8.63-4,12.54a.52.52,0,0,0,0,.41c2.37,5.09-1.48,8.72-3.14,12.79-1.82,4.47-4.14,8.74-6.29,13.08a8.15,8.15,0,0,1-1.68,2.37c-4.68,4.3-9.37,8.6-14.16,12.77-3.26,2.84-6.71,5.46-8.17,9.8a2.53,2.53,0,0,1-.9,1.38c-5.5,3-7,9.13-10.81,13.48-1.59,1.84-3.13,3-5.47,3.3-.28,0-.55.1-.83.12-4.7.33-8.62,2.27-12.57,4.86-6.09,4-6.49,3.77-12.12-2.72-1.74.92-3.63,1.76-5.36,2.86a6.35,6.35,0,0,1-6.31.66c-2.57-1-5.23-1.88-7.89-2.68-3.77-1.13-4.84-2.35-4.81-6.18a23.25,23.25,0,0,1,.62-4.12c.89-4.63.84-4.78-3.09-7.06v-2.95l-6.46,1.08c1.08-5.51,6.67-7.08,7.93-12-3.52,2.43-7.12,4.75-10.53,7.32-2.7,2-4.49,1.6-5.34-1.66a4.19,4.19,0,0,1-.14-2.06c.92-3.27-1.25-5.87-2-8.73-.32-1.19-2.47-2-3.89-2.77a36.34,36.34,0,0,0-5.87-2.84,15,15,0,0,0-6-1.08,46.83,46.83,0,0,0-13.34,3c-2.77,1.12-5.93,1.37-9,1.72a23.43,23.43,0,0,0-8,2.17,42.52,42.52,0,0,1-7.82,2.74,5.38,5.38,0,0,0-3.29,2.22,7.87,7.87,0,0,1-7.15,3.49c-3.33-.19-6.66-.35-10-.44-3.83-.1-7.41.53-10.57,3a49.64,49.64,0,0,1-7,4.56c-4.64,2.54-9,1.35-12-2.86a19.79,19.79,0,0,0-3.07-2.83c-.21-2.13.88-3.58,2.49-5.19,4-4,6.58-8.55,5.83-14.68-.57-4.64-.26-9.39-.34-14.09a12.66,12.66,0,0,0-.14-2.89c-.94-3.61-2.09-7.16-3-10.78-.51-2.13-.65-4.36-.93-6.41,1.72-1.37,3.16-2.39,5.12-.62-.32-1.45-.52-2.93-1-4.34a10.77,10.77,0,0,1,1.77-9.86,11.64,11.64,0,0,0,2.46-7.76c-.11-1.6.11-3.25,2.53-2.48a1,1,0,0,0,.75-.18c3.09-2.31,6.3-4.49,9.21-7,2.41-2.1,5.24-2.47,8.13-2.68,1.76-.13,3.17-.41,4.38-1.87a4.42,4.42,0,0,1,2.86-1.44,7.75,7.75,0,0,0,5-1.62,3.93,3.93,0,0,1,2.42-.33c5.12.21,9.19-1.58,11.94-6a7.58,7.58,0,0,1,1.18-1.71c2.7-2.43,4.77-4.87,4.7-9C1509.1,720.46,1511.59,718.54,1513.36,716Z"/><path class="cls-1" d="M615.77,172.13c0-3.25-4.49-4.49-3.32-8.45l7.68.62c-.59-3.2-2.33-4.48-5.5-4.56-1.74,0-3.47-.19-4.94-.28-1.17-2.54.09-4,.83-5.64,2.41-5.22,1.7-10.17-2.28-14.17a8.37,8.37,0,0,0-3.85-2.27c-7-1.53-14-2.57-21.12-1.19-3.31.64-6.35-.21-9.34-1.37-.87-.34-2-.92-2.3-1.66-1-2.72-1.63-5.56-2.46-8.52l30.6-4.38-.51-3.18a13.72,13.72,0,0,1,2.77-1.22c7.2-1.48,14.61-2.25,21.55-4.48,5.87-1.89,11.81-1.45,17.6-2.5,7.63-1.39,15.21-1.14,22.83-1.49a218.87,218.87,0,0,0,29-2.94c5.82-1.06,11.95-.35,17.93-.57a98.26,98.26,0,0,0,12-.83,88.74,88.74,0,0,1,25.77-.09,130.31,130.31,0,0,1,13.42,2.92c1.32.32,3,.75,2,2.5,5.37.24,10.58.42,15.79.73,5,.3,10.21-1.25,15.55,1.37a15.86,15.86,0,0,1-9.09,4.1,44.62,44.62,0,0,0-14.64,4.58,2.59,2.59,0,0,1-.74.38c-4.37.59-7.37,3.48-10.74,6.44,1.41,1.22,4.26,1.58,3.42,4.32-1,3.16-4.18,2.09-6.71,3.39a15.52,15.52,0,0,1,1.46,3c.28,1.13.66,2.79.1,3.48-2,2.5-3.46,5.67-6.78,7a13.84,13.84,0,0,0-2.88,1.63,9.57,9.57,0,0,1-6.64,1.78,17.14,17.14,0,0,0-9.42,1.87c.87,2.36,3.13,2.34,4.67,3.25,2.38,1.41,4.41,2.89,4.27,6.08s-.72,3.8-3.95,4l-2.47.12c.11,3,0,3-2.38,3.88a73,73,0,0,0-8.15,3.09A48.72,48.72,0,0,1,710.92,177c-2.47.41-4.91,1.06-7.38,1.4a23.65,23.65,0,0,1-7.8-.1c-3.62,2.58-7.14,5.33-10.89,7.7a40.32,40.32,0,0,1-15.58,5.61c-1.27.19-2.69-.65-4.37-1.11a9,9,0,0,1-7.89,2.89,6.1,6.1,0,0,0-5.38,2.66,29.46,29.46,0,0,0-3.63,5.09,15.68,15.68,0,0,1-9.44,8.31c-1.08,6.94-7,10.09-11.3,14.39-1.35,1.33-5-.13-7-2.21-1.23-1.23-2.54-2.7-4.09-3.22a11.29,11.29,0,0,0-5.3.08c-2.3.42-3.67-.21-4.58-2.43-1.2-2.93-2.6-5.79-4-8.62-1.71-3.4-1.61-6.93-1.09-10.56a6.53,6.53,0,0,0-.25-3.17,14.53,14.53,0,0,1,.2-11.67c1.95-4.28,5.25-7.1,10.15-7.64C613,174.17,614.82,173.87,615.77,172.13Zm111.72-7.36,5.46.34L729.21,161Z"/><path class="cls-1" d="M1653.48,645.32c4.26,1.86,9,2.48,11.29,7.7l-5,3.09a20.8,20.8,0,0,0,1.18,2.38c1.8,2.76,4.41,5,5.46,8.24.77,2.43,3.09,1.07,4.88,1.59.21,3.76,3.43,5.23,5.78,7.36,1,.95,2.57,1.72,1.48,3.32a3.09,3.09,0,0,1-4.08,1,5.35,5.35,0,0,1-1.49-.72c-2.1-2-4.49-2.36-7.32-2-3.91.56-6.53-1.88-8.78-4.65a9.24,9.24,0,0,1-1.88-3.23c-1.26-4.73-4.93-6.57-9-8.11-2.11-.79-3.84-.59-5.21,1.14a24.56,24.56,0,0,0-2.94,4.45c-1.38,2.85-3.74,3.8-6.63,4.34-5.27,1-8.64-2-11.93-5.32-.78-.78-1.47-1.65-2.58-2.91-1.66.68-3.37,1.41-5.11,2.06-1.93.72-4.15,2.08-5.89.48-2-1.84-.07-3.9.86-5.62.68-1.28,1.92-2.25,3.4-3.9-.92-2.57-1.92-5.71-3.2-8.73a5.68,5.68,0,0,0-2.43-2.72,51.62,51.62,0,0,0-9.2-3.85,22.22,22.22,0,0,1-8.84-4.45,15,15,0,0,0-2.94-1.6,7.67,7.67,0,0,0-1.06.78c-.83,1-1.48,2.65-2.48,2.89-1.83.44-2.4-1.47-3-2.84-1-2.24-2-4.49-3.09-6.85l7.34-2.55,0-.64c-1-.1-2-.26-3-.29-1.79-.06-3.29-.61-4.09-2.34a4.35,4.35,0,0,0-4.26-2.76,4.4,4.4,0,0,1-2.62-1,8,8,0,0,1-1.34-2.41l2.39-.89a33.84,33.84,0,0,0,4.18-1.54c5.41-2.84,11.11-1.7,14.43,3.17.55.81.41,2.13.49,3.22a15.64,15.64,0,0,0,5.86,10.06l3.08-4.26c.56-.78,1.07-2.2,1.68-2.24,3.07-.2,4.64-2.78,7-3.94a5.65,5.65,0,0,1,3.93-.27c10.6,3.71,21.22,7.4,31.67,11.51,2.84,1.12,5.16,3.6,7.68,5.5.77.58,1.36,1.39,2.12,2C1652.49,640.61,1654.1,642.54,1653.48,645.32Z"/><path class="cls-1" d="M1499.63,604.58c-1.68.43-2.33.66-3,.76-3.87.58-4.77,1.35-4.7,5.3.06,3.11-.68,5.24-3.73,6.66a5.2,5.2,0,0,0-3,6.56,4.57,4.57,0,0,1-.14,2.76c-1.71,4.07-1.76,4-1.45,7.76l-9.12,3.32L1472.4,634l-7.44-2.61c-2.25.92-5.63,5.26-8.9-.24-.79,0-1.48,0-2.18,0-4.18.07-4.48-.18-5.62-4.35-.55-2-1.2-4-1.86-6-.21-.64-.44-1.5-.93-1.77-2.84-1.57-2.68-4.3-2.89-6.92a15.14,15.14,0,0,0-.58-4.49,7.18,7.18,0,0,1,1.08-7.79c.67-.86,1.19-1.85,1.8-2.82l7.65,1.43c.42-.38.77-.53.8-.74.84-5.24,4.13-7.76,9.19-8.32a4.76,4.76,0,0,0,4-3.24,17.87,17.87,0,0,1,9.25-9.65c2.45-1.1,3.82-3.08,5.16-5.24,1.6-2.58,3.34-5.08,5.26-8a21.29,21.29,0,0,1,4.93,5.8,4.06,4.06,0,0,0,2.84,2.08,17,17,0,0,1,4.46,2.12c3,1.73,3,3.23-.09,5a13,13,0,0,1-1.33.55v3.2c-.66.27-1.15.49-1.65.67-3.13,1.08-3.09,1.07-2.78,4.32.2,2.17-.33,4.5,1.53,6.26C1494,597.68,1497,600.73,1499.63,604.58Z"/><path class="cls-1" d="M1097.55,688.83c1.31,3.16,2.76,6,3.66,9a58.06,58.06,0,0,1,2,9.79c.24,2.06.77,4.58-2.26,5.55a2,2,0,0,0-.91,1.6,10.77,10.77,0,0,1-2.05,7.47,1.41,1.41,0,0,0-.2.8c-.17,7.74-4,14.34-6.57,21.35-2.31,6.4-4.37,12.88-6.65,19.29a62.25,62.25,0,0,1-3.7,8.82c-.63,1.17-2.26,1.92-3.57,2.57a27.86,27.86,0,0,1-5.39,2,5.54,5.54,0,0,1-3.17-.23c-7.28-2.84-8.12-5.61-8.76-13a27.92,27.92,0,0,0-.71-5.69,9,9,0,0,1,1.3-8.29,53.91,53.91,0,0,0,3.29-5.3c1.75-3.25,2.7-6.57,1.63-10.39a18.44,18.44,0,0,1-.71-7.81,27.3,27.3,0,0,1,3.37-9.25c.91-1.51,3.36-2.19,5.21-3,2-.89,4.26-1.3,6.23-2.26,4.35-2.11,6.73-6.11,8.86-10.18,1-1.85,1.6-3.73,3.6-4.91.87-.51,1.24-2,1.7-3.09C1094.47,691.93,1094.62,689.83,1097.55,688.83Z"/><path class="cls-1" d="M345.81,168.18l4.78-2.93c-2.15-2.06,2.22-5.48-1.84-8-4.14,1.09-8.78,2-13.18,3.58a8.23,8.23,0,0,1-7.84-1.05c-2.74-1.77-2.68-4.29.17-5.88,2.67-1.48,5.46-2.72,8.21-4.05,3-1.44,6-3,9-4.25a21.55,21.55,0,0,1,5.16-1.47c2.74-.42,5.56-.35,8.27-.87a9.53,9.53,0,0,1,6.7,1.09,8.68,8.68,0,0,0,5.18.39c5-.87,6-.47,8,4,.45,1,1,1.91,1.16,2.15,3.39.47,6.17.9,9,1.22a6,6,0,0,0,2.75-.16c3.76-1.44,4.53-1.2,7,2.78,1.86-1.58,3.62-3.28,5.59-4.68,1.68-1.2,3.48-2.16,5.77-.93,3.23,1.74,3.79,2.74,2.46,6.23-.49,1.28-1.24,2.47-1.86,3.7-.53,1.07-1,2.14-1.66,3.39a31.06,31.06,0,0,1,4.2,2.54,3.77,3.77,0,0,1,1.47,2.63,3.14,3.14,0,0,1-2,2.17,12.78,12.78,0,0,0-6.82,3.39c-1.46,1.28-4.16,1.45-6.33,1.53-2.47.09-5.27.15-7.38-.88-5.1-2.51-10-1.16-15-.28-3.41.6-6.83,1.09-10.24,1.68-6.14,1-11.63-1.65-17.34-3C347.44,171.85,346.34,170.58,345.81,168.18Z"/><path class="cls-1" d="M532.75,120.58l-1.05-2.13,2.86-2.45c-4-1.64-8.81-.62-12.18-4.94a17.11,17.11,0,0,1,3.87-1c8.4-.11,16.42-2.56,24.62-3.86,6-1,12-1.91,18.17-1.32,6.49.62,13,1.25,19.5,1.44a69.6,69.6,0,0,0,12.87-.89,47.84,47.84,0,0,1,19.79,1.38c.34.09.57.57,1,1a9.28,9.28,0,0,1-1.89,1c-5.27,1.26-10.58,2.35-15.81,3.71-6.31,1.64-12.54,3.61-18.85,5.25-4.69,1.22-9.43,2.29-14.21,3.14-4.39.78-8.72,1.47-12.91,3.17-3.56,1.45-7.47,2-11.11,3.31s-7.81,1.21-9.88,5.36c-.34.67-1.63,1.11-2.53,1.21-3.3.39-6.76,1.29-9.92.71-5.1-.95-10,.11-14.93.32-4.29.18-8.59,0-13.63,0,.75-1.29,1-2.37,1.63-2.68a33.28,33.28,0,0,1,6.13-2.4c2.91-.77,6-.66,8.47-3,.83-.81,2.58-.88,3.92-.93C524.55,125.67,525.87,125.28,532.75,120.58Z"/><path class="cls-1" d="M1423.14,647.69a17.92,17.92,0,0,0-3.66,0c-4.06,1-4,.94-6.57-2.32-1.55-1.94-3.46-3.59-5.18-5.39-1.42-1.49-2.86-3-4.21-4.54-2.34-2.72-4.66-5.46-6.9-8.27a13.4,13.4,0,0,1-2.44-3.84,42.16,42.16,0,0,0-5.85-11c-.4-.56-.75-1.32-1.31-1.56-1.82-.79-2.08-2.35-2.51-4-.6-2.27-1.5-4.46-2.26-6.7s-1.73-3.68-4.21-4.11c-.81-.14-1.74-1.33-2.06-2.24a16.08,16.08,0,0,0-5.35-7.27,81.34,81.34,0,0,1-6.81-6.71,5.06,5.06,0,0,1-1.19-5.71c6.4-1.5,13.44,1,16.9,6a8.78,8.78,0,0,0,2,2.11A50.52,50.52,0,0,1,1392,592.82c1,1.37,2.14,2.52,4.06,2.56a5.2,5.2,0,0,1,4.36,2.79,6.27,6.27,0,0,0,2.38,2.27,24.4,24.4,0,0,1,7.86,6.46,5.73,5.73,0,0,1,1.74,4.41c-.06,1-.11,1.93-.18,3.17,2.67.59,4.08,2.1,4.45,5a6.6,6.6,0,0,0,4.42,5.16c3.12,1.26,3.69,4.17,3.58,6.9C1424.41,636.75,1423.7,641.92,1423.14,647.69Z"/><path class="cls-1" d="M1539.39,394.58c.38.68,1.06,1.34,1.09,2a29.3,29.3,0,0,1-.19,6.2,9.54,9.54,0,0,1-1.82,4,2.12,2.12,0,0,1-3.58.11c-1.38-1.59-3.7-2.62-3-5.49.15-.64-.77-1.67-1.41-2.31a14.3,14.3,0,0,0-2.14-1.26c-2.92-2-3.1-3.33-.79-6.07,1-1.24,2.54-2.12,2.21-4.19-.1-.64.61-1.51,1.12-2.13.88-1.08,2-2,2.82-3.07,2.38-3,4.92-5.14,9.33-4.59,2.73.34,5.65-.76,8.55-1.23l2.8-9.21,3.42,1.7c3.32-2.22,5.44-5.15,5.38-9.65s-1.91-8.59-3.54-12.69c-1-2.59-.8-4.27,1.34-5.31.95-.46,2.71-.57,3.41,0,4.63,3.85,8.74,8.08,9.6,14.53.29,2.19,2.29,4.16.71,6.56,2.55,2.91,1.9,6.84,3.16,10.18a19.29,19.29,0,0,1,1,6.51c0,1-1,2.1-1.48,3.15l-3.09-1.56c-.69,1.4-1.4,3.42-3.89,2.69a1.22,1.22,0,0,0-1.05.52c-1.45,3.13-3.89,1.81-6,1.3-1.15,2.06-2.12,4-3.29,5.84-1,1.53-2.41,2-3.83.59a18.92,18.92,0,0,1-3.3-4.15c-.81-1.51-1.82-2.76-3.45-2.43a62,62,0,0,0-8.25,2.5c-.41.15-.52,1.15-.76,1.76l.15-.17-8.4.82,6.68,3.92Z"/><path class="cls-1" d="M825.16,266.16a42.05,42.05,0,0,1,4.63,1.91c2,1.12,2.29,2.68.76,4.43a50,50,0,0,1-3.86,3.59,13.26,13.26,0,0,1,2.13,1.13c.58.46,1.43,1.16,1.38,1.68a2.4,2.4,0,0,1-1.51,1.64c-2.69.64-5.44,1.09-8.18,1.53a48.67,48.67,0,0,1-5,.53c-5,.27-9.89.53-14.52,2.84-1.32.66-3.24.1-5.65.1,2.39-4.5,6.09-6.56,9.88-9.08a18.41,18.41,0,0,1-3.86-.33,9.48,9.48,0,0,1-2.5-1.73,15.19,15.19,0,0,1,1.82-2,13.57,13.57,0,0,1,2.45-1.22L800.95,268a6.51,6.51,0,0,1,4.53-2.52c4.06-.57,4.63-2.43,2.22-5.89a24.62,24.62,0,0,1-1.59-3.34c-4.74,1.09-7.22-2.64-10.22-6.08l1.38-3.21-2.35-5.73,7.15-8.28c7.31-.65,7.74-.58,9.48,1.84l-4.28,2.79c1.92.19,3,.39,4.11.38,4.38,0,4.38-.06,5.71,4.43-.12.24-.19.55-.38.71-3.93,3.25-3.93,3.24-.7,7a6.46,6.46,0,0,1,1.67,2.36c.56,2.6,1.7,4.58,4.23,5.74.6.27,1,1.27,1.24,2C823.88,262.21,824.49,264.17,825.16,266.16Z"/><path class="cls-1" d="M1511.79,617.87l1.71-2.65,11.29-.65c1,2.24-.25,3.08-1.62,3.93-2.56,1.59-5.07,3.26-7.58,4.88l6.37,14-.86,8.62c-2.59-1.24-3.64-3-2.21-6.3-1.36.64-1.82.9-2.3,1.07-1.09.38-2.62,1.33-3.21.93a5.89,5.89,0,0,1-1.81-3.37c-.75-3.14-1.26-6.33-1.85-9.37-2.22,0-2.86.95-2.19,2.39,2.08,4.49,0,8.72-.63,13a3.26,3.26,0,0,1-1,2.18,5.09,5.09,0,0,1-3.33.86c-.63-.15-1.3-1.73-1.29-2.66,0-2.2.54-4.38.71-6.58a4.51,4.51,0,0,0-2.26-4.54,4.61,4.61,0,0,1-.91-6.88,9.29,9.29,0,0,0,1.87-4.91c.6-3.8,1.47-7.54,2-11.37a8.23,8.23,0,0,1,5.43-6.88,3.34,3.34,0,0,0,1.55-1.3c1.08-1.61,2.52-1.35,4.09-1.09,4,.68,7.91,1.32,11.88,1.85,2.2.3,3.71-1,4.75-2.75.79-1.36,1.51-2.88,3.44-2.29,1.34.41,1.4,2.41.28,4.82-2.36,5.08-5.94,7-11.42,5.74-4.19-1-8.3-.34-12.46-.15-1.91.09-2.66,1.22-2.73,3C1507.37,614.42,1508.41,616.63,1511.79,617.87Z"/><path class="cls-1" d="M1733.52,876.23l4-.73c.55,3.37-.85,6.56-4,9-2.74,2.14-5.55,4.18-8.33,6.27a7.32,7.32,0,0,0-1.31,1c-3.64,4.39-8.74,5.57-14,6.36a8,8,0,0,0-4.63,2.44,59.72,59.72,0,0,1-18.69,12.17,5,5,0,0,1-1.21.27c-2,.31-9.78-1.38-12.13-2.71a9.75,9.75,0,0,1,5-5.64c5-2.83,9.86-5.93,14.9-8.68a30.58,30.58,0,0,1,8.07-3.29c7.15-1.52,12.54-5.64,17.45-10.7a20.23,20.23,0,0,1,3.34-2.31c1.34-.9,2.7-1.76,4-2.72.55-.4.93-1,1.46-1.48C1730,873.33,1731.31,873.5,1733.52,876.23Z"/><path class="cls-1" d="M1746.3,871.2c-.55-.62-1.24-1.44-2-2.2-1.74-1.79-1.67-2.93.42-4.24a28.91,28.91,0,0,1,3-1.43c5.21-2.46,7.2-7.12,7.73-12.35a58.69,58.69,0,0,0-.37-10.8,8.4,8.4,0,0,1,2.41-6.71c2,2.1,3.84,3.9,5.44,5.91a3.73,3.73,0,0,1,.23,2.72c-.43,2-1.09,3.95-1.74,6.2a15.44,15.44,0,0,0,1.79.4c1.66.18,1.87,1,1.72,2.6-.37,4,1.67,5.27,5.56,3.72,1.61-.64,3.32-1.9,4.91.65-.51.92-.84,2.38-1.74,3-3.41,2.26-5.88,6-10.4,6.57-1.92.24-3,1.54-3.94,3.31-3.61,7-10.25,9.71-17.73,12.2C1741.13,876.26,1745.48,874.81,1746.3,871.2Z"/><path class="cls-1" d="M729.78,202l1.95-3.09-2.87-1.68,3-3.64c-2.56-2.75-5.48,1.18-8.1-.91a9.78,9.78,0,0,1,8-5.59c2.94-.4,5.32,1.13,6.8,4.27,2-2,4-3.76,6.84-1.85.34.23,1.06,0,1.58-.16a13.19,13.19,0,0,1,1.95-.67c4.39-.41,8.8-.68,13.19-1.14,3.82-.4,5,3,7.18,4.9.38.33.12,2.13-.42,2.61a17.76,17.76,0,0,1-5.06,3.42c-3.48,1.36-7.14,2.25-10.71,3.4a12.21,12.21,0,0,0-3,1.39,8.87,8.87,0,0,1-7.9,1.08c-2.9-.82-6-1-9-1.45C732.18,202.71,731.18,202.37,729.78,202Z"/><path class="cls-1" d="M1450.87,651.35c4.46,2.68,9.52,2.91,14.72,2.4,1.22-.12,2.59,0,2.95,1.64s-.54,2.27-2,2.52a.54.54,0,0,0-.34.29c1.78.93,3.6,2,5.49,2.85a14.64,14.64,0,0,0,3.08,1c.94.21,2.09,0,2.83.41a3.13,3.13,0,0,1,1.17,2.31c0,.48-1,1.34-1.62,1.42-3.39.43-6.8,1.06-10.16-.32a4.48,4.48,0,0,0-2.43-.16c-6.4,1.25-12.35,0-18.15-2.84a20.11,20.11,0,0,0-6.36-1.64c-4.83-.57-9.56-1.14-13.68-4.19-1.37-1-3.3-1.26-5.32-2,.56-1.33.94-2.47,1.49-3.52,1.48-2.83,2.64-3.29,5.72-2.56,2.28.54,4.59.93,6.87,1.48a4.79,4.79,0,0,1,2.57,1.1c2.76,3.56,6.6,2.17,10,2.21C1448.7,653.76,1449.64,652.35,1450.87,651.35Z"/><path class="cls-1" d="M378.9,481.09l.47-4.79-3.07-1.58a6.26,6.26,0,0,1-1.79-1A20.07,20.07,0,0,0,360.1,467a7.37,7.37,0,0,1-3.9-1.23c-2.68-2-5.07-1.53-7.66.09s-5.83,2.27-9.51,3.3a12.27,12.27,0,0,1,.91-2.8c2.15-3,4.76-5.34,8.6-6,2.18-.38,4.28-1.17,6.46-1.56,5.81-1,10.86,1.38,15.88,3.77.61.29,1.17,1.09,1.71,1,3.4-.29,5.54,2,7.44,4,3.19,3.48,7.42,5.16,11.32,7.44,1.92,1.12,3.9,2.15,5.75,3.38,1.32.88,1.33,2,0,3-2.14,1.64-4.7,2.63-7,1.1a9.09,9.09,0,0,0-8.61-1.15C380.93,481.57,380.18,481.25,378.9,481.09Z"/><path class="cls-1" d="M1523.6,526.74A36.59,36.59,0,0,1,1520,525c-3.12-2-7.16-2-9.85-4.92-.39-.42-1.59-.15-2.41-.1-1.84.12-3.67.4-4.25-2.13-.1-.44-1-1-1.61-1-3-.15-4.09-2.57-4.69-4.66-.66-2.27-1.23-5.58-.08-7.15,2.61-3.59,1.17-7.18,1.4-10.77,0-.13-.1-.26-.13-.39-.82-3.94.69-5.48,4.56-4.61,1.58.35,3.12.85,5.19,1.43,1,2.5,2.54,5.48,3.15,8.65a7.83,7.83,0,0,1-1.58,5.71c-2.86,3.47-1.5,6.76-.41,10.17.45,1.39,1.51,1.75,3,1.59a17.69,17.69,0,0,1,4.52.07c5.34.79,6.58,4.89,7.54,9.16Z"/><path class="cls-1" d="M1573.51,322.35c1.73,2.22,3.18,3.86,4.34,5.68a4,4,0,0,1,.54,2.95c-.19.61-1.45,1.14-2.29,1.25-3.41.45-3.41.39-4.29,3.95a4.44,4.44,0,0,1-.49,1.14,3.26,3.26,0,0,1-.6.59c-3.92-.2-7.1-3.36-11.33-3.44,1.31,5.7,1.13,6-2.94,6.06-1.49-1.91-2.89-3.56-4.1-5.33a5.47,5.47,0,0,1-.85-2.62,38.56,38.56,0,0,1,.2-4.39l3.71-.17c-.84-4.77-3.46-8.49-5.88-12.69,3.44-.31,5.9,1.33,8.47,2.4s5.25,2.5,7.86,3.78S1570.9,323.73,1573.51,322.35Z"/><path class="cls-1" d="M777.45,267.36a33.12,33.12,0,0,1-2.28-3.56c-1.33-2.79,0-5.07,3-5,2.81,0,4.87-.56,5.7-3.6.17-.63,1.11-1.18,1.81-1.5,3.29-1.5,6.61-1,9.68.48a4,4,0,0,1,.68,7c-1.62,1.1-2,2.32-2.2,4.1a20.25,20.25,0,0,1-1.77,5.89,3.32,3.32,0,0,1-2.5,1.61c-3.11-.06-5.63,1.25-8.15,2.78-.94.57-2,1-3,1.48-1.85,1-3.11.3-4.24-1.27-2.64-3.66-2.57-4.09,1.31-6.61A16.37,16.37,0,0,0,777.45,267.36Z"/><path class="cls-1" d="M1536.82,574.37c-7.64-2.26-9.73-3.74-10.92-11.87l-5.43-.77-5,4.06c-.13-2.13-.52-3.34-.19-4.31a22.69,22.69,0,0,1,2.41-4.61c.23-.37,1.22-.25,1.49-.62,2.48-3.5,5.28-3.38,8.31-.52.71-.9,1.22-1.53,1.7-2.17,1.56-2.1,3-4.32,4.71-6.27a1.67,1.67,0,0,1,2.82.44c2.34,4.72,4.6,9.5,4.25,15-.09,1.36-.53,2.36-2.22,2.43-1.45.06-1.57,1.2-1.58,2.43C1537.13,569.69,1536.95,571.83,1536.82,574.37Z"/><path class="cls-1" d="M508.34,145.41c-4.13-.57-7.71-1.13-11.3-1.53-4.27-.48-8.56-.84-12.84-1.23a28,28,0,0,1-3.73-.28,2.66,2.66,0,0,1-1.78-1.4c-.14-.47.56-1.52,1.14-1.8A6.83,6.83,0,0,0,483,136.1a6.38,6.38,0,0,1,10-1.22,5.68,5.68,0,0,0,4.78,1.88c6.24-.25,12.48-.55,18.72-.8a28.69,28.69,0,0,1,5,0c1,.14,2.61.79,2.68,1.37a4.22,4.22,0,0,1-1.18,3.23,13.19,13.19,0,0,1-4.93,3C514.77,144.52,511.29,144.89,508.34,145.41Z"/><path class="cls-1" d="M401,132.75c3.27,1.64,6.2,2.9,8.91,4.54s4.3.74,6.17-1.15c2.91-2.92,3-2.85,7.85-2.52l1.14,2.85c2,.26,3.86-1.55,5.85.37-1.17,3.16-3.11,5.24-6.77,5.49-7.05.48-14.09,1.15-21.15,1.53a37.67,37.67,0,0,1-6.6-.72c-3.7-.47-7.4-.92-11.09-1.48a9,9,0,0,1-2.31-1.21C387.92,134.51,395.14,135,401,132.75Z"/><path class="cls-1" d="M1601.06,874.65c1.54,2.35.71,3.85-.31,5.17-2.55,3.31-4.82,7-7.93,9.64-2.63,2.26-6.22,3.46-9.48,4.92a2.62,2.62,0,0,1-3.68-1.78c-.81-2.31-1.74-4.62-.13-7.14.77-1.2.75-2.88,1.15-4.33a16.2,16.2,0,0,1,1.38-4.2c2.27-3.65,2.31-3.47,6.35-2.07a14.73,14.73,0,0,0,5.25.56C1596.13,875.34,1598.59,874.93,1601.06,874.65Z"/><path class="cls-1" d="M502.18,126.09c-5.06.17-6.61-2.45-7.36-4.89-.42-1.37-.18-2.39,1.38-2.95,4.82-1.73,9.59-3.58,14.41-5.32,3.3-1.19,6.3.27,9.19,1.49a45.76,45.76,0,0,1,6.46,3.71c.61.39,1.47,1.32,1.34,1.74a3.46,3.46,0,0,1-1.75,1.93,15.29,15.29,0,0,1-3.25.56c-4.48.85-9,1.74-13.44,2.57C506.84,125.38,504.5,125.71,502.18,126.09Z"/><path class="cls-1" d="M394.34,490.75c3.51-2.84,7.15-1.67,10.12-2.93,1.31-3.06-2.65-3.9-2.79-6.89a22.63,22.63,0,0,1,3.51-.19c2.86.28,5.69,1.31,8.58,0a1.82,1.82,0,0,1,1.61.14c3.26,3,7.91,3.21,11.45,5.64.45.31,1.13.56,1.29,1,.3.83.68,2,.34,2.61s-1.76,1.4-2.28,1.16c-2.56-1.17-4.76-.75-7.07.64-.73.44-1.91.1-2.88.19s-1.85,0-2.41.4c-2.64,2.12-5.5,1.43-8.38.94-2.6-.44-5.22-.83-7.81-1.36A21.66,21.66,0,0,1,394.34,490.75Z"/><path class="cls-1" d="M433,161a17.22,17.22,0,0,1-7.94-4.82c-1.28-1.4.11-4.13,2.07-4.44.81-.13,1.68.13,2.49,0,1.38-.21,2.69-.49,3-2.34.4-2.62,2.15-3.62,4.75-3.66,3.19-.05,6.37-.48,9.56-.49,1.08,0,2.16.79,3.24,1.22-.46.93-.93,1.85-1.38,2.79s-.82,1.9-1.31,2.81c-.84,1.54-1.38,3.56-2.68,4.48C441.31,158.93,437.25,160,433,161Z"/><path class="cls-1" d="M1274.39,547.66c2.72-.2,4.17,1.73,5.52,3.56,1.72,2.34,3.27,4.8,4.76,7.29a9.63,9.63,0,0,1-6.57,14.64c-1.74.32-2.57-.56-3.15-2-2.28-5.6-3.67-11.29-2-17.36C1273.47,551.84,1273.88,549.83,1274.39,547.66Z"/><path class="cls-1" d="M477.59,147.86c-4.62,2.34-8.22,6.69-14.29,6.25-2.1-.15-4.3.63-6.41,1.17-1.89.48-3.71,1.18-6-.08.55-1.35.77-3,1.71-4,3.82-3.93,7.85-7.5,14.11-5.7,1.83.52,3.86.3,5.8.48,1.62.15,3.22.4,4.84.61Z"/><path class="cls-1" d="M1496.12,466.48c-4.5-2-6.88-5.92-6.31-10.11a64.27,64.27,0,0,1,1.55-7.32,4.7,4.7,0,0,1,5.09-3.31c2.52.5,3.84,2.56,3.33,5.32-.72,3.92-1.42,7.85-2.26,11.75A24.29,24.29,0,0,1,1496.12,466.48Z"/><path class="cls-1" d="M868.22,341.48c-4.49-6.6-4.24-8,1.4-9.63,1.44,3,1.41,3.64-.51,8.74,2.28,3.38,2.65,7.37,2.62,11.43,0,2.51-2.87,5.45-5.27,5.19a3,3,0,0,1-2-2,95.68,95.68,0,0,1-.59-9.91,3.06,3.06,0,0,1,1.2-2A22.31,22.31,0,0,1,868.22,341.48Z"/><path class="cls-1" d="M367.89,136.32c-.08-2.56,1.52-2.94,2.72-3.32a55.88,55.88,0,0,1,9.6-2.53c5.2-.68,10.46-.93,15.71-1.19,1.21-.06,2.45.59,4.52,1.13-1.44,1-2,1.65-2.68,1.81-3,.69-6,1.2-9,1.85-2.69.59-5.41,1.14-8,2C376.5,137.36,372.3,136.7,367.89,136.32Z"/><path class="cls-1" d="M1667.21,646.53l10.67-.84c.81-.06,2.06.22,2.36-.19,1.9-2.66,6.06-3.71,5.65-7.93,4.11,0,5.25,1.39,3.46,4.46a26.48,26.48,0,0,1-5.21,6.95c-4.07,3.45-9,3-13.86,1.77C1668.17,650.21,1667.56,649,1667.21,646.53Z"/><path class="cls-1" d="M1521.74,676.81c.5-3.52,1.08-6.16,5.05-6.83a9.14,9.14,0,0,0,6.06-3.92c2.16-3.06,7.19-3.21,11.67-.54a17.74,17.74,0,0,1-2.77,2.26c-2,1-4.13,1.66-6,2.76a53.73,53.73,0,0,0-7.5,5A6,6,0,0,1,1521.74,676.81Z"/><path class="cls-1" d="M1438,479.63c5.11,0,6.14,1.31,4.81,5.62-.8,2.59-1.22,5.51-4.86,6s-6.1-1.34-6.81-5.07a5.56,5.56,0,0,1,4.67-6.34A15.48,15.48,0,0,1,1438,479.63Z"/><path class="cls-1" d="M465.21,134.75c-4.51,3.45-8.7,7.14-14.81,6-1.28-.23-3.15-1.38-3.35-2.39a4.51,4.51,0,0,1,1.84-3.8c4.91-2.75,10.19-2.82,15.5-1.11C464.59,133.57,464.68,133.93,465.21,134.75Z"/><path class="cls-1" d="M1525,532.21l-.89-3.62h6.79c.77,1.84,1.54,3.6,2.26,5.39.89,2.2.72,4-2,4.67.55,2.52,2.79,4.72.46,7.12-5-3.49-6.22-7.47-4.19-12.65l-2.41-.92Z"/><path class="cls-1" d="M1499.07,664c-.13,3.51-.38,4.05-2.66,3.82a6,6,0,0,0-4.91,1.65c-2.15,1.76-4.92.86-6.9-1.25l-4.41-.27.87-5.08c1.63.31,3.29.12,3.86.82,1.66,2.05,3.64,1.37,5.27.75C1493.1,663.33,1495.89,663.81,1499.07,664Z"/><path class="cls-1" d="M431.57,172.71c-4.13,3.85-11.52,4-18.11.29,4-2.27,7.62-4.95,12.15-4.52A7.24,7.24,0,0,1,431.57,172.71Z"/><path class="cls-1" d="M466.3,127.1c-2.63-.57-4.81-.93-6.92-1.54a6.29,6.29,0,0,1-2.79-1.63c-1.43-1.55-.65-3.6,1.45-4a6.76,6.76,0,0,1,2.88-.09c3,.8,6,1.65,8.95,2.73,1.88.7,2,2.4.28,3.35A17.71,17.71,0,0,1,466.3,127.1Z"/><path class="cls-1" d="M1539.39,394.58l-.6-.6,1.72-4.74-.15.17c1.86-.81,3.68-1.74,5.6-2.4a4.7,4.7,0,0,1,4.92,1.33c1.17,1.09.69,2.33.13,3.41a4.21,4.21,0,0,1-1.7,1.54c-.57.31-1.66.09-1.92.49C1545,397.44,1542.17,395.56,1539.39,394.58Z"/><path class="cls-1" d="M1517.81,540.79c1.29-1,2.53-2.12,3.88-3.05a19.81,19.81,0,0,1,2.78-1.36c1.39,4.72.17,8.88-3.59,13.27-4.09-2.07-4.06-2.06-3.09-6.13a15.59,15.59,0,0,0,.16-2.88Z"/><path class="cls-1" d="M1549.16,608.63c-1.58-3-1-5.94-.72-8.77.07-.73,1.09-1.36,1.67-2,.58.62,1.19,1.22,1.72,1.89a1.78,1.78,0,0,1,.31.72c1.39-.16,2.85-.79,3.71-.31,1,.57,1.21,2.1.25,3.29a6.34,6.34,0,0,1-1.12,1.22C1553.1,606,1551.18,607.25,1549.16,608.63Z"/><path class="cls-1" d="M1552,628.44c3.79.43,7.2.81,10.6,1.22a3.52,3.52,0,0,1,1.17.39c1.44.75,3.54,1.37,2.72,3.46s-2.56.81-3.92.3a14.34,14.34,0,0,0-7.64-1.19C1552.54,633,1552.11,632.27,1552,628.44Z"/><path class="cls-1" d="M1827.27,722.48c.58,1.56,1.1,2.84,1.52,4.14.71,2.16.11,3.05-2.19,3.42a8.34,8.34,0,0,1-.83,0c-3.36.19-5.76-1.48-5.71-4s2-3.8,5.34-3.78C1826,722.33,1826.5,722.42,1827.27,722.48Z"/><path class="cls-1" d="M1742.74,741.9c4.76,2.73,8.37,6.73,12.16,10.52a1.1,1.1,0,0,1,.36.73c-.08.77-.26,1.52-.49,2.69A24.27,24.27,0,0,1,1742.74,741.9Z"/><path class="cls-1" d="M539.33,944.6c-1.41,1.18-2.29,2-3.27,2.72-2.43,1.75-3.21,1.53-5.12-1.3-1.1.5-2.2,1-3.32,1.48a3,3,0,0,1-.95,0c-1.3-1.37-1.52-2.88-.1-4.27,1.22-1.19,3.12-.63,4.94,1.38C533.85,941.29,536.28,943.29,539.33,944.6Z"/><path class="cls-1" d="M1516.86,666.27c-.37.53-.69,1.47-1.13,1.52a53.42,53.42,0,0,1-14.5-.05c.33-2.75,1.77-4,3.89-3.89A89.81,89.81,0,0,1,1515,665c.72.11,1.34.93,2,1.42Z"/><path class="cls-1" d="M462.13,140.9c3.24-2.81,6.73-2.63,10.23-2.32,1.34,4,.49,5.43-3.15,5.68C466.39,144.45,464.91,143.79,462.13,140.9Z"/><path class="cls-1" d="M1501.34,521.09c5.25.61,7.41,2.34,8,6.08.2,1.33.18,2.76-1.24,3.15a3.93,3.93,0,0,1-2.9-.88C1503.21,527.92,1502,525,1501.34,521.09Z"/><path class="cls-1" d="M483.37,129.73c-2.15-1.12-4.35-2.18-6.43-3.42a1.56,1.56,0,0,1,.93-2.84,71.55,71.55,0,0,1,7.68,1.42c1.23.31,2.34,1.17,1.93,2.73s-1.73,1.59-3,1.61h-.83Z"/><path class="cls-1" d="M1005.45,378.39c-1.42,2.07-2.26,3.28-3.08,4.5a6.68,6.68,0,0,1-6,2.87c-.9,0-1.79-.88-2.69-1.35.56-1,.89-2.64,1.72-3C998.38,380.26,1001.55,379.52,1005.45,378.39Z"/><path class="cls-1" d="M482.48,133.26c-3.77,2.39-6.9,3.07-10.19,1.66-.87-.37-1.41-1.5-2.1-2.29.82-.6,1.58-1.56,2.48-1.73C475.93,130.28,478.86,131.32,482.48,133.26Z"/><path class="cls-1" d="M1500.11,670a47,47,0,0,1,6.15,2.33,3.71,3.71,0,0,1,1.38,2.67c.14,1.72-1.13,2.35-2.75,1.64s-3.53-1.37-5.18-2.27a14.84,14.84,0,0,1-2.57-2.28Z"/><path class="cls-1" d="M429.53,126.83c-3.76,4.81-8.35,2.47-12.78,2C418.14,125.42,424.84,124.38,429.53,126.83Z"/><path class="cls-1" d="M1518,540.64c-.24.12-.48.26-.73.37l-2.79,1.21a11.36,11.36,0,0,1-1.2-2.93,61.75,61.75,0,0,1-.06-6.21l6.29,3.3-1.66,4.41Z"/><path class="cls-1" d="M1549.31,631.53c-.15,3.68-.37,4-3.22,4a32.66,32.66,0,0,1-3.3-.3c-1.33-.14-2.5-.55-2.55-2.14a2.81,2.81,0,0,1,3.09-2.64C1545.36,630.65,1547.35,631.16,1549.31,631.53Z"/><path class="cls-1" d="M443.39,138.55c-1.24-.2-1.93-.26-2.59-.42-2.46-.58-4-2.33-3.36-3.84.46-1.14,3.08-2,4.76-1.41a4.39,4.39,0,0,1,2.16,1.09,4.14,4.14,0,0,1,1,2.88C445.14,137.61,443.9,138.13,443.39,138.55Z"/><path class="cls-1" d="M1703.5,644c2.16,2.47,4.39,4.89,6.43,7.46.44.56.16,1.68.21,2.55-.89-.06-2.08.23-2.63-.23-2.93-2.49-4-5.9-4.8-9.37Z"/><path class="cls-1" d="M438.8,493.95c-1.76-.06-3.21-.44-3.39-2.39-.15-1.65,1.28-2.61,3.49-2.45a2.15,2.15,0,0,1,.81.11c1.33.69,3.89,0,3.69,2.39-.17,2-2.39,1.84-3.91,2.26A3.84,3.84,0,0,1,438.8,493.95Z"/><path class="cls-1" d="M1837.26,716.1c-.69,3.73-3.54,5.59-6.52,4.54-1.72-.61-2-2.38-.44-3.54A7.16,7.16,0,0,1,1837.26,716.1Z"/><path class="cls-1" d="M1693.74,640.88c-1.26-5-4.73-8.24-11.38-11.26a5.6,5.6,0,0,1,5.72,1.06c1.7,1.41,3.32,2.93,4.87,4.5S1694.23,638.88,1693.74,640.88Z"/><path class="cls-1" d="M1541.55,621.8l-.59,5.07c-1.95-1-3.54-1.84-5.16-2.66-1.39-.7-3.6,0-4.37-2.41Z"/><path class="cls-1" d="M947.17,379.12l13.17,2.23c-3.79,1.9-9.49,1.26-13.33-1.2Z"/><path class="cls-1" d="M1731,669.89l3.79-.31,1,5.5C1730.47,674.84,1730.22,674.55,1731,669.89Z"/><path class="cls-1" d="M1768.88,716.85c-2.69-3-6-5.91-4.23-10.76a5.07,5.07,0,0,1,.83.13C1765.55,710.1,1767.85,713.21,1768.88,716.85Z"/><path class="cls-1" d="M1587.54,646.09c2.22,4.5,1.78,5.85-2.3,7.63A8.52,8.52,0,0,1,1587.54,646.09Z"/><path class="cls-1" d="M1549.39,611.57c1.2,1.66,3.78,2.26,1.9,4.6-.92,1.15-3.27.87-4-.36C1545.91,613.67,1547.66,612.91,1549.39,611.57Z"/><path class="cls-1" d="M379.73,447.26c2.76,2.2,3,3.3,1.59,6.85C377.74,451.44,377.4,450,379.73,447.26Z"/><path class="cls-1" d="M1525,532.21h-4.38l-2.61-5.89.46-.28,6.54,6.18Z"/><path class="cls-1" d="M1724.1,660.4c3.42-.52,5.5,1.3,7.71,4-2.28.24-3.07-1.33-4.3-2S1725.23,661.1,1724.1,660.4Z"/><path class="cls-1" d="M838.59,352.54c-1.44.78-2.26,1.56-3.14,1.62-1.16.08-2.4-.72-1.89-2a3.52,3.52,0,0,1,2.48-1.67C836.61,350.38,837.35,351.48,838.59,352.54Z"/><path class="cls-1" d="M1739,671.88a10.17,10.17,0,0,1-3.26-7.74A14.78,14.78,0,0,1,1739,671.88Z"/><path class="cls-1" d="M1773.07,708.9a5.73,5.73,0,0,1-1.1,6.1C1772.17,713.06,1769.58,710.82,1773.07,708.9Z"/><path class="cls-1" d="M1554.72,592.44c1.12,2.49.42,3.85-1.1,5.36C1551.66,595.4,1553.69,594.38,1554.72,592.44Z"/><path class="cls-1" d="M1739,677.77c2.34-.77,3.61-.17,3.94,2.36C1740.65,680.9,1739.59,679.95,1739,677.77Z"/><path class="cls-1" d="M1595.73,620.45l5.34,1c-2.5,2-3.95.49-5.49.18Z"/><path class="cls-1" d="M1716.76,657.06l-4.28-2.9c2.77-.51,4.05.32,4.89,2Z"/><path class="cls-1" d="M1718.54,662.34l4.3,3.07c-2.49.57-3.63-1-5-2.2Z"/><path class="cls-1" d="M1549.21,618.82l2.61,1.64C1549.9,621.69,1549.9,621.69,1549.21,618.82Z"/><path class="cls-1" d="M1771.78,725l-.29,2.24-.91-.07.12-2.4Z"/><path class="cls-1" d="M1525.35,665.28l-3.1.92C1522.68,664,1523.7,664.72,1525.35,665.28Z"/><path class="cls-1" d="M1563.73,621.73a18.27,18.27,0,0,1-1.19,1.63,5.84,5.84,0,0,1-.89-.55l1.17-1.68Z"/><path class="cls-1" d="M1772.14,720.69l-1.07-1.88.74-.46L1773,720Z"/><path class="cls-1" d="M1713.61,663.58,1713,662l1-.26.26,1.67Z"/><path class="cls-1" d="M1517,666.39c.93-1.26.93-1.26,2.3-.47l-2.41.35Z"/><path class="cls-1" d="M1563.8,212l-1.53-1.88c.3-.21.81-.64.86-.59.56.55,1.05,1.16,1.56,1.76Z"/><path class="cls-1" d="M727.49,164.77l1.72-3.79,3.74,4.13Z"/><path class="cls-1" d="M1540.52,389.23,1538.8,394l-6.68-3.92Z"/></svg>