<?xml version="1.0" encoding="utf-8"?>
<!-- Generator: Adobe Illustrator 20.1.0, SVG Export Plug-In . SVG Version: 6.00 Build 0)  -->
<svg version="1.1" id="Capa_1" xmlns="http://www.w3.org/2000/svg" xmlns:xlink="http://www.w3.org/1999/xlink" x="0px" y="0px"
	 viewBox="0 0 1894 1068.4" style="enable-background:new 0 0 1894 1068.4;" xml:space="preserve">
<style type="text/css">
	.st0{opacity:0.5;}
	.st1{fill:#FFFDFF;}
	.st2{fill:#021D3B;}
	.st3{fill:#FE6603;}
	.st4{fill:#FFFFFF;}
	.st5{fill:#282828;}
	.st6{fill:#F19B2C;}
	.st7{fill:#2D3E4E;}
	.st8{fill:#3081B8;}
	.st9{fill:none;stroke:#282828;stroke-width:10;stroke-miterlimit:10;}
	.st10{opacity:0.15;fill:#232323;enable-background:new    ;}
	.st11{opacity:0.2;fill:#232323;enable-background:new    ;}
	.st12{fill:#232323;}
	.st13{fill:#3A99D9;}
	.st14{fill:#232323;stroke:#FFFFFF;stroke-miterlimit:10;}
	.st15{fill:#232323;stroke:#FFFFFF;stroke-width:20;stroke-miterlimit:10;}
	.st16{opacity:0.1;}
	.st17{fill:#1E1E1E;}
</style>
<g class="st16">
	<path class="st17" d="M1130.4,161.6c-0.6-2.2-1.1-4.3,1.7-5.7c0.6-0.3,0.5-1.9,0.8-3.1c2-1,3.8,0,5.3,1.6c1.7,1.8,3.3,1.8,5.6,0.9
		c2.3-0.9,4.9-0.9,7.3-1.1c1.1-0.1,2.2,0,3.9,0c-0.8-1-1.3-1.7-1.9-2.4c-1.7-1.9-1.4-3.5,1-4.4c0.9-0.4,1.9-0.4,2.8-0.5
		c4.8-0.4,9.7-0.7,14.9-1c-0.3-1.3-0.6-2.4-0.8-3.5c0.1-0.2,0.2-0.3,0.3-0.4c5-1.8,9.5-5.1,15.1-5.5c2.9-0.2,5.7-0.9,8.6-1.4
		c2.2-0.4,4.3-1.2,6.5-1.4c2.2-0.2,4.4,0.2,6.6,0c2.2-0.2,4.3-0.9,5.6-1.1c1.6-1.7,2.5-3.3,3.8-3.7c4.1-1.3,8.3-2.2,12.6-0.2
		c1.9,0.9,4.3,1,6.5,1.4c1.9,0.3,4,0.3,5.7,1c3.7,1.6,7.6,1.5,11.5,1.5c5.2,0,10.3,0.7,14.9,3.4c1.4,0.8,2.7,1.9,3.9,2.8
		c-0.1,2.6-1.7,3.4-3.4,4.1c-3.3,1.4-6,3.8-8.4,6.5c3.7-0.1,7.4-0.1,10.7-2c2.6-1.5,5.1-1.9,8-0.9c1.4,0.5,3,0.6,4.5,0.8
		c5.3,0.5,10.5,0.8,15.8,1.2c1.4,0.1,2.8,0.3,4.1,0.4c3.9,0.3,7.7,0.7,11.6,1c1.4,0.1,2.8,0,4.1,0c0.8-2.7,3.1-4.4,5.8-3.1
		c5.2,2.4,10.4,1.7,15.8,1.8c5.3,0.1,10.5,1.6,13.5,6.8c0.1,0.1,0.2,0.2,0.3,0.3c4,2.1,7.9,4.4,12.8,6.5c-0.8-2.2-1.2-3.4-2-5.4
		c1.5,0.2,2.5,0.1,3.4,0.4c4.1,1.4,8.2,2.4,12.6,0.5c1.9-0.8,4.1-1.3,6.5-0.3c1.5,0.6,3.5,0.1,5.7,0.1c-0.5-1.1-0.9-1.9-1.3-2.6
		c2.2-3,4.7-3.5,8.2-2.8c3.6,0.8,7.4,0.8,11.2,1.1c3,0.3,6.1,0.4,9.1,0.7c4.6,0.5,9.3,0.8,13.9,1.8c5.5,1.2,11,2.9,16.3,4.7
		c4.3,1.4,8.6,1.3,12.8,0.8c6-0.6,11.9-0.7,17.8,0.9c2,0.5,4.1,0.6,6.1,1.1c0.9,0.2,1.9,0.5,2.6,1.1c3.8,3.4,8.6,3.7,13.3,3.9
		c6.1,0.2,12.3,0.1,18.4,0.3c3,0.1,6.1,0.7,9.1,1.1c1.5,0.2,3,0.4,4.7,0.6c0-1.3,0-2.2,0-3.5c5.4-0.3,10.7-0.4,15.9,0.3
		c5.6,0.7,11.3,1.3,16.9,2.1c4,0.5,8,1.2,11.9,1.9c6.3,1.1,12.6,2,18.8,3.4c3.9,0.8,7.9,1.8,11.5,3.6c7.5,3.8,15.6,4.9,23.6,6.2
		c5.1,0.8,9.9,2.8,14.2,5.7c0.6,0.4,1.3,0.6,2.5,1.1c-1.9,1.1-2.5,1.5-3.1,1.8c0.9,2,1.7,3.9,2.7,6c-2.9,1.7-5.7,1.5-8.3,0.7
		c-6-1.8-11.9-3.8-17.8-5.9c-4.1-1.4-7.2-0.8-10,2.5c-0.7,0.8-1.5,1.6-2.4,2.7c4.6,2.4,8.9,5.4,14,6.2c2.4,0.4,4.2,1.4,5.1,3.8
		c-0.9,1.7-2.4,2.2-4.1,2.4c-1.4,0.1-2.9,0.4-4.2,0c-5.3-1.9-7.8,2.4-11,4.9c-0.6,0.5-0.7,1.7-1,2.6c-1.6,4.8-4.8,6.5-9.6,5
		c-1.1-0.3-2.1-0.8-3.2-0.9c-2.2-0.2-4.3-0.6-5.3,2.5c-0.6,1.9-1.8,1.9-3.6,0.5c-0.9-0.8-1.9-1.6-2.2-1.9c-2.6,0.7-4.6,1.3-7.1,2
		c0.7,2.6,1.3,5.4,2.4,7.9c0.4,0.9,2.3,1.6,3.6,1.6c2.8,0.2,4.7,1.1,6.1,3.6c0.6,1,1.9,1.6,2.7,2.6c0.9,1.1,2.3,2.5,2.1,3.4
		c-0.6,3.1,1.5,4.2,3.3,5.7c0.6,0.5,1.4,1,2,1.5c2.4,2.4,1.7,5.2-1.5,6.4c-0.5,0.2-0.9,0.3-1.8,0.6c1.6,2.1,3.1,3.8,4.8,6
		c-1.7,0.7-2.9,1.2-4.7,2c0.4,1.2,1,2.4,1.3,3.6c0.5,2,1.2,4,1.2,6c-0.1,3.1-2.1,3.8-4.5,1.8c-2.4-1.9-4.6-4-7-5.9
		c-3.1-2.4-6.1-4.7-8.5-7.9c-2-2.6-4.5-4.9-7.1-7c-3.3-2.6-6.1-5.6-8.8-8.8c-2.6-3.1-2.6-7.2-5.3-10.5c2.4-1.9,4.6-3.7,7-5.6
		c-1.3-2.3-1.8-4.5-1.2-7.1c0.6-2.6,1-4.8,3.5-5.8c0.3-3.3-3-3.6-3.9-5.8c-2,1.1-3.7,2.1-4.5,4.4c-0.6,1.9-2.3,2.1-4.2,1.5
		c-2.8-0.9-5.6-1.8-7-5c-3.9,0-7.7,0-11.3,0c-0.7,2.5-1.5,4.6-1.8,6.7c-0.2,1.7,0.5,3.2,2.4,3.9c1.4,0.5,3.3,0.8,2.9,2.9
		c-0.4,2.1-2.4,1.4-3.8,1.6c-2.9,0.4-5.7,0.9-8.6,1.1c-1.6,0.1-3-0.7-4.5-1.4c-3.8-1.6-7.8-3.7-12.2-1.5c-0.8,0.4-1.9,0-2.9,0.1
		c-2.1,0.2-4.1,0.5-6.2,0.6c-1.5,0.1-3,0.1-4.5,0.1c-4,0-8,0-12,0.2c-0.8,0-1.9,0.8-2.2,1.5c-1.1,2.3-1.6,5-2.9,7.1
		c-3.2,5.1-2.1,11.8-7.3,16.9c2.9,0.2,4.6,0.4,6.4,0.5c1.6,0.1,3.2,0.5,3.7,2.2c1,3.1,3.2,3.9,6.1,3.7c0.6,0,1.3,0.3,2.2,0.5
		c0.2-0.9,0.4-1.7,0.7-2.9c7.5-0.2,13.7,2.8,20,7.5c-0.5-2.5-0.9-4.8-1.3-7.4c3.1,0.6,4.4,2.8,5.8,4.5c1.6,1.9,2.9,4.1,5.6,4.8
		c0.5,0.1,0.9,0.6,1.3,1.1c3.4,4.2,6.7,8.4,10,12.7c1.6,2.1,3.2,4.2,5.9,5.1c2,0.6,3.6,2,4.4,4.5c-1.4,0.3-2.7,0.5-4,0.8
		c1.1,7.5,7.6,10.8,12.2,15.9c-0.9,0.5-1.8,0.8-2.4,1.4c-0.5,0.6-0.7,1.5-1.1,2.3c-2.4,0.3-4-0.8-5.1-2.8c-2.1-3.6-4-7.3-6.4-10.8
		c-4.4-6.5-8.9-13-13.7-19.3c-1.5-2-3.9-3.4-6.1-5.2c-0.9,2.3,0.3,3.9,1.3,5.5c1.7,2.5,3.5,5.1,5.5,7.4c3.3,3.6,3.2,7.7,2.5,12.1
		c-0.5,3.1-0.9,6.3-1.3,9.5c-0.2,1.5-0.5,3-0.9,4.5c-1.2,4.3-2.5,8.5-3.6,12.8c-1.2,5.1-3.5,7.6-8,7.6c-1.4,0-2.9-0.6-4.3-1.1
		c-1.1-0.4-2.2-1.1-3.3-1.7c-3.4,3.1-5.2,6.3-3.7,10.7c0.9,2.8-0.4,4.9-2.2,6.8c-4.9,5-4.7,5.6,1.2,9.8c7.1,5,12.4,11.5,15.3,19.8
		c1.2,3.5,0.8,4.4-2.6,5.7c-2.3,0.9-4.6,1.8-7,2.7c-1.1,0.4-2.3,0.6-3.8,1c-2.2-5.4-4.2-10.5-6.5-16.3c1.5-4.9-1.3-5.2-6.1-6.4
		c-1.3-0.3-2.7-0.4-3.9-0.9c-1.9-0.7-2.6-2.2-2.5-4.3c0-1.6-0.2-3.9-1.1-4.5c-2-1.3-4.6-2.1-7-2.3c-2.6-0.2-5.1,0.8-7,3
		c-1.1,1.3-2.7,2.2-4.4,3.5c-1.1-3.2-3.4-5.3-2.1-8.6c0.7-1.9-0.6-3.1-2.5-3.6c-1.8-0.5-3.1-0.6-4.1,1.5c-1,2.2-3.6,3.3-3.7,6.2
		c0,0.9-1.9,1.8-3.1,2.4c-0.9,0.5-2.1,0.5-3.6,0.8c1,2.4,2.6,3.4,4.8,3.4c3,0,5.2,0.7,6,4.3c0.7,2.9,3.1,3.1,5.4,0.6
		c1.2-1.3,2.6-1.9,4.1-1.2c2.8,1.3,5.6,2.3,8.8,2.2c0.7,0,1.8,1,1.9,1.7c0.1,0.7-0.7,1.7-1.4,2.2c-0.6,0.4-1.6,0.4-2.4,0.6
		c-2.4,0.7-8.5,7.4-8.8,9.8c-0.1,0.5,0.1,1.1,0.2,1.5c0.3,0.2,0.5,0.5,0.8,0.5c4.2,0.2,6.9,2.5,8.9,6c1.3,2.3,2.7,4.5,4.3,6.7
		c1,1.4,2.4,2.7,3.5,4c1.1,1.2,2.4,2.4,3.2,3.8c1.6,2.8,3.1,5.9-1.1,8.8c1.4,0.3,2.1,0.3,2.8,0.5c2.1,0.7,3.1,2.2,3.1,4.4
		c0,6.5-2.2,12.4-4.2,18.4c-0.4,1-1.2,2-1.3,3c-0.9,8-6.1,13.2-11.5,18.5c-2.6,2.6-5.6,3.9-8.7,5.4c-1.7,0.8-3.4,1.4-4.7,3.1
		c-1.6,2.2-3.7,1.2-5.7-0.6c-2.5,5.2-7.8,3.9-11.9,5.4c-1.1,0.4-2.4,0.6-3.7,0.9c0,2.2,0,4.1,0,6c-2.2,1.2-3.9,0.7-4.3-1.5
		c-0.7-4.4-3.9-5.3-7.5-5.8c-0.8-0.1-1.8-0.2-2.3,0.2c-4.7,3.5-9,7.5-10,13.6c-0.3,1.9,0.7,4.5,1.9,6.1c3.3,4.1,7.1,7.8,10.6,11.7
		c1.4,1.5,2.7,3.2,4.1,4.7c3.2,3.8,5.7,7.9,6,13c0.1,1.2,0.8,2.3,1.3,3.5c2.7,7.4,0.7,14.5-6.4,18.1c-1.8,0.9-3.7,1.9-5.9,3
		c-0.5,4.6-5.3,6.5-8,10.1c-0.5,0.6-1.9,0.6-3.1,0.9c-0.5-3.1-1-5.7-1.3-8.3c-0.4-3.1-1.2-3.6-4-2.6c-1.3-1.1-2.6-2.1-3.8-3.2
		c-0.5-0.4-1.1-1-1.2-1.6c-1.1-4.5-4.7-7.1-7.6-10.3c-0.6-0.6-1.6-1-2.5-1.1c-1.2-0.2-2.5,0-4,0c-0.6-1.7-1.1-3.2-1.5-4.7
		c-1.5-0.6-2.6-0.4-2.9,1.3c-0.2,1.2-0.1,2.5-0.1,3.8c0.1,3-0.2,5.8-1.4,8.6c-1.5,3.4-1.7,7-1,11c3.2,0,4.1,2.3,4.8,5
		c0.8,2.9,2.1,5.7,3.2,8.5c0.4,0.8,1,2.1,1.7,2.2c2.5,0.4,3.4,2.6,5.1,4c2.2,1.8,4.5,3.4,6.4,5.5c2.9,3.2,4.8,6.7,4.5,11.3
		c-0.3,4.3,1.6,8.1,3.3,11.9c1.7,3.9,1.5,4.3-2.5,5.8c-2.6-1.6-5.1-3.1-7.5-4.5c-3.4-2-6.7-4.1-7-8.6c-3.3-3.6-3.3-8.4-4.5-12.7
		c-1.7-6-5.6-10.8-9.3-15.7c-0.7-0.9-2.1-1.2-3.8-2.1c-1-2.7-1.2-6.3-0.2-9.9c0.2-0.7,0.5-1.4,0.4-2c-1.3-6.5,1.2-13.3-1.1-19.7
		c-0.9-2.5-2-4.9-2.9-7.3c-1.3-3.3-2.4-6.8-3.9-10c-1.3-3-3-5.9-4.9-9.5c0,3.7-1.6,5.3-4.7,5.8c-1.5,0.3-2.8,1.7-4,2.5
		c-1.7-0.5-3.2-1.2-4.8-1.4c-1.9-0.3-2.5-1.4-2.1-2.9c2.1-8-2.5-14.2-5.6-20.8c-0.2-0.4-0.4-0.9-0.8-1c-3.9-1.4-5.5-5.3-8.1-8.1
		c-1.9-2.1-2.8-5-4.2-7.6c-0.4-0.8-0.9-1.6-1.3-2.3c-3.3,1.1-6.4,2.2-9.6,3.1c-1.4,0.4-3.1,0.2-4.5,0.7c-3.3,1-6.5,2.2-10,3.4
		c2,5.7-1.4,8.4-5.4,10.5c-2.4,1.3-4.1,3-5.8,5.1c-3.2,3.9-5.4,8.9-10.3,11.2c-0.7,0.3-1.5,1.1-1.6,1.8c-0.5,2.7-2.4,3.3-4.5,4.3
		c-2,1-3.8,2.7-6,4.4c0.4,2.7,0.5,5.7,1.3,8.6c1.1,4.3,0.5,8.3-1,12.3c-1.1,3-1.6,5.8-0.4,8.9c0.7,2,0.5,3.7-1.8,4.9
		c-0.9,0.5-1.4,1.9-2,3c-0.4,0.7-0.2,2-0.7,2.3c-3,1.8-4.9,4.7-7.6,6.9c-1.3,1.1-3,1-4.1-0.4c-1.4-1.7-2.8-3.5-3.7-5.5
		c-1.5-3.1-2.3-6.6-3.9-9.6c-3.8-6.8-6.4-14.1-9.1-21.4c-1.2-3.3-3.8-6.2-5.1-9.5c-2.4-6.1-4.8-12.2-6.1-18.5
		c-0.9-4.5-2.9-9-2.2-13.9c0-0.3-0.1-0.5-0.2-0.8c-0.7-2.9-1.4-5.8-2.2-9.3c-0.1,1.1-0.3,1.9-0.3,2.6c-0.2,3-0.8,3.9-3.7,4.8
		c-1.1,0.3-2.1,0.6-3.2,0.9c-1.6,0.4-3,0.1-4-1.4c-1.6-2.5-3.7-4.4-6.3-5.9c-1.1-0.7-1.8-2.2-2.9-3.6c1.5-0.7,2.5-1.1,3.4-1.5
		c-0.2-0.4-0.3-0.8-0.5-0.8c-3-0.7-5.3-2.4-7.4-4.5c-2.5-2.4-5-4.6-7.5-7c-0.8-0.8-1.6-1.6-2-2.6c-0.8-2.3-2.4-2.8-4.6-2.6
		c-3.2,0.3-6.4,0.4-9.5,0.9c-6.1,1.1-12.1,1.8-18.2,0.5c-5.7-1.2-11.4-2.3-17.2-3.3c-2.5-0.4-4.1-1.5-4.8-3.9
		c-0.2-0.7-0.6-1.3-0.9-1.9c-1.5-3.2-1.9-3.2-5.3-1.8c-3.5,1.5-7,2.4-11.2,0.6c-4.1-1.7-7.9-4-11.8-6c-3.9-2-5.6-4.7-7-8.5
		c-1.4-3.9-3.9-7.5-8.8-7.9c-3.7-0.3-7,3.3-5.6,6.7c1.7,4.2,3.6,8.3,7.6,11.1c2.2,1.5,4,3.7,6.1,5.7c0.3-0.1,0.9-0.5,1.9-1
		c-0.2,1.8-0.4,3.1-0.5,4.5c-0.7-0.5-1.5-1.1-2.8-2.1c0.3,1.8,0.4,3,0.6,4.2c0.3,0,0.5,0,0.8,0.1c0.4-0.8,0.9-1.5,1.3-2.3
		c0.9-0.6,1.8-1.2,2.7-1.9c2.9,2.8,3.4,5.9,2.7,9.3c-0.6,2.6-0.3,3,2.4,3.5c0.4,0.1,0.8,0.1,1.2,0.2c8.6,1.5,12.7-0.5,16.7-8.1
		c0.7-1.3,1.5-2.7,2.3-4c0.4-0.5,1-0.9,1.9-1.7c0.5,1.8,0.6,3.3,1.2,4.6c2,3.6,4.2,7.2,6.3,10.7c1,1.6,2.5,1.7,4.1,1.2
		c2.1-0.6,3.5,0.3,4.7,1.8c1.8,2.3,3.7,4.5,5.3,7c0.6,0.9,0.8,2.5,0.4,3.4c-1.3,3.2-2.9,6.3-4.4,9.4c-0.2,0.4-0.4,0.9-0.7,1
		c-3.5,0.9-3.6,3.5-3.1,6.3c0.4,2.2-0.6,3.6-2.5,4.2c-2.3,0.7-3.8,2-4.7,4.3c-0.3,0.7-1.4,1.5-2.2,1.6c-3.1,0.4-5.1,1.9-5.4,4.5
		c-5.7,2.1-10.8,3.9-15.8,5.7c-0.2,0.7-0.5,1.1-0.4,1.5c0.5,4.4-2.1,6.3-5.8,7.4c-2.4,0.7-4.9,0.9-7.3,1.7c-1.5,0.5-3,1.3-4.2,2.4
		c-1.6,1.5-3.3,2.6-5.5,2.5c-1.6-0.1-2.8,0.6-4.1,1.5c-1.9,1.3-4.2,2.1-6.4,2.7c-1.9,0.5-3.6,0.7-5.1,2.3c-2.4,2.5-8.3,2.4-10.9,0.3
		c-0.7-0.6-1.4-1.7-1.3-2.5c1-4.4-1.6-8.1-2.6-12c-0.5-2.2-1.1-4.1-1-6.5c0.2-3.6-1.2-6.9-4-9.3c-2.3-2-3.5-4.3-4.6-7.1
		c-1.4-3.3-3.8-6.8-6.8-8.7c-4.8-3.1-6.5-7.4-7.3-12.5c-1-6.3-3.7-11.5-8.9-15.3c-0.6-0.5-1.4-1.1-1.6-1.9
		c-1.5-5.2-5.1-9.2-8.1-13.6c-1.3-1.9-2.4-4.1-3.7-6c-0.8-1.3-1.8-2.4-2.8-3.5c-0.4-0.4-1.7-0.7-1.8-0.4c-2,2.7-3.7,0.5-5.9-0.3
		c0.8,2.7,1.1,5.3,2.4,7.4c4.5,7.3,7.6,15.2,10.9,23c0.5,1.2,1.5,2.2,2.5,3c2.3,1.9,4,4,5.2,6.9c2.2,5.1,3.6,10.3,3.8,15.7
		c0.1,4,2,6.8,4.9,8.5c4.6,2.6,5.1,6.9,6.1,11.1c0.4,1.6,0.8,3.2,1.4,4.7c1.4,3.7,4.8,4.8,8,6c2.1,0.7,3.4,2,4.7,3.8
		c1.8,2.6,4.1,4.9,6.2,7.3c1.2,1.4,2.3,2.8,3.4,4.1c1.1,1.2,1.6,2.5,1.1,4.2c-0.6,2.1,0.2,3.7,2,5c0.8,0.5,1.6,1.2,2.3,1.9
		c2,2,4.3,2,6.5,0.7c1.7-1,3.2-1.2,5.1-0.6c1.9,0.7,3.8,0.6,5.2-1.4c0.6-0.8,2-1.7,2.7-1.5c2.9,0.9,5.5-0.4,8.1-0.9
		c2.8-0.5,5.5-1.9,8-3.3c1.2-0.7,2.2-1.1,3.4-0.5c1.5,0.7,1.3,1.9,1.2,3.2c-0.2,2.8-0.2,5.6-0.4,8.3c-0.4,6.7-4.3,12.2-6.8,18.2
		c-2,5-4.6,9.8-6.9,14.7c-3.8,7.9-8.9,14.7-16,20c-0.6,0.4-1.1,0.9-1.7,1.2c-5.9,2.2-9.5,7-13.2,11.7c-2.8,3.6-6.1,6.9-7.7,11.4
		c-0.2,0.6-1.2,1-1.8,1.5c-3.4,2.3-6,5.1-7.5,9.2c-1.3,3.8-3.5,7.2-5.3,10.8c-0.6,1.2-1.6,2.4-1.8,3.7c-0.5,2.3-0.6,4.8,1.9,6.3
		c1.9,1.2,2.3,2.7,0.9,4.5c-1,1.2-0.9,2.4-0.6,3.9c0.3,1.4,0.1,3,0,4.5c0,3.4,0.2,6.6,3,9.2c2.4,2.2,3.4,4.9,2.9,8.6
		c-0.6,3.9,0.2,8,0.4,12c0.3,5.4,1.3,10.7-1,16c-2.6,5.9-7.3,9.7-12.6,12.8c-1,0.6-2,1.1-3,1.5c-3.5,1.1-5.9,3.5-7.8,6.5
		c-0.4,0.7-1,1.4-1.6,1.9c-2.9,2.6-5.8,5.1-8.9,7.7c1.1,3.8,1.9,7.3,3.1,10.6c2.3,6.5,0.7,12.6-2.2,18.5c-1.3,2.7-4.2,4-7.2,4.6
		c-1,0.2-1.9,0.2-2.9,0.5c-2.8,0.8-3.8,2.1-3.1,5c1.3,5.9-2,10.7-3.4,15.9c-0.2,0.6-0.8,1.1-1.4,1.5c-4,3-6.5,7.1-9.1,11.3
		c-1.3,2.2-3.1,4.2-4.8,6.2c-2,2.3-4.2,4.5-6.3,6.7c-3.4,3.5-6.9,6.7-12,7.6c-2.1,0.4-4.2,1.4-6.3,2.2c-4.6,1.6-9.3,1.1-14.1,1.2
		c-2.1,0-4.2-0.1-5.9,1.5c-0.2,0.2-0.5,0.5-0.7,0.4c-3.5-1.3-6.4,1.4-9.6,1.2c-2.9-0.2-5.7-1.9-8.5-3c0-3.3-2.1-5.8-3-8.7
		c-0.1-0.4,0.4-1,0.7-1.4c2-2.5,2.3-3.9,0.7-6.2c-2.8-4.1-4.4-8.5-5.2-13.5c-0.4-2.7-1.8-5.2-4.5-7.1c-4.5-3.2-6.2-8.5-7.4-13.7
		c-1.1-4.7-2-9.5-2.5-14.3c-0.3-3,0.1-6.1,0.5-9.1c0.3-2-0.1-3.5-1.4-4.9c-4.3-5-7.1-10.9-9.4-17.1c-0.8-2.3-2.1-4.6-3.5-6.6
		c-1.4-2.1-1.8-4.3-1.8-6.7c0-5.5,1-10.7,2.8-15.9c0.9-2.5,1.7-5.1,2-7.7c0.3-3.2,1.9-5.5,4-7.6c4.3-4.3,4.9-9.1,2.6-14.5
		c-0.8-1.9-1.6-3.9-2.2-5.9c-0.3-1.1-0.7-2.6-0.3-3.6c2.2-4.7-0.1-8.8-2-12.6c-1.9-3.8-3.7-7.4-4.3-11.9c-0.4-2.9-2.8-5.6-4.7-8.2
		c-2.9-3.9-6.2-7.5-9.1-11.4c-1.2-1.6-2-3.6-3-5.5c-1.1-2.1-1.3-3.8,0.2-6.1c1.3-2,1.8-5,1.8-7.5c0-3.2,0.3-6.3,1.1-9.4
		c0.7-2.7,0.3-5.7,0.1-8.6c-0.1-1.4-1-2.6-2.8-3.3c-1.4-0.5-2.4-2.1-3.5-3.2c-3.9,0.5-7.7,1-11.6,1.3c-3.5,0.3-5.7-0.9-6.4-4.6
		c-1.1-5.6-6.2-9.4-12.8-8.8c-4.3,0.4-8.3,1.2-12.4,2.9c-5.5,2.3-10.8,5-16.5,6.9c-0.8,0.3-2,0.6-2.4,0.3c-2.1-1.8-4.8-0.7-7-1.6
		c-4.5-1.9-8.8-0.5-13,0.6c-2.5,0.7-5,1.8-7.4,2.8c-2.7,1.1-5.3,1.5-7.8-0.6c-2.1-1.8-4.4-3.4-6.6-5c-2.4-1.8-4.9-3.6-7.3-5.4
		c-0.9-0.7-2-1.6-2.4-2.7c-1-2.6-2.8-4.2-5.3-4.9c-4.1-1.1-5.5-4.6-6.2-8.1c-0.5-2.7-1.4-5.5-3.1-7.1c-4.3-4.2-7.2-9.8-12.9-12.7
		c-3.8-2-5.4-7.8-3.5-11.6c1-2,0.1-3.5-0.8-5c-0.8-1.3-1.9-2.4-2.7-3.4c1.7-3.5,3.9-6.7,4.9-10.2c1.8-5.8,4.4-11.7,1.6-18.1
		c-0.4-0.9,0-2.1,0.1-3.2c0.2-3,1-6.1-2.7-7.7c-0.3-0.2-0.6-1-0.6-1.4c0.5-3,1-6,1.9-8.9c0.6-1.9,2-3.6,2.8-5.5
		c1.2-3.1,3.2-5.7,6.1-7.2c2.4-1.3,3-3,2.8-5.4c-0.1-1.3,0.2-2.8,0.4-4.1c0.5-2.6,1.7-4.6,4.6-5.4c2.8-0.8,4.6-2.1,4.5-5.5
		c-0.1-2.6,1.6-4.2,4.3-4.8c7.3-1.7,12.2-6.3,15.4-12.8c0.5-1,0.3-2.4,0.4-3.5c0.2-1.9,0.1-3.9,0.8-5.6c2.6-6.7,7.2-11.7,13.7-14.7
		c3.9-1.8,4.3-6,6.7-8.7c0.2-0.2,0.2-0.5,0.3-0.8c2.5-5.1,3.2-5.3,7.1-1.3c1.2,1.2,2.5,1.6,4.1,1.3c3-0.5,5.9-0.9,9,0.2
		c2.2,0.7,4.6,0.1,6.5-1.7c1.1-1,2.6-1.5,3.9-2.3c1.1-0.7,2.4-1.3,3.3-2.2c2-1.9,4.3-2.8,7.1-3c4.5-0.4,9.1-1.1,13.6-1.9
		c2.9-0.5,5.7-0.9,8.6,0.3c1,0.4,2.5,0.2,3.5-0.3c2.1-1.2,4.2-1.2,6.4-1.2c4.1,0,8.3,0.9,12.3-1.3c0.8-0.4,2.6-0.4,3.1,0.2
		c1.5,1.8,3.5,1.2,5.2,1.3c1.3,2.5,0.4,4.4-1.5,6.4c3.5,3.9,1.8,7.3-0.9,10.8c-1.9,2.4-1.6,2.8,1.2,4.7c1.8,1.2,3.6,2.6,5.6,3.6
		c2.6,1.4,5.3,2,8.4,1.9c2.7-0.1,5.5,0.4,8.2,1c2,0.4,3.4,1.9,3.9,4c0.7,3.3,2.7,4.3,6,4.4c3.5,0.1,6.8,1.3,9.5,3.7
		c1.4,1.2,2.9,2.2,4.9,2c3.3-0.4,4.8-2.3,3.7-5.5c-0.5-1.5-1.5-2.9-0.2-4.3c1.6-1.6,3.3-3.2,5.2-4.6c0.8-0.6,2.2-0.3,3.2-0.7
		c4.2-1.9,7.5-0.1,10.7,2.2c0.6,0.4,1,1.1,1.6,1.3c5.3,1.6,10.5,3.2,15.9,4.7c4.4,1.2,8.8,2.4,13.3,3.4c1.1,0.3,2.4-0.1,3.5-0.3
		c0.5-0.1,1-0.6,1.4-0.9c4.2-3.3,8.5-3.3,13.1-0.5c3.2,1.9,6.8,1.2,10.1,0.4c1.1-0.3,2.3-2.1,2.7-3.4c1.6-5.4,3.1-10.9,4.7-16.4
		c1.3-4.3,0.3-9.3,0.3-13.7c-1.8-0.2-3.5-0.6-5.2-0.5c-1.6,0.1-3.3,0.6-4.6,1.4c-4.4,2.8-6,2.8-10.4-0.3c-2.5-1.8-3.2-2-7.3-2.4
		c-3.7,3.7-4.4,4-9.3,1.2c-2.3-1.3-4.4-2.1-7-1.5c-0.8,0.2-1.6-0.2-2.5-0.3c-0.6-1.5-1-3-1.7-4.4c-0.4-0.8-0.9-1.7-1.6-2.2
		c-3.2-2.3-3.2-2.3-0.7-5.5c-1.1-2.1-2.6-4.2-3.2-6.5c-0.4-1.5,0.5-3.3,0.9-5.2c-2.7-0.6-5.6-1.4-8.6-1.9c-3.3-0.5-4.3,4-8,3.3
		c2.7,3.6,1.5,7.9,4.1,11c0.7,0.9,0.1,2.8,0.1,4.6c-2-0.2-3.3-0.4-4.9-0.6c0.9,2.9,2.3,5.8,1.3,9.2c-1.4-0.4-2.5-1.1-3.4-0.9
		c-4.7,0.9-5.6-2-6.4-5.6c-0.3-1.7-1.4-3.3-2.4-4.8c-2-3.2-4.1-6.2-6.1-9.3c-0.4-0.6-0.7-1.3-1.2-1.7c-1.5-1.3-2-2.9-1.9-4.8
		c0.4-5.8-2.2-9.8-7.1-12.6c-1.2-0.7-2.1-1.8-3.2-2.6c-1.4-0.9-2.9-1.5-4.3-2.3c-2.1-1.3-4.7-2.2-6.1-4c-1.8-2.4-4.4-3.9-6.2-6.1
		c-2.8-3.5-5.7-3-9-1.4c-0.1,0.1-0.2,0.1-0.4,0.2c-0.1,0.2-0.3,0.5-0.3,0.7c-0.3,4.8-0.4,4.9,3.5,8.2c1.6,1.4,2.9,2.8,3.7,4.9
		c1.4,3.7,4.9,5.1,8.3,6.3c1.6,0.6,2.9,0.8,3.8,2.7c0.5,1.1,2.4,1.6,3.6,2.4c2.5,1.5,5,2.9,7.4,4.5c0.7,0.4,1.3,1.1,1.5,1.9
		c0.2,0.7,0.1,1.8-0.3,2.2c-0.4,0.4-1.6,0.4-2.2,0.1c-1.7-0.6-3.4-1.4-5.9-2.4c0,2-0.4,3.4,0,4.5c1.5,3.9-0.4,9.5-4.3,10.5
		c-2.9,0.8-4.2,1.9-4,5.1c0.2,2.5-1.6,3.5-3.9,2.5c-3.3-1.5-6.5-3.2-9.6-5c-0.8-0.5-1.1-1.6-1.7-2.5c0.9-0.5,1.8-1.3,2.7-1.4
		c2.4-0.1,4.7,0.3,7.1,0.1c2.3-0.2,4.6-0.8,7-1.3c2.6-2.8,1.3-5.9,0.5-8.9c-0.1-0.3-0.1-0.6-0.3-0.7c-4.1-3-7.8-6.8-12.3-8.7
		c-4.5-1.8-8.1-4.3-11.3-7.4c-1.8-1.7-3.1-3.9-4.6-5.8c-1.1-1.4-2.1-2.9-3.5-4.1c-3.2-2.7-3.7-2.6-7.1,0.1c-0.3,0.3-0.6,0.8-1,0.8
		c-3.4-0.1-5.3,2.5-7.8,4.1c-0.8,0.5-2.1,0.3-3.2,0.1c-2.2-0.4-4.3-1.4-6.5-1.5c-2-0.1-4.1,0.4-6,1c-1.5,0.5-2.3,1.8-2.1,3.6
		c0.2,2,0.7,4.4-1.1,5.9c-2.3,1.9-4.8,4-7.6,4.9c-2.6,0.9-4.3,2-5.7,4.3c-1.3,2.3-3.1,4.3-4.8,6.6c0.4,1.2,0.8,2.7,1,3.4
		c-1.5,2.9-2.7,5.3-4.1,7.6c-0.4,0.7-1.2,1.1-1.8,1.6c-1,0.7-2.3,1.2-3.1,2.1c-2.5,2.9-5.6,3.3-9.1,3.1c-2.5-0.2-4.8,0.2-7.2,1.5
		c-3.6,2.1-7,1.2-9.3-2.1c-1.7-2.4-4.1-3.1-6.9-3c-2.2,0.1-4.4,0-6.9,0c-0.1-1.8-0.2-3.3-0.2-4.8c0-1.9,0.2-3.9-1.7-5.3
		c-1.4-1.1-0.7-2.5-0.1-3.8c1.2-2.6,2.5-5.3,3.6-8c0.5-1.1,0.8-2.5,0.7-3.6c-0.4-2.9-0.5-5.7,0.2-8.7c0.3-1.4-0.4-3-0.6-4.8
		c2-1.3,4.1-2.9,6.3-4.2c0.6-0.4,1.6-0.2,2.4-0.1c2.3,0.2,4.6,0.4,7,0.6c6.8,0.4,13.6,0.8,20.4,1.3c3,0.2,3.6-0.1,4.3-3
		c0.6-2.5,1.5-5.1,1.7-7.7c0.2-2,0.1-4.3-0.8-6c-2.7-5.3-6.1-10-12.7-10.9c-3.2-0.4-3.7-2.8-4.6-5.8c3.8-0.9,7.3-2.9,11.5-1
		c3.4,1.5,4.6,0.1,4.5-4.9c1.4-1,2.8-1.9,4.6-0.2c0.5,0.5,1.5,0.7,2.3,0.7c3.2,0.3,9.1-3.5,10.5-6.5c0.5-1,1.4-2,2.3-2.7
		c1.8-1.2,3.8-2.3,5.8-3.3c3.4-1.7,6.1-3.8,7.1-7.7c0.2-0.6,0.7-1.4,1.2-1.6c2.9-1,5.9-1.9,8.9-2.8c0.8-0.2,1.8-0.3,2.2-0.8
		c1.7-2.2,3.9-1.6,6.1-1.3c2.5-1.8,3-3.8,1.2-6.5c-1.1-1.6-1.7-3.5-2.5-5.1c0.5-1.7,0.8-3.3,1.3-4.8c0.7-1.8,1.4-3.5,3.6-4.2
		c1.5-0.5,2.6-2.1,4.1-2.7c1-0.5,2.5-0.7,3.4-0.2c1.3,0.7,0.8,2.1,0.4,3.4c-0.5,1.6-0.7,3.2-1.2,4.7c-0.3,1-0.7,2.1-1.2,3
		c-1.8,3-1,6.2,1.9,7.7c1.6,0.8,3.3,1.4,4.9,2.1c0.1-0.3,0.3-0.5,0.4-0.8c-0.6-0.4-1.4-0.7-1.8-1.3c-0.4-0.7-0.9-1.9-0.6-2.4
		c0.5-1,0.6-1.5,0.1-2.6c-1.1-2.2-0.4-3.3,1.9-3.7c0.5-0.1,1.1,0,1.6-0.1c4.5-1.6,5-3.6,2.1-7.4c-2.8-3.8-5.5-7.6-8.6-12
		c-2.2,1.3-4.7,2.8-7.3,4.2c-2.2,1.2-4.4,2.4-6.7,3c-4.2,1.1-7.9-1.7-8.8-5.9c-0.3-1.6-0.6-3.4-1.3-4.8c-1.9-3.7-1.2-7.6-1.3-11.5
		c-0.1-1.7,1.1-2.6,2.4-3.1c4.2-1.5,7.9-3.9,11.7-6.2c1.4-0.8,3.1-0.9,4.7-1.4c1.2-0.4,2.5-0.5,3.4-1.2c3.6-2.9,7.1-6,10.6-9
		c0.2-0.2,0.5-0.4,0.5-0.6c1.4-4.5,4.8-6.9,8.6-9.3c2.1-1.3,3.3-3.9,5-5.9c0.8-0.9,1.7-2.2,2.6-2.4c4.1-0.7,6.1-4.2,8.9-6.5
		c3.4-3,3.1-3.3,6.9-1.3c2.6-0.5,4.9-0.8,7.1-1.4c1-0.3,2-0.9,2.7-1.6c1.8-1.8,3.8-2.6,6.4-2.5c5.6,0.1,11.3-0.2,16.9,0.1
		c3.4,0.2,6.9,1,10.3,1.6c1.8,0.4,2,0.8,2.3,3.5c9.8,2.2,19.6,4,29.2,6.5c4.7,1.2,9.1,3.5,13.4,5.6c4.1,2,4,5.5,0.3,8
		c-2.9,1.9-6,2.8-9.5,2.8c-2.4,0-4.8,0.2-7.1-0.1c-2.1-0.3-4.2-1-6.5-1.6c1.8,6.1,4.7,10.7,12.2,11.1c-1.2-0.8-2.1-1.2-2.6-1.8
		c-0.6-0.8-1.5-2.1-1.2-2.6c0.5-0.9,1.7-1.8,2.7-2c0.9-0.2,2.1,0.4,3.1,0.8c2.7,0.9,5.4,1.9,8.6,3.1c-2.4-4.5-2.1-4.9,2-6.4
		c1.5-0.5,2.8-1.6,4.2-2.3c1.1-0.6,2.2-1,3.4-1.4c1.5-0.4,3-0.7,4.8-1.1c-1.5-2-2.4-4-1.9-6.5c0.2-1-1.1-2.3-2-3.9
		c5,0.1,10.3-3.3,14.7,2.7c-1.7,1-3.1,1.8-4.6,2.8c1.2,1.8,3.3,2,5,2.6c2.5,0.9,3.1,0.3,4.5-2.4c0.5-1,1.6-2,2.7-2.2
		c5.3-1.3,10.5-2.5,15.3-5.2c2-1.2,4.2-0.9,6.4,0c1.6,0.7,3.5,0.9,5.2,0.8c3.2-0.3,6.3-1,9.4-1.5c3.4-0.6,6.7-0.7,10.6,1.2
		c-0.4-1.4-0.5-1.9-0.7-2.3c-1.3-2.5-0.8-3.7,1.8-3.9c5-0.4,10-0.9,14.9,1c4.7,1.8,9.3,3.6,14,5.3c1.6,0.6,3.3,1.1,4.9,1.6
		c0.1-0.3,0.3-0.7,0.4-1c-2.3-1.2-4.5-2.6-6.9-3.4c-1.7-0.6-2.7-1.4-3.5-3.1c-0.8-1.8-2.2-3.3-3.5-4.8c-0.6-3,2.2-3.8,4-5.2
		c-0.4-5.7,0.6-6.8,6.3-7.2c1.4-0.1,2.8-0.1,4.2,0c5.2,0.3,6.9,2.3,6.8,8.2C1127.3,159.7,1128.9,160.6,1130.4,161.6
		c1.2,2.2,2.5,4.5,3.4,6.9c0.8,2.1,1.8,3.8,3.7,5.3c3.4,2.6,3.4,6.2,0.5,9.3c-1.1,1.1-2.2,2.3-3.4,3.5c3.7,2.3,6.4,0.9,8.8-1
		c2.4-1.8,3-5.3,1-7.3c-1.7-1.6-1.3-3.4-1.2-5.4c-4.4,0.7-6.8-1.9-7.9-5C1134.5,164.8,1132.7,163.2,1130.4,161.6z M965.8,346.5
		c1.7,0,3.4,0.2,5-0.1c1.3-0.2,3.2-0.8,3.6-1.8c1.7-3.7,4.5-2.9,7.4-2.6c1.2,0.1,2.5,0,3.6-0.4c2.7-1.1,5.2-2.6,7.9-3.6
		c4.6-1.7,10.5-2.9,15.5-0.1c3.1,1.7,6.4,2.4,9.7,3.6c2.9,1,5.8,0.5,8.5,1.3c3.9,1,6.4-0.8,9.2-2.7c1.6-1.1,1.7-2.6,1.1-4
		c-0.5-1.2-1.4-2.5-2.4-3.4c-2.5-2.1-5-4.3-7.8-6c-3.3-2-6.9-3.6-10.3-5.4c-2.4-1.3-5.1-2.2-6.1-5.7c1.4-0.4,2.6-0.8,3.9-1.2
		c1.4-4.7,1.4-4.7-1.1-7.1c-2.3,0.5-4.5,1.3-6.9,1.6c-2.7,0.2-4.7,1.4-6.4,3c2.1,4.3,6.5,2.2,9.5,3.7c-0.6,3.4-1.1,3.9-4.7,3.6
		c-2.5-0.3-4.5-0.1-6.4,2c-1.9,2.1-3.6,1.5-4.5-1.3c-0.4-1.4-1.2-2-2.3-2.6c-2.7-1.5-2.7-1.9-0.7-4.4c-1.7-0.6-4-0.8-5-2.1
		c-1.7-2.2-3.5-1.9-5.5-1.3c-1.7,0.4-5.7,4.8-5.9,6.8c-0.2,2.3-1.3,3.5-2.5,3.8c-2.3,5.2-4.2,9.7-6,13.8c1.1,1.9,1.7,3.8,3,5.1
		c1.3,1.5,3.2,2.4,4.8,3.5c-1,2.6-2.9,2.3-4.7,2.3C967.8,344.8,966.2,344.2,965.8,346.5z M914,225.1c-1.8,4.5-4.2,7.4-8.3,8.5
		c-1.7,0.5-1.5,2.1-1.6,3.5c-0.2,4.1-1.2,7.9-2.9,11.5c-0.8,0.1-1.3,0.2-1.9,0.3c-2.3,0.3-4.8-0.1-5.4,3.3c-0.1,0.6-2.1,1.3-3.2,1.3
		c-2.6,0-4.7-1-5.7-4.1c-0.9,3.1-1.7,5.7-2.7,9.3c2.3-1.6,4-2.9,5.9-1.4c1.6,1.3,3.1,2.7,4.6,3.9c7.1-2,14.1-4,20.7-5.8
		c3.4,2.8,5.3,2.6,7.8,0.1c1.1-1.2,2.4-2.2,3.7-3.3c-0.1-3.6,0.1-7,1-10.3c1.1-3.8,4.9-4.8,8.3-2.7c1.2,0.8,2.1,2.4,4.2,1.6
		c0.2-0.7,0.6-1.4,0.6-2.2c0-1.1,0.1-2.7-0.6-3.4c-1.1-1.1-2.6-1.1-4.1,0.1c-0.9,0.8-2.1,1.3-3.3,1.6c-0.8,0.2-2.1-0.2-2.5-0.7
		c-0.3-0.4,0.2-1.7,0.6-2.4c2.4-3.8,6.5-5,10.4-6.4c2.1-0.8,4.1-1.3,6.5-0.6c2.1,0.7,4.4,0.8,6.6,1.1c0.9,0.1,2.1,0,2.7-0.5
		c1.4-1,2.5-2.4,4-3.9c-1.3-0.5-2.7-1.6-3.9-1.5c-4.4,0.5-8.9,0.9-13.1,2.2c-5.1,1.6-9.9,2-14.8-0.7c-2.1-1.2-3.1-2.4-3.1-4.8
		c0-1.2-0.4-2.5-1-3.4c-2.5-3.7-2.1-7.4,1.4-10.1c1.2-0.9,2.6-1.6,3.8-2.5c3.4-2.3,6.4-5.1,9.3-8.1c-4.8-3.2-10.4-2.5-14.7,1.6
		c1.5,2.3,0.2,3.8-1.8,5c-4.1,2.4-8,5-12.3,7.1c-3.1,1.4-3.3,3.8-3.4,6.5c-0.1,2.6,0.5,4.8,3.1,6.3C910.9,222,912.4,223.7,914,225.1
		z M1007.1,624.7c0.4-3.4,2-5.9,4.3-8.1c1.3-1.3,2.1-2.8,1.9-4.8c-1.2-0.4-2.4-0.4-3.2-1c-1.6-1.1-3.1-1.7-5-0.7
		c-1.6,0.8-3.4,1.3-4.7,2.4c-0.9,0.7-1.5,2.1-1.6,3.2c-0.2,2.9-0.1,5.7-0.1,8.4c1.7,0.1,2.9,0.2,4.1,0.3
		C1004.2,624.4,1005.5,624.5,1007.1,624.7z M1563.8,212c0.3-0.2,0.6-0.5,0.9-0.7c-0.5-0.6-1-1.2-1.6-1.8c0,0-0.6,0.4-0.9,0.6
		C1562.8,210.8,1563.3,211.4,1563.8,212z"/>
	<path class="st17" d="M538.6,614.8c3.1-1.7,5.5-1,7.9,0c2.3,1,4.5,2.2,6.9,3c3.7,1.2,6.3,3.5,7.4,7.8c3.8-2,7.1-0.5,10.4,0.9
		c3.6,1.5,7.3,2.5,11.3,1.6c4.5-1.1,7.5,2.2,10.9,4.2c0.6,0.3,1.1,0.9,1.5,1.4c3.9,4.7,8.7,8.2,14.9,9.1c2.2,0.3,3.4,1.8,4.2,3.6
		c3.9,8.8,3,17.5-1.5,25.7c-2,3.6-5.1,6.6-7.6,9.9c-0.8,1.1-1.6,2.3-2.1,3.5c-1.4,3.1-3.3,5.7-5.5,8.3c-1.7,2-3.1,4.8-3.2,7.4
		c-0.2,3.7,0.8,7.4,1.4,11.1c0.1,0.7,0.8,1.4,0.6,1.9c-1.7,4.7-0.3,10-2.8,14.5c-0.7,1.2-1.1,2.9-0.9,4.3c0.6,4.3-1.1,7.9-3.4,11.3
		c-1.3,1.9-2.3,3.7-1.8,6.2c0.4,2.1-0.5,3.8-2.3,5c-0.7,0.5-1.7,0.9-1.9,1.6c-1,3.2-3.7,3.4-6.3,3.7c-2.3,0.3-4.7,0.6-7,0.9
		c-0.5,0.1-1.1,0.1-1.6,0.4c-4.6,2.2-9.4,4.2-13.8,6.8c-8.3,5.1-8.5,7.4-6.9,18c0.2,1.1,0.8,2.1,0.9,3.2c0.3,3.7,0,7.1-3.4,9.7
		c-2.3,1.8-4,4.1-4.2,7.4c-0.1,2.7-0.9,3-4.7,3.5c-1.4,2.9-2.7,5.8-3.6,9.1c-1.4,5.9-3.8,11.6-7.9,16.3c-1.5,1.7-3,2.3-5.6,2.2
		c-5.5-0.2-10.4-3-16.1-2.5c1.1,0.5,2.2,1.1,3.4,1.6c2.2,0.9,3.6,2.4,4.2,4.8c0.3,1.3,1,2.7,2,3.4c1.9,1.4,2.2,3.2,1.8,5.2
		c-0.5,2.5-1.2,4.9-1.9,7.3c-0.2,0.7-0.8,1.6-1.4,2c-3.4,1.9-6.5,4.2-10.8,4c-3.4-0.1-6.8,0.6-9.7,0.9c0.3,2.3,0.5,4.6,1,6.8
		c0.2,1.2,0.8,2.3,1.3,3.6c-3.9,5.7-9.2,3.1-14.8,1.8c1.1,2.4,1.7,4.2,2.7,5.8c0.4,0.7,1.5,1,2.4,1.2c0.8,0.2,1.7-0.1,2.5,0
		c1.8,0.2,2.9,1.3,2.9,3c0.1,1.8-1.3,2.3-2.9,2.2c-0.5,0-1.1,0-1.7,0c0.2,1,0.7,2,0.4,2.6c-0.9,2-0.6,3.7,0.3,5.6
		c0.8,1.6,0.4,2.9-1.1,4c-1.5,1.2-3,2.4-4.6,3.5c-2.3,1.7-2.7,4.1-0.7,6c2,1.9,4,3.7,7,4.3c4.9,1,6.3,5.6,2.9,9.4
		c-0.6,0.6-1.3,1.1-1.9,1.7c-0.5,0.5-1.2,0.9-1.4,1.5c-1.1,3.2-2.2,6.4-3,9.7c-0.7,3.2,1.5,5.3,3.6,7.1c2.4,1.9,3.7,4.2,5.1,6.9
		c2.3,4.5,6.6,7,11.1,9c3.3,1.5,6.6,2.8,10.5,4.4c-3,1.7-5.4,1.7-7.8,1.5c-3.9-0.3-7.7-0.8-11.6-1c-4.2-0.2-4.1-0.1-5.7-4.1
		c-0.5-1.2-1.5-2.6-2.6-3.1c-2.4-1.1-3.2-2.8-2.6-5.3c-2.4-0.9-3.6,0.6-4.9,1.8c-3.2,2.7-4.4,2.6-8.1,0.8c-3.5-1.6-5.3-4.8-8-7.2
		c-0.3-0.3-0.6-0.7-0.6-1.1c-0.1-3.8-2.9-6.1-4.7-8.9c-2.3-3.6-4.2-7.5-5.9-11.4c-0.6-1.4,0.3-3.3-0.2-4.8c-1.1-3.3-2.4-6.6-4-9.6
		c-1.5-2.8-2.1-5.6-2.6-8.7c-0.9-5.7-2.2-11.4-3.5-17c-0.5-2-1.4-3.7-4.2-3.7c-2.5,0-3.1-2.6-3.6-4.5c-1-3.7-2.1-7.5-2.6-11.3
		c-0.5-4.2-1.9-8.1-3.7-11.9c-0.7-1.5-0.9-2.6-0.2-4.3c0.7-1.8,0.7-4,0.8-6.1c0.2-2.5-0.1-5,0.4-7.4c1-4.7,1.1-9.4,0.1-14.1
		c-0.8-4.1-1.9-8.1-2.8-12.1c-0.1-0.4-0.4-0.8-0.3-1.2c0.1-4.1-0.4-8.1-1.2-12.2c-0.6-3.3,0.6-6.8,0.7-10.3c0.1-2.7-0.4-5.5-0.6-8.2
		c-0.1-0.7-0.2-1.4-0.3-2.1c-0.6-11.9-0.8-23.9-1.9-35.8c-0.4-4.8-0.5-10.2-4.4-14c-4.2-4-8.5-8-13.9-10.5c-3.3-1.5-6.9-2.4-9.9-4.3
		c-2.5-1.5-4.8-3.8-6.6-6.2c-1.9-2.5-4.6-4.6-4.6-8.2c0-0.4-0.3-0.8-0.6-1.1c-4.5-5.2-6-11.9-9.2-17.7c-0.6-1.1-0.9-2.5-1.8-3.3
		c-4.7-4.1-5.5-10.4-9-15.3c-2.2-3.2-3.8-6.8-7.9-8.2c-1.3-0.5-2.6-1.5-2.1-3.2c0.6-2.1-0.2-3.9-1.3-5.5c-1.7-2.5-1.2-4.8,0.4-6.9
		c1.6-2.1,3.4-4,5.1-5.9c1-1,1-1.8-0.1-2.7c-4.7-4-5.1-8-2.7-13.4c1.2-2.8,4.2-5.3,2.9-9.1c-0.2-0.5,1.3-1.9,2.3-2.5
		c0.8-0.5,1.9-0.5,2.8-0.8c1.3-0.5,2.3-1.2,2.4-3c0.2-2.8,1.5-4.8,3.9-6.8c2.3-1.9,3.8-5.1,4.8-8.1c1-3.1,0.7-6.6,1.1-9.9
		c0.5-4.5-1-8.5-3.3-12.3c-1.6-2.7-1.6-2.7-1-5.8c-5.7-5.3-5.7-5.3-10.9-0.1c0,0.4,0,0.8,0.1,1.2c0.6,1.6,0.6,3.2-1.1,3.9
		c-1.5,0.6-3.6,1-4.6-0.6c-1.8-2.8-4.6-3.4-7.5-3.8c-2.9-0.4-5.1-1.8-6.5-4.6c-1.6-3.2-4.8-4.3-7.8-5.7c-1.7-0.8-3.6-1.6-3.6-4
		c0.1-4.4,0.8-5.5,4.4-6.6c-0.6-0.8-1.1-1.5-1.7-2.1c-4.4,2.2-5.6,1.9-7.3-2.5c-1-2.7-3.1-4.3-5-6c-0.7-0.6-2-0.7-3.1-0.7
		c-4.2,0.1-9.8-2.6-12.3-6.1c-5.6,1.4-9.2-1.8-12.4-6.1c-1.5-2.1-3.7-3.8-5.6-5.5c-1.8-1.6-4-2.3-6.2-1.3
		c-6.4,2.7-12.4,1.6-18.5-1.4c-3.3-1.7-7.1-2.6-10.4-4.3c-2.7-1.4-5-3.4-7.6-5c-1.1-0.7-2.4-1.4-3.6-1.9c-2.7-1.1-5.4-2.1-7.1-4.8
		c-0.6-1.1-2.1-1.8-3.3-2.3c-4.4-2-6.6-8.2-4.2-12.2c2.3-3.8,1.2-7.4-0.6-11c-1.1-2.1-2.4-4.1-3.4-6.2c-2.1-4.3-4.9-8-8.8-11
		c-1.7-1.3-3.1-2.6-2.3-5.2c0.3-0.9-0.3-2.4-0.9-3.4c-3-5.3-5.1-11-8.8-15.9c-1.5-2-1.1-5.6-1.5-8.4c-0.1-0.7,0-1.4,0-2.1
		c0-4.4,0-4.4-4.4-5.2c-0.8-0.2-1.6-0.5-2.3-0.7c-3,4.3-3.3,9.2-0.5,13.3c1.8,2.6,3.3,5.1,3.4,8.3c0,1.3,1,2.6,1.4,3.9
		c0.9,2.6,2,5.2,2.6,7.9c1,5,2.2,9.9,5.1,14.2c0.8,1.2,0.9,3.1,0.9,4.6c0,0.7-1,1.4-1.5,2.1c-0.7-0.5-1.6-0.9-2.1-1.6
		c-0.9-1.2-1.4-2.7-2.4-3.9c-0.7-0.9-1.7-1.8-2.7-2.4c-3.7-2.1-4.2-2.7-3.1-6.9c0.6-2.2,0.1-3.8-1.4-5.3c-0.4-0.4-0.9-0.9-1.3-0.9
		c-3.5,0.2-5.1-2.6-7-4.7c-1.9-2-1.3-4.4,1.1-5.8c2.6-1.6,3.3-3.1,1.4-5.3c-3.8-4.5-4.6-9.5-4.5-15.1c0.1-3.8-0.9-7.7-1.6-11.5
		c-0.8-4.4-4-6.7-7.6-8.6c-0.8-0.4-1.9-0.6-2.8-0.7c-1.9-0.4-3-1.6-2.8-3.5c0.5-6.1-1.9-12.1-0.2-18.2c0.2-0.8-0.3-1.9-0.7-2.7
		c-1.6-3.1-1.4-6.2-1.1-9.7c0.4-4.1,2.5-6.9,4.7-9.8c0.8-1,1.7-2.1,1.9-3.2c0.8-5.4,4.7-9,7.8-13.1c4.1-5.4,8.7-10.6,12.3-16.4
		c2.8-4.4,4.3-9.6,6.3-14.3c-2.1-4.7-8.2-7-6.3-13.5c2.8,0.2,5.6,0.4,8.4,0.7c0.1-0.2,0.2-0.5,0.4-0.7c-0.6-0.5-1.2-1.2-1.9-1.5
		c-3.2-1.4-4.2-2.7-2.7-5.6c1.9-3.5,1.6-7.1,1-10.6c-0.7-4.1,0.6-7,3.6-9.8c-0.4-0.8-0.7-1.7-1.1-2.6c-0.3-0.8-1.2-1.7-1-2.2
		c1.7-3.4-0.5-5.7-2.1-8.1c0-0.4-0.1-0.8,0.1-1c2.3-4,2.2-4-2.3-5.7c-1.2-0.4-2.2-1.6-2.9-2.7c-1.1-1.7-1.8-3.7-2.9-5.8
		c-6-0.5-11.7-3.5-18.2-3.5c-3.2,0-6.2-2.1-8.6-5.1c-2.7,0.8-5.6,1.7-8.7,2.6c-0.2,3.2-2.3,4.4-5.1,5.1c-5.6,1.4-11.2,3-16.8,4.6
		c-2-3.5,1.8-3.8,2.4-6.2c-1.3,0.4-2.3,0.6-3.2,1c-1.7,0.7-3.4,1.4-4.9,2.2c-15.6,8.3-32.4,13.6-48.6,20.6c-1.3,0.5-2.4,1.5-3.7,1.9
		c-1.9,0.6-4,1.2-6,1.3c-1.8,0.1-3.6-0.5-6.3-0.9c1.5-0.7,2.3-1.3,3.2-1.5c3.1-0.5,5.7-1.9,8.3-3.6c3.2-2.1,6.8-3.8,10.3-5.4
		c4.3-1.9,8.7-3.5,13.5-5.4c-4-2.7-7.8-2.1-11.7-1.4c-1.6,0.3-3.3,0.9-4.7-1.4c1.3-1.3,2.7-2.7,4.9-4.9c-1.9,0.4-3,0.5-4.1,0.8
		c-1.5,0.4-3.1,0.9-4-1c-0.8-1.7-1.4-3.3,0.4-4.9c0.9-0.8,1.4-2.2,1.9-3.4c0.9-2.5,2.3-4.2,5.2-4.8c2.4-0.5,4.7-1.7,7-2.7
		c4-1.9,7.9-4.1,12.5-4.5c0.4,0,0.9-0.1,1.2-0.4c2.7-1.9,5.9-2.5,9.1-2.7c3.5-0.3,6.2-2.1,9-4.3c-6.3,0-12.3,0-18.9,0
		c0.4-2.3,0.7-4.7,1.5-7c0.3-0.9,1.8-1.9,2.9-2.1c5.4-1.1,10.9-2,16.4-2.8c1-0.1,2.2,0.2,3,0.8c1.7,1.2,3.4,1.1,5.2,0.6
		c2.1-0.6,4.2-1.3,6.6-2c-1.4-1.5-2.9-2.8-3.9-4.4c-1-1.6-1.6-3.4-2.5-5.4c2.2-2.5,5.2-3.5,8.3-3.8c5.8-0.4,11.1-2.2,16.4-4.3
		c5.5-2.3,11.2-4.2,17-5.4c5.3-1.1,10.8-0.8,16.2-1.2c1.9-0.2,3.8-0.7,5.7-1c2-0.3,4.2-0.8,6.1-0.4c9.4,1.6,18.8,3.6,28.2,5.1
		c3.5,0.6,7.2,0.3,10.8,0.3c3.4-0.1,6.6-0.2,9.5,2.1c0.9,0.7,2.4,1.5,3.4,1.3c3-0.5,5.5,0.6,7.9,1.9c2,1.1,3.9,1.2,5.9,0.1
		c2.7-1.5,5.8-1.6,8.8-2c6.1-0.6,12.1-1.9,18.1-2.8c1.8-0.3,3.6,0,5.3-0.1c1.9-0.1,3.9,0.1,5.7-0.6c4.6-1.6,4.7-1.7,5.9,3
		c2.1,1.3,4.2,1.4,6.2-0.1c1.1-0.8,2.1-0.8,3.5-0.4c1.3,0.4,2.8,0.2,4.1,0c4.4-0.8,8.7-0.2,12.3,2.3c2.6,1.8,5.2,2.3,8.2,1.9
		c3-0.4,5.4,0.6,7.5,3.5c-1.1,0.9-2.1,1.7-3.4,2.7c0.9,0.2,1.6,0.6,2.3,0.6c5,0.1,9.9-0.4,14.9-1.2c3.8-0.6,7.4,0.1,10.9-2.7
		c2.1-1.7,5.8-1.5,8.9-1.8c2.5-0.2,5.1,0.4,6.9,2.4c1.9,2,4.1,2.7,6.8,2.6c4.9-0.2,9.8-0.2,14.6-0.3c0.8,0,1.8-0.1,2.4-0.5
		c4.2-3,7.8-0.6,12,1.1c3.9-1.6,8.5-2.9,10.9-7.7c-0.4-0.4-0.7-0.8-1.1-1.2c-2.8-2.4-2.7-2.3-0.6-5.2c2.6-3.6,6.5-5.1,10.4-6.5
		c1.4-0.5,2.9-0.9,4.4-1.3c4.5,2.6,5,7.5,0.8,11.5c2.2,1.2,4,2.6,2.4,6c1.8-1.1,2.8-1.8,3.9-2.3c1.4-0.6,2.8-0.4,3.8,0.8
		c1.1,1.4,0.6,2.7-0.4,3.8c-0.9,1-2,1.8-3,2.7c0.1,1.6,1,2.1,2.3,2c0.5,0,1.1-0.3,1.6-0.5c4.3-1.5,11.7-8.1,14.2-12.7
		c-1.9-1.1-3.7-2.2-5.6-3.1c-1.3-0.6-2.9-0.9-2.8-2.6c0.1-1.6,0.1-3.8,1.1-4.6c6-5.3,11.7-11.4,20.9-10.3c2.6,0.3,5.5-1.4,7.8,1.2
		c0.2,0.3,1.3-0.3,2-0.4c3.2-0.3,6.4-0.7,9.5-0.8c3.2-0.1,3.8,0.9,3.2,4.1c-0.1,0.5-0.3,1-0.5,1.9c2.2,0,4.2,0,6.6,0
		c-1.5-2.2-4-3.9-2.5-7c5,0,10.2-0.6,14.8,3.8c-1.5,0.9-2.4,1.5-3.6,2.1c2.2,1.2,4.2,2.2,6,3.4c2.4,1.6,4.9,2.4,7.6,3.2
		c2.4,0.7,4.6,1.8,6.8,2.9c3.7,1.9,5.3,4.8,4.1,9.3c-1.2,0.7-2.5,1.6-4.5,2.8c1.7,1,2.9,1.9,4.2,2.5c2,0.9,4.1,1.8,6.2,2.5
		c2.5,0.8,3.9,2.6,4.8,4.9c1.1,3,0.8,4-1.7,6.1c-2.2,1.8-4.3,3.5-6.5,5.3c-2.4,1.9-4,1.8-6.1-0.4c-1-1-1.7-2.2-2.6-3.3
		c-0.8-1.1-1.5-2.9-2.4-3.1c-2.3-0.4-5-1-7.7,1.1c0.9,1,1.6,1.9,2.4,2.8c1.2,1.3,2.7,2.5,3.7,3.9c2.1,2.8,1.8,5.6-0.4,8.4
		c-2.3,2.9-5.8,4-8.8,2.8c-1.7-0.7-3.3-1.3-5.6-2.3c1.1,2.4,2,4.2,2.7,6.1c0.8,2,0.3,2.8-1.9,2.9c-1.9,0.1-14.5-4.7-15.8-6.1
		c-0.7-0.8-1.1-1.9-1.6-2.8c-0.8-1.5-1.3-3.2-2.4-4.3c-0.8-0.9-2.5-1.8-3.5-1.5c-5,1.5-10-0.3-14.9-0.1c-1.8,0.1-2.4-1.2-1.7-2.9
		c1.3-3.4,5.2-5.5,8.8-4.3c3.4,1.1,6.8,1.7,10.2,0.5c0.8-0.3,2-0.9,2.1-1.6c0.6-2.4,2.5-3.2,4.3-4.3c1.9-1.2,3.8-2.4,5.5-3.8
		c3.1-2.6,2.9-4.9-0.5-6.7c-1.7-0.9-2.8-1.9-3.9-3.5c-1.4-2-3.5-3.4-5.3-5.1c-7,2.9-14-0.4-20.7,0.6c0,0.3-0.1,0.6-0.1,0.6
		c4.2,2.9,4.3,4.9,0,7.5c-1.6,0.9-3.1,1.5-3.1,3.9c0,0.9-1.4,2-2.3,2.7c-1.8,1.3-3.8,2.4-5.6,3.7c-2.8,1.9-5.5,3-8.9,1.6
		c-1.4-0.6-3.4,0-6,0.1c2.1,2.6,3.8,4.4,5.2,6.4c1.4,2,2.5,4.1,3.8,6.4c-1.4,2.6-2.6,3.5-5.2,1.7c-4.2-2.9-7.5-1.2-11.1,1
		c-1,0.6-1.9,1.1-2.9,1.6c-1.3,0.7-2.5,0.9-3.7-0.5c-0.8-1-2.1-1.6-3.1-2.4c2.6-2.9,5-5.7,7.6-8.8c-1.1-0.3-1.5-0.6-1.8-0.4
		c-3.7,2.2-7.2,4.5-10.9,6.7c-1.4,0.8-3.1,1.1-4.7,1.7c-1.5,0.6-3,1.4-4.5,2.2c-3.8,2.1-6.8,5.3-11.9,5.6c-4.2,0.3-8.4,2.7-12.3,4.9
		c-6.2,3.5-12.1,7.5-16.1,13.6c-0.4,0.7-0.8,1.4-1.4,2.5c0.8,0.2,1.4,0.3,2,0.4c2.4,0.6,2.7,1.1,2,3.4c-0.6,2.1-1.2,4.1-2,6.7
		c1.3-0.2,2-0.2,2.6-0.3c5.9-1.6,10.6,0.5,14.5,4.9c0.5,0.6,1.2,1.2,1.9,1.6c4.4,2.2,8.4,5.4,13.8,5c2.4-0.2,4.8,1,7.5,1.7
		c-2.1,3.7-3.9,7-5.8,10.4c-2.4,4.5-1.4,8.7,2.6,11.9c2-0.8,4-1.4,5.8-2.3c2.2-1.1,3.8-2.8,4.4-5.2c0.6-2.1,1.2-4.2,1.7-6.4
		c0.2-0.9,0.6-1.9,0.5-2.8c-0.3-2.7,1.1-4,3.5-4.9c4.1-1.7,8.1-3.6,12.2-5.4c3.6-1.5,5.6-4.4,7.4-7.7c1.7-3.2,1.6-3.7-0.9-6.6
		c-2-2.3-1.9-3.4,0.8-4.8c0.7-0.4,1.5-0.7,2.3-1c4.1-1.4,6-4.3,5.8-8.6c0-0.8,0-2.1,0.4-2.3c3.6-1.8,2.5-6.7,6-8.6
		c2.6-1.4,5-2.1,7.9-0.8c1.5,0.7,3.1,1.3,4.7,1.4c2.1,0.2,4.2-0.1,7.2-0.2c1.4,1.2,4.2,2.4,5.4,5.3c0.3,0.7,1.4,1.1,2.2,1.6
		c1.4,1,2.9,2,4.4,3c-1,2.3-2,4.2-2.7,6.1c-1.3,3.5,0.6,6.5,4.3,6.9c2,0.2,4,0,5.9-1.3c4.1-3,8.5-5.8,13.1-8.9
		c1.9,6.2,3.7,12.1,5.4,18c0.2,0.9,0.2,2.1-0.2,2.8c-1.1,1.7-0.8,3.1,0,4.6c1.1,2.2,1.5,4.9,4.4,5.7c1.7,0.5,3.5,1.1,5.1,1.8
		c1.3,0.6,2.7,1.2,2.3,3.4c-0.2,0.8,0.9,2.2,1.8,2.8c1.9,1.4,2.6,3,2,5.4c-0.7,2.9-0.4,6-3.4,8.2c-0.9,0.7-0.8,2.7-1.4,4
		c-0.8,1.7-1.9,3.2-3.3,4.6c0,0.3-0.2,0.6-0.1,0.8c1.9,4.2,1.9,4.4,6.8,2.9c2.2-0.7,3.8-0.3,4.7,1.4c-1.1,3.5-2.2,6.8-3.3,10.2
		c1,0.7,2,1.4,2.8,2c0.4,2.3-3.5,5.9-5.5,4.8c-2.6-1.3-6-0.7-8-3.5c-0.6-0.7-2.5-0.7-3.8-0.6c-4.7,0.5-9.4,1.2-14.1,0.3
		c-0.6-0.1-1.3-0.4-2.6-0.9c1.3-1.5,2.1-3,3.4-3.9c4.3-3,7.3-7.2,10.6-11.2c2.3-2.9,4.8-5.6,7.5-8.6c-3.2-1.1-5.9-0.2-8.5,1.7
		c-3.4,2.5-7,4.3-11,5.8c-3.2,1.2-6-0.3-9,0c-2.3,0.2-4.7,0-7,0c-4.3,0.1-8.6,0.3-13,0.3c-2.3,0-4.2,0.4-6.2,1.9
		c-1.9,1.5-4.5,2.1-6.8,3.1c-2.1,1-4.2,2-5.8,5c1.5-0.6,2.3-0.8,3-1.3c3.8-2.8,8.3-3.9,12.9-4.5c1.8-0.2,3.6-0.2,5.4,0.1
		c2.1,0.4,3.9,1.6,3.9,4.4c-0.7,0.6-1.6,1.3-2.4,2c-0.9,0.9-2,1.7-2.6,2.8c-1.7,2.9-1.4,6.2-0.3,9c0.6,1.5,3.1,2.5,4.9,3.3
		c1.5,0.7,3.3,0.5,4.9,1.1c1.3,0.5,2.5,1.5,4.2,2.5c-5.1,2-9.4,3.7-13.7,5.4c-0.3,0.1-0.6,0.2-0.8,0.1c-4.2-1.1-6.8,1.4-9.2,4.3
		c-0.5,0.6-1.1,1.2-1.8,1.7c-1.4,1-3,1.2-4.2-0.1c-1.4-1.4-0.8-3,0.4-4.1c2.4-2.2,5.1-4.2,7.7-6.3c0.5-0.4,1.2-0.6,2.1-1.1
		c-0.6-0.3-0.9-0.6-1.1-0.5c-5.1,1.7-10.5,2.7-15.1,5.8c-0.7,0.5-1.5,1-2.2,1c-2.8,0-5.2,0.8-6.8,3.3c-0.3,0.4-1,0.7-1.5,0.7
		c-3.5,0.2-5.8,2.5-8.2,4.6c-1.6,1.5-2.7,3.2-2.5,5.5c0.2,1.9-0.8,3.2-2.6,3.8c-2.1,0.8-4.1,2.1-6.2,2.2c-4.7,0.3-8.4,2.6-12.4,4.6
		c-0.6,0.3-1.5,0.6-1.7,1.1c-1.4,4.2-5.1,6.3-8.2,9c-0.6,0.5-0.9,1.4-1.4,2c-1.5,1.9-3,3.9-4.6,5.9c-0.8-0.8-1.2-1.3-1.6-1.8
		c-0.2,0.2-0.5,0.4-0.5,0.6c-0.4,2.9-0.4,5.8-1.1,8.6c-0.8,3.2-1.2,6.6-4.6,8.5c-0.7,0.4-1.5,1.2-1.5,1.8c-0.1,2.9-2.1,3.3-4.2,3.7
		c-2.6,0.4-4.8,1.3-6.3,3.5c-0.4,0.6-1.2,1.2-2,1.5c-6,2-10.4,6.4-15.3,10c-3.2,2.3-5,6.5-7.3,10c-0.3,0.5-0.3,1.4-0.2,2
		c0.5,4.4,1.1,8.8,1.7,13.2c0.4,3,1.1,6,1.3,9c0.2,3.7-1.6,6.7-3.9,9.4c-1.1,1.3-1.7,1.4-4.4,1.6c-2.9-4.4-5.7-8.9-6.5-14.2
		c-0.4-2.2-0.9-4.6-0.2-6.6c1-3.1,0-5.1-2-7.1c-0.6-0.6-1.2-1.1-1.8-1.7c-2.4,0.5-4.6,1-7,1.6c-2-5.1-5.3-6.1-10.2-4.8
		c-3.9,1-8,1-12.3,1.5c0,1.7,0,3.4,0,5.8c-3.9-1.3-7.7,0.3-11.5-1.4c-3.1-1.3-6.6-1.8-10-2.2c-1.7-0.2-3.5,0.7-5.1,1.5
		c-3.1,1.5-6,3.6-9.2,4.8c-3.5,1.3-6.1,3.8-9.1,5.7c-2.9,1.8-3.7,4.8-3.6,8c0.1,2.8-0.7,5.2-2,7.5c-2.9,5.3-4.4,11.1-5.1,17.1
		c-0.3,2.3,0.8,4.7,0.5,7c-0.7,5,1.5,9.2,3.2,13.6c1,2.5,2.6,4.2,5.2,5.1c0.6,0.2,1.5,0.3,1.8,0.8c1.6,2.6,3.5,2.4,6.1,1.3
		c2-0.8,4.4-0.5,6.6-0.6c1.8-0.1,3.6,0.1,5.4-0.1c2.1-0.2,4.2-0.9,5-3.2c1.1-3,2.3-6,3.1-9c0.7-2.8,1.8-4.6,4.9-5.4
		c4.4-1.1,8.7-2.7,13.4-2.2c1.6,0.2,3.4,0.4,3.7,2c0.2,1.1-0.3,2.9-1.1,3.7c-1.6,1.5-1.7,3.3-2.1,5.2c-0.8,4.7-2.5,9.1-5.2,13.1
		c-1.3,1.9-2.5,3.8-2.8,6.3c-0.3,2.2-1.6,4.3-2.7,7c0.8,0.3,2,1.1,3.2,1.1c2.9-0.1,5.8-0.3,8.6-1c3.5-0.9,6.9-0.5,10.3,0.3
		c0.7,0.2,1.4,0.8,2,1.3c0.5,0.4,0.9,1.1,1.4,1.5c1.1,0.9,3.5,0.1,3.6,2.2c0.2,2.6,0.1,5.1-0.7,7.8c-1.9,6.2-3.6,12.5-4.2,19
		c-0.2,3,1,5.4,3.2,7.3c1.2,1,2.3,2.1,3.5,3c3.3,2.6,6.8,3.9,10.7,1.2c0.6-0.4,1.3-0.6,1.9-0.8c5.8-2.5,11.6-1.2,15.6,3.7
		c0.5,0.6,0.6,1.4,0.8,1.8c1.9-1.6,3.7-3.3,5.6-4.9c1.8-1.6,2.7-3.8,3.2-6.2c0.3-1.2,1.1-2.5,2-3.4c2.8-2.6,5.9-4.3,9.9-4.8
		c3.6-0.4,6.8-2.1,9.2-5.1c0.9-1.1,4.4-1.7,5.3-0.8c0.6,0.5,1,1.9,0.6,2.5c-0.6,1.1-1.7,2.1-2.8,2.8c-1.7,1.2-1.3,2.2,0.2,3.4
		c2.4-3,7.4-2.7,8.9-7.6c1.2,1.5,2.1,2.6,3.1,3.9c2.6-0.7,4.8-0.2,6.2,2.5c0.8,1.5,2.1,2.1,3.8,2.2c2.1,0.1,4.2,0.3,6.2,0.6
		c1.2,0.2,2.3,0.8,3.4,1.3c3.4,1.7,6.8,2.5,10.1-0.3c0.7-0.6,1.7-0.9,2.6-1c2.8-0.3,5.5-0.4,8.3-0.5c0.3,0,0.7,0.4,1.1,0.7
		c0.3,1.5-3.1,3.5,0.9,4.6c0.5-1.6,1.1-3.3,1.7-5c1.7-0.6,3.7-0.9,4.5,0.8c1.1,2.2-0.4,3.9-2.7,5.3c2.6,1.9,4,4.1,2.7,7.1
		c2.6,0.9,5,1.5,7.2,2.5c2.8,1.2,4.8,3.5,5.6,6.4c0.9,3.4,4.2,4.1,6.1,6.4c2.2,2.6,5.2,3.1,8.4,2.6c5.8-0.9,10.9,1.8,16.3,2.8
		c0.1,0,0.3,0,0.4,0.1c3.9,5.2,11,7.8,11.8,15.4c0.3,3.3,1.5,6.2,3.7,8.7c1.3,1.4,1.4,3.2,1.2,5.1c-0.3,4,2.1,6.9,6.1,7.2
		C537.1,610.4,538.8,611.3,538.6,614.8z M407,319.8c1.1-5.1,0.7-6-3.3-7.5c-1.6-0.6-3.2-1.4-4.8-1.5c-2.4-0.1-5-1.9-7.1,0.7
		c-0.1,0.2-0.5,0.1-0.8,0.1c-3.7-0.6-7.1,0.7-10.6,1.5c-3.5,0.8-6.6,1.8-8.7,4.9c-0.6,0.9-1.5,1.6-2.3,2.4
		c-3.8,3.7-5.6,8.6-7.3,13.4c-0.4,1.2-0.1,2.7-0.1,4.7c4.5-2.2,7.6-5.1,8.6-9.2c1.5-6,5.1-10,10.1-13.1c0.8-0.5,1.7-1,2.5-1.5
		c3.6-2.8,4.4-2.8,8-0.2c2,1.5,2.3,3,0.6,4.9c-1.2,1.3-2.4,2.5-3.8,4c1.9,0.5,3.3,0.8,4.8,1.2c-0.1,1.6-0.2,2.9-0.4,5.2
		c3.8-4.6,7-8.5,10.4-12.5C404.2,318,405.4,318.8,407,319.8z M357.4,305.7c0.1,0.2,0.2,0.4,0.3,0.7c4.4-0.7,8.7-1.5,13.1-2.1
		c1.1-0.1,2.2,0.5,3.4,0.8c2,0.5,4.1,1.6,5.9,1.2c3.9-0.7,7.4-0.7,10.9,1.5c0-2.9,0-5.7,0-7.7c-1.9-1.7-3.4-3.1-5.5-5
		c-2.7-0.5-5.9,0.2-9,1.5c-4.5,1.8-8.9,3.9-13.3,6C361.2,303.5,359.3,304.7,357.4,305.7z M392.3,338.3c4.5-0.6,8.6-2.4,13.3-4.9
		C399.4,332.4,396,335.7,392.3,338.3z M198.5,285.1c0.4,4.2,0.9,5.2,4.8,8.4C201.7,290.9,202,287.3,198.5,285.1z M406.1,543.6
		c-1.9,3.1-1.9,3.1,0.9,5.2C408.3,546.8,407.1,545.3,406.1,543.6z"/>
	<path class="st17" d="M1513.4,716c1.7,2.2,2.8,3.7,4.2,5.5c0.4-0.8,0.9-1.4,0.9-1.9c-0.6-4.7-0.3-5.1,4.4-5.9
		c-0.4-4.6-0.4-4.6,5.1-6.1c0.9-4,4.1-5.7,7.7-6.8c0.3-0.1,0.6,0,0.8-0.1c1.5-0.5,2.8-2.4,4.5-1.1c2.1,1.7,4.9,2.9,5.2,6.2
		c2.1,0.3,4.1,0.6,6.7,1c-2.5-4.9,1.5-6.9,3.4-9.8c0.5-0.7,1.3-1.3,1.7-2.1c2.6-5.2,4.4-6.1,10.1-5.4c3.1,0.4,4.2-1,2.9-4
		c-0.3-0.7-0.8-1.4-1.6-2.9c2.4,0.5,4.3,0.5,5.7,1.4c3.9,2.4,8.4,3.1,12.7,3.6c1.9,0.2,3.9,1.4,6.2,0.1c1.6-0.9,3.7,2.7,2.8,4.8
		c-0.3,0.7-0.9,1.4-1.4,2c-1.4,1.7-3,3.3-4.1,5.2c-1.1,1.9-1.8,4-2.8,6.3c4,3.4,8,7,12,10.5c2.1,1.8,4.2,3.5,6.3,5.2
		c3.6,2.8,7.3,2,8.5-2.4c1.6-6.2,4.8-11.8,5.8-18.2c0.7-4.2,2.5-8.2,4-12.2c1.2-3.2,2.7-6.4,4.3-10.2c3.2,3.5,3.5,7.6,4.4,11.4
		c0.9,3.8,1.2,7.8,1.8,12c3.6-1.2,4.6,2.8,7,4.5c0.3,0.2,0.4,1,0.4,1.5c0.3,7.2,2.5,14.2,1.7,21.5c-0.2,2.1,0.8,3.3,2.5,4.4
		c2.4,1.6,4.6,3.5,6.9,5.4c0.5,0.4,1.2,1.1,1.2,1.7c0.1,4.2,3.9,7.4,3,11.9c0,0.2,0.2,0.5,0.4,0.9c3.6,0.9,5.5,3.1,5.4,7.1
		c0,0.9,0.2,2.2,0.8,2.7c3,2.4,3.8,6.1,5.5,9.2c0.3,0.5,0.6,0.9,1,1.5c0.8-0.4,1.5-0.7,2.4-1.1c0.1,0.4,0.3,1,0.2,1.2
		c-3.1,3.6-1.8,8.6-4,12.5c-0.1,0.1-0.1,0.3,0,0.4c2.4,5.1-1.5,8.7-3.1,12.8c-1.8,4.5-4.1,8.7-6.3,13.1c-0.4,0.9-1,1.7-1.7,2.4
		c-4.7,4.3-9.4,8.6-14.2,12.8c-3.3,2.8-6.7,5.5-8.2,9.8c-0.2,0.5-0.5,1.1-0.9,1.4c-5.5,3-7,9.1-10.8,13.5c-1.6,1.8-3.1,3-5.5,3.3
		c-0.3,0-0.6,0.1-0.8,0.1c-4.7,0.3-8.6,2.3-12.6,4.9c-6.1,4-6.5,3.8-12.1-2.7c-1.7,0.9-3.6,1.8-5.4,2.9c-2,1.3-4,1.6-6.3,0.7
		c-2.6-1-5.2-1.9-7.9-2.7c-3.8-1.1-4.8-2.3-4.8-6.2c0-1.4,0.4-2.8,0.6-4.1c0.9-4.6,0.8-4.8-3.1-7.1c0-0.9,0-1.8,0-2.9
		c-2,0.3-4,0.7-6.5,1.1c1.1-5.5,6.7-7.1,7.9-12c-3.5,2.4-7.1,4.8-10.5,7.3c-2.7,2-4.5,1.6-5.3-1.7c-0.2-0.7-0.3-1.4-0.1-2.1
		c0.9-3.3-1.2-5.9-2-8.7c-0.3-1.2-2.5-2-3.9-2.8c-1.9-1.1-3.8-2.1-5.9-2.8c-1.9-0.6-4-1.3-6-1.1c-4.5,0.4-9,1.3-13.3,3
		c-2.8,1.1-5.9,1.4-9,1.7c-2.8,0.3-5.4,0.9-8,2.2c-2.5,1.2-5.2,2-7.8,2.7c-1.4,0.4-2.4,1-3.3,2.2c-1.7,2.4-4.1,3.7-7.1,3.5
		c-3.3-0.2-6.7-0.4-10-0.4c-3.8-0.1-7.4,0.5-10.6,3c-2.2,1.7-4.5,3.2-7,4.6c-4.6,2.5-9,1.3-12-2.9c-0.7-1.1-1.9-1.8-3.1-2.8
		c-0.2-2.1,0.9-3.6,2.5-5.2c4-4,6.6-8.5,5.8-14.7c-0.6-4.6-0.3-9.4-0.3-14.1c0-1,0.1-2-0.1-2.9c-0.9-3.6-2.1-7.2-3-10.8
		c-0.5-2.1-0.6-4.4-0.9-6.4c1.7-1.4,3.2-2.4,5.1-0.6c-0.3-1.4-0.5-2.9-1-4.3c-1.2-3.6-0.3-6.9,1.8-9.9c1.7-2.4,2.7-4.8,2.5-7.8
		c-0.1-1.6,0.1-3.3,2.5-2.5c0.2,0.1,0.6,0,0.8-0.2c3.1-2.3,6.3-4.5,9.2-7c2.4-2.1,5.2-2.5,8.1-2.7c1.8-0.1,3.2-0.4,4.4-1.9
		c0.6-0.8,1.9-1.4,2.9-1.4c1.9-0.1,3.5-0.3,5-1.6c0.5-0.4,1.6-0.4,2.4-0.3c5.1,0.2,9.2-1.6,11.9-6c0.4-0.6,0.7-1.3,1.2-1.7
		c2.7-2.4,4.8-4.9,4.7-9C1509.1,720.5,1511.6,718.5,1513.4,716z"/>
	<path class="st17" d="M615.8,172.1c0-3.3-4.5-4.5-3.3-8.4c2.5,0.2,5.1,0.4,7.7,0.6c-0.6-3.2-2.3-4.5-5.5-4.6
		c-1.7,0-3.5-0.2-4.9-0.3c-1.2-2.5,0.1-4,0.8-5.6c2.4-5.2,1.7-10.2-2.3-14.2c-1-1-2.5-2-3.8-2.3c-7-1.5-14-2.6-21.1-1.2
		c-3.3,0.6-6.3-0.2-9.3-1.4c-0.9-0.3-2-0.9-2.3-1.7c-1-2.7-1.6-5.6-2.5-8.5c10.3-1.5,20.3-2.9,30.6-4.4c-0.2-1.3-0.3-2.1-0.5-3.2
		c0.9-0.4,1.8-1,2.8-1.2c7.2-1.5,14.6-2.3,21.6-4.5c5.9-1.9,11.8-1.5,17.6-2.5c7.6-1.4,15.2-1.1,22.8-1.5c9.7-0.5,19.4-1.2,29-2.9
		c5.8-1.1,11.9-0.4,17.9-0.6c4-0.1,8.1-0.2,12-0.8c8.6-1.4,17.2-1.2,25.8-0.1c4.5,0.6,9,1.8,13.4,2.9c1.3,0.3,3,0.7,2,2.5
		c5.4,0.2,10.6,0.4,15.8,0.7c5,0.3,10.2-1.3,15.6,1.4c-2.8,2.6-6,3.7-9.1,4.1c-5.2,0.7-10,2.2-14.6,4.6c-0.2,0.1-0.5,0.3-0.7,0.4
		c-4.4,0.6-7.4,3.5-10.7,6.4c1.4,1.2,4.3,1.6,3.4,4.3c-1,3.2-4.2,2.1-6.7,3.4c0.5,1,1.2,1.9,1.5,3c0.3,1.1,0.7,2.8,0.1,3.5
		c-2,2.5-3.5,5.7-6.8,7c-1,0.4-2,1-2.9,1.6c-2,1.4-4.1,2-6.6,1.8c-3.2-0.2-6.3,0.3-9.4,1.9c0.9,2.4,3.1,2.3,4.7,3.3
		c2.4,1.4,4.4,2.9,4.3,6.1c-0.1,3.1-0.7,3.8-3.9,4c-0.8,0-1.6,0.1-2.5,0.1c0.1,3,0,3-2.4,3.9c-2.7,1-5.6,1.8-8.2,3.1
		c-4.4,2.2-9.1,3.4-13.9,4.1c-2.5,0.4-4.9,1.1-7.4,1.4c-2.5,0.3-5.1,0.4-7.8-0.1c-3.6,2.6-7.1,5.3-10.9,7.7c-4.7,3-10,4.8-15.6,5.6
		c-1.3,0.2-2.7-0.7-4.4-1.1c-1.9,2.2-4.7,3.1-7.9,2.9c-2.3-0.2-4,1-5.4,2.7c-1.3,1.6-2.7,3.2-3.6,5.1c-2,4.1-5.1,6.9-9.4,8.3
		c-1.1,6.9-7,10.1-11.3,14.4c-1.3,1.3-5-0.1-7-2.2c-1.2-1.2-2.5-2.7-4.1-3.2c-1.6-0.5-3.6-0.2-5.3,0.1c-2.3,0.4-3.7-0.2-4.6-2.4
		c-1.2-2.9-2.6-5.8-4-8.6c-1.7-3.4-1.6-6.9-1.1-10.6c0.1-1,0.1-2.2-0.3-3.2c-1.5-3.9-1.5-7.9,0.2-11.7c1.9-4.3,5.2-7.1,10.1-7.6
		C613,174.2,614.8,173.9,615.8,172.1z M727.5,164.8c1.9,0.1,3.2,0.2,5.5,0.3c-1.6-1.8-2.5-2.8-3.7-4.1
		C728.5,162.4,728.2,163.3,727.5,164.8z"/>
	<path class="st17" d="M1653.5,645.3c4.3,1.9,9,2.5,11.3,7.7c-1.5,1-3.1,1.9-5,3.1c0.4,0.7,0.7,1.6,1.2,2.4c1.8,2.8,4.4,5,5.5,8.2
		c0.8,2.4,3.1,1.1,4.9,1.6c0.2,3.8,3.4,5.2,5.8,7.4c1,0.9,2.6,1.7,1.5,3.3c-0.9,1.3-2.5,1.7-4.1,1c-0.5-0.2-1.1-0.4-1.5-0.7
		c-2.1-2-4.5-2.4-7.3-2c-3.9,0.6-6.5-1.9-8.8-4.7c-0.8-1-1.6-2.1-1.9-3.2c-1.3-4.7-4.9-6.6-9-8.1c-2.1-0.8-3.8-0.6-5.2,1.1
		c-1.1,1.4-2.2,2.9-2.9,4.5c-1.4,2.8-3.7,3.8-6.6,4.3c-5.3,1-8.6-2-11.9-5.3c-0.8-0.8-1.5-1.7-2.6-2.9c-1.7,0.7-3.4,1.4-5.1,2.1
		c-1.9,0.7-4.2,2.1-5.9,0.5c-2-1.8-0.1-3.9,0.9-5.6c0.7-1.3,1.9-2.3,3.4-3.9c-0.9-2.6-1.9-5.7-3.2-8.7c-0.5-1.1-1.4-2.2-2.4-2.7
		c-3-1.5-6-3-9.2-3.9c-3.3-0.9-6.2-2.2-8.8-4.4c-0.9-0.8-2.1-1.1-2.9-1.6c-0.6,0.5-0.9,0.6-1.1,0.8c-0.8,1-1.5,2.7-2.5,2.9
		c-1.8,0.4-2.4-1.5-3-2.8c-1-2.2-2-4.5-3.1-6.8c2.5-0.9,4.9-1.7,7.3-2.6c0-0.2,0-0.4,0-0.6c-1-0.1-2-0.3-3-0.3
		c-1.8-0.1-3.3-0.6-4.1-2.3c-0.9-1.8-2.2-2.7-4.3-2.8c-0.9,0-1.9-0.4-2.6-1c-0.7-0.6-0.9-1.6-1.3-2.4c0.8-0.3,1.6-0.6,2.4-0.9
		c1.4-0.5,2.9-0.9,4.2-1.5c5.4-2.8,11.1-1.7,14.4,3.2c0.6,0.8,0.4,2.1,0.5,3.2c0.3,3.3,2.7,7.7,5.9,10.1c1-1.4,2.1-2.8,3.1-4.3
		c0.6-0.8,1.1-2.2,1.7-2.2c3.1-0.2,4.6-2.8,7-3.9c1.1-0.5,2.8-0.7,3.9-0.3c10.6,3.7,21.2,7.4,31.7,11.5c2.8,1.1,5.2,3.6,7.7,5.5
		c0.8,0.6,1.4,1.4,2.1,2C1652.5,640.6,1654.1,642.5,1653.5,645.3z"/>
	<path class="st17" d="M1499.6,604.6c-1.7,0.4-2.3,0.7-3,0.8c-3.9,0.6-4.8,1.3-4.7,5.3c0.1,3.1-0.7,5.2-3.7,6.7
		c-2.6,1.2-3.8,3.5-3,6.6c0.2,0.9,0.2,2-0.1,2.8c-1.7,4.1-1.8,4-1.4,7.8c-2.9,1.1-5.8,2.1-9.1,3.3c-0.7-1.3-1.5-2.7-2.1-3.7
		c-2.4-0.8-4.4-1.6-7.4-2.6c-2.3,0.9-5.6,5.3-8.9-0.2c-0.8,0-1.5,0-2.2,0c-4.2,0.1-4.5-0.2-5.6-4.4c-0.6-2-1.2-4-1.9-6
		c-0.2-0.6-0.4-1.5-0.9-1.8c-2.8-1.6-2.7-4.3-2.9-6.9c-0.1-1.5,0-3.1-0.6-4.5c-1.2-2.9-0.8-5.4,1.1-7.8c0.7-0.9,1.2-1.8,1.8-2.8
		c2.7,0.5,5.3,1,7.6,1.4c0.4-0.4,0.8-0.5,0.8-0.7c0.8-5.2,4.1-7.8,9.2-8.3c2.1-0.2,3.2-1.5,4-3.2c1.9-4.4,4.9-7.7,9.2-9.6
		c2.5-1.1,3.8-3.1,5.2-5.2c1.6-2.6,3.3-5.1,5.3-8c2.2,1.8,3.6,3.7,4.9,5.8c0.7,1.1,1.4,1.8,2.8,2.1c1.6,0.4,3,1.3,4.5,2.1
		c3,1.7,3,3.2-0.1,5c-0.4,0.2-0.8,0.3-1.3,0.6c0,1,0,2.1,0,3.2c-0.7,0.3-1.1,0.5-1.7,0.7c-3.1,1.1-3.1,1.1-2.8,4.3
		c0.2,2.2-0.3,4.5,1.5,6.3C1494,597.7,1497,600.7,1499.6,604.6z"/>
	<path class="st17" d="M1097.6,688.8c1.3,3.2,2.8,6,3.7,9c1,3.2,1.6,6.5,2,9.8c0.2,2.1,0.8,4.6-2.3,5.6c-0.4,0.1-0.9,1.1-0.9,1.6
		c0.1,2.7-0.3,5.3-2.1,7.5c-0.2,0.2-0.2,0.5-0.2,0.8c-0.2,7.7-4,14.3-6.6,21.4c-2.3,6.4-4.4,12.9-6.6,19.3c-1.1,3-2.2,6-3.7,8.8
		c-0.6,1.2-2.3,1.9-3.6,2.6c-1.7,0.8-3.5,1.5-5.4,2c-1,0.2-2.2,0.1-3.2-0.2c-7.3-2.8-8.1-5.6-8.8-13c-0.2-1.9-0.2-3.9-0.7-5.7
		c-0.9-3.1-0.5-5.7,1.3-8.3c1.2-1.7,2.3-3.5,3.3-5.3c1.8-3.2,2.7-6.6,1.6-10.4c-0.7-2.5-1.1-5.3-0.7-7.8c0.6-3.2,1.7-6.5,3.4-9.3
		c0.9-1.5,3.4-2.2,5.2-3c2-0.9,4.3-1.3,6.2-2.3c4.4-2.1,6.7-6.1,8.9-10.2c1-1.9,1.6-3.7,3.6-4.9c0.9-0.5,1.2-2,1.7-3.1
		C1094.5,691.9,1094.6,689.8,1097.6,688.8z"/>
	<path class="st17" d="M345.8,168.2c1.4-0.9,3-1.8,4.8-2.9c-2.2-2.1,2.2-5.5-1.8-8c-4.1,1.1-8.8,2-13.2,3.6c-3,1.1-5.4,0.5-7.8-1.1
		c-2.7-1.8-2.7-4.3,0.2-5.9c2.7-1.5,5.5-2.7,8.2-4.1c3-1.4,6-3,9-4.3c1.6-0.7,3.4-1.2,5.2-1.5c2.7-0.4,5.6-0.4,8.3-0.9
		c2.5-0.5,4.5-0.1,6.7,1.1c1.4,0.7,3.5,0.7,5.2,0.4c5-0.9,6-0.5,8,4c0.5,1,1,1.9,1.2,2.1c3.4,0.5,6.2,0.9,9,1.2
		c0.9,0.1,1.9,0.2,2.7-0.2c3.8-1.4,4.5-1.2,7,2.8c1.9-1.6,3.6-3.3,5.6-4.7c1.7-1.2,3.5-2.2,5.8-0.9c3.2,1.7,3.8,2.7,2.5,6.2
		c-0.5,1.3-1.2,2.5-1.9,3.7c-0.5,1.1-1,2.1-1.7,3.4c1.7,1,3.1,1.6,4.2,2.5c0.7,0.6,1.6,1.8,1.5,2.6c-0.1,0.8-1.2,2-2,2.2
		c-2.7,0.4-4.7,1.6-6.8,3.4c-1.5,1.3-4.2,1.4-6.3,1.5c-2.5,0.1-5.3,0.2-7.4-0.9c-5.1-2.5-10-1.2-15-0.3c-3.4,0.6-6.8,1.1-10.2,1.7
		c-6.1,1-11.6-1.6-17.3-3C347.4,171.8,346.3,170.6,345.8,168.2z"/>
	<path class="st17" d="M532.8,120.6c-0.4-0.7-0.7-1.3-1.1-2.1c0.9-0.8,1.8-1.5,2.9-2.5c-4-1.6-8.8-0.6-12.2-4.9c1.4-0.4,2.6-1,3.9-1
		c8.4-0.1,16.4-2.6,24.6-3.9c6-1,12-1.9,18.2-1.3c6.5,0.6,13,1.2,19.5,1.4c4.3,0.1,8.6-0.2,12.9-0.9c6.8-1.1,13.3-0.3,19.8,1.4
		c0.3,0.1,0.6,0.6,1,1c-0.7,0.4-1.3,0.8-1.9,1c-5.3,1.3-10.6,2.3-15.8,3.7c-6.3,1.6-12.5,3.6-18.9,5.2c-4.7,1.2-9.4,2.3-14.2,3.1
		c-4.4,0.8-8.7,1.5-12.9,3.2c-3.6,1.4-7.5,2-11.1,3.3c-3.5,1.3-7.8,1.2-9.9,5.4c-0.3,0.7-1.6,1.1-2.5,1.2c-3.3,0.4-6.8,1.3-9.9,0.7
		c-5.1-0.9-10,0.1-14.9,0.3c-4.3,0.2-8.6,0-13.6,0c0.8-1.3,1-2.4,1.6-2.7c2-1,4-1.8,6.1-2.4c2.9-0.8,6-0.7,8.5-3
		c0.8-0.8,2.6-0.9,3.9-0.9C524.5,125.7,525.9,125.3,532.8,120.6z"/>
	<path class="st17" d="M1423.1,647.7c-1.5,0-2.6-0.2-3.7,0c-4.1,1-4,0.9-6.6-2.3c-1.6-1.9-3.5-3.6-5.2-5.4c-1.4-1.5-2.9-3-4.2-4.5
		c-2.3-2.7-4.7-5.5-6.9-8.3c-0.9-1.2-2-2.4-2.4-3.8c-1.3-4-3.4-7.6-5.8-11c-0.4-0.6-0.8-1.3-1.3-1.6c-1.8-0.8-2.1-2.4-2.5-4
		c-0.6-2.3-1.5-4.5-2.3-6.7c-0.7-2.1-1.7-3.7-4.2-4.1c-0.8-0.1-1.7-1.3-2.1-2.2c-1.1-3-2.9-5.3-5.3-7.3c-2.5-2-4.6-4.4-6.8-6.7
		c-1.6-1.6-2-3.6-1.2-5.7c6.4-1.5,13.4,1,16.9,6c0.5,0.8,1.2,1.6,2,2.1c4.1,3,7.4,6.7,10.5,10.7c1,1.4,2.1,2.5,4.1,2.6
		c2,0.1,3.3,1.1,4.4,2.8c0.6,0.9,1.4,1.8,2.4,2.3c3.2,1.5,5.6,3.8,7.9,6.5c1.2,1.4,1.9,2.7,1.7,4.4c-0.1,1-0.1,1.9-0.2,3.2
		c2.7,0.6,4.1,2.1,4.4,5c0.3,2.4,2,4.2,4.4,5.2c3.1,1.3,3.7,4.2,3.6,6.9C1424.4,636.7,1423.7,641.9,1423.1,647.7z"/>
	<path class="st17" d="M1539.4,394.6c0.4,0.7,1.1,1.3,1.1,2c0.1,2.1,0.1,4.2-0.2,6.2c-0.2,1.4-1,2.8-1.8,4c-1,1.3-2.4,1.5-3.6,0.1
		c-1.4-1.6-3.7-2.6-3-5.5c0.2-0.6-0.8-1.7-1.4-2.3c-0.6-0.6-1.5-0.8-2.1-1.3c-2.9-2-3.1-3.3-0.8-6.1c1-1.2,2.5-2.1,2.2-4.2
		c-0.1-0.6,0.6-1.5,1.1-2.1c0.9-1.1,2-2,2.8-3.1c2.4-3,4.9-5.1,9.3-4.6c2.7,0.3,5.6-0.8,8.6-1.2c0.8-2.7,1.7-5.7,2.8-9.2
		c1.3,0.6,2.2,1.1,3.4,1.7c3.3-2.2,5.4-5.1,5.4-9.7c-0.1-4.6-1.9-8.6-3.5-12.7c-1-2.6-0.8-4.3,1.3-5.3c0.9-0.5,2.7-0.6,3.4,0
		c4.6,3.8,8.7,8.1,9.6,14.5c0.3,2.2,2.3,4.2,0.7,6.6c2.6,2.9,1.9,6.8,3.2,10.2c0.8,2,0.9,4.3,1,6.5c0,1-1,2.1-1.5,3.2
		c-0.9-0.5-1.8-0.9-3.1-1.6c-0.7,1.4-1.4,3.4-3.9,2.7c-0.3-0.1-0.9,0.2-1.1,0.5c-1.5,3.1-3.9,1.8-6,1.3c-1.1,2.1-2.1,4-3.3,5.8
		c-1,1.5-2.4,2-3.8,0.6c-1.2-1.3-2.5-2.6-3.3-4.1c-0.8-1.5-1.8-2.8-3.5-2.4c-2.8,0.6-5.5,1.5-8.3,2.5c-0.4,0.1-0.5,1.2-0.8,1.8
		c0,0,0.2-0.2,0.2-0.2c-2.5,0.2-5.1,0.5-8.4,0.8c2.7,1.6,4.7,2.8,6.7,3.9C1539,394.2,1539.2,394.4,1539.4,394.6z"/>
	<path class="st17" d="M825.2,266.2c1.6,0.6,3.2,1.1,4.6,1.9c2,1.1,2.3,2.7,0.8,4.4c-1.1,1.2-2.4,2.3-3.9,3.6
		c0.8,0.4,1.5,0.7,2.1,1.1c0.6,0.5,1.4,1.2,1.4,1.7c-0.1,0.6-0.9,1.5-1.5,1.6c-2.7,0.6-5.4,1.1-8.2,1.5c-1.6,0.3-3.3,0.4-5,0.5
		c-5,0.3-9.9,0.5-14.5,2.8c-1.3,0.7-3.2,0.1-5.7,0.1c2.4-4.5,6.1-6.6,9.9-9.1c-1.3-0.1-2.6,0-3.9-0.3c-0.9-0.3-1.7-1.1-2.5-1.7
		c0.6-0.7,1.1-1.5,1.8-2c0.6-0.5,1.5-0.7,2.4-1.2c-0.8-1.1-1.5-2.1-2.2-3.1c1.2-1.5,2.6-2.2,4.5-2.5c4.1-0.6,4.6-2.4,2.2-5.9
		c-0.6-0.9-0.9-1.9-1.6-3.3c-4.7,1.1-7.2-2.6-10.2-6.1c0.4-0.9,0.9-2,1.4-3.2c-0.8-1.9-1.6-3.9-2.4-5.7c2.5-2.9,4.8-5.6,7.2-8.3
		c7.3-0.7,7.7-0.6,9.5,1.8c-1.1,0.7-2.3,1.5-4.3,2.8c1.9,0.2,3,0.4,4.1,0.4c4.4,0,4.4-0.1,5.7,4.4c-0.1,0.2-0.2,0.6-0.4,0.7
		c-3.9,3.2-3.9,3.2-0.7,7c0.6,0.7,1.5,1.5,1.7,2.4c0.6,2.6,1.7,4.6,4.2,5.7c0.6,0.3,1,1.3,1.2,2
		C823.9,262.2,824.5,264.2,825.2,266.2z"/>
	<path class="st17" d="M1511.8,617.9c0.7-1.1,1.4-2.1,1.7-2.7c4.2-0.2,7.8-0.5,11.3-0.7c1,2.2-0.2,3.1-1.6,3.9
		c-2.6,1.6-5.1,3.3-7.6,4.9c2.3,5,4.4,9.7,6.4,14c-0.3,3-0.6,5.7-0.9,8.6c-2.6-1.2-3.6-3-2.2-6.3c-1.4,0.6-1.8,0.9-2.3,1.1
		c-1.1,0.4-2.6,1.3-3.2,0.9c-0.9-0.6-1.5-2.1-1.8-3.4c-0.8-3.1-1.3-6.3-1.8-9.4c-2.2,0-2.9,0.9-2.2,2.4c2.1,4.5,0,8.7-0.6,13
		c-0.1,0.8-0.4,1.8-1,2.2c-1,0.6-2.3,1.1-3.3,0.9c-0.6-0.1-1.3-1.7-1.3-2.7c0-2.2,0.5-4.4,0.7-6.6c0.1-1.9-0.4-3.4-2.3-4.5
		c-2.3-1.5-2.7-4.7-0.9-6.9c1.2-1.5,1.6-3.1,1.9-4.9c0.6-3.8,1.5-7.5,2-11.4c0.4-2.8,2.1-5.8,5.4-6.9c0.6-0.2,1.2-0.8,1.5-1.3
		c1.1-1.6,2.5-1.4,4.1-1.1c4,0.7,7.9,1.3,11.9,1.9c2.2,0.3,3.7-1,4.8-2.8c0.8-1.4,1.5-2.9,3.4-2.3c1.3,0.4,1.4,2.4,0.3,4.8
		c-2.4,5.1-5.9,7-11.4,5.7c-4.2-1-8.3-0.3-12.5-0.1c-1.9,0.1-2.7,1.2-2.7,3C1507.4,614.4,1508.4,616.6,1511.8,617.9z"/>
	<path class="st17" d="M1733.5,876.2c1.3-0.2,2.7-0.5,4-0.7c0.5,3.4-0.8,6.6-4,9c-2.7,2.1-5.6,4.2-8.3,6.3c-0.4,0.3-1,0.6-1.3,1
		c-3.6,4.4-8.7,5.6-14,6.4c-1.9,0.3-3.2,1.1-4.6,2.4c-5.4,5.3-11.7,9.2-18.7,12.2c-0.4,0.2-0.8,0.2-1.2,0.3c-2,0.3-9.8-1.4-12.1-2.7
		c0.8-2.6,2.6-4.3,5-5.6c5-2.8,9.9-5.9,14.9-8.7c2.5-1.4,5.3-2.7,8.1-3.3c7.2-1.5,12.5-5.6,17.5-10.7c0.9-1,2.2-1.5,3.3-2.3
		c1.3-0.9,2.7-1.8,4-2.7c0.6-0.4,0.9-1,1.5-1.5C1730,873.3,1731.3,873.5,1733.5,876.2z"/>
	<path class="st17" d="M1746.3,871.2c-0.6-0.6-1.2-1.4-2-2.2c-1.7-1.8-1.7-2.9,0.4-4.2c0.9-0.6,2-1,3-1.4c5.2-2.5,7.2-7.1,7.7-12.4
		c0.4-3.6-0.1-7.2-0.4-10.8c-0.2-2.6,0.5-4.6,2.4-6.7c2,2.1,3.8,3.9,5.4,5.9c0.5,0.6,0.4,1.8,0.2,2.7c-0.4,2-1.1,3.9-1.7,6.2
		c0.6,0.1,1.2,0.3,1.8,0.4c1.7,0.2,1.9,1,1.7,2.6c-0.4,4,1.7,5.3,5.6,3.7c1.6-0.6,3.3-1.9,4.9,0.6c-0.5,0.9-0.8,2.4-1.7,3
		c-3.4,2.3-5.9,6-10.4,6.6c-1.9,0.2-3,1.5-3.9,3.3c-3.6,7-10.3,9.7-17.7,12.2C1741.1,876.3,1745.5,874.8,1746.3,871.2z"/>
	<path class="st17" d="M729.8,202c0.7-1.2,1.2-1.9,1.9-3.1c-0.9-0.5-1.8-1.1-2.9-1.7c1.2-1.5,2.1-2.5,3-3.6
		c-2.6-2.8-5.5,1.2-8.1-0.9c1.6-3.4,4.5-5.1,8-5.6c2.9-0.4,5.3,1.1,6.8,4.3c2-2,4-3.8,6.8-1.8c0.3,0.2,1.1,0,1.6-0.2
		c0.7-0.2,1.3-0.6,1.9-0.7c4.4-0.4,8.8-0.7,13.2-1.1c3.8-0.4,5,3,7.2,4.9c0.4,0.3,0.1,2.1-0.4,2.6c-1.5,1.3-3.2,2.7-5.1,3.4
		c-3.5,1.4-7.1,2.2-10.7,3.4c-1,0.3-2.1,0.8-3,1.4c-2.5,1.7-5,1.9-7.9,1.1c-2.9-0.8-6-1-9-1.4C732.2,202.7,731.2,202.4,729.8,202z"
		/>
	<path class="st17" d="M1450.9,651.3c4.5,2.7,9.5,2.9,14.7,2.4c1.2-0.1,2.6,0,2.9,1.6c0.4,1.6-0.5,2.3-2,2.5c-0.2,0-0.4,0.3-0.3,0.3
		c1.8,0.9,3.6,2,5.5,2.8c1,0.5,2,0.8,3.1,1c0.9,0.2,2.1,0,2.8,0.4c0.7,0.4,1.2,1.5,1.2,2.3c0,0.5-1,1.3-1.6,1.4
		c-3.4,0.4-6.8,1.1-10.2-0.3c-0.7-0.3-1.7-0.3-2.4-0.2c-6.4,1.3-12.3,0-18.1-2.8c-1.9-0.9-4.2-1.4-6.4-1.6
		c-4.8-0.6-9.6-1.1-13.7-4.2c-1.4-1-3.3-1.3-5.3-2c0.6-1.3,0.9-2.5,1.5-3.5c1.5-2.8,2.6-3.3,5.7-2.6c2.3,0.5,4.6,0.9,6.9,1.5
		c0.9,0.2,2.1,0.5,2.6,1.1c2.8,3.6,6.6,2.2,10,2.2C1448.7,653.8,1449.6,652.3,1450.9,651.3z"/>
	<path class="st17" d="M378.9,481.1c0.2-1.7,0.3-3.1,0.5-4.8c-0.9-0.5-2-1-3.1-1.6c-0.6-0.3-1.4-0.5-1.8-1
		c-3.9-4.2-8.6-6.5-14.4-6.8c-1.3-0.1-2.9-0.5-3.9-1.2c-2.7-2-5.1-1.5-7.7,0.1c-2.7,1.7-5.8,2.3-9.5,3.3c0.4-1.4,0.5-2.2,0.9-2.8
		c2.1-3,4.8-5.3,8.6-6c2.2-0.4,4.3-1.2,6.5-1.6c5.8-1,10.9,1.4,15.9,3.8c0.6,0.3,1.2,1.1,1.7,1c3.4-0.3,5.5,2,7.4,4
		c3.2,3.5,7.4,5.2,11.3,7.4c1.9,1.1,3.9,2.1,5.7,3.4c1.3,0.9,1.3,2,0,3c-2.1,1.6-4.7,2.6-7,1.1c-2.8-1.9-5.5-2.2-8.6-1.1
		C380.9,481.6,380.2,481.2,378.9,481.1z"/>
	<path class="st17" d="M1523.6,526.7c-1.2-0.6-2.5-1.1-3.6-1.8c-3.1-2-7.2-2-9.9-4.9c-0.4-0.4-1.6-0.1-2.4-0.1
		c-1.8,0.1-3.7,0.4-4.2-2.1c-0.1-0.4-1-1-1.6-1c-3-0.2-4.1-2.6-4.7-4.7c-0.7-2.3-1.2-5.6-0.1-7.2c2.6-3.6,1.2-7.2,1.4-10.8
		c0-0.1-0.1-0.3-0.1-0.4c-0.8-3.9,0.7-5.5,4.6-4.6c1.6,0.4,3.1,0.9,5.2,1.4c1,2.5,2.5,5.5,3.1,8.7c0.3,1.8-0.4,4.3-1.6,5.7
		c-2.9,3.5-1.5,6.8-0.4,10.2c0.4,1.4,1.5,1.8,3,1.6c1.5-0.2,3-0.2,4.5,0.1c5.3,0.8,6.6,4.9,7.5,9.2
		C1524.1,526.2,1523.8,526.5,1523.6,526.7z"/>
	<path class="st17" d="M1573.5,322.4c1.7,2.2,3.2,3.9,4.3,5.7c0.5,0.8,0.8,2.1,0.5,2.9c-0.2,0.6-1.4,1.1-2.3,1.2
		c-3.4,0.5-3.4,0.4-4.3,3.9c-0.1,0.4-0.3,0.8-0.5,1.1c-0.1,0.2-0.4,0.4-0.6,0.6c-3.9-0.2-7.1-3.4-11.3-3.4c1.3,5.7,1.1,6-2.9,6.1
		c-1.5-1.9-2.9-3.6-4.1-5.3c-0.5-0.7-0.8-1.7-0.8-2.6c-0.1-1.4,0.1-2.7,0.2-4.4c1.2-0.1,2.3-0.1,3.7-0.2c-0.8-4.8-3.5-8.5-5.9-12.7
		c3.4-0.3,5.9,1.3,8.5,2.4c2.7,1.1,5.3,2.5,7.9,3.8C1568.4,322.7,1570.9,323.7,1573.5,322.4z"/>
	<path class="st17" d="M777.4,267.4c-0.8-1.3-1.7-2.3-2.3-3.6c-1.3-2.8,0-5.1,3-5c2.8,0,4.9-0.6,5.7-3.6c0.2-0.6,1.1-1.2,1.8-1.5
		c3.3-1.5,6.6-1,9.7,0.5c2.9,1.4,3.3,5.3,0.7,7c-1.6,1.1-2,2.3-2.2,4.1c-0.2,2-0.9,4-1.8,5.9c-0.4,0.8-1.6,1.6-2.5,1.6
		c-3.1-0.1-5.6,1.2-8.1,2.8c-0.9,0.6-2,1-3,1.5c-1.9,1-3.1,0.3-4.2-1.3c-2.6-3.7-2.6-4.1,1.3-6.6
		C776.2,268.7,776.7,268.1,777.4,267.4z"/>
	<path class="st17" d="M1536.8,574.4c-7.6-2.3-9.7-3.7-10.9-11.9c-1.7-0.2-3.6-0.5-5.4-0.8c-1.3,1.1-2.7,2.2-5,4.1
		c-0.1-2.1-0.5-3.3-0.2-4.3c0.5-1.6,1.5-3.1,2.4-4.6c0.2-0.4,1.2-0.3,1.5-0.6c2.5-3.5,5.3-3.4,8.3-0.5c0.7-0.9,1.2-1.5,1.7-2.2
		c1.6-2.1,3-4.3,4.7-6.3c0.8-0.9,2.2-0.8,2.8,0.4c2.3,4.7,4.6,9.5,4.3,15c-0.1,1.4-0.5,2.4-2.2,2.4c-1.5,0.1-1.6,1.2-1.6,2.4
		C1537.1,569.7,1536.9,571.8,1536.8,574.4z"/>
	<path class="st17" d="M508.3,145.4c-4.1-0.6-7.7-1.1-11.3-1.5c-4.3-0.5-8.6-0.8-12.8-1.2c-1.2-0.1-2.5,0-3.7-0.3
		c-0.7-0.2-1.6-0.8-1.8-1.4c-0.1-0.5,0.6-1.5,1.1-1.8c1.4-0.7,2.3-1.6,3.2-3.1c2-3.6,7.2-4.2,10-1.2c1.5,1.5,2.9,2,4.8,1.9
		c6.2-0.3,12.5-0.6,18.7-0.8c1.7-0.1,3.4-0.2,5,0c1,0.1,2.6,0.8,2.7,1.4c0.1,1-0.4,2.5-1.2,3.2c-1.4,1.3-3.1,2.5-4.9,3
		C514.8,144.5,511.3,144.9,508.3,145.4z"/>
	<path class="st17" d="M401,132.7c3.3,1.6,6.2,2.9,8.9,4.5c2.6,1.6,4.3,0.7,6.2-1.1c2.9-2.9,3-2.9,7.9-2.5c0.4,0.9,0.8,1.9,1.1,2.9
		c2,0.3,3.9-1.6,5.8,0.4c-1.2,3.2-3.1,5.2-6.8,5.5c-7.1,0.5-14.1,1.2-21.1,1.5c-2.2,0.1-4.4-0.4-6.6-0.7c-3.7-0.5-7.4-0.9-11.1-1.5
		c-0.7-0.1-1.4-0.7-2.3-1.2C387.9,134.5,395.1,135,401,132.7z"/>
	<path class="st17" d="M1601.1,874.7c1.5,2.3,0.7,3.9-0.3,5.2c-2.5,3.3-4.8,7-7.9,9.6c-2.6,2.3-6.2,3.5-9.5,4.9
		c-1.7,0.7-3.1-0.2-3.7-1.8c-0.8-2.3-1.7-4.6-0.1-7.1c0.8-1.2,0.7-2.9,1.2-4.3c0.4-1.4,0.6-3,1.4-4.2c2.3-3.7,2.3-3.5,6.3-2.1
		c1.6,0.6,3.5,0.6,5.2,0.6C1596.1,875.3,1598.6,874.9,1601.1,874.7z"/>
	<path class="st17" d="M502.2,126.1c-5.1,0.2-6.6-2.5-7.4-4.9c-0.4-1.4-0.2-2.4,1.4-2.9c4.8-1.7,9.6-3.6,14.4-5.3
		c3.3-1.2,6.3,0.3,9.2,1.5c2.3,1,4.4,2.4,6.5,3.7c0.6,0.4,1.5,1.3,1.3,1.7c-0.2,0.8-1,1.6-1.8,1.9c-1,0.4-2.2,0.4-3.3,0.6
		c-4.5,0.8-9,1.7-13.4,2.6C506.8,125.4,504.5,125.7,502.2,126.1z"/>
	<path class="st17" d="M394.3,490.7c3.5-2.8,7.1-1.7,10.1-2.9c1.3-3.1-2.7-3.9-2.8-6.9c1.2-0.1,2.4-0.3,3.5-0.2
		c2.9,0.3,5.7,1.3,8.6,0c0.4-0.2,1.3-0.2,1.6,0.1c3.3,3,7.9,3.2,11.5,5.6c0.5,0.3,1.1,0.6,1.3,1c0.3,0.8,0.7,2,0.3,2.6
		c-0.3,0.6-1.8,1.4-2.3,1.2c-2.6-1.2-4.8-0.7-7.1,0.6c-0.7,0.4-1.9,0.1-2.9,0.2c-0.8,0.1-1.9,0-2.4,0.4c-2.6,2.1-5.5,1.4-8.4,0.9
		c-2.6-0.4-5.2-0.8-7.8-1.4C396.7,491.9,395.9,491.4,394.3,490.7z"/>
	<path class="st17" d="M433,161c-3-0.9-5.8-2.5-7.9-4.8c-1.3-1.4,0.1-4.1,2.1-4.4c0.8-0.1,1.7,0.1,2.5,0c1.4-0.2,2.7-0.5,3-2.3
		c0.4-2.6,2.2-3.6,4.7-3.7c3.2-0.1,6.4-0.5,9.6-0.5c1.1,0,2.2,0.8,3.2,1.2c-0.5,0.9-0.9,1.9-1.4,2.8c-0.4,0.9-0.8,1.9-1.3,2.8
		c-0.8,1.5-1.4,3.6-2.7,4.5C441.3,158.9,437.2,160,433,161z"/>
	<path class="st17" d="M1274.4,547.7c2.7-0.2,4.2,1.7,5.5,3.6c1.7,2.3,3.3,4.8,4.8,7.3c3.6,6,0.3,13.4-6.6,14.6
		c-1.7,0.3-2.6-0.6-3.1-2c-2.3-5.6-3.7-11.3-2-17.4C1273.5,551.8,1273.9,549.8,1274.4,547.7z"/>
	<path class="st17" d="M477.6,147.9c-4.6,2.3-8.2,6.7-14.3,6.3c-2.1-0.1-4.3,0.6-6.4,1.2c-1.9,0.5-3.7,1.2-6-0.1
		c0.5-1.3,0.8-3,1.7-4c3.8-3.9,7.8-7.5,14.1-5.7c1.8,0.5,3.9,0.3,5.8,0.5c1.6,0.2,3.2,0.4,4.8,0.6
		C477.4,147,477.5,147.4,477.6,147.9z"/>
	<path class="st17" d="M1496.1,466.5c-4.5-2-6.9-5.9-6.3-10.1c0.3-2.5,0.9-4.9,1.6-7.3c0.6-2.2,3.1-3.7,5.1-3.3
		c2.5,0.5,3.8,2.6,3.3,5.3c-0.7,3.9-1.4,7.9-2.3,11.8C1497.3,464.1,1496.6,465.2,1496.1,466.5z"/>
	<path class="st17" d="M868.2,341.5c-4.5-6.6-4.2-8,1.4-9.6c1.4,3,1.4,3.6-0.5,8.7c2.3,3.4,2.7,7.4,2.6,11.4c0,2.5-2.9,5.4-5.3,5.2
		c-0.8-0.1-1.9-1.3-2-2c-0.4-3.3-0.5-6.6-0.6-9.9c0-0.7,0.6-1.5,1.2-2C865.9,342.6,867,342.2,868.2,341.5z"/>
	<path class="st17" d="M367.9,136.3c-0.1-2.6,1.5-2.9,2.7-3.3c3.2-1,6.3-2.1,9.6-2.5c5.2-0.7,10.5-0.9,15.7-1.2
		c1.2-0.1,2.5,0.6,4.5,1.1c-1.4,1-2,1.7-2.7,1.8c-3,0.7-6,1.2-9,1.9c-2.7,0.6-5.4,1.1-8,2C376.5,137.4,372.3,136.7,367.9,136.3z"/>
	<path class="st17" d="M1667.2,646.5c3.6-0.3,7.1-0.6,10.7-0.8c0.8-0.1,2.1,0.2,2.4-0.2c1.9-2.7,6.1-3.7,5.7-7.9
		c4.1,0,5.3,1.4,3.5,4.5c-1.5,2.5-3.1,5.1-5.2,6.9c-4.1,3.5-9,3-13.9,1.8C1668.2,650.2,1667.6,649,1667.2,646.5z"/>
	<path class="st17" d="M1521.7,676.8c0.5-3.5,1.1-6.2,5.1-6.8c2.3-0.4,4.5-1.7,6.1-3.9c2.2-3.1,7.2-3.2,11.7-0.5
		c-1,0.9-1.8,1.8-2.8,2.3c-2,1-4.1,1.7-6,2.8c-2.6,1.5-5.2,3.1-7.5,5C1526.3,677.1,1524.5,677.8,1521.7,676.8z"/>
	<path class="st17" d="M1438,479.6c5.1,0,6.1,1.3,4.8,5.6c-0.8,2.6-1.2,5.5-4.9,6c-3.5,0.5-6.1-1.3-6.8-5.1
		c-0.5-2.9,1.5-5.7,4.7-6.3C1436.8,479.6,1437.8,479.7,1438,479.6z"/>
	<path class="st17" d="M465.2,134.8c-4.5,3.5-8.7,7.1-14.8,6c-1.3-0.2-3.1-1.4-3.3-2.4c-0.2-1.1,0.8-3.2,1.8-3.8
		c4.9-2.7,10.2-2.8,15.5-1.1C464.6,133.6,464.7,133.9,465.2,134.8z"/>
	<path class="st17" d="M1525,532.2c-0.3-1.1-0.5-2.1-0.9-3.6c2.4,0,4.5,0,6.8,0c0.8,1.8,1.5,3.6,2.3,5.4c0.9,2.2,0.7,4-2,4.7
		c0.5,2.5,2.8,4.7,0.5,7.1c-5-3.5-6.2-7.5-4.2-12.7C1526.6,532.8,1525.8,532.5,1525,532.2L1525,532.2z"/>
	<path class="st17" d="M1499.1,664c-0.1,3.5-0.4,4.1-2.7,3.8c-2-0.2-3.3,0.3-4.9,1.6c-2.2,1.8-4.9,0.9-6.9-1.3
		c-1.7-0.1-3.1-0.2-4.4-0.3c0.3-1.5,0.5-3.1,0.9-5.1c1.6,0.3,3.3,0.1,3.9,0.8c1.7,2.1,3.6,1.4,5.3,0.7
		C1493.1,663.3,1495.9,663.8,1499.1,664z"/>
	<path class="st17" d="M431.6,172.7c-4.1,3.8-11.5,4-18.1,0.3c4-2.3,7.6-4.9,12.1-4.5C428,168.7,430.4,170.1,431.6,172.7z"/>
	<path class="st17" d="M466.3,127.1c-2.6-0.6-4.8-0.9-6.9-1.5c-1-0.3-2.1-0.9-2.8-1.6c-1.4-1.6-0.7-3.6,1.4-4c0.9-0.2,2-0.3,2.9-0.1
		c3,0.8,6,1.6,8.9,2.7c1.9,0.7,2,2.4,0.3,3.3C468.9,126.6,467.4,126.8,466.3,127.1z"/>
	<path class="st17" d="M1539.4,394.6c-0.2-0.2-0.4-0.4-0.6-0.6c0.6-1.6,1.1-3.2,1.7-4.7c0,0-0.2,0.2-0.2,0.2
		c1.9-0.8,3.7-1.7,5.6-2.4c1.8-0.6,3.5,0,4.9,1.3c1.2,1.1,0.7,2.3,0.1,3.4c-0.3,0.6-1,1.2-1.7,1.5c-0.6,0.3-1.7,0.1-1.9,0.5
		C1545,397.4,1542.2,395.6,1539.4,394.6z"/>
	<path class="st17" d="M1517.8,540.8c1.3-1,2.5-2.1,3.9-3.1c0.8-0.6,1.8-0.9,2.8-1.4c1.4,4.7,0.2,8.9-3.6,13.3
		c-4.1-2.1-4.1-2.1-3.1-6.1c0.2-0.9,0.1-1.9,0.2-2.9C1518,540.6,1517.8,540.8,1517.8,540.8z"/>
	<path class="st17" d="M1549.2,608.6c-1.6-3-1-5.9-0.7-8.8c0.1-0.7,1.1-1.4,1.7-2c0.6,0.6,1.2,1.2,1.7,1.9c0.2,0.3,0.3,0.7,0.3,0.7
		c1.4-0.2,2.9-0.8,3.7-0.3c1,0.6,1.2,2.1,0.2,3.3c-0.3,0.4-0.7,0.9-1.1,1.2C1553.1,606,1551.2,607.2,1549.2,608.6z"/>
	<path class="st17" d="M1552,628.4c3.8,0.4,7.2,0.8,10.6,1.2c0.4,0,0.8,0.2,1.2,0.4c1.4,0.8,3.5,1.4,2.7,3.5c-0.8,2-2.6,0.8-3.9,0.3
		c-2.5-0.9-4.9-1.6-7.6-1.2C1552.5,633,1552.1,632.3,1552,628.4z"/>
	<path class="st17" d="M1827.3,722.5c0.6,1.6,1.1,2.8,1.5,4.1c0.7,2.2,0.1,3.1-2.2,3.4c-0.3,0-0.6,0-0.8,0c-3.4,0.2-5.8-1.5-5.7-4
		c0.1-2.4,2-3.8,5.3-3.8C1826,722.3,1826.5,722.4,1827.3,722.5z"/>
	<path class="st17" d="M1742.7,741.9c4.8,2.7,8.4,6.7,12.2,10.5c0.2,0.2,0.4,0.5,0.4,0.7c-0.1,0.8-0.3,1.5-0.5,2.7
		C1748.7,752.6,1744.9,748,1742.7,741.9z"/>
	<path class="st17" d="M539.3,944.6c-1.4,1.2-2.3,2-3.3,2.7c-2.4,1.7-3.2,1.5-5.1-1.3c-1.1,0.5-2.2,1-3.3,1.5c-0.2,0.1-0.5,0-0.9,0
		c-1.3-1.4-1.5-2.9-0.1-4.3c1.2-1.2,3.1-0.6,4.9,1.4C533.8,941.3,536.3,943.3,539.3,944.6z"/>
	<path class="st17" d="M1516.9,666.3c-0.4,0.5-0.7,1.5-1.1,1.5c-4.8,0.6-9.5,0.6-14.5-0.1c0.3-2.8,1.8-4,3.9-3.9
		c3.3,0.1,6.6,0.6,9.8,1.1c0.7,0.1,1.3,0.9,2,1.4L1516.9,666.3z"/>
	<path class="st17" d="M462.1,140.9c3.2-2.8,6.7-2.6,10.2-2.3c1.3,4,0.5,5.4-3.2,5.7C466.4,144.5,464.9,143.8,462.1,140.9z"/>
	<path class="st17" d="M1501.3,521.1c5.3,0.6,7.4,2.3,8,6.1c0.2,1.3,0.2,2.8-1.2,3.1c-0.8,0.2-2.1-0.3-2.9-0.9
		C1503.2,527.9,1502,525,1501.3,521.1z"/>
	<path class="st17" d="M483.4,129.7c-2.2-1.1-4.3-2.2-6.4-3.4c-0.4-0.3-0.7-1.3-0.6-1.8c0.2-0.5,1-1.1,1.5-1.1
		c2.6,0.3,5.2,0.8,7.7,1.4c1.2,0.3,2.3,1.2,1.9,2.7c-0.4,1.5-1.7,1.6-3,1.6c-0.3,0-0.6,0-0.8,0C483.6,129.4,483.5,129.6,483.4,129.7
		z"/>
	<path class="st17" d="M1005.4,378.4c-1.4,2.1-2.3,3.3-3.1,4.5c-1.4,2.2-3.6,2.9-6,2.9c-0.9,0-1.8-0.9-2.7-1.4c0.6-1,0.9-2.6,1.7-3
		C998.4,380.3,1001.6,379.5,1005.4,378.4z"/>
	<path class="st17" d="M482.5,133.3c-3.8,2.4-6.9,3.1-10.2,1.7c-0.9-0.4-1.4-1.5-2.1-2.3c0.8-0.6,1.6-1.6,2.5-1.7
		C475.9,130.3,478.9,131.3,482.5,133.3z"/>
	<path class="st17" d="M1500.1,670c2.4,0.9,4.4,1.4,6.1,2.3c0.7,0.4,1.3,1.7,1.4,2.7c0.1,1.7-1.1,2.4-2.8,1.6
		c-1.7-0.8-3.5-1.4-5.2-2.3c-1-0.5-1.7-1.5-2.6-2.3C1498.1,671.4,1499.1,670.7,1500.1,670z"/>
	<path class="st17" d="M429.5,126.8c-3.8,4.8-8.4,2.5-12.8,2C418.1,125.4,424.8,124.4,429.5,126.8z"/>
	<path class="st17" d="M1518,540.6c-0.2,0.1-0.5,0.3-0.7,0.4c-0.9,0.4-1.9,0.8-2.8,1.2c-0.4-1-1.1-1.9-1.2-2.9
		c-0.2-1.8-0.1-3.6-0.1-6.2c2.5,1.3,4.3,2.3,6.3,3.3c-0.6,1.6-1.1,3-1.7,4.4C1517.8,540.8,1518,540.6,1518,540.6z"/>
	<path class="st17" d="M1549.3,631.5c-0.1,3.7-0.4,4-3.2,4c-1.1,0-2.2-0.2-3.3-0.3c-1.3-0.1-2.5-0.6-2.5-2.1c0-1.4,1.5-2.8,3.1-2.6
		C1545.4,630.6,1547.3,631.2,1549.3,631.5z"/>
	<path class="st17" d="M443.4,138.5c-1.2-0.2-1.9-0.3-2.6-0.4c-2.5-0.6-4-2.3-3.4-3.8c0.5-1.1,3.1-2,4.8-1.4
		c0.8,0.3,1.7,0.5,2.2,1.1c0.6,0.8,1.2,2,1,2.9C445.1,137.6,443.9,138.1,443.4,138.5z"/>
	<path class="st17" d="M1703.5,644c2.2,2.5,4.4,4.9,6.4,7.5c0.4,0.6,0.2,1.7,0.2,2.5c-0.9-0.1-2.1,0.2-2.6-0.2
		c-2.9-2.5-4-5.9-4.8-9.4C1703,644.3,1703.2,644.1,1703.5,644z"/>
	<path class="st17" d="M438.8,493.9c-1.8-0.1-3.2-0.4-3.4-2.4c-0.2-1.6,1.3-2.6,3.5-2.5c0.3,0,0.6,0,0.8,0.1c1.3,0.7,3.9,0,3.7,2.4
		c-0.2,2-2.4,1.8-3.9,2.3C439.2,493.9,438.9,493.9,438.8,493.9z"/>
	<path class="st17" d="M1837.3,716.1c-0.7,3.7-3.5,5.6-6.5,4.5c-1.7-0.6-2-2.4-0.4-3.5C1832.3,715.6,1834.6,715.2,1837.3,716.1z"/>
	<path class="st17" d="M1693.7,640.9c-1.3-5-4.7-8.2-11.4-11.3c2-0.7,3.9-0.4,5.7,1.1c1.7,1.4,3.3,2.9,4.9,4.5
		C1694.6,636.8,1694.2,638.9,1693.7,640.9z"/>
	<path class="st17" d="M1541.5,621.8c-0.2,1.6-0.4,3.2-0.6,5.1c-1.9-1-3.5-1.8-5.2-2.7c-1.4-0.7-3.6,0-4.4-2.4
		C1534.9,621.8,1537.9,621.8,1541.5,621.8z"/>
	<path class="st17" d="M947.2,379.1c4.2,0.7,8.5,1.4,13.2,2.2c-3.8,1.9-9.5,1.3-13.3-1.2C947.1,379.8,947.1,379.5,947.2,379.1z"/>
	<path class="st17" d="M1731,669.9c1.1-0.1,2.3-0.2,3.8-0.3c0.4,1.9,0.7,3.7,1,5.5C1730.5,674.8,1730.2,674.5,1731,669.9z"/>
	<path class="st17" d="M1768.9,716.9c-2.7-3-6-5.9-4.2-10.8c0.4,0.1,0.8,0.1,0.8,0.1C1765.5,710.1,1767.8,713.2,1768.9,716.9z"/>
	<path class="st17" d="M1587.5,646.1c2.2,4.5,1.8,5.9-2.3,7.6C1584.9,650.9,1585.3,648.5,1587.5,646.1z"/>
	<path class="st17" d="M1549.4,611.6c1.2,1.7,3.8,2.3,1.9,4.6c-0.9,1.1-3.3,0.9-4-0.4C1545.9,613.7,1547.7,612.9,1549.4,611.6z"/>
	<path class="st17" d="M379.7,447.3c2.8,2.2,3,3.3,1.6,6.8C377.7,451.4,377.4,450,379.7,447.3z"/>
	<path class="st17" d="M1525,532.2c-1.5,0-2.9,0-4.4,0c-0.9-2.1-1.8-4-2.6-5.9c0.2-0.1,0.3-0.2,0.5-0.3
		C1520.6,528.1,1522.8,530.1,1525,532.2C1525,532.2,1525,532.2,1525,532.2z"/>
	<path class="st17" d="M1724.1,660.4c3.4-0.5,5.5,1.3,7.7,4c-2.3,0.2-3.1-1.3-4.3-2C1726.3,661.9,1725.2,661.1,1724.1,660.4z"/>
	<path class="st17" d="M838.6,352.5c-1.4,0.8-2.3,1.6-3.1,1.6c-1.2,0.1-2.4-0.7-1.9-2c0.3-0.8,1.6-1.5,2.5-1.7
		C836.6,350.4,837.4,351.5,838.6,352.5z"/>
	<path class="st17" d="M1739,671.9c-1.9-1.9-3.2-4.1-3.3-7.7C1737.9,666.8,1738.5,669.3,1739,671.9z"/>
	<path class="st17" d="M1773.1,708.9c1,2.6,0.2,4.4-1.1,6.1C1772.2,713.1,1769.6,710.8,1773.1,708.9z"/>
	<path class="st17" d="M1554.7,592.4c1.1,2.5,0.4,3.9-1.1,5.4C1551.7,595.4,1553.7,594.4,1554.7,592.4z"/>
	<path class="st17" d="M1739,677.8c2.3-0.8,3.6-0.2,3.9,2.4C1740.6,680.9,1739.6,679.9,1739,677.8z"/>
	<path class="st17" d="M1595.7,620.4c1.5,0.3,3.1,0.6,5.3,1c-2.5,2-3.9,0.5-5.5,0.2C1595.6,621.2,1595.7,620.8,1595.7,620.4z"/>
	<path class="st17" d="M1716.8,657.1c-1.3-0.8-2.5-1.7-4.3-2.9c2.8-0.5,4.1,0.3,4.9,2C1717.2,656.4,1717,656.8,1716.8,657.1z"/>
	<path class="st17" d="M1718.5,662.3c1.4,1,2.9,2,4.3,3.1c-2.5,0.6-3.6-1-5-2.2C1718.1,662.9,1718.3,662.6,1718.5,662.3z"/>
	<path class="st17" d="M1549.2,618.8c0.8,0.5,1.7,1,2.6,1.6C1549.9,621.7,1549.9,621.7,1549.2,618.8z"/>
	<path class="st17" d="M1771.8,725c-0.1,0.7-0.2,1.5-0.3,2.2c-0.3,0-0.6,0-0.9-0.1c0-0.8,0.1-1.6,0.1-2.4
		C1771.1,724.8,1771.4,724.9,1771.8,725z"/>
	<path class="st17" d="M1525.4,665.3c-1.4,0.4-2.1,0.6-3.1,0.9C1522.7,664,1523.7,664.7,1525.4,665.3z"/>
	<path class="st17" d="M1563.7,621.7c-0.4,0.6-0.7,1.1-1.2,1.6c0,0-0.6-0.4-0.9-0.6c0.4-0.6,0.8-1.1,1.2-1.7
		C1563.1,621.3,1563.4,621.5,1563.7,621.7z"/>
	<path class="st17" d="M1772.1,720.7c-0.4-0.6-0.7-1.3-1.1-1.9c0.2-0.2,0.5-0.3,0.7-0.5c0.4,0.6,0.8,1.1,1.2,1.7
		C1772.7,720.2,1772.4,720.5,1772.1,720.7z"/>
	<path class="st17" d="M1713.6,663.6c-0.2-0.5-0.4-1.1-0.6-1.6c0.3-0.1,0.6-0.2,1-0.3c0.1,0.6,0.2,1.1,0.3,1.7
		C1714,663.5,1713.8,663.5,1713.6,663.6z"/>
	<path class="st17" d="M1517,666.4c0.9-1.3,0.9-1.3,2.3-0.5c-0.8,0.1-1.6,0.2-2.4,0.3C1516.9,666.3,1517,666.4,1517,666.4z"/>
	<path class="st17" d="M1563.8,212c-0.5-0.6-1-1.3-1.5-1.9c0.3-0.2,0.8-0.6,0.9-0.6c0.6,0.5,1.1,1.2,1.6,1.8
		C1564.4,211.6,1564.1,211.8,1563.8,212z"/>
	<path class="st17" d="M727.5,164.8c0.7-1.5,1.1-2.3,1.7-3.8c1.2,1.4,2.1,2.3,3.7,4.1C730.6,165,729.4,164.9,727.5,164.8z"/>
	<path class="st17" d="M1540.5,389.2c-0.6,1.6-1.1,3.2-1.7,4.7c-2-1.2-4-2.3-6.7-3.9C1535.4,389.7,1538,389.5,1540.5,389.2z"/>
</g>
</svg>
