<?xml version="1.0" encoding="utf-8"?>
<!-- Generator: Adobe Illustrator 20.1.0, SVG Export Plug-In . SVG Version: 6.00 Build 0)  -->
<svg version="1.1" id="Capa_1" xmlns="http://www.w3.org/2000/svg" xmlns:xlink="http://www.w3.org/1999/xlink" x="0px" y="0px"
	 viewBox="0 0 904 836" style="enable-background:new 0 0 904 836;" xml:space="preserve">
<style type="text/css">
	.st0{fill:#FFFDFF;}
	.st1{fill:#021D3B;}
	.st2{fill:#FE6603;}
	.st3{fill:#FFFFFF;}
	.st4{fill:#282828;}
	.st5{fill:#F19B2C;}
	.st6{fill:#2D3E4E;}
	.st7{opacity:0.5;}
	.st8{fill:#3081B8;}
	.st9{fill:none;stroke:#282828;stroke-width:10;stroke-miterlimit:10;}
	.st10{opacity:0.15;fill:#232323;}
	.st11{opacity:0.2;fill:#232323;}
</style>
<g>
	<polyline class="st10" points="351.5,620.5 626.8,789.8 724.2,696.9 773.2,515.4 432.1,304.9 	"/>
	<polyline class="st10" points="441.7,242 809,463 815.5,435.7 836.5,357.6 496.4,134.7 	"/>
	<g>
		<path class="st6" d="M304.9,359.4c1.1-4.4,2.3-8.7,3.4-13.1c1.2-4.6,2.3-9.1,3.4-13.7c0.4-1.7,1.4-2.8,2.9-3.3
			c17.8-6.8,35.3-14.2,53.7-19.3c16.2-4.5,32.7-7.2,49.6-6.5c15.7,0.6,30.8,4.2,44.4,12.3c15.8,9.4,25.1,23.6,29.3,41.3
			c2.1,8.9,2.1,18,1.4,27c-1.7,20.5-6.6,40.4-12.3,60.1c-9.9,34.6-19.1,69.5-27.7,104.5c-2.3,9.2-3.4,18.5-2.3,28
			c0.5,4.9,1.5,9.6,3.8,14c3.2,6.3,8.7,9.5,15.3,11.1c9.5,2.3,19.2,2.4,28.9,1.1c9.8-1.4,19.3-4.1,28.6-7.6c0.7-0.3,1.5-0.4,2.6-0.7
			c-0.7,2.8-1.3,5.3-1.9,7.8c-1.5,6.3-3.1,12.5-4.6,18.8c-0.5,1.8-1.5,3.3-3.3,3.9c-15.1,5.7-30.1,11.6-45.3,17
			c-11.4,4.1-23.3,6.9-35.4,8.4c-3,0.4-6,0.5-9,0.8c-0.3,0-0.6,0.2-0.8,0.2c-3.9,0-7.8,0-11.7,0c-0.4-0.1-0.9-0.2-1.3-0.3
			c-14.8-0.9-28.8-4.6-41.9-11.5c-17.7-9.3-29.2-23.4-33.2-43.3c-2.3-11.3-1.6-22.6-0.4-34c1.5-13.5,4.5-26.7,8.1-39.8
			c10.1-37.4,20.2-74.9,30.4-112.3c3.5-12.9,4.8-25.9,2.3-39.2c-1.9-10.1-7.7-16.5-17.8-18.8c-9.3-2.1-18.8-2.3-28.2-1
			c-8,1.1-15.5,3.6-23.1,6.1c-2.6,0.8-5.2,1.6-7.7,2.4C304.9,359.8,304.9,359.6,304.9,359.4z"/>
		<path class="st6" d="M481.2,125.9c3.1,0.8,6.1,1.5,9.2,2.4c25,7.4,40.6,23.7,45.7,49.3c3,15.3-0.9,29.5-9.3,42.4
			c-10.1,15.5-24.7,24-42.7,27c-11.2,1.9-22.2,1.7-33.2-1.5c-20.8-6.1-38.8-24.4-43.5-44.7c-4.7-20.4,0.7-38.3,14.6-53.7
			c8.4-9.3,19.1-14.9,31.2-18.2c3.1-0.9,6.2-2,9.3-3.1C468.7,125.9,475,125.9,481.2,125.9z"/>
	</g>
</g>
</svg>
